G04 #@! TF.GenerationSoftware,KiCad,Pcbnew,(5.1.5-0-10_14)*
G04 #@! TF.CreationDate,2020-04-01T16:07:59-07:00*
G04 #@! TF.ProjectId,raptor,72617074-6f72-42e6-9b69-6361645f7063,rev?*
G04 #@! TF.SameCoordinates,Original*
G04 #@! TF.FileFunction,Paste,Bot*
G04 #@! TF.FilePolarity,Positive*
%FSLAX46Y46*%
G04 Gerber Fmt 4.6, Leading zero omitted, Abs format (unit mm)*
G04 Created by KiCad (PCBNEW (5.1.5-0-10_14)) date 2020-04-01 16:07:59*
%MOMM*%
%LPD*%
G04 APERTURE LIST*
%ADD10R,1.168400X0.355600*%
%ADD11C,0.100000*%
%ADD12R,0.200000X0.800000*%
%ADD13R,0.800000X0.200000*%
%ADD14R,1.900000X0.400000*%
%ADD15R,1.060000X0.650000*%
G04 APERTURE END LIST*
D10*
X148681400Y-131460400D03*
X148681400Y-130139600D03*
X146598600Y-130139600D03*
X146598600Y-130800000D03*
X146598600Y-131460400D03*
D11*
G36*
X148407691Y-132266053D02*
G01*
X148428926Y-132269203D01*
X148449750Y-132274419D01*
X148469962Y-132281651D01*
X148489368Y-132290830D01*
X148507781Y-132301866D01*
X148525024Y-132314654D01*
X148540930Y-132329070D01*
X148555346Y-132344976D01*
X148568134Y-132362219D01*
X148579170Y-132380632D01*
X148588349Y-132400038D01*
X148595581Y-132420250D01*
X148600797Y-132441074D01*
X148603947Y-132462309D01*
X148605000Y-132483750D01*
X148605000Y-132996250D01*
X148603947Y-133017691D01*
X148600797Y-133038926D01*
X148595581Y-133059750D01*
X148588349Y-133079962D01*
X148579170Y-133099368D01*
X148568134Y-133117781D01*
X148555346Y-133135024D01*
X148540930Y-133150930D01*
X148525024Y-133165346D01*
X148507781Y-133178134D01*
X148489368Y-133189170D01*
X148469962Y-133198349D01*
X148449750Y-133205581D01*
X148428926Y-133210797D01*
X148407691Y-133213947D01*
X148386250Y-133215000D01*
X147948750Y-133215000D01*
X147927309Y-133213947D01*
X147906074Y-133210797D01*
X147885250Y-133205581D01*
X147865038Y-133198349D01*
X147845632Y-133189170D01*
X147827219Y-133178134D01*
X147809976Y-133165346D01*
X147794070Y-133150930D01*
X147779654Y-133135024D01*
X147766866Y-133117781D01*
X147755830Y-133099368D01*
X147746651Y-133079962D01*
X147739419Y-133059750D01*
X147734203Y-133038926D01*
X147731053Y-133017691D01*
X147730000Y-132996250D01*
X147730000Y-132483750D01*
X147731053Y-132462309D01*
X147734203Y-132441074D01*
X147739419Y-132420250D01*
X147746651Y-132400038D01*
X147755830Y-132380632D01*
X147766866Y-132362219D01*
X147779654Y-132344976D01*
X147794070Y-132329070D01*
X147809976Y-132314654D01*
X147827219Y-132301866D01*
X147845632Y-132290830D01*
X147865038Y-132281651D01*
X147885250Y-132274419D01*
X147906074Y-132269203D01*
X147927309Y-132266053D01*
X147948750Y-132265000D01*
X148386250Y-132265000D01*
X148407691Y-132266053D01*
G37*
G36*
X146832691Y-132266053D02*
G01*
X146853926Y-132269203D01*
X146874750Y-132274419D01*
X146894962Y-132281651D01*
X146914368Y-132290830D01*
X146932781Y-132301866D01*
X146950024Y-132314654D01*
X146965930Y-132329070D01*
X146980346Y-132344976D01*
X146993134Y-132362219D01*
X147004170Y-132380632D01*
X147013349Y-132400038D01*
X147020581Y-132420250D01*
X147025797Y-132441074D01*
X147028947Y-132462309D01*
X147030000Y-132483750D01*
X147030000Y-132996250D01*
X147028947Y-133017691D01*
X147025797Y-133038926D01*
X147020581Y-133059750D01*
X147013349Y-133079962D01*
X147004170Y-133099368D01*
X146993134Y-133117781D01*
X146980346Y-133135024D01*
X146965930Y-133150930D01*
X146950024Y-133165346D01*
X146932781Y-133178134D01*
X146914368Y-133189170D01*
X146894962Y-133198349D01*
X146874750Y-133205581D01*
X146853926Y-133210797D01*
X146832691Y-133213947D01*
X146811250Y-133215000D01*
X146373750Y-133215000D01*
X146352309Y-133213947D01*
X146331074Y-133210797D01*
X146310250Y-133205581D01*
X146290038Y-133198349D01*
X146270632Y-133189170D01*
X146252219Y-133178134D01*
X146234976Y-133165346D01*
X146219070Y-133150930D01*
X146204654Y-133135024D01*
X146191866Y-133117781D01*
X146180830Y-133099368D01*
X146171651Y-133079962D01*
X146164419Y-133059750D01*
X146159203Y-133038926D01*
X146156053Y-133017691D01*
X146155000Y-132996250D01*
X146155000Y-132483750D01*
X146156053Y-132462309D01*
X146159203Y-132441074D01*
X146164419Y-132420250D01*
X146171651Y-132400038D01*
X146180830Y-132380632D01*
X146191866Y-132362219D01*
X146204654Y-132344976D01*
X146219070Y-132329070D01*
X146234976Y-132314654D01*
X146252219Y-132301866D01*
X146270632Y-132290830D01*
X146290038Y-132281651D01*
X146310250Y-132274419D01*
X146331074Y-132269203D01*
X146352309Y-132266053D01*
X146373750Y-132265000D01*
X146811250Y-132265000D01*
X146832691Y-132266053D01*
G37*
G36*
X139215691Y-137765053D02*
G01*
X139236926Y-137768203D01*
X139257750Y-137773419D01*
X139277962Y-137780651D01*
X139297368Y-137789830D01*
X139315781Y-137800866D01*
X139333024Y-137813654D01*
X139348930Y-137828070D01*
X139363346Y-137843976D01*
X139376134Y-137861219D01*
X139387170Y-137879632D01*
X139396349Y-137899038D01*
X139403581Y-137919250D01*
X139408797Y-137940074D01*
X139411947Y-137961309D01*
X139413000Y-137982750D01*
X139413000Y-138420250D01*
X139411947Y-138441691D01*
X139408797Y-138462926D01*
X139403581Y-138483750D01*
X139396349Y-138503962D01*
X139387170Y-138523368D01*
X139376134Y-138541781D01*
X139363346Y-138559024D01*
X139348930Y-138574930D01*
X139333024Y-138589346D01*
X139315781Y-138602134D01*
X139297368Y-138613170D01*
X139277962Y-138622349D01*
X139257750Y-138629581D01*
X139236926Y-138634797D01*
X139215691Y-138637947D01*
X139194250Y-138639000D01*
X138681750Y-138639000D01*
X138660309Y-138637947D01*
X138639074Y-138634797D01*
X138618250Y-138629581D01*
X138598038Y-138622349D01*
X138578632Y-138613170D01*
X138560219Y-138602134D01*
X138542976Y-138589346D01*
X138527070Y-138574930D01*
X138512654Y-138559024D01*
X138499866Y-138541781D01*
X138488830Y-138523368D01*
X138479651Y-138503962D01*
X138472419Y-138483750D01*
X138467203Y-138462926D01*
X138464053Y-138441691D01*
X138463000Y-138420250D01*
X138463000Y-137982750D01*
X138464053Y-137961309D01*
X138467203Y-137940074D01*
X138472419Y-137919250D01*
X138479651Y-137899038D01*
X138488830Y-137879632D01*
X138499866Y-137861219D01*
X138512654Y-137843976D01*
X138527070Y-137828070D01*
X138542976Y-137813654D01*
X138560219Y-137800866D01*
X138578632Y-137789830D01*
X138598038Y-137780651D01*
X138618250Y-137773419D01*
X138639074Y-137768203D01*
X138660309Y-137765053D01*
X138681750Y-137764000D01*
X139194250Y-137764000D01*
X139215691Y-137765053D01*
G37*
G36*
X139215691Y-136190053D02*
G01*
X139236926Y-136193203D01*
X139257750Y-136198419D01*
X139277962Y-136205651D01*
X139297368Y-136214830D01*
X139315781Y-136225866D01*
X139333024Y-136238654D01*
X139348930Y-136253070D01*
X139363346Y-136268976D01*
X139376134Y-136286219D01*
X139387170Y-136304632D01*
X139396349Y-136324038D01*
X139403581Y-136344250D01*
X139408797Y-136365074D01*
X139411947Y-136386309D01*
X139413000Y-136407750D01*
X139413000Y-136845250D01*
X139411947Y-136866691D01*
X139408797Y-136887926D01*
X139403581Y-136908750D01*
X139396349Y-136928962D01*
X139387170Y-136948368D01*
X139376134Y-136966781D01*
X139363346Y-136984024D01*
X139348930Y-136999930D01*
X139333024Y-137014346D01*
X139315781Y-137027134D01*
X139297368Y-137038170D01*
X139277962Y-137047349D01*
X139257750Y-137054581D01*
X139236926Y-137059797D01*
X139215691Y-137062947D01*
X139194250Y-137064000D01*
X138681750Y-137064000D01*
X138660309Y-137062947D01*
X138639074Y-137059797D01*
X138618250Y-137054581D01*
X138598038Y-137047349D01*
X138578632Y-137038170D01*
X138560219Y-137027134D01*
X138542976Y-137014346D01*
X138527070Y-136999930D01*
X138512654Y-136984024D01*
X138499866Y-136966781D01*
X138488830Y-136948368D01*
X138479651Y-136928962D01*
X138472419Y-136908750D01*
X138467203Y-136887926D01*
X138464053Y-136866691D01*
X138463000Y-136845250D01*
X138463000Y-136407750D01*
X138464053Y-136386309D01*
X138467203Y-136365074D01*
X138472419Y-136344250D01*
X138479651Y-136324038D01*
X138488830Y-136304632D01*
X138499866Y-136286219D01*
X138512654Y-136268976D01*
X138527070Y-136253070D01*
X138542976Y-136238654D01*
X138560219Y-136225866D01*
X138578632Y-136214830D01*
X138598038Y-136205651D01*
X138618250Y-136198419D01*
X138639074Y-136193203D01*
X138660309Y-136190053D01*
X138681750Y-136189000D01*
X139194250Y-136189000D01*
X139215691Y-136190053D01*
G37*
G36*
X153822691Y-93106053D02*
G01*
X153843926Y-93109203D01*
X153864750Y-93114419D01*
X153884962Y-93121651D01*
X153904368Y-93130830D01*
X153922781Y-93141866D01*
X153940024Y-93154654D01*
X153955930Y-93169070D01*
X153970346Y-93184976D01*
X153983134Y-93202219D01*
X153994170Y-93220632D01*
X154003349Y-93240038D01*
X154010581Y-93260250D01*
X154015797Y-93281074D01*
X154018947Y-93302309D01*
X154020000Y-93323750D01*
X154020000Y-93836250D01*
X154018947Y-93857691D01*
X154015797Y-93878926D01*
X154010581Y-93899750D01*
X154003349Y-93919962D01*
X153994170Y-93939368D01*
X153983134Y-93957781D01*
X153970346Y-93975024D01*
X153955930Y-93990930D01*
X153940024Y-94005346D01*
X153922781Y-94018134D01*
X153904368Y-94029170D01*
X153884962Y-94038349D01*
X153864750Y-94045581D01*
X153843926Y-94050797D01*
X153822691Y-94053947D01*
X153801250Y-94055000D01*
X153363750Y-94055000D01*
X153342309Y-94053947D01*
X153321074Y-94050797D01*
X153300250Y-94045581D01*
X153280038Y-94038349D01*
X153260632Y-94029170D01*
X153242219Y-94018134D01*
X153224976Y-94005346D01*
X153209070Y-93990930D01*
X153194654Y-93975024D01*
X153181866Y-93957781D01*
X153170830Y-93939368D01*
X153161651Y-93919962D01*
X153154419Y-93899750D01*
X153149203Y-93878926D01*
X153146053Y-93857691D01*
X153145000Y-93836250D01*
X153145000Y-93323750D01*
X153146053Y-93302309D01*
X153149203Y-93281074D01*
X153154419Y-93260250D01*
X153161651Y-93240038D01*
X153170830Y-93220632D01*
X153181866Y-93202219D01*
X153194654Y-93184976D01*
X153209070Y-93169070D01*
X153224976Y-93154654D01*
X153242219Y-93141866D01*
X153260632Y-93130830D01*
X153280038Y-93121651D01*
X153300250Y-93114419D01*
X153321074Y-93109203D01*
X153342309Y-93106053D01*
X153363750Y-93105000D01*
X153801250Y-93105000D01*
X153822691Y-93106053D01*
G37*
G36*
X155397691Y-93106053D02*
G01*
X155418926Y-93109203D01*
X155439750Y-93114419D01*
X155459962Y-93121651D01*
X155479368Y-93130830D01*
X155497781Y-93141866D01*
X155515024Y-93154654D01*
X155530930Y-93169070D01*
X155545346Y-93184976D01*
X155558134Y-93202219D01*
X155569170Y-93220632D01*
X155578349Y-93240038D01*
X155585581Y-93260250D01*
X155590797Y-93281074D01*
X155593947Y-93302309D01*
X155595000Y-93323750D01*
X155595000Y-93836250D01*
X155593947Y-93857691D01*
X155590797Y-93878926D01*
X155585581Y-93899750D01*
X155578349Y-93919962D01*
X155569170Y-93939368D01*
X155558134Y-93957781D01*
X155545346Y-93975024D01*
X155530930Y-93990930D01*
X155515024Y-94005346D01*
X155497781Y-94018134D01*
X155479368Y-94029170D01*
X155459962Y-94038349D01*
X155439750Y-94045581D01*
X155418926Y-94050797D01*
X155397691Y-94053947D01*
X155376250Y-94055000D01*
X154938750Y-94055000D01*
X154917309Y-94053947D01*
X154896074Y-94050797D01*
X154875250Y-94045581D01*
X154855038Y-94038349D01*
X154835632Y-94029170D01*
X154817219Y-94018134D01*
X154799976Y-94005346D01*
X154784070Y-93990930D01*
X154769654Y-93975024D01*
X154756866Y-93957781D01*
X154745830Y-93939368D01*
X154736651Y-93919962D01*
X154729419Y-93899750D01*
X154724203Y-93878926D01*
X154721053Y-93857691D01*
X154720000Y-93836250D01*
X154720000Y-93323750D01*
X154721053Y-93302309D01*
X154724203Y-93281074D01*
X154729419Y-93260250D01*
X154736651Y-93240038D01*
X154745830Y-93220632D01*
X154756866Y-93202219D01*
X154769654Y-93184976D01*
X154784070Y-93169070D01*
X154799976Y-93154654D01*
X154817219Y-93141866D01*
X154835632Y-93130830D01*
X154855038Y-93121651D01*
X154875250Y-93114419D01*
X154896074Y-93109203D01*
X154917309Y-93106053D01*
X154938750Y-93105000D01*
X155376250Y-93105000D01*
X155397691Y-93106053D01*
G37*
D12*
X141640000Y-96550000D03*
X142040000Y-96550000D03*
X142440000Y-96550000D03*
X142840000Y-96550000D03*
D13*
X143140000Y-95850000D03*
X143140000Y-95450000D03*
X143140000Y-95050000D03*
X143140000Y-94650000D03*
D12*
X142840000Y-93950000D03*
X142440000Y-93950000D03*
X142040000Y-93950000D03*
X141640000Y-93950000D03*
D13*
X141340000Y-94650000D03*
X141340000Y-95050000D03*
X141340000Y-95450000D03*
X141340000Y-95850000D03*
D14*
X154480000Y-100550000D03*
X154480000Y-99350000D03*
X154480000Y-98150000D03*
D11*
G36*
X142307691Y-102901053D02*
G01*
X142328926Y-102904203D01*
X142349750Y-102909419D01*
X142369962Y-102916651D01*
X142389368Y-102925830D01*
X142407781Y-102936866D01*
X142425024Y-102949654D01*
X142440930Y-102964070D01*
X142455346Y-102979976D01*
X142468134Y-102997219D01*
X142479170Y-103015632D01*
X142488349Y-103035038D01*
X142495581Y-103055250D01*
X142500797Y-103076074D01*
X142503947Y-103097309D01*
X142505000Y-103118750D01*
X142505000Y-103556250D01*
X142503947Y-103577691D01*
X142500797Y-103598926D01*
X142495581Y-103619750D01*
X142488349Y-103639962D01*
X142479170Y-103659368D01*
X142468134Y-103677781D01*
X142455346Y-103695024D01*
X142440930Y-103710930D01*
X142425024Y-103725346D01*
X142407781Y-103738134D01*
X142389368Y-103749170D01*
X142369962Y-103758349D01*
X142349750Y-103765581D01*
X142328926Y-103770797D01*
X142307691Y-103773947D01*
X142286250Y-103775000D01*
X141773750Y-103775000D01*
X141752309Y-103773947D01*
X141731074Y-103770797D01*
X141710250Y-103765581D01*
X141690038Y-103758349D01*
X141670632Y-103749170D01*
X141652219Y-103738134D01*
X141634976Y-103725346D01*
X141619070Y-103710930D01*
X141604654Y-103695024D01*
X141591866Y-103677781D01*
X141580830Y-103659368D01*
X141571651Y-103639962D01*
X141564419Y-103619750D01*
X141559203Y-103598926D01*
X141556053Y-103577691D01*
X141555000Y-103556250D01*
X141555000Y-103118750D01*
X141556053Y-103097309D01*
X141559203Y-103076074D01*
X141564419Y-103055250D01*
X141571651Y-103035038D01*
X141580830Y-103015632D01*
X141591866Y-102997219D01*
X141604654Y-102979976D01*
X141619070Y-102964070D01*
X141634976Y-102949654D01*
X141652219Y-102936866D01*
X141670632Y-102925830D01*
X141690038Y-102916651D01*
X141710250Y-102909419D01*
X141731074Y-102904203D01*
X141752309Y-102901053D01*
X141773750Y-102900000D01*
X142286250Y-102900000D01*
X142307691Y-102901053D01*
G37*
G36*
X142307691Y-101326053D02*
G01*
X142328926Y-101329203D01*
X142349750Y-101334419D01*
X142369962Y-101341651D01*
X142389368Y-101350830D01*
X142407781Y-101361866D01*
X142425024Y-101374654D01*
X142440930Y-101389070D01*
X142455346Y-101404976D01*
X142468134Y-101422219D01*
X142479170Y-101440632D01*
X142488349Y-101460038D01*
X142495581Y-101480250D01*
X142500797Y-101501074D01*
X142503947Y-101522309D01*
X142505000Y-101543750D01*
X142505000Y-101981250D01*
X142503947Y-102002691D01*
X142500797Y-102023926D01*
X142495581Y-102044750D01*
X142488349Y-102064962D01*
X142479170Y-102084368D01*
X142468134Y-102102781D01*
X142455346Y-102120024D01*
X142440930Y-102135930D01*
X142425024Y-102150346D01*
X142407781Y-102163134D01*
X142389368Y-102174170D01*
X142369962Y-102183349D01*
X142349750Y-102190581D01*
X142328926Y-102195797D01*
X142307691Y-102198947D01*
X142286250Y-102200000D01*
X141773750Y-102200000D01*
X141752309Y-102198947D01*
X141731074Y-102195797D01*
X141710250Y-102190581D01*
X141690038Y-102183349D01*
X141670632Y-102174170D01*
X141652219Y-102163134D01*
X141634976Y-102150346D01*
X141619070Y-102135930D01*
X141604654Y-102120024D01*
X141591866Y-102102781D01*
X141580830Y-102084368D01*
X141571651Y-102064962D01*
X141564419Y-102044750D01*
X141559203Y-102023926D01*
X141556053Y-102002691D01*
X141555000Y-101981250D01*
X141555000Y-101543750D01*
X141556053Y-101522309D01*
X141559203Y-101501074D01*
X141564419Y-101480250D01*
X141571651Y-101460038D01*
X141580830Y-101440632D01*
X141591866Y-101422219D01*
X141604654Y-101404976D01*
X141619070Y-101389070D01*
X141634976Y-101374654D01*
X141652219Y-101361866D01*
X141670632Y-101350830D01*
X141690038Y-101341651D01*
X141710250Y-101334419D01*
X141731074Y-101329203D01*
X141752309Y-101326053D01*
X141773750Y-101325000D01*
X142286250Y-101325000D01*
X142307691Y-101326053D01*
G37*
G36*
X143102691Y-98556053D02*
G01*
X143123926Y-98559203D01*
X143144750Y-98564419D01*
X143164962Y-98571651D01*
X143184368Y-98580830D01*
X143202781Y-98591866D01*
X143220024Y-98604654D01*
X143235930Y-98619070D01*
X143250346Y-98634976D01*
X143263134Y-98652219D01*
X143274170Y-98670632D01*
X143283349Y-98690038D01*
X143290581Y-98710250D01*
X143295797Y-98731074D01*
X143298947Y-98752309D01*
X143300000Y-98773750D01*
X143300000Y-99286250D01*
X143298947Y-99307691D01*
X143295797Y-99328926D01*
X143290581Y-99349750D01*
X143283349Y-99369962D01*
X143274170Y-99389368D01*
X143263134Y-99407781D01*
X143250346Y-99425024D01*
X143235930Y-99440930D01*
X143220024Y-99455346D01*
X143202781Y-99468134D01*
X143184368Y-99479170D01*
X143164962Y-99488349D01*
X143144750Y-99495581D01*
X143123926Y-99500797D01*
X143102691Y-99503947D01*
X143081250Y-99505000D01*
X142643750Y-99505000D01*
X142622309Y-99503947D01*
X142601074Y-99500797D01*
X142580250Y-99495581D01*
X142560038Y-99488349D01*
X142540632Y-99479170D01*
X142522219Y-99468134D01*
X142504976Y-99455346D01*
X142489070Y-99440930D01*
X142474654Y-99425024D01*
X142461866Y-99407781D01*
X142450830Y-99389368D01*
X142441651Y-99369962D01*
X142434419Y-99349750D01*
X142429203Y-99328926D01*
X142426053Y-99307691D01*
X142425000Y-99286250D01*
X142425000Y-98773750D01*
X142426053Y-98752309D01*
X142429203Y-98731074D01*
X142434419Y-98710250D01*
X142441651Y-98690038D01*
X142450830Y-98670632D01*
X142461866Y-98652219D01*
X142474654Y-98634976D01*
X142489070Y-98619070D01*
X142504976Y-98604654D01*
X142522219Y-98591866D01*
X142540632Y-98580830D01*
X142560038Y-98571651D01*
X142580250Y-98564419D01*
X142601074Y-98559203D01*
X142622309Y-98556053D01*
X142643750Y-98555000D01*
X143081250Y-98555000D01*
X143102691Y-98556053D01*
G37*
G36*
X144677691Y-98556053D02*
G01*
X144698926Y-98559203D01*
X144719750Y-98564419D01*
X144739962Y-98571651D01*
X144759368Y-98580830D01*
X144777781Y-98591866D01*
X144795024Y-98604654D01*
X144810930Y-98619070D01*
X144825346Y-98634976D01*
X144838134Y-98652219D01*
X144849170Y-98670632D01*
X144858349Y-98690038D01*
X144865581Y-98710250D01*
X144870797Y-98731074D01*
X144873947Y-98752309D01*
X144875000Y-98773750D01*
X144875000Y-99286250D01*
X144873947Y-99307691D01*
X144870797Y-99328926D01*
X144865581Y-99349750D01*
X144858349Y-99369962D01*
X144849170Y-99389368D01*
X144838134Y-99407781D01*
X144825346Y-99425024D01*
X144810930Y-99440930D01*
X144795024Y-99455346D01*
X144777781Y-99468134D01*
X144759368Y-99479170D01*
X144739962Y-99488349D01*
X144719750Y-99495581D01*
X144698926Y-99500797D01*
X144677691Y-99503947D01*
X144656250Y-99505000D01*
X144218750Y-99505000D01*
X144197309Y-99503947D01*
X144176074Y-99500797D01*
X144155250Y-99495581D01*
X144135038Y-99488349D01*
X144115632Y-99479170D01*
X144097219Y-99468134D01*
X144079976Y-99455346D01*
X144064070Y-99440930D01*
X144049654Y-99425024D01*
X144036866Y-99407781D01*
X144025830Y-99389368D01*
X144016651Y-99369962D01*
X144009419Y-99349750D01*
X144004203Y-99328926D01*
X144001053Y-99307691D01*
X144000000Y-99286250D01*
X144000000Y-98773750D01*
X144001053Y-98752309D01*
X144004203Y-98731074D01*
X144009419Y-98710250D01*
X144016651Y-98690038D01*
X144025830Y-98670632D01*
X144036866Y-98652219D01*
X144049654Y-98634976D01*
X144064070Y-98619070D01*
X144079976Y-98604654D01*
X144097219Y-98591866D01*
X144115632Y-98580830D01*
X144135038Y-98571651D01*
X144155250Y-98564419D01*
X144176074Y-98559203D01*
X144197309Y-98556053D01*
X144218750Y-98555000D01*
X144656250Y-98555000D01*
X144677691Y-98556053D01*
G37*
G36*
X155497691Y-104001053D02*
G01*
X155518926Y-104004203D01*
X155539750Y-104009419D01*
X155559962Y-104016651D01*
X155579368Y-104025830D01*
X155597781Y-104036866D01*
X155615024Y-104049654D01*
X155630930Y-104064070D01*
X155645346Y-104079976D01*
X155658134Y-104097219D01*
X155669170Y-104115632D01*
X155678349Y-104135038D01*
X155685581Y-104155250D01*
X155690797Y-104176074D01*
X155693947Y-104197309D01*
X155695000Y-104218750D01*
X155695000Y-104656250D01*
X155693947Y-104677691D01*
X155690797Y-104698926D01*
X155685581Y-104719750D01*
X155678349Y-104739962D01*
X155669170Y-104759368D01*
X155658134Y-104777781D01*
X155645346Y-104795024D01*
X155630930Y-104810930D01*
X155615024Y-104825346D01*
X155597781Y-104838134D01*
X155579368Y-104849170D01*
X155559962Y-104858349D01*
X155539750Y-104865581D01*
X155518926Y-104870797D01*
X155497691Y-104873947D01*
X155476250Y-104875000D01*
X154963750Y-104875000D01*
X154942309Y-104873947D01*
X154921074Y-104870797D01*
X154900250Y-104865581D01*
X154880038Y-104858349D01*
X154860632Y-104849170D01*
X154842219Y-104838134D01*
X154824976Y-104825346D01*
X154809070Y-104810930D01*
X154794654Y-104795024D01*
X154781866Y-104777781D01*
X154770830Y-104759368D01*
X154761651Y-104739962D01*
X154754419Y-104719750D01*
X154749203Y-104698926D01*
X154746053Y-104677691D01*
X154745000Y-104656250D01*
X154745000Y-104218750D01*
X154746053Y-104197309D01*
X154749203Y-104176074D01*
X154754419Y-104155250D01*
X154761651Y-104135038D01*
X154770830Y-104115632D01*
X154781866Y-104097219D01*
X154794654Y-104079976D01*
X154809070Y-104064070D01*
X154824976Y-104049654D01*
X154842219Y-104036866D01*
X154860632Y-104025830D01*
X154880038Y-104016651D01*
X154900250Y-104009419D01*
X154921074Y-104004203D01*
X154942309Y-104001053D01*
X154963750Y-104000000D01*
X155476250Y-104000000D01*
X155497691Y-104001053D01*
G37*
G36*
X155497691Y-102426053D02*
G01*
X155518926Y-102429203D01*
X155539750Y-102434419D01*
X155559962Y-102441651D01*
X155579368Y-102450830D01*
X155597781Y-102461866D01*
X155615024Y-102474654D01*
X155630930Y-102489070D01*
X155645346Y-102504976D01*
X155658134Y-102522219D01*
X155669170Y-102540632D01*
X155678349Y-102560038D01*
X155685581Y-102580250D01*
X155690797Y-102601074D01*
X155693947Y-102622309D01*
X155695000Y-102643750D01*
X155695000Y-103081250D01*
X155693947Y-103102691D01*
X155690797Y-103123926D01*
X155685581Y-103144750D01*
X155678349Y-103164962D01*
X155669170Y-103184368D01*
X155658134Y-103202781D01*
X155645346Y-103220024D01*
X155630930Y-103235930D01*
X155615024Y-103250346D01*
X155597781Y-103263134D01*
X155579368Y-103274170D01*
X155559962Y-103283349D01*
X155539750Y-103290581D01*
X155518926Y-103295797D01*
X155497691Y-103298947D01*
X155476250Y-103300000D01*
X154963750Y-103300000D01*
X154942309Y-103298947D01*
X154921074Y-103295797D01*
X154900250Y-103290581D01*
X154880038Y-103283349D01*
X154860632Y-103274170D01*
X154842219Y-103263134D01*
X154824976Y-103250346D01*
X154809070Y-103235930D01*
X154794654Y-103220024D01*
X154781866Y-103202781D01*
X154770830Y-103184368D01*
X154761651Y-103164962D01*
X154754419Y-103144750D01*
X154749203Y-103123926D01*
X154746053Y-103102691D01*
X154745000Y-103081250D01*
X154745000Y-102643750D01*
X154746053Y-102622309D01*
X154749203Y-102601074D01*
X154754419Y-102580250D01*
X154761651Y-102560038D01*
X154770830Y-102540632D01*
X154781866Y-102522219D01*
X154794654Y-102504976D01*
X154809070Y-102489070D01*
X154824976Y-102474654D01*
X154842219Y-102461866D01*
X154860632Y-102450830D01*
X154880038Y-102441651D01*
X154900250Y-102434419D01*
X154921074Y-102429203D01*
X154942309Y-102426053D01*
X154963750Y-102425000D01*
X155476250Y-102425000D01*
X155497691Y-102426053D01*
G37*
G36*
X144076291Y-109394653D02*
G01*
X144097526Y-109397803D01*
X144118350Y-109403019D01*
X144138562Y-109410251D01*
X144157968Y-109419430D01*
X144176381Y-109430466D01*
X144193624Y-109443254D01*
X144209530Y-109457670D01*
X144223946Y-109473576D01*
X144236734Y-109490819D01*
X144247770Y-109509232D01*
X144256949Y-109528638D01*
X144264181Y-109548850D01*
X144269397Y-109569674D01*
X144272547Y-109590909D01*
X144273600Y-109612350D01*
X144273600Y-110049850D01*
X144272547Y-110071291D01*
X144269397Y-110092526D01*
X144264181Y-110113350D01*
X144256949Y-110133562D01*
X144247770Y-110152968D01*
X144236734Y-110171381D01*
X144223946Y-110188624D01*
X144209530Y-110204530D01*
X144193624Y-110218946D01*
X144176381Y-110231734D01*
X144157968Y-110242770D01*
X144138562Y-110251949D01*
X144118350Y-110259181D01*
X144097526Y-110264397D01*
X144076291Y-110267547D01*
X144054850Y-110268600D01*
X143542350Y-110268600D01*
X143520909Y-110267547D01*
X143499674Y-110264397D01*
X143478850Y-110259181D01*
X143458638Y-110251949D01*
X143439232Y-110242770D01*
X143420819Y-110231734D01*
X143403576Y-110218946D01*
X143387670Y-110204530D01*
X143373254Y-110188624D01*
X143360466Y-110171381D01*
X143349430Y-110152968D01*
X143340251Y-110133562D01*
X143333019Y-110113350D01*
X143327803Y-110092526D01*
X143324653Y-110071291D01*
X143323600Y-110049850D01*
X143323600Y-109612350D01*
X143324653Y-109590909D01*
X143327803Y-109569674D01*
X143333019Y-109548850D01*
X143340251Y-109528638D01*
X143349430Y-109509232D01*
X143360466Y-109490819D01*
X143373254Y-109473576D01*
X143387670Y-109457670D01*
X143403576Y-109443254D01*
X143420819Y-109430466D01*
X143439232Y-109419430D01*
X143458638Y-109410251D01*
X143478850Y-109403019D01*
X143499674Y-109397803D01*
X143520909Y-109394653D01*
X143542350Y-109393600D01*
X144054850Y-109393600D01*
X144076291Y-109394653D01*
G37*
G36*
X144076291Y-110969653D02*
G01*
X144097526Y-110972803D01*
X144118350Y-110978019D01*
X144138562Y-110985251D01*
X144157968Y-110994430D01*
X144176381Y-111005466D01*
X144193624Y-111018254D01*
X144209530Y-111032670D01*
X144223946Y-111048576D01*
X144236734Y-111065819D01*
X144247770Y-111084232D01*
X144256949Y-111103638D01*
X144264181Y-111123850D01*
X144269397Y-111144674D01*
X144272547Y-111165909D01*
X144273600Y-111187350D01*
X144273600Y-111624850D01*
X144272547Y-111646291D01*
X144269397Y-111667526D01*
X144264181Y-111688350D01*
X144256949Y-111708562D01*
X144247770Y-111727968D01*
X144236734Y-111746381D01*
X144223946Y-111763624D01*
X144209530Y-111779530D01*
X144193624Y-111793946D01*
X144176381Y-111806734D01*
X144157968Y-111817770D01*
X144138562Y-111826949D01*
X144118350Y-111834181D01*
X144097526Y-111839397D01*
X144076291Y-111842547D01*
X144054850Y-111843600D01*
X143542350Y-111843600D01*
X143520909Y-111842547D01*
X143499674Y-111839397D01*
X143478850Y-111834181D01*
X143458638Y-111826949D01*
X143439232Y-111817770D01*
X143420819Y-111806734D01*
X143403576Y-111793946D01*
X143387670Y-111779530D01*
X143373254Y-111763624D01*
X143360466Y-111746381D01*
X143349430Y-111727968D01*
X143340251Y-111708562D01*
X143333019Y-111688350D01*
X143327803Y-111667526D01*
X143324653Y-111646291D01*
X143323600Y-111624850D01*
X143323600Y-111187350D01*
X143324653Y-111165909D01*
X143327803Y-111144674D01*
X143333019Y-111123850D01*
X143340251Y-111103638D01*
X143349430Y-111084232D01*
X143360466Y-111065819D01*
X143373254Y-111048576D01*
X143387670Y-111032670D01*
X143403576Y-111018254D01*
X143420819Y-111005466D01*
X143439232Y-110994430D01*
X143458638Y-110985251D01*
X143478850Y-110978019D01*
X143499674Y-110972803D01*
X143520909Y-110969653D01*
X143542350Y-110968600D01*
X144054850Y-110968600D01*
X144076291Y-110969653D01*
G37*
G36*
X150680291Y-98472853D02*
G01*
X150701526Y-98476003D01*
X150722350Y-98481219D01*
X150742562Y-98488451D01*
X150761968Y-98497630D01*
X150780381Y-98508666D01*
X150797624Y-98521454D01*
X150813530Y-98535870D01*
X150827946Y-98551776D01*
X150840734Y-98569019D01*
X150851770Y-98587432D01*
X150860949Y-98606838D01*
X150868181Y-98627050D01*
X150873397Y-98647874D01*
X150876547Y-98669109D01*
X150877600Y-98690550D01*
X150877600Y-99128050D01*
X150876547Y-99149491D01*
X150873397Y-99170726D01*
X150868181Y-99191550D01*
X150860949Y-99211762D01*
X150851770Y-99231168D01*
X150840734Y-99249581D01*
X150827946Y-99266824D01*
X150813530Y-99282730D01*
X150797624Y-99297146D01*
X150780381Y-99309934D01*
X150761968Y-99320970D01*
X150742562Y-99330149D01*
X150722350Y-99337381D01*
X150701526Y-99342597D01*
X150680291Y-99345747D01*
X150658850Y-99346800D01*
X150146350Y-99346800D01*
X150124909Y-99345747D01*
X150103674Y-99342597D01*
X150082850Y-99337381D01*
X150062638Y-99330149D01*
X150043232Y-99320970D01*
X150024819Y-99309934D01*
X150007576Y-99297146D01*
X149991670Y-99282730D01*
X149977254Y-99266824D01*
X149964466Y-99249581D01*
X149953430Y-99231168D01*
X149944251Y-99211762D01*
X149937019Y-99191550D01*
X149931803Y-99170726D01*
X149928653Y-99149491D01*
X149927600Y-99128050D01*
X149927600Y-98690550D01*
X149928653Y-98669109D01*
X149931803Y-98647874D01*
X149937019Y-98627050D01*
X149944251Y-98606838D01*
X149953430Y-98587432D01*
X149964466Y-98569019D01*
X149977254Y-98551776D01*
X149991670Y-98535870D01*
X150007576Y-98521454D01*
X150024819Y-98508666D01*
X150043232Y-98497630D01*
X150062638Y-98488451D01*
X150082850Y-98481219D01*
X150103674Y-98476003D01*
X150124909Y-98472853D01*
X150146350Y-98471800D01*
X150658850Y-98471800D01*
X150680291Y-98472853D01*
G37*
G36*
X150680291Y-96897853D02*
G01*
X150701526Y-96901003D01*
X150722350Y-96906219D01*
X150742562Y-96913451D01*
X150761968Y-96922630D01*
X150780381Y-96933666D01*
X150797624Y-96946454D01*
X150813530Y-96960870D01*
X150827946Y-96976776D01*
X150840734Y-96994019D01*
X150851770Y-97012432D01*
X150860949Y-97031838D01*
X150868181Y-97052050D01*
X150873397Y-97072874D01*
X150876547Y-97094109D01*
X150877600Y-97115550D01*
X150877600Y-97553050D01*
X150876547Y-97574491D01*
X150873397Y-97595726D01*
X150868181Y-97616550D01*
X150860949Y-97636762D01*
X150851770Y-97656168D01*
X150840734Y-97674581D01*
X150827946Y-97691824D01*
X150813530Y-97707730D01*
X150797624Y-97722146D01*
X150780381Y-97734934D01*
X150761968Y-97745970D01*
X150742562Y-97755149D01*
X150722350Y-97762381D01*
X150701526Y-97767597D01*
X150680291Y-97770747D01*
X150658850Y-97771800D01*
X150146350Y-97771800D01*
X150124909Y-97770747D01*
X150103674Y-97767597D01*
X150082850Y-97762381D01*
X150062638Y-97755149D01*
X150043232Y-97745970D01*
X150024819Y-97734934D01*
X150007576Y-97722146D01*
X149991670Y-97707730D01*
X149977254Y-97691824D01*
X149964466Y-97674581D01*
X149953430Y-97656168D01*
X149944251Y-97636762D01*
X149937019Y-97616550D01*
X149931803Y-97595726D01*
X149928653Y-97574491D01*
X149927600Y-97553050D01*
X149927600Y-97115550D01*
X149928653Y-97094109D01*
X149931803Y-97072874D01*
X149937019Y-97052050D01*
X149944251Y-97031838D01*
X149953430Y-97012432D01*
X149964466Y-96994019D01*
X149977254Y-96976776D01*
X149991670Y-96960870D01*
X150007576Y-96946454D01*
X150024819Y-96933666D01*
X150043232Y-96922630D01*
X150062638Y-96913451D01*
X150082850Y-96906219D01*
X150103674Y-96901003D01*
X150124909Y-96897853D01*
X150146350Y-96896800D01*
X150658850Y-96896800D01*
X150680291Y-96897853D01*
G37*
G36*
X154756991Y-109140653D02*
G01*
X154778226Y-109143803D01*
X154799050Y-109149019D01*
X154819262Y-109156251D01*
X154838668Y-109165430D01*
X154857081Y-109176466D01*
X154874324Y-109189254D01*
X154890230Y-109203670D01*
X154904646Y-109219576D01*
X154917434Y-109236819D01*
X154928470Y-109255232D01*
X154937649Y-109274638D01*
X154944881Y-109294850D01*
X154950097Y-109315674D01*
X154953247Y-109336909D01*
X154954300Y-109358350D01*
X154954300Y-109795850D01*
X154953247Y-109817291D01*
X154950097Y-109838526D01*
X154944881Y-109859350D01*
X154937649Y-109879562D01*
X154928470Y-109898968D01*
X154917434Y-109917381D01*
X154904646Y-109934624D01*
X154890230Y-109950530D01*
X154874324Y-109964946D01*
X154857081Y-109977734D01*
X154838668Y-109988770D01*
X154819262Y-109997949D01*
X154799050Y-110005181D01*
X154778226Y-110010397D01*
X154756991Y-110013547D01*
X154735550Y-110014600D01*
X154223050Y-110014600D01*
X154201609Y-110013547D01*
X154180374Y-110010397D01*
X154159550Y-110005181D01*
X154139338Y-109997949D01*
X154119932Y-109988770D01*
X154101519Y-109977734D01*
X154084276Y-109964946D01*
X154068370Y-109950530D01*
X154053954Y-109934624D01*
X154041166Y-109917381D01*
X154030130Y-109898968D01*
X154020951Y-109879562D01*
X154013719Y-109859350D01*
X154008503Y-109838526D01*
X154005353Y-109817291D01*
X154004300Y-109795850D01*
X154004300Y-109358350D01*
X154005353Y-109336909D01*
X154008503Y-109315674D01*
X154013719Y-109294850D01*
X154020951Y-109274638D01*
X154030130Y-109255232D01*
X154041166Y-109236819D01*
X154053954Y-109219576D01*
X154068370Y-109203670D01*
X154084276Y-109189254D01*
X154101519Y-109176466D01*
X154119932Y-109165430D01*
X154139338Y-109156251D01*
X154159550Y-109149019D01*
X154180374Y-109143803D01*
X154201609Y-109140653D01*
X154223050Y-109139600D01*
X154735550Y-109139600D01*
X154756991Y-109140653D01*
G37*
G36*
X154756991Y-110715653D02*
G01*
X154778226Y-110718803D01*
X154799050Y-110724019D01*
X154819262Y-110731251D01*
X154838668Y-110740430D01*
X154857081Y-110751466D01*
X154874324Y-110764254D01*
X154890230Y-110778670D01*
X154904646Y-110794576D01*
X154917434Y-110811819D01*
X154928470Y-110830232D01*
X154937649Y-110849638D01*
X154944881Y-110869850D01*
X154950097Y-110890674D01*
X154953247Y-110911909D01*
X154954300Y-110933350D01*
X154954300Y-111370850D01*
X154953247Y-111392291D01*
X154950097Y-111413526D01*
X154944881Y-111434350D01*
X154937649Y-111454562D01*
X154928470Y-111473968D01*
X154917434Y-111492381D01*
X154904646Y-111509624D01*
X154890230Y-111525530D01*
X154874324Y-111539946D01*
X154857081Y-111552734D01*
X154838668Y-111563770D01*
X154819262Y-111572949D01*
X154799050Y-111580181D01*
X154778226Y-111585397D01*
X154756991Y-111588547D01*
X154735550Y-111589600D01*
X154223050Y-111589600D01*
X154201609Y-111588547D01*
X154180374Y-111585397D01*
X154159550Y-111580181D01*
X154139338Y-111572949D01*
X154119932Y-111563770D01*
X154101519Y-111552734D01*
X154084276Y-111539946D01*
X154068370Y-111525530D01*
X154053954Y-111509624D01*
X154041166Y-111492381D01*
X154030130Y-111473968D01*
X154020951Y-111454562D01*
X154013719Y-111434350D01*
X154008503Y-111413526D01*
X154005353Y-111392291D01*
X154004300Y-111370850D01*
X154004300Y-110933350D01*
X154005353Y-110911909D01*
X154008503Y-110890674D01*
X154013719Y-110869850D01*
X154020951Y-110849638D01*
X154030130Y-110830232D01*
X154041166Y-110811819D01*
X154053954Y-110794576D01*
X154068370Y-110778670D01*
X154084276Y-110764254D01*
X154101519Y-110751466D01*
X154119932Y-110740430D01*
X154139338Y-110731251D01*
X154159550Y-110724019D01*
X154180374Y-110718803D01*
X154201609Y-110715653D01*
X154223050Y-110714600D01*
X154735550Y-110714600D01*
X154756991Y-110715653D01*
G37*
G36*
X155487691Y-107221053D02*
G01*
X155508926Y-107224203D01*
X155529750Y-107229419D01*
X155549962Y-107236651D01*
X155569368Y-107245830D01*
X155587781Y-107256866D01*
X155605024Y-107269654D01*
X155620930Y-107284070D01*
X155635346Y-107299976D01*
X155648134Y-107317219D01*
X155659170Y-107335632D01*
X155668349Y-107355038D01*
X155675581Y-107375250D01*
X155680797Y-107396074D01*
X155683947Y-107417309D01*
X155685000Y-107438750D01*
X155685000Y-107876250D01*
X155683947Y-107897691D01*
X155680797Y-107918926D01*
X155675581Y-107939750D01*
X155668349Y-107959962D01*
X155659170Y-107979368D01*
X155648134Y-107997781D01*
X155635346Y-108015024D01*
X155620930Y-108030930D01*
X155605024Y-108045346D01*
X155587781Y-108058134D01*
X155569368Y-108069170D01*
X155549962Y-108078349D01*
X155529750Y-108085581D01*
X155508926Y-108090797D01*
X155487691Y-108093947D01*
X155466250Y-108095000D01*
X154953750Y-108095000D01*
X154932309Y-108093947D01*
X154911074Y-108090797D01*
X154890250Y-108085581D01*
X154870038Y-108078349D01*
X154850632Y-108069170D01*
X154832219Y-108058134D01*
X154814976Y-108045346D01*
X154799070Y-108030930D01*
X154784654Y-108015024D01*
X154771866Y-107997781D01*
X154760830Y-107979368D01*
X154751651Y-107959962D01*
X154744419Y-107939750D01*
X154739203Y-107918926D01*
X154736053Y-107897691D01*
X154735000Y-107876250D01*
X154735000Y-107438750D01*
X154736053Y-107417309D01*
X154739203Y-107396074D01*
X154744419Y-107375250D01*
X154751651Y-107355038D01*
X154760830Y-107335632D01*
X154771866Y-107317219D01*
X154784654Y-107299976D01*
X154799070Y-107284070D01*
X154814976Y-107269654D01*
X154832219Y-107256866D01*
X154850632Y-107245830D01*
X154870038Y-107236651D01*
X154890250Y-107229419D01*
X154911074Y-107224203D01*
X154932309Y-107221053D01*
X154953750Y-107220000D01*
X155466250Y-107220000D01*
X155487691Y-107221053D01*
G37*
G36*
X155487691Y-105646053D02*
G01*
X155508926Y-105649203D01*
X155529750Y-105654419D01*
X155549962Y-105661651D01*
X155569368Y-105670830D01*
X155587781Y-105681866D01*
X155605024Y-105694654D01*
X155620930Y-105709070D01*
X155635346Y-105724976D01*
X155648134Y-105742219D01*
X155659170Y-105760632D01*
X155668349Y-105780038D01*
X155675581Y-105800250D01*
X155680797Y-105821074D01*
X155683947Y-105842309D01*
X155685000Y-105863750D01*
X155685000Y-106301250D01*
X155683947Y-106322691D01*
X155680797Y-106343926D01*
X155675581Y-106364750D01*
X155668349Y-106384962D01*
X155659170Y-106404368D01*
X155648134Y-106422781D01*
X155635346Y-106440024D01*
X155620930Y-106455930D01*
X155605024Y-106470346D01*
X155587781Y-106483134D01*
X155569368Y-106494170D01*
X155549962Y-106503349D01*
X155529750Y-106510581D01*
X155508926Y-106515797D01*
X155487691Y-106518947D01*
X155466250Y-106520000D01*
X154953750Y-106520000D01*
X154932309Y-106518947D01*
X154911074Y-106515797D01*
X154890250Y-106510581D01*
X154870038Y-106503349D01*
X154850632Y-106494170D01*
X154832219Y-106483134D01*
X154814976Y-106470346D01*
X154799070Y-106455930D01*
X154784654Y-106440024D01*
X154771866Y-106422781D01*
X154760830Y-106404368D01*
X154751651Y-106384962D01*
X154744419Y-106364750D01*
X154739203Y-106343926D01*
X154736053Y-106322691D01*
X154735000Y-106301250D01*
X154735000Y-105863750D01*
X154736053Y-105842309D01*
X154739203Y-105821074D01*
X154744419Y-105800250D01*
X154751651Y-105780038D01*
X154760830Y-105760632D01*
X154771866Y-105742219D01*
X154784654Y-105724976D01*
X154799070Y-105709070D01*
X154814976Y-105694654D01*
X154832219Y-105681866D01*
X154850632Y-105670830D01*
X154870038Y-105661651D01*
X154890250Y-105654419D01*
X154911074Y-105649203D01*
X154932309Y-105646053D01*
X154953750Y-105645000D01*
X155466250Y-105645000D01*
X155487691Y-105646053D01*
G37*
G36*
X146580731Y-98396653D02*
G01*
X146601966Y-98399803D01*
X146622790Y-98405019D01*
X146643002Y-98412251D01*
X146662408Y-98421430D01*
X146680821Y-98432466D01*
X146698064Y-98445254D01*
X146713970Y-98459670D01*
X146728386Y-98475576D01*
X146741174Y-98492819D01*
X146752210Y-98511232D01*
X146761389Y-98530638D01*
X146768621Y-98550850D01*
X146773837Y-98571674D01*
X146776987Y-98592909D01*
X146778040Y-98614350D01*
X146778040Y-99051850D01*
X146776987Y-99073291D01*
X146773837Y-99094526D01*
X146768621Y-99115350D01*
X146761389Y-99135562D01*
X146752210Y-99154968D01*
X146741174Y-99173381D01*
X146728386Y-99190624D01*
X146713970Y-99206530D01*
X146698064Y-99220946D01*
X146680821Y-99233734D01*
X146662408Y-99244770D01*
X146643002Y-99253949D01*
X146622790Y-99261181D01*
X146601966Y-99266397D01*
X146580731Y-99269547D01*
X146559290Y-99270600D01*
X146046790Y-99270600D01*
X146025349Y-99269547D01*
X146004114Y-99266397D01*
X145983290Y-99261181D01*
X145963078Y-99253949D01*
X145943672Y-99244770D01*
X145925259Y-99233734D01*
X145908016Y-99220946D01*
X145892110Y-99206530D01*
X145877694Y-99190624D01*
X145864906Y-99173381D01*
X145853870Y-99154968D01*
X145844691Y-99135562D01*
X145837459Y-99115350D01*
X145832243Y-99094526D01*
X145829093Y-99073291D01*
X145828040Y-99051850D01*
X145828040Y-98614350D01*
X145829093Y-98592909D01*
X145832243Y-98571674D01*
X145837459Y-98550850D01*
X145844691Y-98530638D01*
X145853870Y-98511232D01*
X145864906Y-98492819D01*
X145877694Y-98475576D01*
X145892110Y-98459670D01*
X145908016Y-98445254D01*
X145925259Y-98432466D01*
X145943672Y-98421430D01*
X145963078Y-98412251D01*
X145983290Y-98405019D01*
X146004114Y-98399803D01*
X146025349Y-98396653D01*
X146046790Y-98395600D01*
X146559290Y-98395600D01*
X146580731Y-98396653D01*
G37*
G36*
X146580731Y-96821653D02*
G01*
X146601966Y-96824803D01*
X146622790Y-96830019D01*
X146643002Y-96837251D01*
X146662408Y-96846430D01*
X146680821Y-96857466D01*
X146698064Y-96870254D01*
X146713970Y-96884670D01*
X146728386Y-96900576D01*
X146741174Y-96917819D01*
X146752210Y-96936232D01*
X146761389Y-96955638D01*
X146768621Y-96975850D01*
X146773837Y-96996674D01*
X146776987Y-97017909D01*
X146778040Y-97039350D01*
X146778040Y-97476850D01*
X146776987Y-97498291D01*
X146773837Y-97519526D01*
X146768621Y-97540350D01*
X146761389Y-97560562D01*
X146752210Y-97579968D01*
X146741174Y-97598381D01*
X146728386Y-97615624D01*
X146713970Y-97631530D01*
X146698064Y-97645946D01*
X146680821Y-97658734D01*
X146662408Y-97669770D01*
X146643002Y-97678949D01*
X146622790Y-97686181D01*
X146601966Y-97691397D01*
X146580731Y-97694547D01*
X146559290Y-97695600D01*
X146046790Y-97695600D01*
X146025349Y-97694547D01*
X146004114Y-97691397D01*
X145983290Y-97686181D01*
X145963078Y-97678949D01*
X145943672Y-97669770D01*
X145925259Y-97658734D01*
X145908016Y-97645946D01*
X145892110Y-97631530D01*
X145877694Y-97615624D01*
X145864906Y-97598381D01*
X145853870Y-97579968D01*
X145844691Y-97560562D01*
X145837459Y-97540350D01*
X145832243Y-97519526D01*
X145829093Y-97498291D01*
X145828040Y-97476850D01*
X145828040Y-97039350D01*
X145829093Y-97017909D01*
X145832243Y-96996674D01*
X145837459Y-96975850D01*
X145844691Y-96955638D01*
X145853870Y-96936232D01*
X145864906Y-96917819D01*
X145877694Y-96900576D01*
X145892110Y-96884670D01*
X145908016Y-96870254D01*
X145925259Y-96857466D01*
X145943672Y-96846430D01*
X145963078Y-96837251D01*
X145983290Y-96830019D01*
X146004114Y-96824803D01*
X146025349Y-96821653D01*
X146046790Y-96820600D01*
X146559290Y-96820600D01*
X146580731Y-96821653D01*
G37*
G36*
X150867691Y-87096053D02*
G01*
X150888926Y-87099203D01*
X150909750Y-87104419D01*
X150929962Y-87111651D01*
X150949368Y-87120830D01*
X150967781Y-87131866D01*
X150985024Y-87144654D01*
X151000930Y-87159070D01*
X151015346Y-87174976D01*
X151028134Y-87192219D01*
X151039170Y-87210632D01*
X151048349Y-87230038D01*
X151055581Y-87250250D01*
X151060797Y-87271074D01*
X151063947Y-87292309D01*
X151065000Y-87313750D01*
X151065000Y-87826250D01*
X151063947Y-87847691D01*
X151060797Y-87868926D01*
X151055581Y-87889750D01*
X151048349Y-87909962D01*
X151039170Y-87929368D01*
X151028134Y-87947781D01*
X151015346Y-87965024D01*
X151000930Y-87980930D01*
X150985024Y-87995346D01*
X150967781Y-88008134D01*
X150949368Y-88019170D01*
X150929962Y-88028349D01*
X150909750Y-88035581D01*
X150888926Y-88040797D01*
X150867691Y-88043947D01*
X150846250Y-88045000D01*
X150408750Y-88045000D01*
X150387309Y-88043947D01*
X150366074Y-88040797D01*
X150345250Y-88035581D01*
X150325038Y-88028349D01*
X150305632Y-88019170D01*
X150287219Y-88008134D01*
X150269976Y-87995346D01*
X150254070Y-87980930D01*
X150239654Y-87965024D01*
X150226866Y-87947781D01*
X150215830Y-87929368D01*
X150206651Y-87909962D01*
X150199419Y-87889750D01*
X150194203Y-87868926D01*
X150191053Y-87847691D01*
X150190000Y-87826250D01*
X150190000Y-87313750D01*
X150191053Y-87292309D01*
X150194203Y-87271074D01*
X150199419Y-87250250D01*
X150206651Y-87230038D01*
X150215830Y-87210632D01*
X150226866Y-87192219D01*
X150239654Y-87174976D01*
X150254070Y-87159070D01*
X150269976Y-87144654D01*
X150287219Y-87131866D01*
X150305632Y-87120830D01*
X150325038Y-87111651D01*
X150345250Y-87104419D01*
X150366074Y-87099203D01*
X150387309Y-87096053D01*
X150408750Y-87095000D01*
X150846250Y-87095000D01*
X150867691Y-87096053D01*
G37*
G36*
X149292691Y-87096053D02*
G01*
X149313926Y-87099203D01*
X149334750Y-87104419D01*
X149354962Y-87111651D01*
X149374368Y-87120830D01*
X149392781Y-87131866D01*
X149410024Y-87144654D01*
X149425930Y-87159070D01*
X149440346Y-87174976D01*
X149453134Y-87192219D01*
X149464170Y-87210632D01*
X149473349Y-87230038D01*
X149480581Y-87250250D01*
X149485797Y-87271074D01*
X149488947Y-87292309D01*
X149490000Y-87313750D01*
X149490000Y-87826250D01*
X149488947Y-87847691D01*
X149485797Y-87868926D01*
X149480581Y-87889750D01*
X149473349Y-87909962D01*
X149464170Y-87929368D01*
X149453134Y-87947781D01*
X149440346Y-87965024D01*
X149425930Y-87980930D01*
X149410024Y-87995346D01*
X149392781Y-88008134D01*
X149374368Y-88019170D01*
X149354962Y-88028349D01*
X149334750Y-88035581D01*
X149313926Y-88040797D01*
X149292691Y-88043947D01*
X149271250Y-88045000D01*
X148833750Y-88045000D01*
X148812309Y-88043947D01*
X148791074Y-88040797D01*
X148770250Y-88035581D01*
X148750038Y-88028349D01*
X148730632Y-88019170D01*
X148712219Y-88008134D01*
X148694976Y-87995346D01*
X148679070Y-87980930D01*
X148664654Y-87965024D01*
X148651866Y-87947781D01*
X148640830Y-87929368D01*
X148631651Y-87909962D01*
X148624419Y-87889750D01*
X148619203Y-87868926D01*
X148616053Y-87847691D01*
X148615000Y-87826250D01*
X148615000Y-87313750D01*
X148616053Y-87292309D01*
X148619203Y-87271074D01*
X148624419Y-87250250D01*
X148631651Y-87230038D01*
X148640830Y-87210632D01*
X148651866Y-87192219D01*
X148664654Y-87174976D01*
X148679070Y-87159070D01*
X148694976Y-87144654D01*
X148712219Y-87131866D01*
X148730632Y-87120830D01*
X148750038Y-87111651D01*
X148770250Y-87104419D01*
X148791074Y-87099203D01*
X148812309Y-87096053D01*
X148833750Y-87095000D01*
X149271250Y-87095000D01*
X149292691Y-87096053D01*
G37*
G36*
X146272691Y-87046053D02*
G01*
X146293926Y-87049203D01*
X146314750Y-87054419D01*
X146334962Y-87061651D01*
X146354368Y-87070830D01*
X146372781Y-87081866D01*
X146390024Y-87094654D01*
X146405930Y-87109070D01*
X146420346Y-87124976D01*
X146433134Y-87142219D01*
X146444170Y-87160632D01*
X146453349Y-87180038D01*
X146460581Y-87200250D01*
X146465797Y-87221074D01*
X146468947Y-87242309D01*
X146470000Y-87263750D01*
X146470000Y-87776250D01*
X146468947Y-87797691D01*
X146465797Y-87818926D01*
X146460581Y-87839750D01*
X146453349Y-87859962D01*
X146444170Y-87879368D01*
X146433134Y-87897781D01*
X146420346Y-87915024D01*
X146405930Y-87930930D01*
X146390024Y-87945346D01*
X146372781Y-87958134D01*
X146354368Y-87969170D01*
X146334962Y-87978349D01*
X146314750Y-87985581D01*
X146293926Y-87990797D01*
X146272691Y-87993947D01*
X146251250Y-87995000D01*
X145813750Y-87995000D01*
X145792309Y-87993947D01*
X145771074Y-87990797D01*
X145750250Y-87985581D01*
X145730038Y-87978349D01*
X145710632Y-87969170D01*
X145692219Y-87958134D01*
X145674976Y-87945346D01*
X145659070Y-87930930D01*
X145644654Y-87915024D01*
X145631866Y-87897781D01*
X145620830Y-87879368D01*
X145611651Y-87859962D01*
X145604419Y-87839750D01*
X145599203Y-87818926D01*
X145596053Y-87797691D01*
X145595000Y-87776250D01*
X145595000Y-87263750D01*
X145596053Y-87242309D01*
X145599203Y-87221074D01*
X145604419Y-87200250D01*
X145611651Y-87180038D01*
X145620830Y-87160632D01*
X145631866Y-87142219D01*
X145644654Y-87124976D01*
X145659070Y-87109070D01*
X145674976Y-87094654D01*
X145692219Y-87081866D01*
X145710632Y-87070830D01*
X145730038Y-87061651D01*
X145750250Y-87054419D01*
X145771074Y-87049203D01*
X145792309Y-87046053D01*
X145813750Y-87045000D01*
X146251250Y-87045000D01*
X146272691Y-87046053D01*
G37*
G36*
X147847691Y-87046053D02*
G01*
X147868926Y-87049203D01*
X147889750Y-87054419D01*
X147909962Y-87061651D01*
X147929368Y-87070830D01*
X147947781Y-87081866D01*
X147965024Y-87094654D01*
X147980930Y-87109070D01*
X147995346Y-87124976D01*
X148008134Y-87142219D01*
X148019170Y-87160632D01*
X148028349Y-87180038D01*
X148035581Y-87200250D01*
X148040797Y-87221074D01*
X148043947Y-87242309D01*
X148045000Y-87263750D01*
X148045000Y-87776250D01*
X148043947Y-87797691D01*
X148040797Y-87818926D01*
X148035581Y-87839750D01*
X148028349Y-87859962D01*
X148019170Y-87879368D01*
X148008134Y-87897781D01*
X147995346Y-87915024D01*
X147980930Y-87930930D01*
X147965024Y-87945346D01*
X147947781Y-87958134D01*
X147929368Y-87969170D01*
X147909962Y-87978349D01*
X147889750Y-87985581D01*
X147868926Y-87990797D01*
X147847691Y-87993947D01*
X147826250Y-87995000D01*
X147388750Y-87995000D01*
X147367309Y-87993947D01*
X147346074Y-87990797D01*
X147325250Y-87985581D01*
X147305038Y-87978349D01*
X147285632Y-87969170D01*
X147267219Y-87958134D01*
X147249976Y-87945346D01*
X147234070Y-87930930D01*
X147219654Y-87915024D01*
X147206866Y-87897781D01*
X147195830Y-87879368D01*
X147186651Y-87859962D01*
X147179419Y-87839750D01*
X147174203Y-87818926D01*
X147171053Y-87797691D01*
X147170000Y-87776250D01*
X147170000Y-87263750D01*
X147171053Y-87242309D01*
X147174203Y-87221074D01*
X147179419Y-87200250D01*
X147186651Y-87180038D01*
X147195830Y-87160632D01*
X147206866Y-87142219D01*
X147219654Y-87124976D01*
X147234070Y-87109070D01*
X147249976Y-87094654D01*
X147267219Y-87081866D01*
X147285632Y-87070830D01*
X147305038Y-87061651D01*
X147325250Y-87054419D01*
X147346074Y-87049203D01*
X147367309Y-87046053D01*
X147388750Y-87045000D01*
X147826250Y-87045000D01*
X147847691Y-87046053D01*
G37*
G36*
X153240951Y-102316461D02*
G01*
X153248232Y-102317541D01*
X153255371Y-102319329D01*
X153262301Y-102321809D01*
X153268955Y-102324956D01*
X153275268Y-102328740D01*
X153281179Y-102333124D01*
X153286633Y-102338067D01*
X153291576Y-102343521D01*
X153295960Y-102349432D01*
X153299744Y-102355745D01*
X153302891Y-102362399D01*
X153305371Y-102369329D01*
X153307159Y-102376468D01*
X153308239Y-102383749D01*
X153308600Y-102391100D01*
X153308600Y-102541100D01*
X153308239Y-102548451D01*
X153307159Y-102555732D01*
X153305371Y-102562871D01*
X153302891Y-102569801D01*
X153299744Y-102576455D01*
X153295960Y-102582768D01*
X153291576Y-102588679D01*
X153286633Y-102594133D01*
X153281179Y-102599076D01*
X153275268Y-102603460D01*
X153268955Y-102607244D01*
X153262301Y-102610391D01*
X153255371Y-102612871D01*
X153248232Y-102614659D01*
X153240951Y-102615739D01*
X153233600Y-102616100D01*
X151908600Y-102616100D01*
X151901249Y-102615739D01*
X151893968Y-102614659D01*
X151886829Y-102612871D01*
X151879899Y-102610391D01*
X151873245Y-102607244D01*
X151866932Y-102603460D01*
X151861021Y-102599076D01*
X151855567Y-102594133D01*
X151850624Y-102588679D01*
X151846240Y-102582768D01*
X151842456Y-102576455D01*
X151839309Y-102569801D01*
X151836829Y-102562871D01*
X151835041Y-102555732D01*
X151833961Y-102548451D01*
X151833600Y-102541100D01*
X151833600Y-102391100D01*
X151833961Y-102383749D01*
X151835041Y-102376468D01*
X151836829Y-102369329D01*
X151839309Y-102362399D01*
X151842456Y-102355745D01*
X151846240Y-102349432D01*
X151850624Y-102343521D01*
X151855567Y-102338067D01*
X151861021Y-102333124D01*
X151866932Y-102328740D01*
X151873245Y-102324956D01*
X151879899Y-102321809D01*
X151886829Y-102319329D01*
X151893968Y-102317541D01*
X151901249Y-102316461D01*
X151908600Y-102316100D01*
X153233600Y-102316100D01*
X153240951Y-102316461D01*
G37*
G36*
X153240951Y-102816461D02*
G01*
X153248232Y-102817541D01*
X153255371Y-102819329D01*
X153262301Y-102821809D01*
X153268955Y-102824956D01*
X153275268Y-102828740D01*
X153281179Y-102833124D01*
X153286633Y-102838067D01*
X153291576Y-102843521D01*
X153295960Y-102849432D01*
X153299744Y-102855745D01*
X153302891Y-102862399D01*
X153305371Y-102869329D01*
X153307159Y-102876468D01*
X153308239Y-102883749D01*
X153308600Y-102891100D01*
X153308600Y-103041100D01*
X153308239Y-103048451D01*
X153307159Y-103055732D01*
X153305371Y-103062871D01*
X153302891Y-103069801D01*
X153299744Y-103076455D01*
X153295960Y-103082768D01*
X153291576Y-103088679D01*
X153286633Y-103094133D01*
X153281179Y-103099076D01*
X153275268Y-103103460D01*
X153268955Y-103107244D01*
X153262301Y-103110391D01*
X153255371Y-103112871D01*
X153248232Y-103114659D01*
X153240951Y-103115739D01*
X153233600Y-103116100D01*
X151908600Y-103116100D01*
X151901249Y-103115739D01*
X151893968Y-103114659D01*
X151886829Y-103112871D01*
X151879899Y-103110391D01*
X151873245Y-103107244D01*
X151866932Y-103103460D01*
X151861021Y-103099076D01*
X151855567Y-103094133D01*
X151850624Y-103088679D01*
X151846240Y-103082768D01*
X151842456Y-103076455D01*
X151839309Y-103069801D01*
X151836829Y-103062871D01*
X151835041Y-103055732D01*
X151833961Y-103048451D01*
X151833600Y-103041100D01*
X151833600Y-102891100D01*
X151833961Y-102883749D01*
X151835041Y-102876468D01*
X151836829Y-102869329D01*
X151839309Y-102862399D01*
X151842456Y-102855745D01*
X151846240Y-102849432D01*
X151850624Y-102843521D01*
X151855567Y-102838067D01*
X151861021Y-102833124D01*
X151866932Y-102828740D01*
X151873245Y-102824956D01*
X151879899Y-102821809D01*
X151886829Y-102819329D01*
X151893968Y-102817541D01*
X151901249Y-102816461D01*
X151908600Y-102816100D01*
X153233600Y-102816100D01*
X153240951Y-102816461D01*
G37*
G36*
X153240951Y-103316461D02*
G01*
X153248232Y-103317541D01*
X153255371Y-103319329D01*
X153262301Y-103321809D01*
X153268955Y-103324956D01*
X153275268Y-103328740D01*
X153281179Y-103333124D01*
X153286633Y-103338067D01*
X153291576Y-103343521D01*
X153295960Y-103349432D01*
X153299744Y-103355745D01*
X153302891Y-103362399D01*
X153305371Y-103369329D01*
X153307159Y-103376468D01*
X153308239Y-103383749D01*
X153308600Y-103391100D01*
X153308600Y-103541100D01*
X153308239Y-103548451D01*
X153307159Y-103555732D01*
X153305371Y-103562871D01*
X153302891Y-103569801D01*
X153299744Y-103576455D01*
X153295960Y-103582768D01*
X153291576Y-103588679D01*
X153286633Y-103594133D01*
X153281179Y-103599076D01*
X153275268Y-103603460D01*
X153268955Y-103607244D01*
X153262301Y-103610391D01*
X153255371Y-103612871D01*
X153248232Y-103614659D01*
X153240951Y-103615739D01*
X153233600Y-103616100D01*
X151908600Y-103616100D01*
X151901249Y-103615739D01*
X151893968Y-103614659D01*
X151886829Y-103612871D01*
X151879899Y-103610391D01*
X151873245Y-103607244D01*
X151866932Y-103603460D01*
X151861021Y-103599076D01*
X151855567Y-103594133D01*
X151850624Y-103588679D01*
X151846240Y-103582768D01*
X151842456Y-103576455D01*
X151839309Y-103569801D01*
X151836829Y-103562871D01*
X151835041Y-103555732D01*
X151833961Y-103548451D01*
X151833600Y-103541100D01*
X151833600Y-103391100D01*
X151833961Y-103383749D01*
X151835041Y-103376468D01*
X151836829Y-103369329D01*
X151839309Y-103362399D01*
X151842456Y-103355745D01*
X151846240Y-103349432D01*
X151850624Y-103343521D01*
X151855567Y-103338067D01*
X151861021Y-103333124D01*
X151866932Y-103328740D01*
X151873245Y-103324956D01*
X151879899Y-103321809D01*
X151886829Y-103319329D01*
X151893968Y-103317541D01*
X151901249Y-103316461D01*
X151908600Y-103316100D01*
X153233600Y-103316100D01*
X153240951Y-103316461D01*
G37*
G36*
X153240951Y-103816461D02*
G01*
X153248232Y-103817541D01*
X153255371Y-103819329D01*
X153262301Y-103821809D01*
X153268955Y-103824956D01*
X153275268Y-103828740D01*
X153281179Y-103833124D01*
X153286633Y-103838067D01*
X153291576Y-103843521D01*
X153295960Y-103849432D01*
X153299744Y-103855745D01*
X153302891Y-103862399D01*
X153305371Y-103869329D01*
X153307159Y-103876468D01*
X153308239Y-103883749D01*
X153308600Y-103891100D01*
X153308600Y-104041100D01*
X153308239Y-104048451D01*
X153307159Y-104055732D01*
X153305371Y-104062871D01*
X153302891Y-104069801D01*
X153299744Y-104076455D01*
X153295960Y-104082768D01*
X153291576Y-104088679D01*
X153286633Y-104094133D01*
X153281179Y-104099076D01*
X153275268Y-104103460D01*
X153268955Y-104107244D01*
X153262301Y-104110391D01*
X153255371Y-104112871D01*
X153248232Y-104114659D01*
X153240951Y-104115739D01*
X153233600Y-104116100D01*
X151908600Y-104116100D01*
X151901249Y-104115739D01*
X151893968Y-104114659D01*
X151886829Y-104112871D01*
X151879899Y-104110391D01*
X151873245Y-104107244D01*
X151866932Y-104103460D01*
X151861021Y-104099076D01*
X151855567Y-104094133D01*
X151850624Y-104088679D01*
X151846240Y-104082768D01*
X151842456Y-104076455D01*
X151839309Y-104069801D01*
X151836829Y-104062871D01*
X151835041Y-104055732D01*
X151833961Y-104048451D01*
X151833600Y-104041100D01*
X151833600Y-103891100D01*
X151833961Y-103883749D01*
X151835041Y-103876468D01*
X151836829Y-103869329D01*
X151839309Y-103862399D01*
X151842456Y-103855745D01*
X151846240Y-103849432D01*
X151850624Y-103843521D01*
X151855567Y-103838067D01*
X151861021Y-103833124D01*
X151866932Y-103828740D01*
X151873245Y-103824956D01*
X151879899Y-103821809D01*
X151886829Y-103819329D01*
X151893968Y-103817541D01*
X151901249Y-103816461D01*
X151908600Y-103816100D01*
X153233600Y-103816100D01*
X153240951Y-103816461D01*
G37*
G36*
X153240951Y-104316461D02*
G01*
X153248232Y-104317541D01*
X153255371Y-104319329D01*
X153262301Y-104321809D01*
X153268955Y-104324956D01*
X153275268Y-104328740D01*
X153281179Y-104333124D01*
X153286633Y-104338067D01*
X153291576Y-104343521D01*
X153295960Y-104349432D01*
X153299744Y-104355745D01*
X153302891Y-104362399D01*
X153305371Y-104369329D01*
X153307159Y-104376468D01*
X153308239Y-104383749D01*
X153308600Y-104391100D01*
X153308600Y-104541100D01*
X153308239Y-104548451D01*
X153307159Y-104555732D01*
X153305371Y-104562871D01*
X153302891Y-104569801D01*
X153299744Y-104576455D01*
X153295960Y-104582768D01*
X153291576Y-104588679D01*
X153286633Y-104594133D01*
X153281179Y-104599076D01*
X153275268Y-104603460D01*
X153268955Y-104607244D01*
X153262301Y-104610391D01*
X153255371Y-104612871D01*
X153248232Y-104614659D01*
X153240951Y-104615739D01*
X153233600Y-104616100D01*
X151908600Y-104616100D01*
X151901249Y-104615739D01*
X151893968Y-104614659D01*
X151886829Y-104612871D01*
X151879899Y-104610391D01*
X151873245Y-104607244D01*
X151866932Y-104603460D01*
X151861021Y-104599076D01*
X151855567Y-104594133D01*
X151850624Y-104588679D01*
X151846240Y-104582768D01*
X151842456Y-104576455D01*
X151839309Y-104569801D01*
X151836829Y-104562871D01*
X151835041Y-104555732D01*
X151833961Y-104548451D01*
X151833600Y-104541100D01*
X151833600Y-104391100D01*
X151833961Y-104383749D01*
X151835041Y-104376468D01*
X151836829Y-104369329D01*
X151839309Y-104362399D01*
X151842456Y-104355745D01*
X151846240Y-104349432D01*
X151850624Y-104343521D01*
X151855567Y-104338067D01*
X151861021Y-104333124D01*
X151866932Y-104328740D01*
X151873245Y-104324956D01*
X151879899Y-104321809D01*
X151886829Y-104319329D01*
X151893968Y-104317541D01*
X151901249Y-104316461D01*
X151908600Y-104316100D01*
X153233600Y-104316100D01*
X153240951Y-104316461D01*
G37*
G36*
X153240951Y-104816461D02*
G01*
X153248232Y-104817541D01*
X153255371Y-104819329D01*
X153262301Y-104821809D01*
X153268955Y-104824956D01*
X153275268Y-104828740D01*
X153281179Y-104833124D01*
X153286633Y-104838067D01*
X153291576Y-104843521D01*
X153295960Y-104849432D01*
X153299744Y-104855745D01*
X153302891Y-104862399D01*
X153305371Y-104869329D01*
X153307159Y-104876468D01*
X153308239Y-104883749D01*
X153308600Y-104891100D01*
X153308600Y-105041100D01*
X153308239Y-105048451D01*
X153307159Y-105055732D01*
X153305371Y-105062871D01*
X153302891Y-105069801D01*
X153299744Y-105076455D01*
X153295960Y-105082768D01*
X153291576Y-105088679D01*
X153286633Y-105094133D01*
X153281179Y-105099076D01*
X153275268Y-105103460D01*
X153268955Y-105107244D01*
X153262301Y-105110391D01*
X153255371Y-105112871D01*
X153248232Y-105114659D01*
X153240951Y-105115739D01*
X153233600Y-105116100D01*
X151908600Y-105116100D01*
X151901249Y-105115739D01*
X151893968Y-105114659D01*
X151886829Y-105112871D01*
X151879899Y-105110391D01*
X151873245Y-105107244D01*
X151866932Y-105103460D01*
X151861021Y-105099076D01*
X151855567Y-105094133D01*
X151850624Y-105088679D01*
X151846240Y-105082768D01*
X151842456Y-105076455D01*
X151839309Y-105069801D01*
X151836829Y-105062871D01*
X151835041Y-105055732D01*
X151833961Y-105048451D01*
X151833600Y-105041100D01*
X151833600Y-104891100D01*
X151833961Y-104883749D01*
X151835041Y-104876468D01*
X151836829Y-104869329D01*
X151839309Y-104862399D01*
X151842456Y-104855745D01*
X151846240Y-104849432D01*
X151850624Y-104843521D01*
X151855567Y-104838067D01*
X151861021Y-104833124D01*
X151866932Y-104828740D01*
X151873245Y-104824956D01*
X151879899Y-104821809D01*
X151886829Y-104819329D01*
X151893968Y-104817541D01*
X151901249Y-104816461D01*
X151908600Y-104816100D01*
X153233600Y-104816100D01*
X153240951Y-104816461D01*
G37*
G36*
X153240951Y-105316461D02*
G01*
X153248232Y-105317541D01*
X153255371Y-105319329D01*
X153262301Y-105321809D01*
X153268955Y-105324956D01*
X153275268Y-105328740D01*
X153281179Y-105333124D01*
X153286633Y-105338067D01*
X153291576Y-105343521D01*
X153295960Y-105349432D01*
X153299744Y-105355745D01*
X153302891Y-105362399D01*
X153305371Y-105369329D01*
X153307159Y-105376468D01*
X153308239Y-105383749D01*
X153308600Y-105391100D01*
X153308600Y-105541100D01*
X153308239Y-105548451D01*
X153307159Y-105555732D01*
X153305371Y-105562871D01*
X153302891Y-105569801D01*
X153299744Y-105576455D01*
X153295960Y-105582768D01*
X153291576Y-105588679D01*
X153286633Y-105594133D01*
X153281179Y-105599076D01*
X153275268Y-105603460D01*
X153268955Y-105607244D01*
X153262301Y-105610391D01*
X153255371Y-105612871D01*
X153248232Y-105614659D01*
X153240951Y-105615739D01*
X153233600Y-105616100D01*
X151908600Y-105616100D01*
X151901249Y-105615739D01*
X151893968Y-105614659D01*
X151886829Y-105612871D01*
X151879899Y-105610391D01*
X151873245Y-105607244D01*
X151866932Y-105603460D01*
X151861021Y-105599076D01*
X151855567Y-105594133D01*
X151850624Y-105588679D01*
X151846240Y-105582768D01*
X151842456Y-105576455D01*
X151839309Y-105569801D01*
X151836829Y-105562871D01*
X151835041Y-105555732D01*
X151833961Y-105548451D01*
X151833600Y-105541100D01*
X151833600Y-105391100D01*
X151833961Y-105383749D01*
X151835041Y-105376468D01*
X151836829Y-105369329D01*
X151839309Y-105362399D01*
X151842456Y-105355745D01*
X151846240Y-105349432D01*
X151850624Y-105343521D01*
X151855567Y-105338067D01*
X151861021Y-105333124D01*
X151866932Y-105328740D01*
X151873245Y-105324956D01*
X151879899Y-105321809D01*
X151886829Y-105319329D01*
X151893968Y-105317541D01*
X151901249Y-105316461D01*
X151908600Y-105316100D01*
X153233600Y-105316100D01*
X153240951Y-105316461D01*
G37*
G36*
X153240951Y-105816461D02*
G01*
X153248232Y-105817541D01*
X153255371Y-105819329D01*
X153262301Y-105821809D01*
X153268955Y-105824956D01*
X153275268Y-105828740D01*
X153281179Y-105833124D01*
X153286633Y-105838067D01*
X153291576Y-105843521D01*
X153295960Y-105849432D01*
X153299744Y-105855745D01*
X153302891Y-105862399D01*
X153305371Y-105869329D01*
X153307159Y-105876468D01*
X153308239Y-105883749D01*
X153308600Y-105891100D01*
X153308600Y-106041100D01*
X153308239Y-106048451D01*
X153307159Y-106055732D01*
X153305371Y-106062871D01*
X153302891Y-106069801D01*
X153299744Y-106076455D01*
X153295960Y-106082768D01*
X153291576Y-106088679D01*
X153286633Y-106094133D01*
X153281179Y-106099076D01*
X153275268Y-106103460D01*
X153268955Y-106107244D01*
X153262301Y-106110391D01*
X153255371Y-106112871D01*
X153248232Y-106114659D01*
X153240951Y-106115739D01*
X153233600Y-106116100D01*
X151908600Y-106116100D01*
X151901249Y-106115739D01*
X151893968Y-106114659D01*
X151886829Y-106112871D01*
X151879899Y-106110391D01*
X151873245Y-106107244D01*
X151866932Y-106103460D01*
X151861021Y-106099076D01*
X151855567Y-106094133D01*
X151850624Y-106088679D01*
X151846240Y-106082768D01*
X151842456Y-106076455D01*
X151839309Y-106069801D01*
X151836829Y-106062871D01*
X151835041Y-106055732D01*
X151833961Y-106048451D01*
X151833600Y-106041100D01*
X151833600Y-105891100D01*
X151833961Y-105883749D01*
X151835041Y-105876468D01*
X151836829Y-105869329D01*
X151839309Y-105862399D01*
X151842456Y-105855745D01*
X151846240Y-105849432D01*
X151850624Y-105843521D01*
X151855567Y-105838067D01*
X151861021Y-105833124D01*
X151866932Y-105828740D01*
X151873245Y-105824956D01*
X151879899Y-105821809D01*
X151886829Y-105819329D01*
X151893968Y-105817541D01*
X151901249Y-105816461D01*
X151908600Y-105816100D01*
X153233600Y-105816100D01*
X153240951Y-105816461D01*
G37*
G36*
X153240951Y-106316461D02*
G01*
X153248232Y-106317541D01*
X153255371Y-106319329D01*
X153262301Y-106321809D01*
X153268955Y-106324956D01*
X153275268Y-106328740D01*
X153281179Y-106333124D01*
X153286633Y-106338067D01*
X153291576Y-106343521D01*
X153295960Y-106349432D01*
X153299744Y-106355745D01*
X153302891Y-106362399D01*
X153305371Y-106369329D01*
X153307159Y-106376468D01*
X153308239Y-106383749D01*
X153308600Y-106391100D01*
X153308600Y-106541100D01*
X153308239Y-106548451D01*
X153307159Y-106555732D01*
X153305371Y-106562871D01*
X153302891Y-106569801D01*
X153299744Y-106576455D01*
X153295960Y-106582768D01*
X153291576Y-106588679D01*
X153286633Y-106594133D01*
X153281179Y-106599076D01*
X153275268Y-106603460D01*
X153268955Y-106607244D01*
X153262301Y-106610391D01*
X153255371Y-106612871D01*
X153248232Y-106614659D01*
X153240951Y-106615739D01*
X153233600Y-106616100D01*
X151908600Y-106616100D01*
X151901249Y-106615739D01*
X151893968Y-106614659D01*
X151886829Y-106612871D01*
X151879899Y-106610391D01*
X151873245Y-106607244D01*
X151866932Y-106603460D01*
X151861021Y-106599076D01*
X151855567Y-106594133D01*
X151850624Y-106588679D01*
X151846240Y-106582768D01*
X151842456Y-106576455D01*
X151839309Y-106569801D01*
X151836829Y-106562871D01*
X151835041Y-106555732D01*
X151833961Y-106548451D01*
X151833600Y-106541100D01*
X151833600Y-106391100D01*
X151833961Y-106383749D01*
X151835041Y-106376468D01*
X151836829Y-106369329D01*
X151839309Y-106362399D01*
X151842456Y-106355745D01*
X151846240Y-106349432D01*
X151850624Y-106343521D01*
X151855567Y-106338067D01*
X151861021Y-106333124D01*
X151866932Y-106328740D01*
X151873245Y-106324956D01*
X151879899Y-106321809D01*
X151886829Y-106319329D01*
X151893968Y-106317541D01*
X151901249Y-106316461D01*
X151908600Y-106316100D01*
X153233600Y-106316100D01*
X153240951Y-106316461D01*
G37*
G36*
X153240951Y-106816461D02*
G01*
X153248232Y-106817541D01*
X153255371Y-106819329D01*
X153262301Y-106821809D01*
X153268955Y-106824956D01*
X153275268Y-106828740D01*
X153281179Y-106833124D01*
X153286633Y-106838067D01*
X153291576Y-106843521D01*
X153295960Y-106849432D01*
X153299744Y-106855745D01*
X153302891Y-106862399D01*
X153305371Y-106869329D01*
X153307159Y-106876468D01*
X153308239Y-106883749D01*
X153308600Y-106891100D01*
X153308600Y-107041100D01*
X153308239Y-107048451D01*
X153307159Y-107055732D01*
X153305371Y-107062871D01*
X153302891Y-107069801D01*
X153299744Y-107076455D01*
X153295960Y-107082768D01*
X153291576Y-107088679D01*
X153286633Y-107094133D01*
X153281179Y-107099076D01*
X153275268Y-107103460D01*
X153268955Y-107107244D01*
X153262301Y-107110391D01*
X153255371Y-107112871D01*
X153248232Y-107114659D01*
X153240951Y-107115739D01*
X153233600Y-107116100D01*
X151908600Y-107116100D01*
X151901249Y-107115739D01*
X151893968Y-107114659D01*
X151886829Y-107112871D01*
X151879899Y-107110391D01*
X151873245Y-107107244D01*
X151866932Y-107103460D01*
X151861021Y-107099076D01*
X151855567Y-107094133D01*
X151850624Y-107088679D01*
X151846240Y-107082768D01*
X151842456Y-107076455D01*
X151839309Y-107069801D01*
X151836829Y-107062871D01*
X151835041Y-107055732D01*
X151833961Y-107048451D01*
X151833600Y-107041100D01*
X151833600Y-106891100D01*
X151833961Y-106883749D01*
X151835041Y-106876468D01*
X151836829Y-106869329D01*
X151839309Y-106862399D01*
X151842456Y-106855745D01*
X151846240Y-106849432D01*
X151850624Y-106843521D01*
X151855567Y-106838067D01*
X151861021Y-106833124D01*
X151866932Y-106828740D01*
X151873245Y-106824956D01*
X151879899Y-106821809D01*
X151886829Y-106819329D01*
X151893968Y-106817541D01*
X151901249Y-106816461D01*
X151908600Y-106816100D01*
X153233600Y-106816100D01*
X153240951Y-106816461D01*
G37*
G36*
X153240951Y-107316461D02*
G01*
X153248232Y-107317541D01*
X153255371Y-107319329D01*
X153262301Y-107321809D01*
X153268955Y-107324956D01*
X153275268Y-107328740D01*
X153281179Y-107333124D01*
X153286633Y-107338067D01*
X153291576Y-107343521D01*
X153295960Y-107349432D01*
X153299744Y-107355745D01*
X153302891Y-107362399D01*
X153305371Y-107369329D01*
X153307159Y-107376468D01*
X153308239Y-107383749D01*
X153308600Y-107391100D01*
X153308600Y-107541100D01*
X153308239Y-107548451D01*
X153307159Y-107555732D01*
X153305371Y-107562871D01*
X153302891Y-107569801D01*
X153299744Y-107576455D01*
X153295960Y-107582768D01*
X153291576Y-107588679D01*
X153286633Y-107594133D01*
X153281179Y-107599076D01*
X153275268Y-107603460D01*
X153268955Y-107607244D01*
X153262301Y-107610391D01*
X153255371Y-107612871D01*
X153248232Y-107614659D01*
X153240951Y-107615739D01*
X153233600Y-107616100D01*
X151908600Y-107616100D01*
X151901249Y-107615739D01*
X151893968Y-107614659D01*
X151886829Y-107612871D01*
X151879899Y-107610391D01*
X151873245Y-107607244D01*
X151866932Y-107603460D01*
X151861021Y-107599076D01*
X151855567Y-107594133D01*
X151850624Y-107588679D01*
X151846240Y-107582768D01*
X151842456Y-107576455D01*
X151839309Y-107569801D01*
X151836829Y-107562871D01*
X151835041Y-107555732D01*
X151833961Y-107548451D01*
X151833600Y-107541100D01*
X151833600Y-107391100D01*
X151833961Y-107383749D01*
X151835041Y-107376468D01*
X151836829Y-107369329D01*
X151839309Y-107362399D01*
X151842456Y-107355745D01*
X151846240Y-107349432D01*
X151850624Y-107343521D01*
X151855567Y-107338067D01*
X151861021Y-107333124D01*
X151866932Y-107328740D01*
X151873245Y-107324956D01*
X151879899Y-107321809D01*
X151886829Y-107319329D01*
X151893968Y-107317541D01*
X151901249Y-107316461D01*
X151908600Y-107316100D01*
X153233600Y-107316100D01*
X153240951Y-107316461D01*
G37*
G36*
X153240951Y-107816461D02*
G01*
X153248232Y-107817541D01*
X153255371Y-107819329D01*
X153262301Y-107821809D01*
X153268955Y-107824956D01*
X153275268Y-107828740D01*
X153281179Y-107833124D01*
X153286633Y-107838067D01*
X153291576Y-107843521D01*
X153295960Y-107849432D01*
X153299744Y-107855745D01*
X153302891Y-107862399D01*
X153305371Y-107869329D01*
X153307159Y-107876468D01*
X153308239Y-107883749D01*
X153308600Y-107891100D01*
X153308600Y-108041100D01*
X153308239Y-108048451D01*
X153307159Y-108055732D01*
X153305371Y-108062871D01*
X153302891Y-108069801D01*
X153299744Y-108076455D01*
X153295960Y-108082768D01*
X153291576Y-108088679D01*
X153286633Y-108094133D01*
X153281179Y-108099076D01*
X153275268Y-108103460D01*
X153268955Y-108107244D01*
X153262301Y-108110391D01*
X153255371Y-108112871D01*
X153248232Y-108114659D01*
X153240951Y-108115739D01*
X153233600Y-108116100D01*
X151908600Y-108116100D01*
X151901249Y-108115739D01*
X151893968Y-108114659D01*
X151886829Y-108112871D01*
X151879899Y-108110391D01*
X151873245Y-108107244D01*
X151866932Y-108103460D01*
X151861021Y-108099076D01*
X151855567Y-108094133D01*
X151850624Y-108088679D01*
X151846240Y-108082768D01*
X151842456Y-108076455D01*
X151839309Y-108069801D01*
X151836829Y-108062871D01*
X151835041Y-108055732D01*
X151833961Y-108048451D01*
X151833600Y-108041100D01*
X151833600Y-107891100D01*
X151833961Y-107883749D01*
X151835041Y-107876468D01*
X151836829Y-107869329D01*
X151839309Y-107862399D01*
X151842456Y-107855745D01*
X151846240Y-107849432D01*
X151850624Y-107843521D01*
X151855567Y-107838067D01*
X151861021Y-107833124D01*
X151866932Y-107828740D01*
X151873245Y-107824956D01*
X151879899Y-107821809D01*
X151886829Y-107819329D01*
X151893968Y-107817541D01*
X151901249Y-107816461D01*
X151908600Y-107816100D01*
X153233600Y-107816100D01*
X153240951Y-107816461D01*
G37*
G36*
X151240951Y-108641461D02*
G01*
X151248232Y-108642541D01*
X151255371Y-108644329D01*
X151262301Y-108646809D01*
X151268955Y-108649956D01*
X151275268Y-108653740D01*
X151281179Y-108658124D01*
X151286633Y-108663067D01*
X151291576Y-108668521D01*
X151295960Y-108674432D01*
X151299744Y-108680745D01*
X151302891Y-108687399D01*
X151305371Y-108694329D01*
X151307159Y-108701468D01*
X151308239Y-108708749D01*
X151308600Y-108716100D01*
X151308600Y-110041100D01*
X151308239Y-110048451D01*
X151307159Y-110055732D01*
X151305371Y-110062871D01*
X151302891Y-110069801D01*
X151299744Y-110076455D01*
X151295960Y-110082768D01*
X151291576Y-110088679D01*
X151286633Y-110094133D01*
X151281179Y-110099076D01*
X151275268Y-110103460D01*
X151268955Y-110107244D01*
X151262301Y-110110391D01*
X151255371Y-110112871D01*
X151248232Y-110114659D01*
X151240951Y-110115739D01*
X151233600Y-110116100D01*
X151083600Y-110116100D01*
X151076249Y-110115739D01*
X151068968Y-110114659D01*
X151061829Y-110112871D01*
X151054899Y-110110391D01*
X151048245Y-110107244D01*
X151041932Y-110103460D01*
X151036021Y-110099076D01*
X151030567Y-110094133D01*
X151025624Y-110088679D01*
X151021240Y-110082768D01*
X151017456Y-110076455D01*
X151014309Y-110069801D01*
X151011829Y-110062871D01*
X151010041Y-110055732D01*
X151008961Y-110048451D01*
X151008600Y-110041100D01*
X151008600Y-108716100D01*
X151008961Y-108708749D01*
X151010041Y-108701468D01*
X151011829Y-108694329D01*
X151014309Y-108687399D01*
X151017456Y-108680745D01*
X151021240Y-108674432D01*
X151025624Y-108668521D01*
X151030567Y-108663067D01*
X151036021Y-108658124D01*
X151041932Y-108653740D01*
X151048245Y-108649956D01*
X151054899Y-108646809D01*
X151061829Y-108644329D01*
X151068968Y-108642541D01*
X151076249Y-108641461D01*
X151083600Y-108641100D01*
X151233600Y-108641100D01*
X151240951Y-108641461D01*
G37*
G36*
X150740951Y-108641461D02*
G01*
X150748232Y-108642541D01*
X150755371Y-108644329D01*
X150762301Y-108646809D01*
X150768955Y-108649956D01*
X150775268Y-108653740D01*
X150781179Y-108658124D01*
X150786633Y-108663067D01*
X150791576Y-108668521D01*
X150795960Y-108674432D01*
X150799744Y-108680745D01*
X150802891Y-108687399D01*
X150805371Y-108694329D01*
X150807159Y-108701468D01*
X150808239Y-108708749D01*
X150808600Y-108716100D01*
X150808600Y-110041100D01*
X150808239Y-110048451D01*
X150807159Y-110055732D01*
X150805371Y-110062871D01*
X150802891Y-110069801D01*
X150799744Y-110076455D01*
X150795960Y-110082768D01*
X150791576Y-110088679D01*
X150786633Y-110094133D01*
X150781179Y-110099076D01*
X150775268Y-110103460D01*
X150768955Y-110107244D01*
X150762301Y-110110391D01*
X150755371Y-110112871D01*
X150748232Y-110114659D01*
X150740951Y-110115739D01*
X150733600Y-110116100D01*
X150583600Y-110116100D01*
X150576249Y-110115739D01*
X150568968Y-110114659D01*
X150561829Y-110112871D01*
X150554899Y-110110391D01*
X150548245Y-110107244D01*
X150541932Y-110103460D01*
X150536021Y-110099076D01*
X150530567Y-110094133D01*
X150525624Y-110088679D01*
X150521240Y-110082768D01*
X150517456Y-110076455D01*
X150514309Y-110069801D01*
X150511829Y-110062871D01*
X150510041Y-110055732D01*
X150508961Y-110048451D01*
X150508600Y-110041100D01*
X150508600Y-108716100D01*
X150508961Y-108708749D01*
X150510041Y-108701468D01*
X150511829Y-108694329D01*
X150514309Y-108687399D01*
X150517456Y-108680745D01*
X150521240Y-108674432D01*
X150525624Y-108668521D01*
X150530567Y-108663067D01*
X150536021Y-108658124D01*
X150541932Y-108653740D01*
X150548245Y-108649956D01*
X150554899Y-108646809D01*
X150561829Y-108644329D01*
X150568968Y-108642541D01*
X150576249Y-108641461D01*
X150583600Y-108641100D01*
X150733600Y-108641100D01*
X150740951Y-108641461D01*
G37*
G36*
X150240951Y-108641461D02*
G01*
X150248232Y-108642541D01*
X150255371Y-108644329D01*
X150262301Y-108646809D01*
X150268955Y-108649956D01*
X150275268Y-108653740D01*
X150281179Y-108658124D01*
X150286633Y-108663067D01*
X150291576Y-108668521D01*
X150295960Y-108674432D01*
X150299744Y-108680745D01*
X150302891Y-108687399D01*
X150305371Y-108694329D01*
X150307159Y-108701468D01*
X150308239Y-108708749D01*
X150308600Y-108716100D01*
X150308600Y-110041100D01*
X150308239Y-110048451D01*
X150307159Y-110055732D01*
X150305371Y-110062871D01*
X150302891Y-110069801D01*
X150299744Y-110076455D01*
X150295960Y-110082768D01*
X150291576Y-110088679D01*
X150286633Y-110094133D01*
X150281179Y-110099076D01*
X150275268Y-110103460D01*
X150268955Y-110107244D01*
X150262301Y-110110391D01*
X150255371Y-110112871D01*
X150248232Y-110114659D01*
X150240951Y-110115739D01*
X150233600Y-110116100D01*
X150083600Y-110116100D01*
X150076249Y-110115739D01*
X150068968Y-110114659D01*
X150061829Y-110112871D01*
X150054899Y-110110391D01*
X150048245Y-110107244D01*
X150041932Y-110103460D01*
X150036021Y-110099076D01*
X150030567Y-110094133D01*
X150025624Y-110088679D01*
X150021240Y-110082768D01*
X150017456Y-110076455D01*
X150014309Y-110069801D01*
X150011829Y-110062871D01*
X150010041Y-110055732D01*
X150008961Y-110048451D01*
X150008600Y-110041100D01*
X150008600Y-108716100D01*
X150008961Y-108708749D01*
X150010041Y-108701468D01*
X150011829Y-108694329D01*
X150014309Y-108687399D01*
X150017456Y-108680745D01*
X150021240Y-108674432D01*
X150025624Y-108668521D01*
X150030567Y-108663067D01*
X150036021Y-108658124D01*
X150041932Y-108653740D01*
X150048245Y-108649956D01*
X150054899Y-108646809D01*
X150061829Y-108644329D01*
X150068968Y-108642541D01*
X150076249Y-108641461D01*
X150083600Y-108641100D01*
X150233600Y-108641100D01*
X150240951Y-108641461D01*
G37*
G36*
X149740951Y-108641461D02*
G01*
X149748232Y-108642541D01*
X149755371Y-108644329D01*
X149762301Y-108646809D01*
X149768955Y-108649956D01*
X149775268Y-108653740D01*
X149781179Y-108658124D01*
X149786633Y-108663067D01*
X149791576Y-108668521D01*
X149795960Y-108674432D01*
X149799744Y-108680745D01*
X149802891Y-108687399D01*
X149805371Y-108694329D01*
X149807159Y-108701468D01*
X149808239Y-108708749D01*
X149808600Y-108716100D01*
X149808600Y-110041100D01*
X149808239Y-110048451D01*
X149807159Y-110055732D01*
X149805371Y-110062871D01*
X149802891Y-110069801D01*
X149799744Y-110076455D01*
X149795960Y-110082768D01*
X149791576Y-110088679D01*
X149786633Y-110094133D01*
X149781179Y-110099076D01*
X149775268Y-110103460D01*
X149768955Y-110107244D01*
X149762301Y-110110391D01*
X149755371Y-110112871D01*
X149748232Y-110114659D01*
X149740951Y-110115739D01*
X149733600Y-110116100D01*
X149583600Y-110116100D01*
X149576249Y-110115739D01*
X149568968Y-110114659D01*
X149561829Y-110112871D01*
X149554899Y-110110391D01*
X149548245Y-110107244D01*
X149541932Y-110103460D01*
X149536021Y-110099076D01*
X149530567Y-110094133D01*
X149525624Y-110088679D01*
X149521240Y-110082768D01*
X149517456Y-110076455D01*
X149514309Y-110069801D01*
X149511829Y-110062871D01*
X149510041Y-110055732D01*
X149508961Y-110048451D01*
X149508600Y-110041100D01*
X149508600Y-108716100D01*
X149508961Y-108708749D01*
X149510041Y-108701468D01*
X149511829Y-108694329D01*
X149514309Y-108687399D01*
X149517456Y-108680745D01*
X149521240Y-108674432D01*
X149525624Y-108668521D01*
X149530567Y-108663067D01*
X149536021Y-108658124D01*
X149541932Y-108653740D01*
X149548245Y-108649956D01*
X149554899Y-108646809D01*
X149561829Y-108644329D01*
X149568968Y-108642541D01*
X149576249Y-108641461D01*
X149583600Y-108641100D01*
X149733600Y-108641100D01*
X149740951Y-108641461D01*
G37*
G36*
X149240951Y-108641461D02*
G01*
X149248232Y-108642541D01*
X149255371Y-108644329D01*
X149262301Y-108646809D01*
X149268955Y-108649956D01*
X149275268Y-108653740D01*
X149281179Y-108658124D01*
X149286633Y-108663067D01*
X149291576Y-108668521D01*
X149295960Y-108674432D01*
X149299744Y-108680745D01*
X149302891Y-108687399D01*
X149305371Y-108694329D01*
X149307159Y-108701468D01*
X149308239Y-108708749D01*
X149308600Y-108716100D01*
X149308600Y-110041100D01*
X149308239Y-110048451D01*
X149307159Y-110055732D01*
X149305371Y-110062871D01*
X149302891Y-110069801D01*
X149299744Y-110076455D01*
X149295960Y-110082768D01*
X149291576Y-110088679D01*
X149286633Y-110094133D01*
X149281179Y-110099076D01*
X149275268Y-110103460D01*
X149268955Y-110107244D01*
X149262301Y-110110391D01*
X149255371Y-110112871D01*
X149248232Y-110114659D01*
X149240951Y-110115739D01*
X149233600Y-110116100D01*
X149083600Y-110116100D01*
X149076249Y-110115739D01*
X149068968Y-110114659D01*
X149061829Y-110112871D01*
X149054899Y-110110391D01*
X149048245Y-110107244D01*
X149041932Y-110103460D01*
X149036021Y-110099076D01*
X149030567Y-110094133D01*
X149025624Y-110088679D01*
X149021240Y-110082768D01*
X149017456Y-110076455D01*
X149014309Y-110069801D01*
X149011829Y-110062871D01*
X149010041Y-110055732D01*
X149008961Y-110048451D01*
X149008600Y-110041100D01*
X149008600Y-108716100D01*
X149008961Y-108708749D01*
X149010041Y-108701468D01*
X149011829Y-108694329D01*
X149014309Y-108687399D01*
X149017456Y-108680745D01*
X149021240Y-108674432D01*
X149025624Y-108668521D01*
X149030567Y-108663067D01*
X149036021Y-108658124D01*
X149041932Y-108653740D01*
X149048245Y-108649956D01*
X149054899Y-108646809D01*
X149061829Y-108644329D01*
X149068968Y-108642541D01*
X149076249Y-108641461D01*
X149083600Y-108641100D01*
X149233600Y-108641100D01*
X149240951Y-108641461D01*
G37*
G36*
X148740951Y-108641461D02*
G01*
X148748232Y-108642541D01*
X148755371Y-108644329D01*
X148762301Y-108646809D01*
X148768955Y-108649956D01*
X148775268Y-108653740D01*
X148781179Y-108658124D01*
X148786633Y-108663067D01*
X148791576Y-108668521D01*
X148795960Y-108674432D01*
X148799744Y-108680745D01*
X148802891Y-108687399D01*
X148805371Y-108694329D01*
X148807159Y-108701468D01*
X148808239Y-108708749D01*
X148808600Y-108716100D01*
X148808600Y-110041100D01*
X148808239Y-110048451D01*
X148807159Y-110055732D01*
X148805371Y-110062871D01*
X148802891Y-110069801D01*
X148799744Y-110076455D01*
X148795960Y-110082768D01*
X148791576Y-110088679D01*
X148786633Y-110094133D01*
X148781179Y-110099076D01*
X148775268Y-110103460D01*
X148768955Y-110107244D01*
X148762301Y-110110391D01*
X148755371Y-110112871D01*
X148748232Y-110114659D01*
X148740951Y-110115739D01*
X148733600Y-110116100D01*
X148583600Y-110116100D01*
X148576249Y-110115739D01*
X148568968Y-110114659D01*
X148561829Y-110112871D01*
X148554899Y-110110391D01*
X148548245Y-110107244D01*
X148541932Y-110103460D01*
X148536021Y-110099076D01*
X148530567Y-110094133D01*
X148525624Y-110088679D01*
X148521240Y-110082768D01*
X148517456Y-110076455D01*
X148514309Y-110069801D01*
X148511829Y-110062871D01*
X148510041Y-110055732D01*
X148508961Y-110048451D01*
X148508600Y-110041100D01*
X148508600Y-108716100D01*
X148508961Y-108708749D01*
X148510041Y-108701468D01*
X148511829Y-108694329D01*
X148514309Y-108687399D01*
X148517456Y-108680745D01*
X148521240Y-108674432D01*
X148525624Y-108668521D01*
X148530567Y-108663067D01*
X148536021Y-108658124D01*
X148541932Y-108653740D01*
X148548245Y-108649956D01*
X148554899Y-108646809D01*
X148561829Y-108644329D01*
X148568968Y-108642541D01*
X148576249Y-108641461D01*
X148583600Y-108641100D01*
X148733600Y-108641100D01*
X148740951Y-108641461D01*
G37*
G36*
X148240951Y-108641461D02*
G01*
X148248232Y-108642541D01*
X148255371Y-108644329D01*
X148262301Y-108646809D01*
X148268955Y-108649956D01*
X148275268Y-108653740D01*
X148281179Y-108658124D01*
X148286633Y-108663067D01*
X148291576Y-108668521D01*
X148295960Y-108674432D01*
X148299744Y-108680745D01*
X148302891Y-108687399D01*
X148305371Y-108694329D01*
X148307159Y-108701468D01*
X148308239Y-108708749D01*
X148308600Y-108716100D01*
X148308600Y-110041100D01*
X148308239Y-110048451D01*
X148307159Y-110055732D01*
X148305371Y-110062871D01*
X148302891Y-110069801D01*
X148299744Y-110076455D01*
X148295960Y-110082768D01*
X148291576Y-110088679D01*
X148286633Y-110094133D01*
X148281179Y-110099076D01*
X148275268Y-110103460D01*
X148268955Y-110107244D01*
X148262301Y-110110391D01*
X148255371Y-110112871D01*
X148248232Y-110114659D01*
X148240951Y-110115739D01*
X148233600Y-110116100D01*
X148083600Y-110116100D01*
X148076249Y-110115739D01*
X148068968Y-110114659D01*
X148061829Y-110112871D01*
X148054899Y-110110391D01*
X148048245Y-110107244D01*
X148041932Y-110103460D01*
X148036021Y-110099076D01*
X148030567Y-110094133D01*
X148025624Y-110088679D01*
X148021240Y-110082768D01*
X148017456Y-110076455D01*
X148014309Y-110069801D01*
X148011829Y-110062871D01*
X148010041Y-110055732D01*
X148008961Y-110048451D01*
X148008600Y-110041100D01*
X148008600Y-108716100D01*
X148008961Y-108708749D01*
X148010041Y-108701468D01*
X148011829Y-108694329D01*
X148014309Y-108687399D01*
X148017456Y-108680745D01*
X148021240Y-108674432D01*
X148025624Y-108668521D01*
X148030567Y-108663067D01*
X148036021Y-108658124D01*
X148041932Y-108653740D01*
X148048245Y-108649956D01*
X148054899Y-108646809D01*
X148061829Y-108644329D01*
X148068968Y-108642541D01*
X148076249Y-108641461D01*
X148083600Y-108641100D01*
X148233600Y-108641100D01*
X148240951Y-108641461D01*
G37*
G36*
X147740951Y-108641461D02*
G01*
X147748232Y-108642541D01*
X147755371Y-108644329D01*
X147762301Y-108646809D01*
X147768955Y-108649956D01*
X147775268Y-108653740D01*
X147781179Y-108658124D01*
X147786633Y-108663067D01*
X147791576Y-108668521D01*
X147795960Y-108674432D01*
X147799744Y-108680745D01*
X147802891Y-108687399D01*
X147805371Y-108694329D01*
X147807159Y-108701468D01*
X147808239Y-108708749D01*
X147808600Y-108716100D01*
X147808600Y-110041100D01*
X147808239Y-110048451D01*
X147807159Y-110055732D01*
X147805371Y-110062871D01*
X147802891Y-110069801D01*
X147799744Y-110076455D01*
X147795960Y-110082768D01*
X147791576Y-110088679D01*
X147786633Y-110094133D01*
X147781179Y-110099076D01*
X147775268Y-110103460D01*
X147768955Y-110107244D01*
X147762301Y-110110391D01*
X147755371Y-110112871D01*
X147748232Y-110114659D01*
X147740951Y-110115739D01*
X147733600Y-110116100D01*
X147583600Y-110116100D01*
X147576249Y-110115739D01*
X147568968Y-110114659D01*
X147561829Y-110112871D01*
X147554899Y-110110391D01*
X147548245Y-110107244D01*
X147541932Y-110103460D01*
X147536021Y-110099076D01*
X147530567Y-110094133D01*
X147525624Y-110088679D01*
X147521240Y-110082768D01*
X147517456Y-110076455D01*
X147514309Y-110069801D01*
X147511829Y-110062871D01*
X147510041Y-110055732D01*
X147508961Y-110048451D01*
X147508600Y-110041100D01*
X147508600Y-108716100D01*
X147508961Y-108708749D01*
X147510041Y-108701468D01*
X147511829Y-108694329D01*
X147514309Y-108687399D01*
X147517456Y-108680745D01*
X147521240Y-108674432D01*
X147525624Y-108668521D01*
X147530567Y-108663067D01*
X147536021Y-108658124D01*
X147541932Y-108653740D01*
X147548245Y-108649956D01*
X147554899Y-108646809D01*
X147561829Y-108644329D01*
X147568968Y-108642541D01*
X147576249Y-108641461D01*
X147583600Y-108641100D01*
X147733600Y-108641100D01*
X147740951Y-108641461D01*
G37*
G36*
X147240951Y-108641461D02*
G01*
X147248232Y-108642541D01*
X147255371Y-108644329D01*
X147262301Y-108646809D01*
X147268955Y-108649956D01*
X147275268Y-108653740D01*
X147281179Y-108658124D01*
X147286633Y-108663067D01*
X147291576Y-108668521D01*
X147295960Y-108674432D01*
X147299744Y-108680745D01*
X147302891Y-108687399D01*
X147305371Y-108694329D01*
X147307159Y-108701468D01*
X147308239Y-108708749D01*
X147308600Y-108716100D01*
X147308600Y-110041100D01*
X147308239Y-110048451D01*
X147307159Y-110055732D01*
X147305371Y-110062871D01*
X147302891Y-110069801D01*
X147299744Y-110076455D01*
X147295960Y-110082768D01*
X147291576Y-110088679D01*
X147286633Y-110094133D01*
X147281179Y-110099076D01*
X147275268Y-110103460D01*
X147268955Y-110107244D01*
X147262301Y-110110391D01*
X147255371Y-110112871D01*
X147248232Y-110114659D01*
X147240951Y-110115739D01*
X147233600Y-110116100D01*
X147083600Y-110116100D01*
X147076249Y-110115739D01*
X147068968Y-110114659D01*
X147061829Y-110112871D01*
X147054899Y-110110391D01*
X147048245Y-110107244D01*
X147041932Y-110103460D01*
X147036021Y-110099076D01*
X147030567Y-110094133D01*
X147025624Y-110088679D01*
X147021240Y-110082768D01*
X147017456Y-110076455D01*
X147014309Y-110069801D01*
X147011829Y-110062871D01*
X147010041Y-110055732D01*
X147008961Y-110048451D01*
X147008600Y-110041100D01*
X147008600Y-108716100D01*
X147008961Y-108708749D01*
X147010041Y-108701468D01*
X147011829Y-108694329D01*
X147014309Y-108687399D01*
X147017456Y-108680745D01*
X147021240Y-108674432D01*
X147025624Y-108668521D01*
X147030567Y-108663067D01*
X147036021Y-108658124D01*
X147041932Y-108653740D01*
X147048245Y-108649956D01*
X147054899Y-108646809D01*
X147061829Y-108644329D01*
X147068968Y-108642541D01*
X147076249Y-108641461D01*
X147083600Y-108641100D01*
X147233600Y-108641100D01*
X147240951Y-108641461D01*
G37*
G36*
X146740951Y-108641461D02*
G01*
X146748232Y-108642541D01*
X146755371Y-108644329D01*
X146762301Y-108646809D01*
X146768955Y-108649956D01*
X146775268Y-108653740D01*
X146781179Y-108658124D01*
X146786633Y-108663067D01*
X146791576Y-108668521D01*
X146795960Y-108674432D01*
X146799744Y-108680745D01*
X146802891Y-108687399D01*
X146805371Y-108694329D01*
X146807159Y-108701468D01*
X146808239Y-108708749D01*
X146808600Y-108716100D01*
X146808600Y-110041100D01*
X146808239Y-110048451D01*
X146807159Y-110055732D01*
X146805371Y-110062871D01*
X146802891Y-110069801D01*
X146799744Y-110076455D01*
X146795960Y-110082768D01*
X146791576Y-110088679D01*
X146786633Y-110094133D01*
X146781179Y-110099076D01*
X146775268Y-110103460D01*
X146768955Y-110107244D01*
X146762301Y-110110391D01*
X146755371Y-110112871D01*
X146748232Y-110114659D01*
X146740951Y-110115739D01*
X146733600Y-110116100D01*
X146583600Y-110116100D01*
X146576249Y-110115739D01*
X146568968Y-110114659D01*
X146561829Y-110112871D01*
X146554899Y-110110391D01*
X146548245Y-110107244D01*
X146541932Y-110103460D01*
X146536021Y-110099076D01*
X146530567Y-110094133D01*
X146525624Y-110088679D01*
X146521240Y-110082768D01*
X146517456Y-110076455D01*
X146514309Y-110069801D01*
X146511829Y-110062871D01*
X146510041Y-110055732D01*
X146508961Y-110048451D01*
X146508600Y-110041100D01*
X146508600Y-108716100D01*
X146508961Y-108708749D01*
X146510041Y-108701468D01*
X146511829Y-108694329D01*
X146514309Y-108687399D01*
X146517456Y-108680745D01*
X146521240Y-108674432D01*
X146525624Y-108668521D01*
X146530567Y-108663067D01*
X146536021Y-108658124D01*
X146541932Y-108653740D01*
X146548245Y-108649956D01*
X146554899Y-108646809D01*
X146561829Y-108644329D01*
X146568968Y-108642541D01*
X146576249Y-108641461D01*
X146583600Y-108641100D01*
X146733600Y-108641100D01*
X146740951Y-108641461D01*
G37*
G36*
X146240951Y-108641461D02*
G01*
X146248232Y-108642541D01*
X146255371Y-108644329D01*
X146262301Y-108646809D01*
X146268955Y-108649956D01*
X146275268Y-108653740D01*
X146281179Y-108658124D01*
X146286633Y-108663067D01*
X146291576Y-108668521D01*
X146295960Y-108674432D01*
X146299744Y-108680745D01*
X146302891Y-108687399D01*
X146305371Y-108694329D01*
X146307159Y-108701468D01*
X146308239Y-108708749D01*
X146308600Y-108716100D01*
X146308600Y-110041100D01*
X146308239Y-110048451D01*
X146307159Y-110055732D01*
X146305371Y-110062871D01*
X146302891Y-110069801D01*
X146299744Y-110076455D01*
X146295960Y-110082768D01*
X146291576Y-110088679D01*
X146286633Y-110094133D01*
X146281179Y-110099076D01*
X146275268Y-110103460D01*
X146268955Y-110107244D01*
X146262301Y-110110391D01*
X146255371Y-110112871D01*
X146248232Y-110114659D01*
X146240951Y-110115739D01*
X146233600Y-110116100D01*
X146083600Y-110116100D01*
X146076249Y-110115739D01*
X146068968Y-110114659D01*
X146061829Y-110112871D01*
X146054899Y-110110391D01*
X146048245Y-110107244D01*
X146041932Y-110103460D01*
X146036021Y-110099076D01*
X146030567Y-110094133D01*
X146025624Y-110088679D01*
X146021240Y-110082768D01*
X146017456Y-110076455D01*
X146014309Y-110069801D01*
X146011829Y-110062871D01*
X146010041Y-110055732D01*
X146008961Y-110048451D01*
X146008600Y-110041100D01*
X146008600Y-108716100D01*
X146008961Y-108708749D01*
X146010041Y-108701468D01*
X146011829Y-108694329D01*
X146014309Y-108687399D01*
X146017456Y-108680745D01*
X146021240Y-108674432D01*
X146025624Y-108668521D01*
X146030567Y-108663067D01*
X146036021Y-108658124D01*
X146041932Y-108653740D01*
X146048245Y-108649956D01*
X146054899Y-108646809D01*
X146061829Y-108644329D01*
X146068968Y-108642541D01*
X146076249Y-108641461D01*
X146083600Y-108641100D01*
X146233600Y-108641100D01*
X146240951Y-108641461D01*
G37*
G36*
X145740951Y-108641461D02*
G01*
X145748232Y-108642541D01*
X145755371Y-108644329D01*
X145762301Y-108646809D01*
X145768955Y-108649956D01*
X145775268Y-108653740D01*
X145781179Y-108658124D01*
X145786633Y-108663067D01*
X145791576Y-108668521D01*
X145795960Y-108674432D01*
X145799744Y-108680745D01*
X145802891Y-108687399D01*
X145805371Y-108694329D01*
X145807159Y-108701468D01*
X145808239Y-108708749D01*
X145808600Y-108716100D01*
X145808600Y-110041100D01*
X145808239Y-110048451D01*
X145807159Y-110055732D01*
X145805371Y-110062871D01*
X145802891Y-110069801D01*
X145799744Y-110076455D01*
X145795960Y-110082768D01*
X145791576Y-110088679D01*
X145786633Y-110094133D01*
X145781179Y-110099076D01*
X145775268Y-110103460D01*
X145768955Y-110107244D01*
X145762301Y-110110391D01*
X145755371Y-110112871D01*
X145748232Y-110114659D01*
X145740951Y-110115739D01*
X145733600Y-110116100D01*
X145583600Y-110116100D01*
X145576249Y-110115739D01*
X145568968Y-110114659D01*
X145561829Y-110112871D01*
X145554899Y-110110391D01*
X145548245Y-110107244D01*
X145541932Y-110103460D01*
X145536021Y-110099076D01*
X145530567Y-110094133D01*
X145525624Y-110088679D01*
X145521240Y-110082768D01*
X145517456Y-110076455D01*
X145514309Y-110069801D01*
X145511829Y-110062871D01*
X145510041Y-110055732D01*
X145508961Y-110048451D01*
X145508600Y-110041100D01*
X145508600Y-108716100D01*
X145508961Y-108708749D01*
X145510041Y-108701468D01*
X145511829Y-108694329D01*
X145514309Y-108687399D01*
X145517456Y-108680745D01*
X145521240Y-108674432D01*
X145525624Y-108668521D01*
X145530567Y-108663067D01*
X145536021Y-108658124D01*
X145541932Y-108653740D01*
X145548245Y-108649956D01*
X145554899Y-108646809D01*
X145561829Y-108644329D01*
X145568968Y-108642541D01*
X145576249Y-108641461D01*
X145583600Y-108641100D01*
X145733600Y-108641100D01*
X145740951Y-108641461D01*
G37*
G36*
X144915951Y-107816461D02*
G01*
X144923232Y-107817541D01*
X144930371Y-107819329D01*
X144937301Y-107821809D01*
X144943955Y-107824956D01*
X144950268Y-107828740D01*
X144956179Y-107833124D01*
X144961633Y-107838067D01*
X144966576Y-107843521D01*
X144970960Y-107849432D01*
X144974744Y-107855745D01*
X144977891Y-107862399D01*
X144980371Y-107869329D01*
X144982159Y-107876468D01*
X144983239Y-107883749D01*
X144983600Y-107891100D01*
X144983600Y-108041100D01*
X144983239Y-108048451D01*
X144982159Y-108055732D01*
X144980371Y-108062871D01*
X144977891Y-108069801D01*
X144974744Y-108076455D01*
X144970960Y-108082768D01*
X144966576Y-108088679D01*
X144961633Y-108094133D01*
X144956179Y-108099076D01*
X144950268Y-108103460D01*
X144943955Y-108107244D01*
X144937301Y-108110391D01*
X144930371Y-108112871D01*
X144923232Y-108114659D01*
X144915951Y-108115739D01*
X144908600Y-108116100D01*
X143583600Y-108116100D01*
X143576249Y-108115739D01*
X143568968Y-108114659D01*
X143561829Y-108112871D01*
X143554899Y-108110391D01*
X143548245Y-108107244D01*
X143541932Y-108103460D01*
X143536021Y-108099076D01*
X143530567Y-108094133D01*
X143525624Y-108088679D01*
X143521240Y-108082768D01*
X143517456Y-108076455D01*
X143514309Y-108069801D01*
X143511829Y-108062871D01*
X143510041Y-108055732D01*
X143508961Y-108048451D01*
X143508600Y-108041100D01*
X143508600Y-107891100D01*
X143508961Y-107883749D01*
X143510041Y-107876468D01*
X143511829Y-107869329D01*
X143514309Y-107862399D01*
X143517456Y-107855745D01*
X143521240Y-107849432D01*
X143525624Y-107843521D01*
X143530567Y-107838067D01*
X143536021Y-107833124D01*
X143541932Y-107828740D01*
X143548245Y-107824956D01*
X143554899Y-107821809D01*
X143561829Y-107819329D01*
X143568968Y-107817541D01*
X143576249Y-107816461D01*
X143583600Y-107816100D01*
X144908600Y-107816100D01*
X144915951Y-107816461D01*
G37*
G36*
X144915951Y-107316461D02*
G01*
X144923232Y-107317541D01*
X144930371Y-107319329D01*
X144937301Y-107321809D01*
X144943955Y-107324956D01*
X144950268Y-107328740D01*
X144956179Y-107333124D01*
X144961633Y-107338067D01*
X144966576Y-107343521D01*
X144970960Y-107349432D01*
X144974744Y-107355745D01*
X144977891Y-107362399D01*
X144980371Y-107369329D01*
X144982159Y-107376468D01*
X144983239Y-107383749D01*
X144983600Y-107391100D01*
X144983600Y-107541100D01*
X144983239Y-107548451D01*
X144982159Y-107555732D01*
X144980371Y-107562871D01*
X144977891Y-107569801D01*
X144974744Y-107576455D01*
X144970960Y-107582768D01*
X144966576Y-107588679D01*
X144961633Y-107594133D01*
X144956179Y-107599076D01*
X144950268Y-107603460D01*
X144943955Y-107607244D01*
X144937301Y-107610391D01*
X144930371Y-107612871D01*
X144923232Y-107614659D01*
X144915951Y-107615739D01*
X144908600Y-107616100D01*
X143583600Y-107616100D01*
X143576249Y-107615739D01*
X143568968Y-107614659D01*
X143561829Y-107612871D01*
X143554899Y-107610391D01*
X143548245Y-107607244D01*
X143541932Y-107603460D01*
X143536021Y-107599076D01*
X143530567Y-107594133D01*
X143525624Y-107588679D01*
X143521240Y-107582768D01*
X143517456Y-107576455D01*
X143514309Y-107569801D01*
X143511829Y-107562871D01*
X143510041Y-107555732D01*
X143508961Y-107548451D01*
X143508600Y-107541100D01*
X143508600Y-107391100D01*
X143508961Y-107383749D01*
X143510041Y-107376468D01*
X143511829Y-107369329D01*
X143514309Y-107362399D01*
X143517456Y-107355745D01*
X143521240Y-107349432D01*
X143525624Y-107343521D01*
X143530567Y-107338067D01*
X143536021Y-107333124D01*
X143541932Y-107328740D01*
X143548245Y-107324956D01*
X143554899Y-107321809D01*
X143561829Y-107319329D01*
X143568968Y-107317541D01*
X143576249Y-107316461D01*
X143583600Y-107316100D01*
X144908600Y-107316100D01*
X144915951Y-107316461D01*
G37*
G36*
X144915951Y-106816461D02*
G01*
X144923232Y-106817541D01*
X144930371Y-106819329D01*
X144937301Y-106821809D01*
X144943955Y-106824956D01*
X144950268Y-106828740D01*
X144956179Y-106833124D01*
X144961633Y-106838067D01*
X144966576Y-106843521D01*
X144970960Y-106849432D01*
X144974744Y-106855745D01*
X144977891Y-106862399D01*
X144980371Y-106869329D01*
X144982159Y-106876468D01*
X144983239Y-106883749D01*
X144983600Y-106891100D01*
X144983600Y-107041100D01*
X144983239Y-107048451D01*
X144982159Y-107055732D01*
X144980371Y-107062871D01*
X144977891Y-107069801D01*
X144974744Y-107076455D01*
X144970960Y-107082768D01*
X144966576Y-107088679D01*
X144961633Y-107094133D01*
X144956179Y-107099076D01*
X144950268Y-107103460D01*
X144943955Y-107107244D01*
X144937301Y-107110391D01*
X144930371Y-107112871D01*
X144923232Y-107114659D01*
X144915951Y-107115739D01*
X144908600Y-107116100D01*
X143583600Y-107116100D01*
X143576249Y-107115739D01*
X143568968Y-107114659D01*
X143561829Y-107112871D01*
X143554899Y-107110391D01*
X143548245Y-107107244D01*
X143541932Y-107103460D01*
X143536021Y-107099076D01*
X143530567Y-107094133D01*
X143525624Y-107088679D01*
X143521240Y-107082768D01*
X143517456Y-107076455D01*
X143514309Y-107069801D01*
X143511829Y-107062871D01*
X143510041Y-107055732D01*
X143508961Y-107048451D01*
X143508600Y-107041100D01*
X143508600Y-106891100D01*
X143508961Y-106883749D01*
X143510041Y-106876468D01*
X143511829Y-106869329D01*
X143514309Y-106862399D01*
X143517456Y-106855745D01*
X143521240Y-106849432D01*
X143525624Y-106843521D01*
X143530567Y-106838067D01*
X143536021Y-106833124D01*
X143541932Y-106828740D01*
X143548245Y-106824956D01*
X143554899Y-106821809D01*
X143561829Y-106819329D01*
X143568968Y-106817541D01*
X143576249Y-106816461D01*
X143583600Y-106816100D01*
X144908600Y-106816100D01*
X144915951Y-106816461D01*
G37*
G36*
X144915951Y-106316461D02*
G01*
X144923232Y-106317541D01*
X144930371Y-106319329D01*
X144937301Y-106321809D01*
X144943955Y-106324956D01*
X144950268Y-106328740D01*
X144956179Y-106333124D01*
X144961633Y-106338067D01*
X144966576Y-106343521D01*
X144970960Y-106349432D01*
X144974744Y-106355745D01*
X144977891Y-106362399D01*
X144980371Y-106369329D01*
X144982159Y-106376468D01*
X144983239Y-106383749D01*
X144983600Y-106391100D01*
X144983600Y-106541100D01*
X144983239Y-106548451D01*
X144982159Y-106555732D01*
X144980371Y-106562871D01*
X144977891Y-106569801D01*
X144974744Y-106576455D01*
X144970960Y-106582768D01*
X144966576Y-106588679D01*
X144961633Y-106594133D01*
X144956179Y-106599076D01*
X144950268Y-106603460D01*
X144943955Y-106607244D01*
X144937301Y-106610391D01*
X144930371Y-106612871D01*
X144923232Y-106614659D01*
X144915951Y-106615739D01*
X144908600Y-106616100D01*
X143583600Y-106616100D01*
X143576249Y-106615739D01*
X143568968Y-106614659D01*
X143561829Y-106612871D01*
X143554899Y-106610391D01*
X143548245Y-106607244D01*
X143541932Y-106603460D01*
X143536021Y-106599076D01*
X143530567Y-106594133D01*
X143525624Y-106588679D01*
X143521240Y-106582768D01*
X143517456Y-106576455D01*
X143514309Y-106569801D01*
X143511829Y-106562871D01*
X143510041Y-106555732D01*
X143508961Y-106548451D01*
X143508600Y-106541100D01*
X143508600Y-106391100D01*
X143508961Y-106383749D01*
X143510041Y-106376468D01*
X143511829Y-106369329D01*
X143514309Y-106362399D01*
X143517456Y-106355745D01*
X143521240Y-106349432D01*
X143525624Y-106343521D01*
X143530567Y-106338067D01*
X143536021Y-106333124D01*
X143541932Y-106328740D01*
X143548245Y-106324956D01*
X143554899Y-106321809D01*
X143561829Y-106319329D01*
X143568968Y-106317541D01*
X143576249Y-106316461D01*
X143583600Y-106316100D01*
X144908600Y-106316100D01*
X144915951Y-106316461D01*
G37*
G36*
X144915951Y-105816461D02*
G01*
X144923232Y-105817541D01*
X144930371Y-105819329D01*
X144937301Y-105821809D01*
X144943955Y-105824956D01*
X144950268Y-105828740D01*
X144956179Y-105833124D01*
X144961633Y-105838067D01*
X144966576Y-105843521D01*
X144970960Y-105849432D01*
X144974744Y-105855745D01*
X144977891Y-105862399D01*
X144980371Y-105869329D01*
X144982159Y-105876468D01*
X144983239Y-105883749D01*
X144983600Y-105891100D01*
X144983600Y-106041100D01*
X144983239Y-106048451D01*
X144982159Y-106055732D01*
X144980371Y-106062871D01*
X144977891Y-106069801D01*
X144974744Y-106076455D01*
X144970960Y-106082768D01*
X144966576Y-106088679D01*
X144961633Y-106094133D01*
X144956179Y-106099076D01*
X144950268Y-106103460D01*
X144943955Y-106107244D01*
X144937301Y-106110391D01*
X144930371Y-106112871D01*
X144923232Y-106114659D01*
X144915951Y-106115739D01*
X144908600Y-106116100D01*
X143583600Y-106116100D01*
X143576249Y-106115739D01*
X143568968Y-106114659D01*
X143561829Y-106112871D01*
X143554899Y-106110391D01*
X143548245Y-106107244D01*
X143541932Y-106103460D01*
X143536021Y-106099076D01*
X143530567Y-106094133D01*
X143525624Y-106088679D01*
X143521240Y-106082768D01*
X143517456Y-106076455D01*
X143514309Y-106069801D01*
X143511829Y-106062871D01*
X143510041Y-106055732D01*
X143508961Y-106048451D01*
X143508600Y-106041100D01*
X143508600Y-105891100D01*
X143508961Y-105883749D01*
X143510041Y-105876468D01*
X143511829Y-105869329D01*
X143514309Y-105862399D01*
X143517456Y-105855745D01*
X143521240Y-105849432D01*
X143525624Y-105843521D01*
X143530567Y-105838067D01*
X143536021Y-105833124D01*
X143541932Y-105828740D01*
X143548245Y-105824956D01*
X143554899Y-105821809D01*
X143561829Y-105819329D01*
X143568968Y-105817541D01*
X143576249Y-105816461D01*
X143583600Y-105816100D01*
X144908600Y-105816100D01*
X144915951Y-105816461D01*
G37*
G36*
X144915951Y-105316461D02*
G01*
X144923232Y-105317541D01*
X144930371Y-105319329D01*
X144937301Y-105321809D01*
X144943955Y-105324956D01*
X144950268Y-105328740D01*
X144956179Y-105333124D01*
X144961633Y-105338067D01*
X144966576Y-105343521D01*
X144970960Y-105349432D01*
X144974744Y-105355745D01*
X144977891Y-105362399D01*
X144980371Y-105369329D01*
X144982159Y-105376468D01*
X144983239Y-105383749D01*
X144983600Y-105391100D01*
X144983600Y-105541100D01*
X144983239Y-105548451D01*
X144982159Y-105555732D01*
X144980371Y-105562871D01*
X144977891Y-105569801D01*
X144974744Y-105576455D01*
X144970960Y-105582768D01*
X144966576Y-105588679D01*
X144961633Y-105594133D01*
X144956179Y-105599076D01*
X144950268Y-105603460D01*
X144943955Y-105607244D01*
X144937301Y-105610391D01*
X144930371Y-105612871D01*
X144923232Y-105614659D01*
X144915951Y-105615739D01*
X144908600Y-105616100D01*
X143583600Y-105616100D01*
X143576249Y-105615739D01*
X143568968Y-105614659D01*
X143561829Y-105612871D01*
X143554899Y-105610391D01*
X143548245Y-105607244D01*
X143541932Y-105603460D01*
X143536021Y-105599076D01*
X143530567Y-105594133D01*
X143525624Y-105588679D01*
X143521240Y-105582768D01*
X143517456Y-105576455D01*
X143514309Y-105569801D01*
X143511829Y-105562871D01*
X143510041Y-105555732D01*
X143508961Y-105548451D01*
X143508600Y-105541100D01*
X143508600Y-105391100D01*
X143508961Y-105383749D01*
X143510041Y-105376468D01*
X143511829Y-105369329D01*
X143514309Y-105362399D01*
X143517456Y-105355745D01*
X143521240Y-105349432D01*
X143525624Y-105343521D01*
X143530567Y-105338067D01*
X143536021Y-105333124D01*
X143541932Y-105328740D01*
X143548245Y-105324956D01*
X143554899Y-105321809D01*
X143561829Y-105319329D01*
X143568968Y-105317541D01*
X143576249Y-105316461D01*
X143583600Y-105316100D01*
X144908600Y-105316100D01*
X144915951Y-105316461D01*
G37*
G36*
X144915951Y-104816461D02*
G01*
X144923232Y-104817541D01*
X144930371Y-104819329D01*
X144937301Y-104821809D01*
X144943955Y-104824956D01*
X144950268Y-104828740D01*
X144956179Y-104833124D01*
X144961633Y-104838067D01*
X144966576Y-104843521D01*
X144970960Y-104849432D01*
X144974744Y-104855745D01*
X144977891Y-104862399D01*
X144980371Y-104869329D01*
X144982159Y-104876468D01*
X144983239Y-104883749D01*
X144983600Y-104891100D01*
X144983600Y-105041100D01*
X144983239Y-105048451D01*
X144982159Y-105055732D01*
X144980371Y-105062871D01*
X144977891Y-105069801D01*
X144974744Y-105076455D01*
X144970960Y-105082768D01*
X144966576Y-105088679D01*
X144961633Y-105094133D01*
X144956179Y-105099076D01*
X144950268Y-105103460D01*
X144943955Y-105107244D01*
X144937301Y-105110391D01*
X144930371Y-105112871D01*
X144923232Y-105114659D01*
X144915951Y-105115739D01*
X144908600Y-105116100D01*
X143583600Y-105116100D01*
X143576249Y-105115739D01*
X143568968Y-105114659D01*
X143561829Y-105112871D01*
X143554899Y-105110391D01*
X143548245Y-105107244D01*
X143541932Y-105103460D01*
X143536021Y-105099076D01*
X143530567Y-105094133D01*
X143525624Y-105088679D01*
X143521240Y-105082768D01*
X143517456Y-105076455D01*
X143514309Y-105069801D01*
X143511829Y-105062871D01*
X143510041Y-105055732D01*
X143508961Y-105048451D01*
X143508600Y-105041100D01*
X143508600Y-104891100D01*
X143508961Y-104883749D01*
X143510041Y-104876468D01*
X143511829Y-104869329D01*
X143514309Y-104862399D01*
X143517456Y-104855745D01*
X143521240Y-104849432D01*
X143525624Y-104843521D01*
X143530567Y-104838067D01*
X143536021Y-104833124D01*
X143541932Y-104828740D01*
X143548245Y-104824956D01*
X143554899Y-104821809D01*
X143561829Y-104819329D01*
X143568968Y-104817541D01*
X143576249Y-104816461D01*
X143583600Y-104816100D01*
X144908600Y-104816100D01*
X144915951Y-104816461D01*
G37*
G36*
X144915951Y-104316461D02*
G01*
X144923232Y-104317541D01*
X144930371Y-104319329D01*
X144937301Y-104321809D01*
X144943955Y-104324956D01*
X144950268Y-104328740D01*
X144956179Y-104333124D01*
X144961633Y-104338067D01*
X144966576Y-104343521D01*
X144970960Y-104349432D01*
X144974744Y-104355745D01*
X144977891Y-104362399D01*
X144980371Y-104369329D01*
X144982159Y-104376468D01*
X144983239Y-104383749D01*
X144983600Y-104391100D01*
X144983600Y-104541100D01*
X144983239Y-104548451D01*
X144982159Y-104555732D01*
X144980371Y-104562871D01*
X144977891Y-104569801D01*
X144974744Y-104576455D01*
X144970960Y-104582768D01*
X144966576Y-104588679D01*
X144961633Y-104594133D01*
X144956179Y-104599076D01*
X144950268Y-104603460D01*
X144943955Y-104607244D01*
X144937301Y-104610391D01*
X144930371Y-104612871D01*
X144923232Y-104614659D01*
X144915951Y-104615739D01*
X144908600Y-104616100D01*
X143583600Y-104616100D01*
X143576249Y-104615739D01*
X143568968Y-104614659D01*
X143561829Y-104612871D01*
X143554899Y-104610391D01*
X143548245Y-104607244D01*
X143541932Y-104603460D01*
X143536021Y-104599076D01*
X143530567Y-104594133D01*
X143525624Y-104588679D01*
X143521240Y-104582768D01*
X143517456Y-104576455D01*
X143514309Y-104569801D01*
X143511829Y-104562871D01*
X143510041Y-104555732D01*
X143508961Y-104548451D01*
X143508600Y-104541100D01*
X143508600Y-104391100D01*
X143508961Y-104383749D01*
X143510041Y-104376468D01*
X143511829Y-104369329D01*
X143514309Y-104362399D01*
X143517456Y-104355745D01*
X143521240Y-104349432D01*
X143525624Y-104343521D01*
X143530567Y-104338067D01*
X143536021Y-104333124D01*
X143541932Y-104328740D01*
X143548245Y-104324956D01*
X143554899Y-104321809D01*
X143561829Y-104319329D01*
X143568968Y-104317541D01*
X143576249Y-104316461D01*
X143583600Y-104316100D01*
X144908600Y-104316100D01*
X144915951Y-104316461D01*
G37*
G36*
X144915951Y-103816461D02*
G01*
X144923232Y-103817541D01*
X144930371Y-103819329D01*
X144937301Y-103821809D01*
X144943955Y-103824956D01*
X144950268Y-103828740D01*
X144956179Y-103833124D01*
X144961633Y-103838067D01*
X144966576Y-103843521D01*
X144970960Y-103849432D01*
X144974744Y-103855745D01*
X144977891Y-103862399D01*
X144980371Y-103869329D01*
X144982159Y-103876468D01*
X144983239Y-103883749D01*
X144983600Y-103891100D01*
X144983600Y-104041100D01*
X144983239Y-104048451D01*
X144982159Y-104055732D01*
X144980371Y-104062871D01*
X144977891Y-104069801D01*
X144974744Y-104076455D01*
X144970960Y-104082768D01*
X144966576Y-104088679D01*
X144961633Y-104094133D01*
X144956179Y-104099076D01*
X144950268Y-104103460D01*
X144943955Y-104107244D01*
X144937301Y-104110391D01*
X144930371Y-104112871D01*
X144923232Y-104114659D01*
X144915951Y-104115739D01*
X144908600Y-104116100D01*
X143583600Y-104116100D01*
X143576249Y-104115739D01*
X143568968Y-104114659D01*
X143561829Y-104112871D01*
X143554899Y-104110391D01*
X143548245Y-104107244D01*
X143541932Y-104103460D01*
X143536021Y-104099076D01*
X143530567Y-104094133D01*
X143525624Y-104088679D01*
X143521240Y-104082768D01*
X143517456Y-104076455D01*
X143514309Y-104069801D01*
X143511829Y-104062871D01*
X143510041Y-104055732D01*
X143508961Y-104048451D01*
X143508600Y-104041100D01*
X143508600Y-103891100D01*
X143508961Y-103883749D01*
X143510041Y-103876468D01*
X143511829Y-103869329D01*
X143514309Y-103862399D01*
X143517456Y-103855745D01*
X143521240Y-103849432D01*
X143525624Y-103843521D01*
X143530567Y-103838067D01*
X143536021Y-103833124D01*
X143541932Y-103828740D01*
X143548245Y-103824956D01*
X143554899Y-103821809D01*
X143561829Y-103819329D01*
X143568968Y-103817541D01*
X143576249Y-103816461D01*
X143583600Y-103816100D01*
X144908600Y-103816100D01*
X144915951Y-103816461D01*
G37*
G36*
X144915951Y-103316461D02*
G01*
X144923232Y-103317541D01*
X144930371Y-103319329D01*
X144937301Y-103321809D01*
X144943955Y-103324956D01*
X144950268Y-103328740D01*
X144956179Y-103333124D01*
X144961633Y-103338067D01*
X144966576Y-103343521D01*
X144970960Y-103349432D01*
X144974744Y-103355745D01*
X144977891Y-103362399D01*
X144980371Y-103369329D01*
X144982159Y-103376468D01*
X144983239Y-103383749D01*
X144983600Y-103391100D01*
X144983600Y-103541100D01*
X144983239Y-103548451D01*
X144982159Y-103555732D01*
X144980371Y-103562871D01*
X144977891Y-103569801D01*
X144974744Y-103576455D01*
X144970960Y-103582768D01*
X144966576Y-103588679D01*
X144961633Y-103594133D01*
X144956179Y-103599076D01*
X144950268Y-103603460D01*
X144943955Y-103607244D01*
X144937301Y-103610391D01*
X144930371Y-103612871D01*
X144923232Y-103614659D01*
X144915951Y-103615739D01*
X144908600Y-103616100D01*
X143583600Y-103616100D01*
X143576249Y-103615739D01*
X143568968Y-103614659D01*
X143561829Y-103612871D01*
X143554899Y-103610391D01*
X143548245Y-103607244D01*
X143541932Y-103603460D01*
X143536021Y-103599076D01*
X143530567Y-103594133D01*
X143525624Y-103588679D01*
X143521240Y-103582768D01*
X143517456Y-103576455D01*
X143514309Y-103569801D01*
X143511829Y-103562871D01*
X143510041Y-103555732D01*
X143508961Y-103548451D01*
X143508600Y-103541100D01*
X143508600Y-103391100D01*
X143508961Y-103383749D01*
X143510041Y-103376468D01*
X143511829Y-103369329D01*
X143514309Y-103362399D01*
X143517456Y-103355745D01*
X143521240Y-103349432D01*
X143525624Y-103343521D01*
X143530567Y-103338067D01*
X143536021Y-103333124D01*
X143541932Y-103328740D01*
X143548245Y-103324956D01*
X143554899Y-103321809D01*
X143561829Y-103319329D01*
X143568968Y-103317541D01*
X143576249Y-103316461D01*
X143583600Y-103316100D01*
X144908600Y-103316100D01*
X144915951Y-103316461D01*
G37*
G36*
X144915951Y-102816461D02*
G01*
X144923232Y-102817541D01*
X144930371Y-102819329D01*
X144937301Y-102821809D01*
X144943955Y-102824956D01*
X144950268Y-102828740D01*
X144956179Y-102833124D01*
X144961633Y-102838067D01*
X144966576Y-102843521D01*
X144970960Y-102849432D01*
X144974744Y-102855745D01*
X144977891Y-102862399D01*
X144980371Y-102869329D01*
X144982159Y-102876468D01*
X144983239Y-102883749D01*
X144983600Y-102891100D01*
X144983600Y-103041100D01*
X144983239Y-103048451D01*
X144982159Y-103055732D01*
X144980371Y-103062871D01*
X144977891Y-103069801D01*
X144974744Y-103076455D01*
X144970960Y-103082768D01*
X144966576Y-103088679D01*
X144961633Y-103094133D01*
X144956179Y-103099076D01*
X144950268Y-103103460D01*
X144943955Y-103107244D01*
X144937301Y-103110391D01*
X144930371Y-103112871D01*
X144923232Y-103114659D01*
X144915951Y-103115739D01*
X144908600Y-103116100D01*
X143583600Y-103116100D01*
X143576249Y-103115739D01*
X143568968Y-103114659D01*
X143561829Y-103112871D01*
X143554899Y-103110391D01*
X143548245Y-103107244D01*
X143541932Y-103103460D01*
X143536021Y-103099076D01*
X143530567Y-103094133D01*
X143525624Y-103088679D01*
X143521240Y-103082768D01*
X143517456Y-103076455D01*
X143514309Y-103069801D01*
X143511829Y-103062871D01*
X143510041Y-103055732D01*
X143508961Y-103048451D01*
X143508600Y-103041100D01*
X143508600Y-102891100D01*
X143508961Y-102883749D01*
X143510041Y-102876468D01*
X143511829Y-102869329D01*
X143514309Y-102862399D01*
X143517456Y-102855745D01*
X143521240Y-102849432D01*
X143525624Y-102843521D01*
X143530567Y-102838067D01*
X143536021Y-102833124D01*
X143541932Y-102828740D01*
X143548245Y-102824956D01*
X143554899Y-102821809D01*
X143561829Y-102819329D01*
X143568968Y-102817541D01*
X143576249Y-102816461D01*
X143583600Y-102816100D01*
X144908600Y-102816100D01*
X144915951Y-102816461D01*
G37*
G36*
X144915951Y-102316461D02*
G01*
X144923232Y-102317541D01*
X144930371Y-102319329D01*
X144937301Y-102321809D01*
X144943955Y-102324956D01*
X144950268Y-102328740D01*
X144956179Y-102333124D01*
X144961633Y-102338067D01*
X144966576Y-102343521D01*
X144970960Y-102349432D01*
X144974744Y-102355745D01*
X144977891Y-102362399D01*
X144980371Y-102369329D01*
X144982159Y-102376468D01*
X144983239Y-102383749D01*
X144983600Y-102391100D01*
X144983600Y-102541100D01*
X144983239Y-102548451D01*
X144982159Y-102555732D01*
X144980371Y-102562871D01*
X144977891Y-102569801D01*
X144974744Y-102576455D01*
X144970960Y-102582768D01*
X144966576Y-102588679D01*
X144961633Y-102594133D01*
X144956179Y-102599076D01*
X144950268Y-102603460D01*
X144943955Y-102607244D01*
X144937301Y-102610391D01*
X144930371Y-102612871D01*
X144923232Y-102614659D01*
X144915951Y-102615739D01*
X144908600Y-102616100D01*
X143583600Y-102616100D01*
X143576249Y-102615739D01*
X143568968Y-102614659D01*
X143561829Y-102612871D01*
X143554899Y-102610391D01*
X143548245Y-102607244D01*
X143541932Y-102603460D01*
X143536021Y-102599076D01*
X143530567Y-102594133D01*
X143525624Y-102588679D01*
X143521240Y-102582768D01*
X143517456Y-102576455D01*
X143514309Y-102569801D01*
X143511829Y-102562871D01*
X143510041Y-102555732D01*
X143508961Y-102548451D01*
X143508600Y-102541100D01*
X143508600Y-102391100D01*
X143508961Y-102383749D01*
X143510041Y-102376468D01*
X143511829Y-102369329D01*
X143514309Y-102362399D01*
X143517456Y-102355745D01*
X143521240Y-102349432D01*
X143525624Y-102343521D01*
X143530567Y-102338067D01*
X143536021Y-102333124D01*
X143541932Y-102328740D01*
X143548245Y-102324956D01*
X143554899Y-102321809D01*
X143561829Y-102319329D01*
X143568968Y-102317541D01*
X143576249Y-102316461D01*
X143583600Y-102316100D01*
X144908600Y-102316100D01*
X144915951Y-102316461D01*
G37*
G36*
X145740951Y-100316461D02*
G01*
X145748232Y-100317541D01*
X145755371Y-100319329D01*
X145762301Y-100321809D01*
X145768955Y-100324956D01*
X145775268Y-100328740D01*
X145781179Y-100333124D01*
X145786633Y-100338067D01*
X145791576Y-100343521D01*
X145795960Y-100349432D01*
X145799744Y-100355745D01*
X145802891Y-100362399D01*
X145805371Y-100369329D01*
X145807159Y-100376468D01*
X145808239Y-100383749D01*
X145808600Y-100391100D01*
X145808600Y-101716100D01*
X145808239Y-101723451D01*
X145807159Y-101730732D01*
X145805371Y-101737871D01*
X145802891Y-101744801D01*
X145799744Y-101751455D01*
X145795960Y-101757768D01*
X145791576Y-101763679D01*
X145786633Y-101769133D01*
X145781179Y-101774076D01*
X145775268Y-101778460D01*
X145768955Y-101782244D01*
X145762301Y-101785391D01*
X145755371Y-101787871D01*
X145748232Y-101789659D01*
X145740951Y-101790739D01*
X145733600Y-101791100D01*
X145583600Y-101791100D01*
X145576249Y-101790739D01*
X145568968Y-101789659D01*
X145561829Y-101787871D01*
X145554899Y-101785391D01*
X145548245Y-101782244D01*
X145541932Y-101778460D01*
X145536021Y-101774076D01*
X145530567Y-101769133D01*
X145525624Y-101763679D01*
X145521240Y-101757768D01*
X145517456Y-101751455D01*
X145514309Y-101744801D01*
X145511829Y-101737871D01*
X145510041Y-101730732D01*
X145508961Y-101723451D01*
X145508600Y-101716100D01*
X145508600Y-100391100D01*
X145508961Y-100383749D01*
X145510041Y-100376468D01*
X145511829Y-100369329D01*
X145514309Y-100362399D01*
X145517456Y-100355745D01*
X145521240Y-100349432D01*
X145525624Y-100343521D01*
X145530567Y-100338067D01*
X145536021Y-100333124D01*
X145541932Y-100328740D01*
X145548245Y-100324956D01*
X145554899Y-100321809D01*
X145561829Y-100319329D01*
X145568968Y-100317541D01*
X145576249Y-100316461D01*
X145583600Y-100316100D01*
X145733600Y-100316100D01*
X145740951Y-100316461D01*
G37*
G36*
X146240951Y-100316461D02*
G01*
X146248232Y-100317541D01*
X146255371Y-100319329D01*
X146262301Y-100321809D01*
X146268955Y-100324956D01*
X146275268Y-100328740D01*
X146281179Y-100333124D01*
X146286633Y-100338067D01*
X146291576Y-100343521D01*
X146295960Y-100349432D01*
X146299744Y-100355745D01*
X146302891Y-100362399D01*
X146305371Y-100369329D01*
X146307159Y-100376468D01*
X146308239Y-100383749D01*
X146308600Y-100391100D01*
X146308600Y-101716100D01*
X146308239Y-101723451D01*
X146307159Y-101730732D01*
X146305371Y-101737871D01*
X146302891Y-101744801D01*
X146299744Y-101751455D01*
X146295960Y-101757768D01*
X146291576Y-101763679D01*
X146286633Y-101769133D01*
X146281179Y-101774076D01*
X146275268Y-101778460D01*
X146268955Y-101782244D01*
X146262301Y-101785391D01*
X146255371Y-101787871D01*
X146248232Y-101789659D01*
X146240951Y-101790739D01*
X146233600Y-101791100D01*
X146083600Y-101791100D01*
X146076249Y-101790739D01*
X146068968Y-101789659D01*
X146061829Y-101787871D01*
X146054899Y-101785391D01*
X146048245Y-101782244D01*
X146041932Y-101778460D01*
X146036021Y-101774076D01*
X146030567Y-101769133D01*
X146025624Y-101763679D01*
X146021240Y-101757768D01*
X146017456Y-101751455D01*
X146014309Y-101744801D01*
X146011829Y-101737871D01*
X146010041Y-101730732D01*
X146008961Y-101723451D01*
X146008600Y-101716100D01*
X146008600Y-100391100D01*
X146008961Y-100383749D01*
X146010041Y-100376468D01*
X146011829Y-100369329D01*
X146014309Y-100362399D01*
X146017456Y-100355745D01*
X146021240Y-100349432D01*
X146025624Y-100343521D01*
X146030567Y-100338067D01*
X146036021Y-100333124D01*
X146041932Y-100328740D01*
X146048245Y-100324956D01*
X146054899Y-100321809D01*
X146061829Y-100319329D01*
X146068968Y-100317541D01*
X146076249Y-100316461D01*
X146083600Y-100316100D01*
X146233600Y-100316100D01*
X146240951Y-100316461D01*
G37*
G36*
X146740951Y-100316461D02*
G01*
X146748232Y-100317541D01*
X146755371Y-100319329D01*
X146762301Y-100321809D01*
X146768955Y-100324956D01*
X146775268Y-100328740D01*
X146781179Y-100333124D01*
X146786633Y-100338067D01*
X146791576Y-100343521D01*
X146795960Y-100349432D01*
X146799744Y-100355745D01*
X146802891Y-100362399D01*
X146805371Y-100369329D01*
X146807159Y-100376468D01*
X146808239Y-100383749D01*
X146808600Y-100391100D01*
X146808600Y-101716100D01*
X146808239Y-101723451D01*
X146807159Y-101730732D01*
X146805371Y-101737871D01*
X146802891Y-101744801D01*
X146799744Y-101751455D01*
X146795960Y-101757768D01*
X146791576Y-101763679D01*
X146786633Y-101769133D01*
X146781179Y-101774076D01*
X146775268Y-101778460D01*
X146768955Y-101782244D01*
X146762301Y-101785391D01*
X146755371Y-101787871D01*
X146748232Y-101789659D01*
X146740951Y-101790739D01*
X146733600Y-101791100D01*
X146583600Y-101791100D01*
X146576249Y-101790739D01*
X146568968Y-101789659D01*
X146561829Y-101787871D01*
X146554899Y-101785391D01*
X146548245Y-101782244D01*
X146541932Y-101778460D01*
X146536021Y-101774076D01*
X146530567Y-101769133D01*
X146525624Y-101763679D01*
X146521240Y-101757768D01*
X146517456Y-101751455D01*
X146514309Y-101744801D01*
X146511829Y-101737871D01*
X146510041Y-101730732D01*
X146508961Y-101723451D01*
X146508600Y-101716100D01*
X146508600Y-100391100D01*
X146508961Y-100383749D01*
X146510041Y-100376468D01*
X146511829Y-100369329D01*
X146514309Y-100362399D01*
X146517456Y-100355745D01*
X146521240Y-100349432D01*
X146525624Y-100343521D01*
X146530567Y-100338067D01*
X146536021Y-100333124D01*
X146541932Y-100328740D01*
X146548245Y-100324956D01*
X146554899Y-100321809D01*
X146561829Y-100319329D01*
X146568968Y-100317541D01*
X146576249Y-100316461D01*
X146583600Y-100316100D01*
X146733600Y-100316100D01*
X146740951Y-100316461D01*
G37*
G36*
X147240951Y-100316461D02*
G01*
X147248232Y-100317541D01*
X147255371Y-100319329D01*
X147262301Y-100321809D01*
X147268955Y-100324956D01*
X147275268Y-100328740D01*
X147281179Y-100333124D01*
X147286633Y-100338067D01*
X147291576Y-100343521D01*
X147295960Y-100349432D01*
X147299744Y-100355745D01*
X147302891Y-100362399D01*
X147305371Y-100369329D01*
X147307159Y-100376468D01*
X147308239Y-100383749D01*
X147308600Y-100391100D01*
X147308600Y-101716100D01*
X147308239Y-101723451D01*
X147307159Y-101730732D01*
X147305371Y-101737871D01*
X147302891Y-101744801D01*
X147299744Y-101751455D01*
X147295960Y-101757768D01*
X147291576Y-101763679D01*
X147286633Y-101769133D01*
X147281179Y-101774076D01*
X147275268Y-101778460D01*
X147268955Y-101782244D01*
X147262301Y-101785391D01*
X147255371Y-101787871D01*
X147248232Y-101789659D01*
X147240951Y-101790739D01*
X147233600Y-101791100D01*
X147083600Y-101791100D01*
X147076249Y-101790739D01*
X147068968Y-101789659D01*
X147061829Y-101787871D01*
X147054899Y-101785391D01*
X147048245Y-101782244D01*
X147041932Y-101778460D01*
X147036021Y-101774076D01*
X147030567Y-101769133D01*
X147025624Y-101763679D01*
X147021240Y-101757768D01*
X147017456Y-101751455D01*
X147014309Y-101744801D01*
X147011829Y-101737871D01*
X147010041Y-101730732D01*
X147008961Y-101723451D01*
X147008600Y-101716100D01*
X147008600Y-100391100D01*
X147008961Y-100383749D01*
X147010041Y-100376468D01*
X147011829Y-100369329D01*
X147014309Y-100362399D01*
X147017456Y-100355745D01*
X147021240Y-100349432D01*
X147025624Y-100343521D01*
X147030567Y-100338067D01*
X147036021Y-100333124D01*
X147041932Y-100328740D01*
X147048245Y-100324956D01*
X147054899Y-100321809D01*
X147061829Y-100319329D01*
X147068968Y-100317541D01*
X147076249Y-100316461D01*
X147083600Y-100316100D01*
X147233600Y-100316100D01*
X147240951Y-100316461D01*
G37*
G36*
X147740951Y-100316461D02*
G01*
X147748232Y-100317541D01*
X147755371Y-100319329D01*
X147762301Y-100321809D01*
X147768955Y-100324956D01*
X147775268Y-100328740D01*
X147781179Y-100333124D01*
X147786633Y-100338067D01*
X147791576Y-100343521D01*
X147795960Y-100349432D01*
X147799744Y-100355745D01*
X147802891Y-100362399D01*
X147805371Y-100369329D01*
X147807159Y-100376468D01*
X147808239Y-100383749D01*
X147808600Y-100391100D01*
X147808600Y-101716100D01*
X147808239Y-101723451D01*
X147807159Y-101730732D01*
X147805371Y-101737871D01*
X147802891Y-101744801D01*
X147799744Y-101751455D01*
X147795960Y-101757768D01*
X147791576Y-101763679D01*
X147786633Y-101769133D01*
X147781179Y-101774076D01*
X147775268Y-101778460D01*
X147768955Y-101782244D01*
X147762301Y-101785391D01*
X147755371Y-101787871D01*
X147748232Y-101789659D01*
X147740951Y-101790739D01*
X147733600Y-101791100D01*
X147583600Y-101791100D01*
X147576249Y-101790739D01*
X147568968Y-101789659D01*
X147561829Y-101787871D01*
X147554899Y-101785391D01*
X147548245Y-101782244D01*
X147541932Y-101778460D01*
X147536021Y-101774076D01*
X147530567Y-101769133D01*
X147525624Y-101763679D01*
X147521240Y-101757768D01*
X147517456Y-101751455D01*
X147514309Y-101744801D01*
X147511829Y-101737871D01*
X147510041Y-101730732D01*
X147508961Y-101723451D01*
X147508600Y-101716100D01*
X147508600Y-100391100D01*
X147508961Y-100383749D01*
X147510041Y-100376468D01*
X147511829Y-100369329D01*
X147514309Y-100362399D01*
X147517456Y-100355745D01*
X147521240Y-100349432D01*
X147525624Y-100343521D01*
X147530567Y-100338067D01*
X147536021Y-100333124D01*
X147541932Y-100328740D01*
X147548245Y-100324956D01*
X147554899Y-100321809D01*
X147561829Y-100319329D01*
X147568968Y-100317541D01*
X147576249Y-100316461D01*
X147583600Y-100316100D01*
X147733600Y-100316100D01*
X147740951Y-100316461D01*
G37*
G36*
X148240951Y-100316461D02*
G01*
X148248232Y-100317541D01*
X148255371Y-100319329D01*
X148262301Y-100321809D01*
X148268955Y-100324956D01*
X148275268Y-100328740D01*
X148281179Y-100333124D01*
X148286633Y-100338067D01*
X148291576Y-100343521D01*
X148295960Y-100349432D01*
X148299744Y-100355745D01*
X148302891Y-100362399D01*
X148305371Y-100369329D01*
X148307159Y-100376468D01*
X148308239Y-100383749D01*
X148308600Y-100391100D01*
X148308600Y-101716100D01*
X148308239Y-101723451D01*
X148307159Y-101730732D01*
X148305371Y-101737871D01*
X148302891Y-101744801D01*
X148299744Y-101751455D01*
X148295960Y-101757768D01*
X148291576Y-101763679D01*
X148286633Y-101769133D01*
X148281179Y-101774076D01*
X148275268Y-101778460D01*
X148268955Y-101782244D01*
X148262301Y-101785391D01*
X148255371Y-101787871D01*
X148248232Y-101789659D01*
X148240951Y-101790739D01*
X148233600Y-101791100D01*
X148083600Y-101791100D01*
X148076249Y-101790739D01*
X148068968Y-101789659D01*
X148061829Y-101787871D01*
X148054899Y-101785391D01*
X148048245Y-101782244D01*
X148041932Y-101778460D01*
X148036021Y-101774076D01*
X148030567Y-101769133D01*
X148025624Y-101763679D01*
X148021240Y-101757768D01*
X148017456Y-101751455D01*
X148014309Y-101744801D01*
X148011829Y-101737871D01*
X148010041Y-101730732D01*
X148008961Y-101723451D01*
X148008600Y-101716100D01*
X148008600Y-100391100D01*
X148008961Y-100383749D01*
X148010041Y-100376468D01*
X148011829Y-100369329D01*
X148014309Y-100362399D01*
X148017456Y-100355745D01*
X148021240Y-100349432D01*
X148025624Y-100343521D01*
X148030567Y-100338067D01*
X148036021Y-100333124D01*
X148041932Y-100328740D01*
X148048245Y-100324956D01*
X148054899Y-100321809D01*
X148061829Y-100319329D01*
X148068968Y-100317541D01*
X148076249Y-100316461D01*
X148083600Y-100316100D01*
X148233600Y-100316100D01*
X148240951Y-100316461D01*
G37*
G36*
X148740951Y-100316461D02*
G01*
X148748232Y-100317541D01*
X148755371Y-100319329D01*
X148762301Y-100321809D01*
X148768955Y-100324956D01*
X148775268Y-100328740D01*
X148781179Y-100333124D01*
X148786633Y-100338067D01*
X148791576Y-100343521D01*
X148795960Y-100349432D01*
X148799744Y-100355745D01*
X148802891Y-100362399D01*
X148805371Y-100369329D01*
X148807159Y-100376468D01*
X148808239Y-100383749D01*
X148808600Y-100391100D01*
X148808600Y-101716100D01*
X148808239Y-101723451D01*
X148807159Y-101730732D01*
X148805371Y-101737871D01*
X148802891Y-101744801D01*
X148799744Y-101751455D01*
X148795960Y-101757768D01*
X148791576Y-101763679D01*
X148786633Y-101769133D01*
X148781179Y-101774076D01*
X148775268Y-101778460D01*
X148768955Y-101782244D01*
X148762301Y-101785391D01*
X148755371Y-101787871D01*
X148748232Y-101789659D01*
X148740951Y-101790739D01*
X148733600Y-101791100D01*
X148583600Y-101791100D01*
X148576249Y-101790739D01*
X148568968Y-101789659D01*
X148561829Y-101787871D01*
X148554899Y-101785391D01*
X148548245Y-101782244D01*
X148541932Y-101778460D01*
X148536021Y-101774076D01*
X148530567Y-101769133D01*
X148525624Y-101763679D01*
X148521240Y-101757768D01*
X148517456Y-101751455D01*
X148514309Y-101744801D01*
X148511829Y-101737871D01*
X148510041Y-101730732D01*
X148508961Y-101723451D01*
X148508600Y-101716100D01*
X148508600Y-100391100D01*
X148508961Y-100383749D01*
X148510041Y-100376468D01*
X148511829Y-100369329D01*
X148514309Y-100362399D01*
X148517456Y-100355745D01*
X148521240Y-100349432D01*
X148525624Y-100343521D01*
X148530567Y-100338067D01*
X148536021Y-100333124D01*
X148541932Y-100328740D01*
X148548245Y-100324956D01*
X148554899Y-100321809D01*
X148561829Y-100319329D01*
X148568968Y-100317541D01*
X148576249Y-100316461D01*
X148583600Y-100316100D01*
X148733600Y-100316100D01*
X148740951Y-100316461D01*
G37*
G36*
X149240951Y-100316461D02*
G01*
X149248232Y-100317541D01*
X149255371Y-100319329D01*
X149262301Y-100321809D01*
X149268955Y-100324956D01*
X149275268Y-100328740D01*
X149281179Y-100333124D01*
X149286633Y-100338067D01*
X149291576Y-100343521D01*
X149295960Y-100349432D01*
X149299744Y-100355745D01*
X149302891Y-100362399D01*
X149305371Y-100369329D01*
X149307159Y-100376468D01*
X149308239Y-100383749D01*
X149308600Y-100391100D01*
X149308600Y-101716100D01*
X149308239Y-101723451D01*
X149307159Y-101730732D01*
X149305371Y-101737871D01*
X149302891Y-101744801D01*
X149299744Y-101751455D01*
X149295960Y-101757768D01*
X149291576Y-101763679D01*
X149286633Y-101769133D01*
X149281179Y-101774076D01*
X149275268Y-101778460D01*
X149268955Y-101782244D01*
X149262301Y-101785391D01*
X149255371Y-101787871D01*
X149248232Y-101789659D01*
X149240951Y-101790739D01*
X149233600Y-101791100D01*
X149083600Y-101791100D01*
X149076249Y-101790739D01*
X149068968Y-101789659D01*
X149061829Y-101787871D01*
X149054899Y-101785391D01*
X149048245Y-101782244D01*
X149041932Y-101778460D01*
X149036021Y-101774076D01*
X149030567Y-101769133D01*
X149025624Y-101763679D01*
X149021240Y-101757768D01*
X149017456Y-101751455D01*
X149014309Y-101744801D01*
X149011829Y-101737871D01*
X149010041Y-101730732D01*
X149008961Y-101723451D01*
X149008600Y-101716100D01*
X149008600Y-100391100D01*
X149008961Y-100383749D01*
X149010041Y-100376468D01*
X149011829Y-100369329D01*
X149014309Y-100362399D01*
X149017456Y-100355745D01*
X149021240Y-100349432D01*
X149025624Y-100343521D01*
X149030567Y-100338067D01*
X149036021Y-100333124D01*
X149041932Y-100328740D01*
X149048245Y-100324956D01*
X149054899Y-100321809D01*
X149061829Y-100319329D01*
X149068968Y-100317541D01*
X149076249Y-100316461D01*
X149083600Y-100316100D01*
X149233600Y-100316100D01*
X149240951Y-100316461D01*
G37*
G36*
X149740951Y-100316461D02*
G01*
X149748232Y-100317541D01*
X149755371Y-100319329D01*
X149762301Y-100321809D01*
X149768955Y-100324956D01*
X149775268Y-100328740D01*
X149781179Y-100333124D01*
X149786633Y-100338067D01*
X149791576Y-100343521D01*
X149795960Y-100349432D01*
X149799744Y-100355745D01*
X149802891Y-100362399D01*
X149805371Y-100369329D01*
X149807159Y-100376468D01*
X149808239Y-100383749D01*
X149808600Y-100391100D01*
X149808600Y-101716100D01*
X149808239Y-101723451D01*
X149807159Y-101730732D01*
X149805371Y-101737871D01*
X149802891Y-101744801D01*
X149799744Y-101751455D01*
X149795960Y-101757768D01*
X149791576Y-101763679D01*
X149786633Y-101769133D01*
X149781179Y-101774076D01*
X149775268Y-101778460D01*
X149768955Y-101782244D01*
X149762301Y-101785391D01*
X149755371Y-101787871D01*
X149748232Y-101789659D01*
X149740951Y-101790739D01*
X149733600Y-101791100D01*
X149583600Y-101791100D01*
X149576249Y-101790739D01*
X149568968Y-101789659D01*
X149561829Y-101787871D01*
X149554899Y-101785391D01*
X149548245Y-101782244D01*
X149541932Y-101778460D01*
X149536021Y-101774076D01*
X149530567Y-101769133D01*
X149525624Y-101763679D01*
X149521240Y-101757768D01*
X149517456Y-101751455D01*
X149514309Y-101744801D01*
X149511829Y-101737871D01*
X149510041Y-101730732D01*
X149508961Y-101723451D01*
X149508600Y-101716100D01*
X149508600Y-100391100D01*
X149508961Y-100383749D01*
X149510041Y-100376468D01*
X149511829Y-100369329D01*
X149514309Y-100362399D01*
X149517456Y-100355745D01*
X149521240Y-100349432D01*
X149525624Y-100343521D01*
X149530567Y-100338067D01*
X149536021Y-100333124D01*
X149541932Y-100328740D01*
X149548245Y-100324956D01*
X149554899Y-100321809D01*
X149561829Y-100319329D01*
X149568968Y-100317541D01*
X149576249Y-100316461D01*
X149583600Y-100316100D01*
X149733600Y-100316100D01*
X149740951Y-100316461D01*
G37*
G36*
X150240951Y-100316461D02*
G01*
X150248232Y-100317541D01*
X150255371Y-100319329D01*
X150262301Y-100321809D01*
X150268955Y-100324956D01*
X150275268Y-100328740D01*
X150281179Y-100333124D01*
X150286633Y-100338067D01*
X150291576Y-100343521D01*
X150295960Y-100349432D01*
X150299744Y-100355745D01*
X150302891Y-100362399D01*
X150305371Y-100369329D01*
X150307159Y-100376468D01*
X150308239Y-100383749D01*
X150308600Y-100391100D01*
X150308600Y-101716100D01*
X150308239Y-101723451D01*
X150307159Y-101730732D01*
X150305371Y-101737871D01*
X150302891Y-101744801D01*
X150299744Y-101751455D01*
X150295960Y-101757768D01*
X150291576Y-101763679D01*
X150286633Y-101769133D01*
X150281179Y-101774076D01*
X150275268Y-101778460D01*
X150268955Y-101782244D01*
X150262301Y-101785391D01*
X150255371Y-101787871D01*
X150248232Y-101789659D01*
X150240951Y-101790739D01*
X150233600Y-101791100D01*
X150083600Y-101791100D01*
X150076249Y-101790739D01*
X150068968Y-101789659D01*
X150061829Y-101787871D01*
X150054899Y-101785391D01*
X150048245Y-101782244D01*
X150041932Y-101778460D01*
X150036021Y-101774076D01*
X150030567Y-101769133D01*
X150025624Y-101763679D01*
X150021240Y-101757768D01*
X150017456Y-101751455D01*
X150014309Y-101744801D01*
X150011829Y-101737871D01*
X150010041Y-101730732D01*
X150008961Y-101723451D01*
X150008600Y-101716100D01*
X150008600Y-100391100D01*
X150008961Y-100383749D01*
X150010041Y-100376468D01*
X150011829Y-100369329D01*
X150014309Y-100362399D01*
X150017456Y-100355745D01*
X150021240Y-100349432D01*
X150025624Y-100343521D01*
X150030567Y-100338067D01*
X150036021Y-100333124D01*
X150041932Y-100328740D01*
X150048245Y-100324956D01*
X150054899Y-100321809D01*
X150061829Y-100319329D01*
X150068968Y-100317541D01*
X150076249Y-100316461D01*
X150083600Y-100316100D01*
X150233600Y-100316100D01*
X150240951Y-100316461D01*
G37*
G36*
X150740951Y-100316461D02*
G01*
X150748232Y-100317541D01*
X150755371Y-100319329D01*
X150762301Y-100321809D01*
X150768955Y-100324956D01*
X150775268Y-100328740D01*
X150781179Y-100333124D01*
X150786633Y-100338067D01*
X150791576Y-100343521D01*
X150795960Y-100349432D01*
X150799744Y-100355745D01*
X150802891Y-100362399D01*
X150805371Y-100369329D01*
X150807159Y-100376468D01*
X150808239Y-100383749D01*
X150808600Y-100391100D01*
X150808600Y-101716100D01*
X150808239Y-101723451D01*
X150807159Y-101730732D01*
X150805371Y-101737871D01*
X150802891Y-101744801D01*
X150799744Y-101751455D01*
X150795960Y-101757768D01*
X150791576Y-101763679D01*
X150786633Y-101769133D01*
X150781179Y-101774076D01*
X150775268Y-101778460D01*
X150768955Y-101782244D01*
X150762301Y-101785391D01*
X150755371Y-101787871D01*
X150748232Y-101789659D01*
X150740951Y-101790739D01*
X150733600Y-101791100D01*
X150583600Y-101791100D01*
X150576249Y-101790739D01*
X150568968Y-101789659D01*
X150561829Y-101787871D01*
X150554899Y-101785391D01*
X150548245Y-101782244D01*
X150541932Y-101778460D01*
X150536021Y-101774076D01*
X150530567Y-101769133D01*
X150525624Y-101763679D01*
X150521240Y-101757768D01*
X150517456Y-101751455D01*
X150514309Y-101744801D01*
X150511829Y-101737871D01*
X150510041Y-101730732D01*
X150508961Y-101723451D01*
X150508600Y-101716100D01*
X150508600Y-100391100D01*
X150508961Y-100383749D01*
X150510041Y-100376468D01*
X150511829Y-100369329D01*
X150514309Y-100362399D01*
X150517456Y-100355745D01*
X150521240Y-100349432D01*
X150525624Y-100343521D01*
X150530567Y-100338067D01*
X150536021Y-100333124D01*
X150541932Y-100328740D01*
X150548245Y-100324956D01*
X150554899Y-100321809D01*
X150561829Y-100319329D01*
X150568968Y-100317541D01*
X150576249Y-100316461D01*
X150583600Y-100316100D01*
X150733600Y-100316100D01*
X150740951Y-100316461D01*
G37*
G36*
X151240951Y-100316461D02*
G01*
X151248232Y-100317541D01*
X151255371Y-100319329D01*
X151262301Y-100321809D01*
X151268955Y-100324956D01*
X151275268Y-100328740D01*
X151281179Y-100333124D01*
X151286633Y-100338067D01*
X151291576Y-100343521D01*
X151295960Y-100349432D01*
X151299744Y-100355745D01*
X151302891Y-100362399D01*
X151305371Y-100369329D01*
X151307159Y-100376468D01*
X151308239Y-100383749D01*
X151308600Y-100391100D01*
X151308600Y-101716100D01*
X151308239Y-101723451D01*
X151307159Y-101730732D01*
X151305371Y-101737871D01*
X151302891Y-101744801D01*
X151299744Y-101751455D01*
X151295960Y-101757768D01*
X151291576Y-101763679D01*
X151286633Y-101769133D01*
X151281179Y-101774076D01*
X151275268Y-101778460D01*
X151268955Y-101782244D01*
X151262301Y-101785391D01*
X151255371Y-101787871D01*
X151248232Y-101789659D01*
X151240951Y-101790739D01*
X151233600Y-101791100D01*
X151083600Y-101791100D01*
X151076249Y-101790739D01*
X151068968Y-101789659D01*
X151061829Y-101787871D01*
X151054899Y-101785391D01*
X151048245Y-101782244D01*
X151041932Y-101778460D01*
X151036021Y-101774076D01*
X151030567Y-101769133D01*
X151025624Y-101763679D01*
X151021240Y-101757768D01*
X151017456Y-101751455D01*
X151014309Y-101744801D01*
X151011829Y-101737871D01*
X151010041Y-101730732D01*
X151008961Y-101723451D01*
X151008600Y-101716100D01*
X151008600Y-100391100D01*
X151008961Y-100383749D01*
X151010041Y-100376468D01*
X151011829Y-100369329D01*
X151014309Y-100362399D01*
X151017456Y-100355745D01*
X151021240Y-100349432D01*
X151025624Y-100343521D01*
X151030567Y-100338067D01*
X151036021Y-100333124D01*
X151041932Y-100328740D01*
X151048245Y-100324956D01*
X151054899Y-100321809D01*
X151061829Y-100319329D01*
X151068968Y-100317541D01*
X151076249Y-100316461D01*
X151083600Y-100316100D01*
X151233600Y-100316100D01*
X151240951Y-100316461D01*
G37*
D15*
X152019700Y-93600000D03*
X152019700Y-94550000D03*
X152019700Y-95500000D03*
X149819700Y-95500000D03*
X149819700Y-93600000D03*
X149819700Y-94550000D03*
D11*
G36*
X148267691Y-95021053D02*
G01*
X148288926Y-95024203D01*
X148309750Y-95029419D01*
X148329962Y-95036651D01*
X148349368Y-95045830D01*
X148367781Y-95056866D01*
X148385024Y-95069654D01*
X148400930Y-95084070D01*
X148415346Y-95099976D01*
X148428134Y-95117219D01*
X148439170Y-95135632D01*
X148448349Y-95155038D01*
X148455581Y-95175250D01*
X148460797Y-95196074D01*
X148463947Y-95217309D01*
X148465000Y-95238750D01*
X148465000Y-95676250D01*
X148463947Y-95697691D01*
X148460797Y-95718926D01*
X148455581Y-95739750D01*
X148448349Y-95759962D01*
X148439170Y-95779368D01*
X148428134Y-95797781D01*
X148415346Y-95815024D01*
X148400930Y-95830930D01*
X148385024Y-95845346D01*
X148367781Y-95858134D01*
X148349368Y-95869170D01*
X148329962Y-95878349D01*
X148309750Y-95885581D01*
X148288926Y-95890797D01*
X148267691Y-95893947D01*
X148246250Y-95895000D01*
X147733750Y-95895000D01*
X147712309Y-95893947D01*
X147691074Y-95890797D01*
X147670250Y-95885581D01*
X147650038Y-95878349D01*
X147630632Y-95869170D01*
X147612219Y-95858134D01*
X147594976Y-95845346D01*
X147579070Y-95830930D01*
X147564654Y-95815024D01*
X147551866Y-95797781D01*
X147540830Y-95779368D01*
X147531651Y-95759962D01*
X147524419Y-95739750D01*
X147519203Y-95718926D01*
X147516053Y-95697691D01*
X147515000Y-95676250D01*
X147515000Y-95238750D01*
X147516053Y-95217309D01*
X147519203Y-95196074D01*
X147524419Y-95175250D01*
X147531651Y-95155038D01*
X147540830Y-95135632D01*
X147551866Y-95117219D01*
X147564654Y-95099976D01*
X147579070Y-95084070D01*
X147594976Y-95069654D01*
X147612219Y-95056866D01*
X147630632Y-95045830D01*
X147650038Y-95036651D01*
X147670250Y-95029419D01*
X147691074Y-95024203D01*
X147712309Y-95021053D01*
X147733750Y-95020000D01*
X148246250Y-95020000D01*
X148267691Y-95021053D01*
G37*
G36*
X148267691Y-93446053D02*
G01*
X148288926Y-93449203D01*
X148309750Y-93454419D01*
X148329962Y-93461651D01*
X148349368Y-93470830D01*
X148367781Y-93481866D01*
X148385024Y-93494654D01*
X148400930Y-93509070D01*
X148415346Y-93524976D01*
X148428134Y-93542219D01*
X148439170Y-93560632D01*
X148448349Y-93580038D01*
X148455581Y-93600250D01*
X148460797Y-93621074D01*
X148463947Y-93642309D01*
X148465000Y-93663750D01*
X148465000Y-94101250D01*
X148463947Y-94122691D01*
X148460797Y-94143926D01*
X148455581Y-94164750D01*
X148448349Y-94184962D01*
X148439170Y-94204368D01*
X148428134Y-94222781D01*
X148415346Y-94240024D01*
X148400930Y-94255930D01*
X148385024Y-94270346D01*
X148367781Y-94283134D01*
X148349368Y-94294170D01*
X148329962Y-94303349D01*
X148309750Y-94310581D01*
X148288926Y-94315797D01*
X148267691Y-94318947D01*
X148246250Y-94320000D01*
X147733750Y-94320000D01*
X147712309Y-94318947D01*
X147691074Y-94315797D01*
X147670250Y-94310581D01*
X147650038Y-94303349D01*
X147630632Y-94294170D01*
X147612219Y-94283134D01*
X147594976Y-94270346D01*
X147579070Y-94255930D01*
X147564654Y-94240024D01*
X147551866Y-94222781D01*
X147540830Y-94204368D01*
X147531651Y-94184962D01*
X147524419Y-94164750D01*
X147519203Y-94143926D01*
X147516053Y-94122691D01*
X147515000Y-94101250D01*
X147515000Y-93663750D01*
X147516053Y-93642309D01*
X147519203Y-93621074D01*
X147524419Y-93600250D01*
X147531651Y-93580038D01*
X147540830Y-93560632D01*
X147551866Y-93542219D01*
X147564654Y-93524976D01*
X147579070Y-93509070D01*
X147594976Y-93494654D01*
X147612219Y-93481866D01*
X147630632Y-93470830D01*
X147650038Y-93461651D01*
X147670250Y-93454419D01*
X147691074Y-93449203D01*
X147712309Y-93446053D01*
X147733750Y-93445000D01*
X148246250Y-93445000D01*
X148267691Y-93446053D01*
G37*
G36*
X140814931Y-102907693D02*
G01*
X140836166Y-102910843D01*
X140856990Y-102916059D01*
X140877202Y-102923291D01*
X140896608Y-102932470D01*
X140915021Y-102943506D01*
X140932264Y-102956294D01*
X140948170Y-102970710D01*
X140962586Y-102986616D01*
X140975374Y-103003859D01*
X140986410Y-103022272D01*
X140995589Y-103041678D01*
X141002821Y-103061890D01*
X141008037Y-103082714D01*
X141011187Y-103103949D01*
X141012240Y-103125390D01*
X141012240Y-103562890D01*
X141011187Y-103584331D01*
X141008037Y-103605566D01*
X141002821Y-103626390D01*
X140995589Y-103646602D01*
X140986410Y-103666008D01*
X140975374Y-103684421D01*
X140962586Y-103701664D01*
X140948170Y-103717570D01*
X140932264Y-103731986D01*
X140915021Y-103744774D01*
X140896608Y-103755810D01*
X140877202Y-103764989D01*
X140856990Y-103772221D01*
X140836166Y-103777437D01*
X140814931Y-103780587D01*
X140793490Y-103781640D01*
X140280990Y-103781640D01*
X140259549Y-103780587D01*
X140238314Y-103777437D01*
X140217490Y-103772221D01*
X140197278Y-103764989D01*
X140177872Y-103755810D01*
X140159459Y-103744774D01*
X140142216Y-103731986D01*
X140126310Y-103717570D01*
X140111894Y-103701664D01*
X140099106Y-103684421D01*
X140088070Y-103666008D01*
X140078891Y-103646602D01*
X140071659Y-103626390D01*
X140066443Y-103605566D01*
X140063293Y-103584331D01*
X140062240Y-103562890D01*
X140062240Y-103125390D01*
X140063293Y-103103949D01*
X140066443Y-103082714D01*
X140071659Y-103061890D01*
X140078891Y-103041678D01*
X140088070Y-103022272D01*
X140099106Y-103003859D01*
X140111894Y-102986616D01*
X140126310Y-102970710D01*
X140142216Y-102956294D01*
X140159459Y-102943506D01*
X140177872Y-102932470D01*
X140197278Y-102923291D01*
X140217490Y-102916059D01*
X140238314Y-102910843D01*
X140259549Y-102907693D01*
X140280990Y-102906640D01*
X140793490Y-102906640D01*
X140814931Y-102907693D01*
G37*
G36*
X140814931Y-101332693D02*
G01*
X140836166Y-101335843D01*
X140856990Y-101341059D01*
X140877202Y-101348291D01*
X140896608Y-101357470D01*
X140915021Y-101368506D01*
X140932264Y-101381294D01*
X140948170Y-101395710D01*
X140962586Y-101411616D01*
X140975374Y-101428859D01*
X140986410Y-101447272D01*
X140995589Y-101466678D01*
X141002821Y-101486890D01*
X141008037Y-101507714D01*
X141011187Y-101528949D01*
X141012240Y-101550390D01*
X141012240Y-101987890D01*
X141011187Y-102009331D01*
X141008037Y-102030566D01*
X141002821Y-102051390D01*
X140995589Y-102071602D01*
X140986410Y-102091008D01*
X140975374Y-102109421D01*
X140962586Y-102126664D01*
X140948170Y-102142570D01*
X140932264Y-102156986D01*
X140915021Y-102169774D01*
X140896608Y-102180810D01*
X140877202Y-102189989D01*
X140856990Y-102197221D01*
X140836166Y-102202437D01*
X140814931Y-102205587D01*
X140793490Y-102206640D01*
X140280990Y-102206640D01*
X140259549Y-102205587D01*
X140238314Y-102202437D01*
X140217490Y-102197221D01*
X140197278Y-102189989D01*
X140177872Y-102180810D01*
X140159459Y-102169774D01*
X140142216Y-102156986D01*
X140126310Y-102142570D01*
X140111894Y-102126664D01*
X140099106Y-102109421D01*
X140088070Y-102091008D01*
X140078891Y-102071602D01*
X140071659Y-102051390D01*
X140066443Y-102030566D01*
X140063293Y-102009331D01*
X140062240Y-101987890D01*
X140062240Y-101550390D01*
X140063293Y-101528949D01*
X140066443Y-101507714D01*
X140071659Y-101486890D01*
X140078891Y-101466678D01*
X140088070Y-101447272D01*
X140099106Y-101428859D01*
X140111894Y-101411616D01*
X140126310Y-101395710D01*
X140142216Y-101381294D01*
X140159459Y-101368506D01*
X140177872Y-101357470D01*
X140197278Y-101348291D01*
X140217490Y-101341059D01*
X140238314Y-101335843D01*
X140259549Y-101332693D01*
X140280990Y-101331640D01*
X140793490Y-101331640D01*
X140814931Y-101332693D01*
G37*
G36*
X155387691Y-94626053D02*
G01*
X155408926Y-94629203D01*
X155429750Y-94634419D01*
X155449962Y-94641651D01*
X155469368Y-94650830D01*
X155487781Y-94661866D01*
X155505024Y-94674654D01*
X155520930Y-94689070D01*
X155535346Y-94704976D01*
X155548134Y-94722219D01*
X155559170Y-94740632D01*
X155568349Y-94760038D01*
X155575581Y-94780250D01*
X155580797Y-94801074D01*
X155583947Y-94822309D01*
X155585000Y-94843750D01*
X155585000Y-95356250D01*
X155583947Y-95377691D01*
X155580797Y-95398926D01*
X155575581Y-95419750D01*
X155568349Y-95439962D01*
X155559170Y-95459368D01*
X155548134Y-95477781D01*
X155535346Y-95495024D01*
X155520930Y-95510930D01*
X155505024Y-95525346D01*
X155487781Y-95538134D01*
X155469368Y-95549170D01*
X155449962Y-95558349D01*
X155429750Y-95565581D01*
X155408926Y-95570797D01*
X155387691Y-95573947D01*
X155366250Y-95575000D01*
X154928750Y-95575000D01*
X154907309Y-95573947D01*
X154886074Y-95570797D01*
X154865250Y-95565581D01*
X154845038Y-95558349D01*
X154825632Y-95549170D01*
X154807219Y-95538134D01*
X154789976Y-95525346D01*
X154774070Y-95510930D01*
X154759654Y-95495024D01*
X154746866Y-95477781D01*
X154735830Y-95459368D01*
X154726651Y-95439962D01*
X154719419Y-95419750D01*
X154714203Y-95398926D01*
X154711053Y-95377691D01*
X154710000Y-95356250D01*
X154710000Y-94843750D01*
X154711053Y-94822309D01*
X154714203Y-94801074D01*
X154719419Y-94780250D01*
X154726651Y-94760038D01*
X154735830Y-94740632D01*
X154746866Y-94722219D01*
X154759654Y-94704976D01*
X154774070Y-94689070D01*
X154789976Y-94674654D01*
X154807219Y-94661866D01*
X154825632Y-94650830D01*
X154845038Y-94641651D01*
X154865250Y-94634419D01*
X154886074Y-94629203D01*
X154907309Y-94626053D01*
X154928750Y-94625000D01*
X155366250Y-94625000D01*
X155387691Y-94626053D01*
G37*
G36*
X153812691Y-94626053D02*
G01*
X153833926Y-94629203D01*
X153854750Y-94634419D01*
X153874962Y-94641651D01*
X153894368Y-94650830D01*
X153912781Y-94661866D01*
X153930024Y-94674654D01*
X153945930Y-94689070D01*
X153960346Y-94704976D01*
X153973134Y-94722219D01*
X153984170Y-94740632D01*
X153993349Y-94760038D01*
X154000581Y-94780250D01*
X154005797Y-94801074D01*
X154008947Y-94822309D01*
X154010000Y-94843750D01*
X154010000Y-95356250D01*
X154008947Y-95377691D01*
X154005797Y-95398926D01*
X154000581Y-95419750D01*
X153993349Y-95439962D01*
X153984170Y-95459368D01*
X153973134Y-95477781D01*
X153960346Y-95495024D01*
X153945930Y-95510930D01*
X153930024Y-95525346D01*
X153912781Y-95538134D01*
X153894368Y-95549170D01*
X153874962Y-95558349D01*
X153854750Y-95565581D01*
X153833926Y-95570797D01*
X153812691Y-95573947D01*
X153791250Y-95575000D01*
X153353750Y-95575000D01*
X153332309Y-95573947D01*
X153311074Y-95570797D01*
X153290250Y-95565581D01*
X153270038Y-95558349D01*
X153250632Y-95549170D01*
X153232219Y-95538134D01*
X153214976Y-95525346D01*
X153199070Y-95510930D01*
X153184654Y-95495024D01*
X153171866Y-95477781D01*
X153160830Y-95459368D01*
X153151651Y-95439962D01*
X153144419Y-95419750D01*
X153139203Y-95398926D01*
X153136053Y-95377691D01*
X153135000Y-95356250D01*
X153135000Y-94843750D01*
X153136053Y-94822309D01*
X153139203Y-94801074D01*
X153144419Y-94780250D01*
X153151651Y-94760038D01*
X153160830Y-94740632D01*
X153171866Y-94722219D01*
X153184654Y-94704976D01*
X153199070Y-94689070D01*
X153214976Y-94674654D01*
X153232219Y-94661866D01*
X153250632Y-94650830D01*
X153270038Y-94641651D01*
X153290250Y-94634419D01*
X153311074Y-94629203D01*
X153332309Y-94626053D01*
X153353750Y-94625000D01*
X153791250Y-94625000D01*
X153812691Y-94626053D01*
G37*
G36*
X146716451Y-93428453D02*
G01*
X146737686Y-93431603D01*
X146758510Y-93436819D01*
X146778722Y-93444051D01*
X146798128Y-93453230D01*
X146816541Y-93464266D01*
X146833784Y-93477054D01*
X146849690Y-93491470D01*
X146864106Y-93507376D01*
X146876894Y-93524619D01*
X146887930Y-93543032D01*
X146897109Y-93562438D01*
X146904341Y-93582650D01*
X146909557Y-93603474D01*
X146912707Y-93624709D01*
X146913760Y-93646150D01*
X146913760Y-94083650D01*
X146912707Y-94105091D01*
X146909557Y-94126326D01*
X146904341Y-94147150D01*
X146897109Y-94167362D01*
X146887930Y-94186768D01*
X146876894Y-94205181D01*
X146864106Y-94222424D01*
X146849690Y-94238330D01*
X146833784Y-94252746D01*
X146816541Y-94265534D01*
X146798128Y-94276570D01*
X146778722Y-94285749D01*
X146758510Y-94292981D01*
X146737686Y-94298197D01*
X146716451Y-94301347D01*
X146695010Y-94302400D01*
X146182510Y-94302400D01*
X146161069Y-94301347D01*
X146139834Y-94298197D01*
X146119010Y-94292981D01*
X146098798Y-94285749D01*
X146079392Y-94276570D01*
X146060979Y-94265534D01*
X146043736Y-94252746D01*
X146027830Y-94238330D01*
X146013414Y-94222424D01*
X146000626Y-94205181D01*
X145989590Y-94186768D01*
X145980411Y-94167362D01*
X145973179Y-94147150D01*
X145967963Y-94126326D01*
X145964813Y-94105091D01*
X145963760Y-94083650D01*
X145963760Y-93646150D01*
X145964813Y-93624709D01*
X145967963Y-93603474D01*
X145973179Y-93582650D01*
X145980411Y-93562438D01*
X145989590Y-93543032D01*
X146000626Y-93524619D01*
X146013414Y-93507376D01*
X146027830Y-93491470D01*
X146043736Y-93477054D01*
X146060979Y-93464266D01*
X146079392Y-93453230D01*
X146098798Y-93444051D01*
X146119010Y-93436819D01*
X146139834Y-93431603D01*
X146161069Y-93428453D01*
X146182510Y-93427400D01*
X146695010Y-93427400D01*
X146716451Y-93428453D01*
G37*
G36*
X146716451Y-95003453D02*
G01*
X146737686Y-95006603D01*
X146758510Y-95011819D01*
X146778722Y-95019051D01*
X146798128Y-95028230D01*
X146816541Y-95039266D01*
X146833784Y-95052054D01*
X146849690Y-95066470D01*
X146864106Y-95082376D01*
X146876894Y-95099619D01*
X146887930Y-95118032D01*
X146897109Y-95137438D01*
X146904341Y-95157650D01*
X146909557Y-95178474D01*
X146912707Y-95199709D01*
X146913760Y-95221150D01*
X146913760Y-95658650D01*
X146912707Y-95680091D01*
X146909557Y-95701326D01*
X146904341Y-95722150D01*
X146897109Y-95742362D01*
X146887930Y-95761768D01*
X146876894Y-95780181D01*
X146864106Y-95797424D01*
X146849690Y-95813330D01*
X146833784Y-95827746D01*
X146816541Y-95840534D01*
X146798128Y-95851570D01*
X146778722Y-95860749D01*
X146758510Y-95867981D01*
X146737686Y-95873197D01*
X146716451Y-95876347D01*
X146695010Y-95877400D01*
X146182510Y-95877400D01*
X146161069Y-95876347D01*
X146139834Y-95873197D01*
X146119010Y-95867981D01*
X146098798Y-95860749D01*
X146079392Y-95851570D01*
X146060979Y-95840534D01*
X146043736Y-95827746D01*
X146027830Y-95813330D01*
X146013414Y-95797424D01*
X146000626Y-95780181D01*
X145989590Y-95761768D01*
X145980411Y-95742362D01*
X145973179Y-95722150D01*
X145967963Y-95701326D01*
X145964813Y-95680091D01*
X145963760Y-95658650D01*
X145963760Y-95221150D01*
X145964813Y-95199709D01*
X145967963Y-95178474D01*
X145973179Y-95157650D01*
X145980411Y-95137438D01*
X145989590Y-95118032D01*
X146000626Y-95099619D01*
X146013414Y-95082376D01*
X146027830Y-95066470D01*
X146043736Y-95052054D01*
X146060979Y-95039266D01*
X146079392Y-95028230D01*
X146098798Y-95019051D01*
X146119010Y-95011819D01*
X146139834Y-95006603D01*
X146161069Y-95003453D01*
X146182510Y-95002400D01*
X146695010Y-95002400D01*
X146716451Y-95003453D01*
G37*
M02*
