G04 #@! TF.GenerationSoftware,KiCad,Pcbnew,(5.1.5-0-10_14)*
G04 #@! TF.CreationDate,2020-04-01T16:07:59-07:00*
G04 #@! TF.ProjectId,raptor,72617074-6f72-42e6-9b69-6361645f7063,rev?*
G04 #@! TF.SameCoordinates,Original*
G04 #@! TF.FileFunction,Legend,Bot*
G04 #@! TF.FilePolarity,Positive*
%FSLAX46Y46*%
G04 Gerber Fmt 4.6, Leading zero omitted, Abs format (unit mm)*
G04 Created by KiCad (PCBNEW (5.1.5-0-10_14)) date 2020-04-01 16:07:59*
%MOMM*%
%LPD*%
G04 APERTURE LIST*
%ADD10C,0.152400*%
%ADD11C,0.120000*%
%ADD12C,0.200000*%
%ADD13C,0.100000*%
%ADD14C,0.127000*%
%ADD15C,0.063500*%
G04 APERTURE END LIST*
D10*
X147767000Y-131587400D02*
G75*
G03X147513000Y-131587400I-127000J-278676D01*
G01*
D11*
X147217221Y-132230000D02*
X147542779Y-132230000D01*
X147217221Y-133250000D02*
X147542779Y-133250000D01*
X139448000Y-137251221D02*
X139448000Y-137576779D01*
X138428000Y-137251221D02*
X138428000Y-137576779D01*
X154532779Y-94090000D02*
X154207221Y-94090000D01*
X154532779Y-93070000D02*
X154207221Y-93070000D01*
D12*
X141040000Y-96450000D02*
G75*
G03X141040000Y-96450000I-100000J0D01*
G01*
X153080000Y-98250000D02*
G75*
G03X153080000Y-98050000I0J100000D01*
G01*
X153080000Y-98050000D02*
G75*
G03X153080000Y-98250000I0J-100000D01*
G01*
X153080000Y-98050000D02*
X153080000Y-98050000D01*
X153080000Y-98250000D02*
X153080000Y-98250000D01*
D13*
X155130000Y-97750000D02*
X153830000Y-97750000D01*
X155130000Y-100950000D02*
X153830000Y-100950000D01*
D11*
X142540000Y-102712779D02*
X142540000Y-102387221D01*
X141520000Y-102712779D02*
X141520000Y-102387221D01*
X143487221Y-99540000D02*
X143812779Y-99540000D01*
X143487221Y-98520000D02*
X143812779Y-98520000D01*
X155730000Y-103487221D02*
X155730000Y-103812779D01*
X154710000Y-103487221D02*
X154710000Y-103812779D01*
X143288600Y-110455821D02*
X143288600Y-110781379D01*
X144308600Y-110455821D02*
X144308600Y-110781379D01*
X150912600Y-98284579D02*
X150912600Y-97959021D01*
X149892600Y-98284579D02*
X149892600Y-97959021D01*
X153969300Y-110201821D02*
X153969300Y-110527379D01*
X154989300Y-110201821D02*
X154989300Y-110527379D01*
X155720000Y-106707221D02*
X155720000Y-107032779D01*
X154700000Y-106707221D02*
X154700000Y-107032779D01*
X146813040Y-97882821D02*
X146813040Y-98208379D01*
X145793040Y-97882821D02*
X145793040Y-98208379D01*
X149677221Y-87060000D02*
X150002779Y-87060000D01*
X149677221Y-88080000D02*
X150002779Y-88080000D01*
X146657221Y-88030000D02*
X146982779Y-88030000D01*
X146657221Y-87010000D02*
X146982779Y-87010000D01*
X145248600Y-108826100D02*
X144798600Y-108826100D01*
X144798600Y-108826100D02*
X144798600Y-108376100D01*
X151568600Y-108826100D02*
X152018600Y-108826100D01*
X152018600Y-108826100D02*
X152018600Y-108376100D01*
X145248600Y-101606100D02*
X144798600Y-101606100D01*
X144798600Y-101606100D02*
X144798600Y-102056100D01*
X151568600Y-101606100D02*
X152018600Y-101606100D01*
X152018600Y-101606100D02*
X152018600Y-102056100D01*
X152018600Y-102056100D02*
X153308600Y-102056100D01*
X151819700Y-96160000D02*
X150019700Y-96160000D01*
X150019700Y-92940000D02*
X152469700Y-92940000D01*
X148500000Y-94832779D02*
X148500000Y-94507221D01*
X147480000Y-94832779D02*
X147480000Y-94507221D01*
X141047240Y-102719419D02*
X141047240Y-102393861D01*
X140027240Y-102719419D02*
X140027240Y-102393861D01*
X154197221Y-94590000D02*
X154522779Y-94590000D01*
X154197221Y-95610000D02*
X154522779Y-95610000D01*
X145928760Y-94815179D02*
X145928760Y-94489621D01*
X146948760Y-94815179D02*
X146948760Y-94489621D01*
D14*
X148007047Y-128861809D02*
X148007047Y-129273047D01*
X147982857Y-129321428D01*
X147958666Y-129345619D01*
X147910285Y-129369809D01*
X147813523Y-129369809D01*
X147765142Y-129345619D01*
X147740952Y-129321428D01*
X147716761Y-129273047D01*
X147716761Y-128861809D01*
X147208761Y-129369809D02*
X147499047Y-129369809D01*
X147353904Y-129369809D02*
X147353904Y-128861809D01*
X147402285Y-128934380D01*
X147450666Y-128982761D01*
X147499047Y-129006952D01*
D15*
X147543285Y-133678904D02*
X147627952Y-133557952D01*
X147688428Y-133678904D02*
X147688428Y-133424904D01*
X147591666Y-133424904D01*
X147567476Y-133437000D01*
X147555380Y-133449095D01*
X147543285Y-133473285D01*
X147543285Y-133509571D01*
X147555380Y-133533761D01*
X147567476Y-133545857D01*
X147591666Y-133557952D01*
X147688428Y-133557952D01*
X147446523Y-133449095D02*
X147434428Y-133437000D01*
X147410238Y-133424904D01*
X147349761Y-133424904D01*
X147325571Y-133437000D01*
X147313476Y-133449095D01*
X147301380Y-133473285D01*
X147301380Y-133497476D01*
X147313476Y-133533761D01*
X147458619Y-133678904D01*
X147301380Y-133678904D01*
X147083666Y-133509571D02*
X147083666Y-133678904D01*
X147144142Y-133412809D02*
X147204619Y-133594238D01*
X147047380Y-133594238D01*
X138132904Y-137220714D02*
X138011952Y-137136047D01*
X138132904Y-137075571D02*
X137878904Y-137075571D01*
X137878904Y-137172333D01*
X137891000Y-137196523D01*
X137903095Y-137208619D01*
X137927285Y-137220714D01*
X137963571Y-137220714D01*
X137987761Y-137208619D01*
X137999857Y-137196523D01*
X138011952Y-137172333D01*
X138011952Y-137075571D01*
X138132904Y-137462619D02*
X138132904Y-137317476D01*
X138132904Y-137390047D02*
X137878904Y-137390047D01*
X137915190Y-137365857D01*
X137939380Y-137341666D01*
X137951476Y-137317476D01*
X138132904Y-137704523D02*
X138132904Y-137559380D01*
X138132904Y-137631952D02*
X137878904Y-137631952D01*
X137915190Y-137607761D01*
X137939380Y-137583571D01*
X137951476Y-137559380D01*
X154499285Y-92800904D02*
X154583952Y-92679952D01*
X154644428Y-92800904D02*
X154644428Y-92546904D01*
X154547666Y-92546904D01*
X154523476Y-92559000D01*
X154511380Y-92571095D01*
X154499285Y-92595285D01*
X154499285Y-92631571D01*
X154511380Y-92655761D01*
X154523476Y-92667857D01*
X154547666Y-92679952D01*
X154644428Y-92679952D01*
X154402523Y-92571095D02*
X154390428Y-92559000D01*
X154366238Y-92546904D01*
X154305761Y-92546904D01*
X154281571Y-92559000D01*
X154269476Y-92571095D01*
X154257380Y-92595285D01*
X154257380Y-92619476D01*
X154269476Y-92655761D01*
X154414619Y-92800904D01*
X154257380Y-92800904D01*
X154160619Y-92571095D02*
X154148523Y-92559000D01*
X154124333Y-92546904D01*
X154063857Y-92546904D01*
X154039666Y-92559000D01*
X154027571Y-92571095D01*
X154015476Y-92595285D01*
X154015476Y-92619476D01*
X154027571Y-92655761D01*
X154172714Y-92800904D01*
X154015476Y-92800904D01*
D14*
X141054424Y-94006609D02*
X141054424Y-93498609D01*
X140522234Y-93958228D02*
X140546424Y-93982419D01*
X140618996Y-94006609D01*
X140667377Y-94006609D01*
X140739948Y-93982419D01*
X140788329Y-93934038D01*
X140812520Y-93885657D01*
X140836710Y-93788895D01*
X140836710Y-93716323D01*
X140812520Y-93619561D01*
X140788329Y-93571180D01*
X140739948Y-93522800D01*
X140667377Y-93498609D01*
X140618996Y-93498609D01*
X140546424Y-93522800D01*
X140522234Y-93546990D01*
X140062615Y-93498609D02*
X140304520Y-93498609D01*
X140328710Y-93740514D01*
X140304520Y-93716323D01*
X140256139Y-93692133D01*
X140135186Y-93692133D01*
X140086805Y-93716323D01*
X140062615Y-93740514D01*
X140038424Y-93788895D01*
X140038424Y-93909847D01*
X140062615Y-93958228D01*
X140086805Y-93982419D01*
X140135186Y-94006609D01*
X140256139Y-94006609D01*
X140304520Y-93982419D01*
X140328710Y-93958228D01*
X154843238Y-101221809D02*
X154504571Y-101729809D01*
X154504571Y-101221809D02*
X154843238Y-101729809D01*
X154044952Y-101729809D02*
X154335238Y-101729809D01*
X154190095Y-101729809D02*
X154190095Y-101221809D01*
X154238476Y-101294380D01*
X154286857Y-101342761D01*
X154335238Y-101366952D01*
D15*
X142088333Y-101082714D02*
X142100428Y-101094809D01*
X142136714Y-101106904D01*
X142160904Y-101106904D01*
X142197190Y-101094809D01*
X142221380Y-101070619D01*
X142233476Y-101046428D01*
X142245571Y-100998047D01*
X142245571Y-100961761D01*
X142233476Y-100913380D01*
X142221380Y-100889190D01*
X142197190Y-100865000D01*
X142160904Y-100852904D01*
X142136714Y-100852904D01*
X142100428Y-100865000D01*
X142088333Y-100877095D01*
X141846428Y-101106904D02*
X141991571Y-101106904D01*
X141919000Y-101106904D02*
X141919000Y-100852904D01*
X141943190Y-100889190D01*
X141967380Y-100913380D01*
X141991571Y-100925476D01*
X143692333Y-98140274D02*
X143704428Y-98152369D01*
X143740714Y-98164464D01*
X143764904Y-98164464D01*
X143801190Y-98152369D01*
X143825380Y-98128179D01*
X143837476Y-98103988D01*
X143849571Y-98055607D01*
X143849571Y-98019321D01*
X143837476Y-97970940D01*
X143825380Y-97946750D01*
X143801190Y-97922560D01*
X143764904Y-97910464D01*
X143740714Y-97910464D01*
X143704428Y-97922560D01*
X143692333Y-97934655D01*
X143547190Y-98019321D02*
X143571380Y-98007226D01*
X143583476Y-97995131D01*
X143595571Y-97970940D01*
X143595571Y-97958845D01*
X143583476Y-97934655D01*
X143571380Y-97922560D01*
X143547190Y-97910464D01*
X143498809Y-97910464D01*
X143474619Y-97922560D01*
X143462523Y-97934655D01*
X143450428Y-97958845D01*
X143450428Y-97970940D01*
X143462523Y-97995131D01*
X143474619Y-98007226D01*
X143498809Y-98019321D01*
X143547190Y-98019321D01*
X143571380Y-98031417D01*
X143583476Y-98043512D01*
X143595571Y-98067702D01*
X143595571Y-98116083D01*
X143583476Y-98140274D01*
X143571380Y-98152369D01*
X143547190Y-98164464D01*
X143498809Y-98164464D01*
X143474619Y-98152369D01*
X143462523Y-98140274D01*
X143450428Y-98116083D01*
X143450428Y-98067702D01*
X143462523Y-98043512D01*
X143474619Y-98031417D01*
X143498809Y-98019321D01*
X154256614Y-103486714D02*
X154268709Y-103474619D01*
X154280804Y-103438333D01*
X154280804Y-103414142D01*
X154268709Y-103377857D01*
X154244519Y-103353666D01*
X154220328Y-103341571D01*
X154171947Y-103329476D01*
X154135661Y-103329476D01*
X154087280Y-103341571D01*
X154063090Y-103353666D01*
X154038900Y-103377857D01*
X154026804Y-103414142D01*
X154026804Y-103438333D01*
X154038900Y-103474619D01*
X154050995Y-103486714D01*
X154280804Y-103728619D02*
X154280804Y-103583476D01*
X154280804Y-103656047D02*
X154026804Y-103656047D01*
X154063090Y-103631857D01*
X154087280Y-103607666D01*
X154099376Y-103583476D01*
X154026804Y-103958428D02*
X154026804Y-103837476D01*
X154147757Y-103825380D01*
X154135661Y-103837476D01*
X154123566Y-103861666D01*
X154123566Y-103922142D01*
X154135661Y-103946333D01*
X154147757Y-103958428D01*
X154171947Y-103970523D01*
X154232423Y-103970523D01*
X154256614Y-103958428D01*
X154268709Y-103946333D01*
X154280804Y-103922142D01*
X154280804Y-103861666D01*
X154268709Y-103837476D01*
X154256614Y-103825380D01*
X142971285Y-110709314D02*
X142983380Y-110721409D01*
X143019666Y-110733504D01*
X143043857Y-110733504D01*
X143080142Y-110721409D01*
X143104333Y-110697219D01*
X143116428Y-110673028D01*
X143128523Y-110624647D01*
X143128523Y-110588361D01*
X143116428Y-110539980D01*
X143104333Y-110515790D01*
X143080142Y-110491600D01*
X143043857Y-110479504D01*
X143019666Y-110479504D01*
X142983380Y-110491600D01*
X142971285Y-110503695D01*
X142729380Y-110733504D02*
X142874523Y-110733504D01*
X142801952Y-110733504D02*
X142801952Y-110479504D01*
X142826142Y-110515790D01*
X142850333Y-110539980D01*
X142874523Y-110552076D01*
X142511666Y-110479504D02*
X142560047Y-110479504D01*
X142584238Y-110491600D01*
X142596333Y-110503695D01*
X142620523Y-110539980D01*
X142632619Y-110588361D01*
X142632619Y-110685123D01*
X142620523Y-110709314D01*
X142608428Y-110721409D01*
X142584238Y-110733504D01*
X142535857Y-110733504D01*
X142511666Y-110721409D01*
X142499571Y-110709314D01*
X142487476Y-110685123D01*
X142487476Y-110624647D01*
X142499571Y-110600457D01*
X142511666Y-110588361D01*
X142535857Y-110576266D01*
X142584238Y-110576266D01*
X142608428Y-110588361D01*
X142620523Y-110600457D01*
X142632619Y-110624647D01*
X151607285Y-98212514D02*
X151619380Y-98224609D01*
X151655666Y-98236704D01*
X151679857Y-98236704D01*
X151716142Y-98224609D01*
X151740333Y-98200419D01*
X151752428Y-98176228D01*
X151764523Y-98127847D01*
X151764523Y-98091561D01*
X151752428Y-98043180D01*
X151740333Y-98018990D01*
X151716142Y-97994800D01*
X151679857Y-97982704D01*
X151655666Y-97982704D01*
X151619380Y-97994800D01*
X151607285Y-98006895D01*
X151365380Y-98236704D02*
X151510523Y-98236704D01*
X151437952Y-98236704D02*
X151437952Y-97982704D01*
X151462142Y-98018990D01*
X151486333Y-98043180D01*
X151510523Y-98055276D01*
X151280714Y-97982704D02*
X151111380Y-97982704D01*
X151220238Y-98236704D01*
X155671285Y-110455314D02*
X155683380Y-110467409D01*
X155719666Y-110479504D01*
X155743857Y-110479504D01*
X155780142Y-110467409D01*
X155804333Y-110443219D01*
X155816428Y-110419028D01*
X155828523Y-110370647D01*
X155828523Y-110334361D01*
X155816428Y-110285980D01*
X155804333Y-110261790D01*
X155780142Y-110237600D01*
X155743857Y-110225504D01*
X155719666Y-110225504D01*
X155683380Y-110237600D01*
X155671285Y-110249695D01*
X155574523Y-110249695D02*
X155562428Y-110237600D01*
X155538238Y-110225504D01*
X155477761Y-110225504D01*
X155453571Y-110237600D01*
X155441476Y-110249695D01*
X155429380Y-110273885D01*
X155429380Y-110298076D01*
X155441476Y-110334361D01*
X155586619Y-110479504D01*
X155429380Y-110479504D01*
X155272142Y-110225504D02*
X155247952Y-110225504D01*
X155223761Y-110237600D01*
X155211666Y-110249695D01*
X155199571Y-110273885D01*
X155187476Y-110322266D01*
X155187476Y-110382742D01*
X155199571Y-110431123D01*
X155211666Y-110455314D01*
X155223761Y-110467409D01*
X155247952Y-110479504D01*
X155272142Y-110479504D01*
X155296333Y-110467409D01*
X155308428Y-110455314D01*
X155320523Y-110431123D01*
X155332619Y-110382742D01*
X155332619Y-110322266D01*
X155320523Y-110273885D01*
X155308428Y-110249695D01*
X155296333Y-110237600D01*
X155272142Y-110225504D01*
X154333614Y-107648414D02*
X154345709Y-107636319D01*
X154357804Y-107600033D01*
X154357804Y-107575842D01*
X154345709Y-107539557D01*
X154321519Y-107515366D01*
X154297328Y-107503271D01*
X154248947Y-107491176D01*
X154212661Y-107491176D01*
X154164280Y-107503271D01*
X154140090Y-107515366D01*
X154115900Y-107539557D01*
X154103804Y-107575842D01*
X154103804Y-107600033D01*
X154115900Y-107636319D01*
X154127995Y-107648414D01*
X154127995Y-107745176D02*
X154115900Y-107757271D01*
X154103804Y-107781461D01*
X154103804Y-107841938D01*
X154115900Y-107866128D01*
X154127995Y-107878223D01*
X154152185Y-107890319D01*
X154176376Y-107890319D01*
X154212661Y-107878223D01*
X154357804Y-107733080D01*
X154357804Y-107890319D01*
X154357804Y-108132223D02*
X154357804Y-107987080D01*
X154357804Y-108059652D02*
X154103804Y-108059652D01*
X154140090Y-108035461D01*
X154164280Y-108011271D01*
X154176376Y-107987080D01*
X145511285Y-98136314D02*
X145523380Y-98148409D01*
X145559666Y-98160504D01*
X145583857Y-98160504D01*
X145620142Y-98148409D01*
X145644333Y-98124219D01*
X145656428Y-98100028D01*
X145668523Y-98051647D01*
X145668523Y-98015361D01*
X145656428Y-97966980D01*
X145644333Y-97942790D01*
X145620142Y-97918600D01*
X145583857Y-97906504D01*
X145559666Y-97906504D01*
X145523380Y-97918600D01*
X145511285Y-97930695D01*
X145414523Y-97930695D02*
X145402428Y-97918600D01*
X145378238Y-97906504D01*
X145317761Y-97906504D01*
X145293571Y-97918600D01*
X145281476Y-97930695D01*
X145269380Y-97954885D01*
X145269380Y-97979076D01*
X145281476Y-98015361D01*
X145426619Y-98160504D01*
X145269380Y-98160504D01*
X145172619Y-97930695D02*
X145160523Y-97918600D01*
X145136333Y-97906504D01*
X145075857Y-97906504D01*
X145051666Y-97918600D01*
X145039571Y-97930695D01*
X145027476Y-97954885D01*
X145027476Y-97979076D01*
X145039571Y-98015361D01*
X145184714Y-98160504D01*
X145027476Y-98160504D01*
X150303571Y-86601857D02*
X150388238Y-86601857D01*
X150388238Y-86734904D02*
X150388238Y-86480904D01*
X150267285Y-86480904D01*
X150170523Y-86480904D02*
X150170523Y-86686523D01*
X150158428Y-86710714D01*
X150146333Y-86722809D01*
X150122142Y-86734904D01*
X150073761Y-86734904D01*
X150049571Y-86722809D01*
X150037476Y-86710714D01*
X150025380Y-86686523D01*
X150025380Y-86480904D01*
X149916523Y-86722809D02*
X149880238Y-86734904D01*
X149819761Y-86734904D01*
X149795571Y-86722809D01*
X149783476Y-86710714D01*
X149771380Y-86686523D01*
X149771380Y-86662333D01*
X149783476Y-86638142D01*
X149795571Y-86626047D01*
X149819761Y-86613952D01*
X149868142Y-86601857D01*
X149892333Y-86589761D01*
X149904428Y-86577666D01*
X149916523Y-86553476D01*
X149916523Y-86529285D01*
X149904428Y-86505095D01*
X149892333Y-86493000D01*
X149868142Y-86480904D01*
X149807666Y-86480904D01*
X149771380Y-86493000D01*
X149662523Y-86601857D02*
X149577857Y-86601857D01*
X149541571Y-86734904D02*
X149662523Y-86734904D01*
X149662523Y-86480904D01*
X149541571Y-86480904D01*
X149299666Y-86734904D02*
X149444809Y-86734904D01*
X149372238Y-86734904D02*
X149372238Y-86480904D01*
X149396428Y-86517190D01*
X149420619Y-86541380D01*
X149444809Y-86553476D01*
X147558293Y-86531577D02*
X147642960Y-86531577D01*
X147642960Y-86664624D02*
X147642960Y-86410624D01*
X147522007Y-86410624D01*
X147425245Y-86410624D02*
X147425245Y-86616243D01*
X147413150Y-86640434D01*
X147401055Y-86652529D01*
X147376864Y-86664624D01*
X147328483Y-86664624D01*
X147304293Y-86652529D01*
X147292198Y-86640434D01*
X147280102Y-86616243D01*
X147280102Y-86410624D01*
X147171245Y-86652529D02*
X147134960Y-86664624D01*
X147074483Y-86664624D01*
X147050293Y-86652529D01*
X147038198Y-86640434D01*
X147026102Y-86616243D01*
X147026102Y-86592053D01*
X147038198Y-86567862D01*
X147050293Y-86555767D01*
X147074483Y-86543672D01*
X147122864Y-86531577D01*
X147147055Y-86519481D01*
X147159150Y-86507386D01*
X147171245Y-86483196D01*
X147171245Y-86459005D01*
X147159150Y-86434815D01*
X147147055Y-86422720D01*
X147122864Y-86410624D01*
X147062388Y-86410624D01*
X147026102Y-86422720D01*
X146917245Y-86531577D02*
X146832579Y-86531577D01*
X146796293Y-86664624D02*
X146917245Y-86664624D01*
X146917245Y-86410624D01*
X146796293Y-86410624D01*
X146747912Y-86688815D02*
X146554388Y-86688815D01*
X146445531Y-86410624D02*
X146421340Y-86410624D01*
X146397150Y-86422720D01*
X146385055Y-86434815D01*
X146372960Y-86459005D01*
X146360864Y-86507386D01*
X146360864Y-86567862D01*
X146372960Y-86616243D01*
X146385055Y-86640434D01*
X146397150Y-86652529D01*
X146421340Y-86664624D01*
X146445531Y-86664624D01*
X146469721Y-86652529D01*
X146481817Y-86640434D01*
X146493912Y-86616243D01*
X146506007Y-86567862D01*
X146506007Y-86507386D01*
X146493912Y-86459005D01*
X146481817Y-86434815D01*
X146469721Y-86422720D01*
X146445531Y-86410624D01*
D14*
X149907904Y-99951809D02*
X149907904Y-99443809D01*
X149375714Y-99903428D02*
X149399904Y-99927619D01*
X149472476Y-99951809D01*
X149520857Y-99951809D01*
X149593428Y-99927619D01*
X149641809Y-99879238D01*
X149666000Y-99830857D01*
X149690190Y-99734095D01*
X149690190Y-99661523D01*
X149666000Y-99564761D01*
X149641809Y-99516380D01*
X149593428Y-99468000D01*
X149520857Y-99443809D01*
X149472476Y-99443809D01*
X149399904Y-99468000D01*
X149375714Y-99492190D01*
X149182190Y-99492190D02*
X149158000Y-99468000D01*
X149109619Y-99443809D01*
X148988666Y-99443809D01*
X148940285Y-99468000D01*
X148916095Y-99492190D01*
X148891904Y-99540571D01*
X148891904Y-99588952D01*
X148916095Y-99661523D01*
X149206380Y-99951809D01*
X148891904Y-99951809D01*
X151415604Y-96913409D02*
X151415604Y-96405409D01*
X150883414Y-96865028D02*
X150907604Y-96889219D01*
X150980176Y-96913409D01*
X151028557Y-96913409D01*
X151101128Y-96889219D01*
X151149509Y-96840838D01*
X151173700Y-96792457D01*
X151197890Y-96695695D01*
X151197890Y-96623123D01*
X151173700Y-96526361D01*
X151149509Y-96477980D01*
X151101128Y-96429600D01*
X151028557Y-96405409D01*
X150980176Y-96405409D01*
X150907604Y-96429600D01*
X150883414Y-96453790D01*
X150447985Y-96574742D02*
X150447985Y-96913409D01*
X150568938Y-96381219D02*
X150689890Y-96744076D01*
X150375414Y-96744076D01*
D15*
X149036333Y-94784904D02*
X149121000Y-94663952D01*
X149181476Y-94784904D02*
X149181476Y-94530904D01*
X149084714Y-94530904D01*
X149060523Y-94543000D01*
X149048428Y-94555095D01*
X149036333Y-94579285D01*
X149036333Y-94615571D01*
X149048428Y-94639761D01*
X149060523Y-94651857D01*
X149084714Y-94663952D01*
X149181476Y-94663952D01*
X148939571Y-94555095D02*
X148927476Y-94543000D01*
X148903285Y-94530904D01*
X148842809Y-94530904D01*
X148818619Y-94543000D01*
X148806523Y-94555095D01*
X148794428Y-94579285D01*
X148794428Y-94603476D01*
X148806523Y-94639761D01*
X148951666Y-94784904D01*
X148794428Y-94784904D01*
X140564333Y-101106904D02*
X140649000Y-100985952D01*
X140709476Y-101106904D02*
X140709476Y-100852904D01*
X140612714Y-100852904D01*
X140588523Y-100865000D01*
X140576428Y-100877095D01*
X140564333Y-100901285D01*
X140564333Y-100937571D01*
X140576428Y-100961761D01*
X140588523Y-100973857D01*
X140612714Y-100985952D01*
X140709476Y-100985952D01*
X140334523Y-100852904D02*
X140455476Y-100852904D01*
X140467571Y-100973857D01*
X140455476Y-100961761D01*
X140431285Y-100949666D01*
X140370809Y-100949666D01*
X140346619Y-100961761D01*
X140334523Y-100973857D01*
X140322428Y-100998047D01*
X140322428Y-101058523D01*
X140334523Y-101082714D01*
X140346619Y-101094809D01*
X140370809Y-101106904D01*
X140431285Y-101106904D01*
X140455476Y-101094809D01*
X140467571Y-101082714D01*
X154378333Y-96102904D02*
X154463000Y-95981952D01*
X154523476Y-96102904D02*
X154523476Y-95848904D01*
X154426714Y-95848904D01*
X154402523Y-95861000D01*
X154390428Y-95873095D01*
X154378333Y-95897285D01*
X154378333Y-95933571D01*
X154390428Y-95957761D01*
X154402523Y-95969857D01*
X154426714Y-95981952D01*
X154523476Y-95981952D01*
X154293666Y-95848904D02*
X154124333Y-95848904D01*
X154233190Y-96102904D01*
X145601285Y-94767304D02*
X145685952Y-94646352D01*
X145746428Y-94767304D02*
X145746428Y-94513304D01*
X145649666Y-94513304D01*
X145625476Y-94525400D01*
X145613380Y-94537495D01*
X145601285Y-94561685D01*
X145601285Y-94597971D01*
X145613380Y-94622161D01*
X145625476Y-94634257D01*
X145649666Y-94646352D01*
X145746428Y-94646352D01*
X145359380Y-94767304D02*
X145504523Y-94767304D01*
X145431952Y-94767304D02*
X145431952Y-94513304D01*
X145456142Y-94549590D01*
X145480333Y-94573780D01*
X145504523Y-94585876D01*
X145141666Y-94597971D02*
X145141666Y-94767304D01*
X145202142Y-94501209D02*
X145262619Y-94682638D01*
X145105380Y-94682638D01*
M02*
