G04 #@! TF.GenerationSoftware,KiCad,Pcbnew,(5.1.5-0-10_14)*
G04 #@! TF.CreationDate,2020-04-01T16:07:59-07:00*
G04 #@! TF.ProjectId,raptor,72617074-6f72-42e6-9b69-6361645f7063,rev?*
G04 #@! TF.SameCoordinates,Original*
G04 #@! TF.FileFunction,Other,Fab,Top*
%FSLAX46Y46*%
G04 Gerber Fmt 4.6, Leading zero omitted, Abs format (unit mm)*
G04 Created by KiCad (PCBNEW (5.1.5-0-10_14)) date 2020-04-01 16:07:59*
%MOMM*%
%LPD*%
G04 APERTURE LIST*
%ADD10C,0.127000*%
%ADD11C,0.100000*%
%ADD12C,0.200000*%
%ADD13C,0.015000*%
%ADD14C,0.150000*%
%ADD15C,0.101600*%
%ADD16C,0.060000*%
%ADD17C,0.254000*%
%ADD18C,0.075000*%
G04 APERTURE END LIST*
D10*
X152290000Y-90050000D02*
X144290000Y-90050000D01*
X144290000Y-83450000D02*
X144290000Y-90050000D01*
X152290000Y-83450000D02*
X152290000Y-90050000D01*
D11*
X137775000Y-84100000D02*
X139680000Y-84100000D01*
X139680000Y-84100000D02*
X139680000Y-134900000D01*
X139680000Y-134900000D02*
X137140000Y-134900000D01*
X137140000Y-134900000D02*
X137140000Y-84735000D01*
X137140000Y-84735000D02*
X137775000Y-84100000D01*
X153298347Y-120318993D02*
X153298347Y-121733207D01*
X148348600Y-115369246D02*
X153298347Y-120318993D01*
X142691746Y-121026100D02*
X148348600Y-115369246D01*
X148348600Y-126682954D02*
X142691746Y-121026100D01*
X153298347Y-121733207D02*
X148348600Y-126682954D01*
X145082000Y-102350000D02*
X144282000Y-102350000D01*
X144282000Y-102350000D02*
X144282000Y-100750000D01*
X144282000Y-100750000D02*
X145082000Y-100750000D01*
X145082000Y-100750000D02*
X145082000Y-102350000D01*
X145800000Y-129670000D02*
X145800000Y-131270000D01*
X145000000Y-129670000D02*
X145800000Y-129670000D01*
X145000000Y-131270000D02*
X145000000Y-129670000D01*
X145800000Y-131270000D02*
X145000000Y-131270000D01*
X155200000Y-126400000D02*
X155200000Y-128000000D01*
X154400000Y-126400000D02*
X155200000Y-126400000D01*
X154400000Y-128000000D02*
X154400000Y-126400000D01*
X155200000Y-128000000D02*
X154400000Y-128000000D01*
X145783500Y-111106000D02*
X147383500Y-111106000D01*
X145783500Y-111906000D02*
X145783500Y-111106000D01*
X147383500Y-111906000D02*
X145783500Y-111906000D01*
X147383500Y-111106000D02*
X147383500Y-111906000D01*
X153330000Y-130415000D02*
X153965000Y-129780000D01*
X153330000Y-134860000D02*
X153330000Y-130415000D01*
X155870000Y-134860000D02*
X153330000Y-134860000D01*
X155870000Y-129780000D02*
X155870000Y-134860000D01*
X153965000Y-129780000D02*
X155870000Y-129780000D01*
X155890000Y-137250000D02*
X155890000Y-141060000D01*
X155890000Y-141060000D02*
X140650000Y-141060000D01*
X140650000Y-141060000D02*
X140650000Y-135980000D01*
X140650000Y-135980000D02*
X154620000Y-135980000D01*
X154620000Y-135980000D02*
X155890000Y-137250000D01*
X141440000Y-106162500D02*
X141440000Y-104562500D01*
X142240000Y-106162500D02*
X141440000Y-106162500D01*
X142240000Y-104562500D02*
X142240000Y-106162500D01*
X141440000Y-104562500D02*
X142240000Y-104562500D01*
X142672000Y-102360000D02*
X142672000Y-100760000D01*
X143472000Y-102360000D02*
X142672000Y-102360000D01*
X143472000Y-100760000D02*
X143472000Y-102360000D01*
X142672000Y-100760000D02*
X143472000Y-100760000D01*
X152870000Y-108390000D02*
X154470000Y-108390000D01*
X152870000Y-109190000D02*
X152870000Y-108390000D01*
X154470000Y-109190000D02*
X152870000Y-109190000D01*
X154470000Y-108390000D02*
X154470000Y-109190000D01*
X143330000Y-134275000D02*
X142695000Y-134910000D01*
X143330000Y-129830000D02*
X143330000Y-134275000D01*
X140790000Y-129830000D02*
X143330000Y-129830000D01*
X140790000Y-134910000D02*
X140790000Y-129830000D01*
X142695000Y-134910000D02*
X140790000Y-134910000D01*
X145000000Y-128150000D02*
X145000000Y-126550000D01*
X145800000Y-128150000D02*
X145000000Y-128150000D01*
X145800000Y-126550000D02*
X145800000Y-128150000D01*
X145000000Y-126550000D02*
X145800000Y-126550000D01*
X147020000Y-133110000D02*
X146220000Y-133110000D01*
X147020000Y-134710000D02*
X147020000Y-133110000D01*
X146520000Y-134710000D02*
X147020000Y-134710000D01*
X146220000Y-134410000D02*
X146520000Y-134710000D01*
X146220000Y-133110000D02*
X146220000Y-134410000D01*
X146746300Y-100758600D02*
X145946300Y-100758600D01*
X146746300Y-102358600D02*
X146746300Y-100758600D01*
X146246300Y-102358600D02*
X146746300Y-102358600D01*
X145946300Y-102058600D02*
X146246300Y-102358600D01*
X145946300Y-100758600D02*
X145946300Y-102058600D01*
X148498900Y-100758600D02*
X147698900Y-100758600D01*
X148498900Y-102358600D02*
X148498900Y-100758600D01*
X147998900Y-102358600D02*
X148498900Y-102358600D01*
X147698900Y-102058600D02*
X147998900Y-102358600D01*
X147698900Y-100758600D02*
X147698900Y-102058600D01*
D12*
X153020000Y-111176000D02*
X154320000Y-111176000D01*
X153020000Y-114376000D02*
X153020000Y-111176000D01*
X154320000Y-114376000D02*
X153020000Y-114376000D01*
X154320000Y-111176000D02*
X154320000Y-114376000D01*
D11*
X150020000Y-128910000D02*
X148420000Y-128910000D01*
X150020000Y-128110000D02*
X150020000Y-128910000D01*
X148420000Y-128110000D02*
X150020000Y-128110000D01*
X148420000Y-128910000D02*
X148420000Y-128110000D01*
X153886000Y-102216000D02*
X155486000Y-102216000D01*
X153886000Y-103016000D02*
X153886000Y-102216000D01*
X155486000Y-103016000D02*
X153886000Y-103016000D01*
X155486000Y-102216000D02*
X155486000Y-103016000D01*
X144150000Y-112370000D02*
X143350000Y-112370000D01*
X143350000Y-112370000D02*
X143350000Y-110770000D01*
X143350000Y-110770000D02*
X144150000Y-110770000D01*
X144150000Y-110770000D02*
X144150000Y-112370000D01*
X150984000Y-100800000D02*
X151784000Y-100800000D01*
X151784000Y-100800000D02*
X151784000Y-102400000D01*
X151784000Y-102400000D02*
X150984000Y-102400000D01*
X150984000Y-102400000D02*
X150984000Y-100800000D01*
X146520000Y-127732500D02*
X147320000Y-127732500D01*
X147320000Y-127732500D02*
X147320000Y-129332500D01*
X147320000Y-129332500D02*
X146520000Y-129332500D01*
X146520000Y-129332500D02*
X146520000Y-127732500D01*
X150730000Y-95034000D02*
X150730000Y-93434000D01*
X151530000Y-95034000D02*
X150730000Y-95034000D01*
X151530000Y-93434000D02*
X151530000Y-95034000D01*
X150730000Y-93434000D02*
X151530000Y-93434000D01*
X151190000Y-112738000D02*
X151190000Y-114338000D01*
X150390000Y-112738000D02*
X151190000Y-112738000D01*
X150390000Y-114338000D02*
X150390000Y-112738000D01*
X151190000Y-114338000D02*
X150390000Y-114338000D01*
X149680000Y-113840000D02*
X148880000Y-113840000D01*
X148880000Y-113840000D02*
X148880000Y-112240000D01*
X148880000Y-112240000D02*
X149680000Y-112240000D01*
X149680000Y-112240000D02*
X149680000Y-113840000D01*
X155332000Y-100722000D02*
X154682000Y-101372000D01*
X153532000Y-101372000D02*
X154682000Y-101372000D01*
X155332000Y-100722000D02*
X155332000Y-98272000D01*
X153532000Y-98272000D02*
X155332000Y-98272000D01*
X153532000Y-101372000D02*
X153532000Y-98272000D01*
X156984600Y-84742100D02*
X157619600Y-84107100D01*
X156984600Y-134907100D02*
X156984600Y-84742100D01*
X159524600Y-134907100D02*
X156984600Y-134907100D01*
X159524600Y-84107100D02*
X159524600Y-134907100D01*
X157619600Y-84107100D02*
X159524600Y-84107100D01*
X154444500Y-105130000D02*
X154444500Y-105930000D01*
X154444500Y-105930000D02*
X152844500Y-105930000D01*
X152844500Y-105930000D02*
X152844500Y-105130000D01*
X152844500Y-105130000D02*
X154444500Y-105130000D01*
X154377440Y-124779480D02*
X154377440Y-123179480D01*
X155177440Y-124779480D02*
X154377440Y-124779480D01*
X155177440Y-123179480D02*
X155177440Y-124779480D01*
X154377440Y-123179480D02*
X155177440Y-123179480D01*
X155086000Y-90132000D02*
X155086000Y-91732000D01*
X154286000Y-90132000D02*
X155086000Y-90132000D01*
X154286000Y-91732000D02*
X154286000Y-90132000D01*
X155086000Y-91732000D02*
X154286000Y-91732000D01*
X150152000Y-100770000D02*
X150152000Y-102370000D01*
X149352000Y-100770000D02*
X150152000Y-100770000D01*
X149352000Y-102370000D02*
X149352000Y-100770000D01*
X150152000Y-102370000D02*
X149352000Y-102370000D01*
X150679200Y-98844000D02*
X150679200Y-97244000D01*
X151479200Y-98844000D02*
X150679200Y-98844000D01*
X151479200Y-97244000D02*
X151479200Y-98844000D01*
X150679200Y-97244000D02*
X151479200Y-97244000D01*
X154470000Y-106740000D02*
X154470000Y-107540000D01*
X154470000Y-107540000D02*
X152870000Y-107540000D01*
X152870000Y-107540000D02*
X152870000Y-106740000D01*
X152870000Y-106740000D02*
X154470000Y-106740000D01*
X142230000Y-109230000D02*
X141430000Y-109230000D01*
X141430000Y-109230000D02*
X141430000Y-107630000D01*
X141430000Y-107630000D02*
X142230000Y-107630000D01*
X142230000Y-107630000D02*
X142230000Y-109230000D01*
X142386000Y-90970000D02*
X141586000Y-90970000D01*
X141586000Y-90970000D02*
X141586000Y-89370000D01*
X141586000Y-89370000D02*
X142386000Y-89370000D01*
X142386000Y-89370000D02*
X142386000Y-90970000D01*
X151350000Y-130100000D02*
X152150000Y-130100000D01*
X152150000Y-130100000D02*
X152150000Y-131700000D01*
X152150000Y-131700000D02*
X151350000Y-131700000D01*
X151350000Y-131700000D02*
X151350000Y-130100000D01*
X150600000Y-130100000D02*
X150600000Y-131700000D01*
X149800000Y-130100000D02*
X150600000Y-130100000D01*
X149800000Y-131700000D02*
X149800000Y-130100000D01*
X150600000Y-131700000D02*
X149800000Y-131700000D01*
X149000000Y-131687500D02*
X148200000Y-131687500D01*
X148200000Y-131687500D02*
X148200000Y-130087500D01*
X148200000Y-130087500D02*
X149000000Y-130087500D01*
X149000000Y-130087500D02*
X149000000Y-131687500D01*
X144700000Y-134700000D02*
X144700000Y-133100000D01*
X145500000Y-134700000D02*
X144700000Y-134700000D01*
X145500000Y-133100000D02*
X145500000Y-134700000D01*
X144700000Y-133100000D02*
X145500000Y-133100000D01*
D12*
X148662000Y-96142000D02*
X144962000Y-96142000D01*
X144962000Y-96142000D02*
X144962000Y-93342000D01*
X144962000Y-93342000D02*
X148662000Y-93342000D01*
X148662000Y-93342000D02*
X148662000Y-96142000D01*
D11*
X153024000Y-96038000D02*
X153024000Y-92938000D01*
X153024000Y-92938000D02*
X154824000Y-92938000D01*
X154824000Y-95388000D02*
X154824000Y-92938000D01*
X153024000Y-96038000D02*
X154174000Y-96038000D01*
X154824000Y-95388000D02*
X154174000Y-96038000D01*
X147900000Y-133102500D02*
X147900000Y-134402500D01*
X147900000Y-134402500D02*
X148200000Y-134702500D01*
X148200000Y-134702500D02*
X148700000Y-134702500D01*
X148700000Y-134702500D02*
X148700000Y-133102500D01*
X148700000Y-133102500D02*
X147900000Y-133102500D01*
X150340000Y-133140000D02*
X149540000Y-133140000D01*
X150340000Y-134740000D02*
X150340000Y-133140000D01*
X149840000Y-134740000D02*
X150340000Y-134740000D01*
X149540000Y-134440000D02*
X149840000Y-134740000D01*
X149540000Y-133140000D02*
X149540000Y-134440000D01*
X151270000Y-133130000D02*
X151270000Y-134430000D01*
X151270000Y-134430000D02*
X151570000Y-134730000D01*
X151570000Y-134730000D02*
X152070000Y-134730000D01*
X152070000Y-134730000D02*
X152070000Y-133130000D01*
X152070000Y-133130000D02*
X151270000Y-133130000D01*
X142386000Y-85814000D02*
X141586000Y-85814000D01*
X142386000Y-87414000D02*
X142386000Y-85814000D01*
X141886000Y-87414000D02*
X142386000Y-87414000D01*
X141586000Y-87114000D02*
X141886000Y-87414000D01*
X141586000Y-85814000D02*
X141586000Y-87114000D01*
D13*
X142459695Y-81337380D02*
X142459695Y-82146904D01*
X142507314Y-82242142D01*
X142554933Y-82289761D01*
X142650171Y-82337380D01*
X142840647Y-82337380D01*
X142935885Y-82289761D01*
X142983504Y-82242142D01*
X143031123Y-82146904D01*
X143031123Y-81337380D01*
X143459695Y-82289761D02*
X143602552Y-82337380D01*
X143840647Y-82337380D01*
X143935885Y-82289761D01*
X143983504Y-82242142D01*
X144031123Y-82146904D01*
X144031123Y-82051666D01*
X143983504Y-81956428D01*
X143935885Y-81908809D01*
X143840647Y-81861190D01*
X143650171Y-81813571D01*
X143554933Y-81765952D01*
X143507314Y-81718333D01*
X143459695Y-81623095D01*
X143459695Y-81527857D01*
X143507314Y-81432619D01*
X143554933Y-81385000D01*
X143650171Y-81337380D01*
X143888266Y-81337380D01*
X144031123Y-81385000D01*
X144793028Y-81813571D02*
X144935885Y-81861190D01*
X144983504Y-81908809D01*
X145031123Y-82004047D01*
X145031123Y-82146904D01*
X144983504Y-82242142D01*
X144935885Y-82289761D01*
X144840647Y-82337380D01*
X144459695Y-82337380D01*
X144459695Y-81337380D01*
X144793028Y-81337380D01*
X144888266Y-81385000D01*
X144935885Y-81432619D01*
X144983504Y-81527857D01*
X144983504Y-81623095D01*
X144935885Y-81718333D01*
X144888266Y-81765952D01*
X144793028Y-81813571D01*
X144459695Y-81813571D01*
X148222380Y-84064761D02*
X148222380Y-83744761D01*
X148344285Y-83744761D01*
X148374761Y-83760000D01*
X148390000Y-83775238D01*
X148405238Y-83805714D01*
X148405238Y-83851428D01*
X148390000Y-83881904D01*
X148374761Y-83897142D01*
X148344285Y-83912380D01*
X148222380Y-83912380D01*
X148725238Y-84034285D02*
X148710000Y-84049523D01*
X148664285Y-84064761D01*
X148633809Y-84064761D01*
X148588095Y-84049523D01*
X148557619Y-84019047D01*
X148542380Y-83988571D01*
X148527142Y-83927619D01*
X148527142Y-83881904D01*
X148542380Y-83820952D01*
X148557619Y-83790476D01*
X148588095Y-83760000D01*
X148633809Y-83744761D01*
X148664285Y-83744761D01*
X148710000Y-83760000D01*
X148725238Y-83775238D01*
X148969047Y-83897142D02*
X149014761Y-83912380D01*
X149030000Y-83927619D01*
X149045238Y-83958095D01*
X149045238Y-84003809D01*
X149030000Y-84034285D01*
X149014761Y-84049523D01*
X148984285Y-84064761D01*
X148862380Y-84064761D01*
X148862380Y-83744761D01*
X148969047Y-83744761D01*
X148999523Y-83760000D01*
X149014761Y-83775238D01*
X149030000Y-83805714D01*
X149030000Y-83836190D01*
X149014761Y-83866666D01*
X148999523Y-83881904D01*
X148969047Y-83897142D01*
X148862380Y-83897142D01*
X149106190Y-83670100D02*
X149380476Y-83670100D01*
X149304285Y-84049523D02*
X149273809Y-84064761D01*
X149212857Y-84064761D01*
X149182380Y-84049523D01*
X149167142Y-84019047D01*
X149167142Y-83897142D01*
X149182380Y-83866666D01*
X149212857Y-83851428D01*
X149273809Y-83851428D01*
X149304285Y-83866666D01*
X149319523Y-83897142D01*
X149319523Y-83927619D01*
X149167142Y-83958095D01*
X149380476Y-83670100D02*
X149670000Y-83670100D01*
X149593809Y-84064761D02*
X149593809Y-83744761D01*
X149593809Y-84049523D02*
X149563333Y-84064761D01*
X149502380Y-84064761D01*
X149471904Y-84049523D01*
X149456666Y-84034285D01*
X149441428Y-84003809D01*
X149441428Y-83912380D01*
X149456666Y-83881904D01*
X149471904Y-83866666D01*
X149502380Y-83851428D01*
X149563333Y-83851428D01*
X149593809Y-83866666D01*
X149670000Y-83670100D02*
X149959523Y-83670100D01*
X149883333Y-83851428D02*
X149883333Y-84110476D01*
X149868095Y-84140952D01*
X149852857Y-84156190D01*
X149822380Y-84171428D01*
X149776666Y-84171428D01*
X149746190Y-84156190D01*
X149883333Y-84049523D02*
X149852857Y-84064761D01*
X149791904Y-84064761D01*
X149761428Y-84049523D01*
X149746190Y-84034285D01*
X149730952Y-84003809D01*
X149730952Y-83912380D01*
X149746190Y-83881904D01*
X149761428Y-83866666D01*
X149791904Y-83851428D01*
X149852857Y-83851428D01*
X149883333Y-83866666D01*
X149959523Y-83670100D02*
X150233809Y-83670100D01*
X150157619Y-84049523D02*
X150127142Y-84064761D01*
X150066190Y-84064761D01*
X150035714Y-84049523D01*
X150020476Y-84019047D01*
X150020476Y-83897142D01*
X150035714Y-83866666D01*
X150066190Y-83851428D01*
X150127142Y-83851428D01*
X150157619Y-83866666D01*
X150172857Y-83897142D01*
X150172857Y-83927619D01*
X150020476Y-83958095D01*
D14*
X135814761Y-136317142D02*
X135767142Y-136364761D01*
X135624285Y-136412380D01*
X135529047Y-136412380D01*
X135386190Y-136364761D01*
X135290952Y-136269523D01*
X135243333Y-136174285D01*
X135195714Y-135983809D01*
X135195714Y-135840952D01*
X135243333Y-135650476D01*
X135290952Y-135555238D01*
X135386190Y-135460000D01*
X135529047Y-135412380D01*
X135624285Y-135412380D01*
X135767142Y-135460000D01*
X135814761Y-135507619D01*
X136433809Y-135412380D02*
X136624285Y-135412380D01*
X136719523Y-135460000D01*
X136814761Y-135555238D01*
X136862380Y-135745714D01*
X136862380Y-136079047D01*
X136814761Y-136269523D01*
X136719523Y-136364761D01*
X136624285Y-136412380D01*
X136433809Y-136412380D01*
X136338571Y-136364761D01*
X136243333Y-136269523D01*
X136195714Y-136079047D01*
X136195714Y-135745714D01*
X136243333Y-135555238D01*
X136338571Y-135460000D01*
X136433809Y-135412380D01*
X137290952Y-136412380D02*
X137290952Y-135412380D01*
X137862380Y-136412380D01*
X137862380Y-135412380D01*
X138338571Y-136412380D02*
X138338571Y-135412380D01*
X138910000Y-136412380D01*
X138910000Y-135412380D01*
X139148095Y-136507619D02*
X139910000Y-136507619D01*
X140100476Y-135507619D02*
X140148095Y-135460000D01*
X140243333Y-135412380D01*
X140481428Y-135412380D01*
X140576666Y-135460000D01*
X140624285Y-135507619D01*
X140671904Y-135602857D01*
X140671904Y-135698095D01*
X140624285Y-135840952D01*
X140052857Y-136412380D01*
X140671904Y-136412380D01*
X141290952Y-135412380D02*
X141386190Y-135412380D01*
X141481428Y-135460000D01*
X141529047Y-135507619D01*
X141576666Y-135602857D01*
X141624285Y-135793333D01*
X141624285Y-136031428D01*
X141576666Y-136221904D01*
X141529047Y-136317142D01*
X141481428Y-136364761D01*
X141386190Y-136412380D01*
X141290952Y-136412380D01*
X141195714Y-136364761D01*
X141148095Y-136317142D01*
X141100476Y-136221904D01*
X141052857Y-136031428D01*
X141052857Y-135793333D01*
X141100476Y-135602857D01*
X141148095Y-135507619D01*
X141195714Y-135460000D01*
X141290952Y-135412380D01*
X137862380Y-110309523D02*
X138576666Y-110309523D01*
X138719523Y-110357142D01*
X138814761Y-110452380D01*
X138862380Y-110595238D01*
X138862380Y-110690476D01*
X138862380Y-109309523D02*
X138862380Y-109880952D01*
X138862380Y-109595238D02*
X137862380Y-109595238D01*
X138005238Y-109690476D01*
X138100476Y-109785714D01*
X138148095Y-109880952D01*
X137957619Y-108928571D02*
X137910000Y-108880952D01*
X137862380Y-108785714D01*
X137862380Y-108547619D01*
X137910000Y-108452380D01*
X137957619Y-108404761D01*
X138052857Y-108357142D01*
X138148095Y-108357142D01*
X138290952Y-108404761D01*
X138862380Y-108976190D01*
X138862380Y-108357142D01*
D15*
X138736347Y-122425374D02*
X138045722Y-122303499D01*
X138248847Y-122912874D02*
X137395723Y-122059750D01*
X137720722Y-121734750D01*
X137842597Y-121694125D01*
X137923847Y-121694125D01*
X138045722Y-121734750D01*
X138167597Y-121856625D01*
X138208222Y-121978500D01*
X138208222Y-122059750D01*
X138167597Y-122181625D01*
X137842597Y-122506624D01*
X138817597Y-121856625D02*
X139223846Y-121450375D01*
X138980097Y-122181625D02*
X138411347Y-121044125D01*
X139548846Y-121612875D01*
X139833221Y-121328500D02*
X138980097Y-120475376D01*
X139305096Y-120150376D01*
X139426971Y-120109751D01*
X139508221Y-120109751D01*
X139630096Y-120150376D01*
X139751971Y-120272251D01*
X139792596Y-120394126D01*
X139792596Y-120475376D01*
X139751971Y-120597251D01*
X139426971Y-120922251D01*
X139711346Y-119744126D02*
X140198846Y-119256627D01*
X140808220Y-120353501D02*
X139955096Y-119500377D01*
X140645720Y-118809752D02*
X140808220Y-118647252D01*
X140930095Y-118606627D01*
X141092595Y-118606627D01*
X141295720Y-118728502D01*
X141580094Y-119012877D01*
X141701969Y-119216002D01*
X141701969Y-119378502D01*
X141661344Y-119500377D01*
X141498845Y-119662877D01*
X141376970Y-119703502D01*
X141214470Y-119703502D01*
X141011345Y-119581627D01*
X140726970Y-119297252D01*
X140605095Y-119094127D01*
X140605095Y-118931627D01*
X140645720Y-118809752D01*
X142717594Y-118444127D02*
X142026969Y-118322253D01*
X142230094Y-118931627D02*
X141376970Y-118078503D01*
X141701969Y-117753503D01*
X141823844Y-117712878D01*
X141905094Y-117712878D01*
X142026969Y-117753503D01*
X142148844Y-117875378D01*
X142189469Y-117997253D01*
X142189469Y-118078503D01*
X142148844Y-118200378D01*
X141823844Y-118525377D01*
X143733218Y-117591003D02*
X143611343Y-117631628D01*
X143448843Y-117631628D01*
X143205093Y-117631628D01*
X143083218Y-117672253D01*
X143001968Y-117753503D01*
X143245718Y-117916003D02*
X143123843Y-117956628D01*
X142961343Y-117956628D01*
X142758219Y-117834753D01*
X142473844Y-117550378D01*
X142351969Y-117347253D01*
X142351969Y-117184753D01*
X142392594Y-117062879D01*
X142555094Y-116900379D01*
X142676969Y-116859754D01*
X142839468Y-116859754D01*
X143042593Y-116981629D01*
X143326968Y-117266003D01*
X143448843Y-117469128D01*
X143448843Y-117631628D01*
X143408218Y-117753503D01*
X143245718Y-117916003D01*
X143814468Y-116453504D02*
X143530093Y-116737879D01*
X143976968Y-117184753D02*
X143123843Y-116331629D01*
X143530093Y-115925379D01*
X144708217Y-116453504D02*
X143855093Y-115600380D01*
X145195717Y-115966004D01*
X144342592Y-115112880D01*
X145155092Y-114300381D02*
X144748842Y-114706630D01*
X145114467Y-115153505D01*
X145114467Y-115072255D01*
X145155092Y-114950380D01*
X145358217Y-114747255D01*
X145480091Y-114706630D01*
X145561341Y-114706630D01*
X145683216Y-114747255D01*
X145886341Y-114950380D01*
X145926966Y-115072255D01*
X145926966Y-115153505D01*
X145886341Y-115275380D01*
X145683216Y-115478505D01*
X145561341Y-115519130D01*
X145480091Y-115519130D01*
X145926966Y-113528506D02*
X145764466Y-113691006D01*
X145723841Y-113812881D01*
X145723841Y-113894131D01*
X145764466Y-114097256D01*
X145886341Y-114300381D01*
X146211341Y-114625380D01*
X146333216Y-114666005D01*
X146414466Y-114666005D01*
X146536341Y-114625380D01*
X146698840Y-114462881D01*
X146739465Y-114341006D01*
X146739465Y-114259756D01*
X146698840Y-114137881D01*
X146495716Y-113934756D01*
X146373841Y-113894131D01*
X146292591Y-113894131D01*
X146170716Y-113934756D01*
X146008216Y-114097256D01*
X145967591Y-114219131D01*
X145967591Y-114300381D01*
X146008216Y-114422256D01*
D14*
X147978210Y-122036252D02*
X147271103Y-121329145D01*
X148651645Y-121228130D02*
X148651645Y-121295474D01*
X148584302Y-121430161D01*
X148516958Y-121497504D01*
X148382271Y-121564848D01*
X148247584Y-121564848D01*
X148146569Y-121531176D01*
X147978210Y-121430161D01*
X147877195Y-121329145D01*
X147776180Y-121160787D01*
X147742508Y-121059771D01*
X147742508Y-120925084D01*
X147809851Y-120790397D01*
X147877195Y-120723054D01*
X148011882Y-120655710D01*
X148079225Y-120655710D01*
X149392424Y-120622038D02*
X148988363Y-121026100D01*
X149190393Y-120824069D02*
X148483287Y-120116962D01*
X148516958Y-120285321D01*
X148516958Y-120420008D01*
X148483287Y-120521023D01*
X146564380Y-102216666D02*
X146564380Y-102788095D01*
X146564380Y-102502380D02*
X145564380Y-102502380D01*
X145707238Y-102597619D01*
X145802476Y-102692857D01*
X145850095Y-102788095D01*
X145564380Y-101311904D02*
X145564380Y-101788095D01*
X146040571Y-101835714D01*
X145992952Y-101788095D01*
X145945333Y-101692857D01*
X145945333Y-101454761D01*
X145992952Y-101359523D01*
X146040571Y-101311904D01*
X146135809Y-101264285D01*
X146373904Y-101264285D01*
X146469142Y-101311904D01*
X146516761Y-101359523D01*
X146564380Y-101454761D01*
X146564380Y-101692857D01*
X146516761Y-101788095D01*
X146469142Y-101835714D01*
X145564380Y-100645238D02*
X145564380Y-100550000D01*
X145612000Y-100454761D01*
X145659619Y-100407142D01*
X145754857Y-100359523D01*
X145945333Y-100311904D01*
X146183428Y-100311904D01*
X146373904Y-100359523D01*
X146469142Y-100407142D01*
X146516761Y-100454761D01*
X146564380Y-100550000D01*
X146564380Y-100645238D01*
X146516761Y-100740476D01*
X146469142Y-100788095D01*
X146373904Y-100835714D01*
X146183428Y-100883333D01*
X145945333Y-100883333D01*
X145754857Y-100835714D01*
X145659619Y-100788095D01*
X145612000Y-100740476D01*
X145564380Y-100645238D01*
D16*
X144862952Y-101807142D02*
X144672476Y-101940476D01*
X144862952Y-102035714D02*
X144462952Y-102035714D01*
X144462952Y-101883333D01*
X144482000Y-101845238D01*
X144501047Y-101826190D01*
X144539142Y-101807142D01*
X144596285Y-101807142D01*
X144634380Y-101826190D01*
X144653428Y-101845238D01*
X144672476Y-101883333D01*
X144672476Y-102035714D01*
X144862952Y-101426190D02*
X144862952Y-101654761D01*
X144862952Y-101540476D02*
X144462952Y-101540476D01*
X144520095Y-101578571D01*
X144558190Y-101616666D01*
X144577238Y-101654761D01*
X144462952Y-101292857D02*
X144462952Y-101045238D01*
X144615333Y-101178571D01*
X144615333Y-101121428D01*
X144634380Y-101083333D01*
X144653428Y-101064285D01*
X144691523Y-101045238D01*
X144786761Y-101045238D01*
X144824857Y-101064285D01*
X144843904Y-101083333D01*
X144862952Y-101121428D01*
X144862952Y-101235714D01*
X144843904Y-101273809D01*
X144824857Y-101292857D01*
D14*
X146282380Y-131970000D02*
X146282380Y-131874761D01*
X146330000Y-131779523D01*
X146377619Y-131731904D01*
X146472857Y-131684285D01*
X146663333Y-131636666D01*
X146901428Y-131636666D01*
X147091904Y-131684285D01*
X147187142Y-131731904D01*
X147234761Y-131779523D01*
X147282380Y-131874761D01*
X147282380Y-131970000D01*
X147234761Y-132065238D01*
X147187142Y-132112857D01*
X147091904Y-132160476D01*
X146901428Y-132208095D01*
X146663333Y-132208095D01*
X146472857Y-132160476D01*
X146377619Y-132112857D01*
X146330000Y-132065238D01*
X146282380Y-131970000D01*
X147187142Y-131208095D02*
X147234761Y-131160476D01*
X147282380Y-131208095D01*
X147234761Y-131255714D01*
X147187142Y-131208095D01*
X147282380Y-131208095D01*
X147282380Y-130208095D02*
X147282380Y-130779523D01*
X147282380Y-130493809D02*
X146282380Y-130493809D01*
X146425238Y-130589047D01*
X146520476Y-130684285D01*
X146568095Y-130779523D01*
X146615714Y-129350952D02*
X147282380Y-129350952D01*
X146615714Y-129779523D02*
X147139523Y-129779523D01*
X147234761Y-129731904D01*
X147282380Y-129636666D01*
X147282380Y-129493809D01*
X147234761Y-129398571D01*
X147187142Y-129350952D01*
X146615714Y-129017619D02*
X146615714Y-128636666D01*
X147282380Y-128874761D02*
X146425238Y-128874761D01*
X146330000Y-128827142D01*
X146282380Y-128731904D01*
X146282380Y-128636666D01*
D16*
X145542857Y-130727142D02*
X145561904Y-130746190D01*
X145580952Y-130803333D01*
X145580952Y-130841428D01*
X145561904Y-130898571D01*
X145523809Y-130936666D01*
X145485714Y-130955714D01*
X145409523Y-130974761D01*
X145352380Y-130974761D01*
X145276190Y-130955714D01*
X145238095Y-130936666D01*
X145200000Y-130898571D01*
X145180952Y-130841428D01*
X145180952Y-130803333D01*
X145200000Y-130746190D01*
X145219047Y-130727142D01*
X145580952Y-130346190D02*
X145580952Y-130574761D01*
X145580952Y-130460476D02*
X145180952Y-130460476D01*
X145238095Y-130498571D01*
X145276190Y-130536666D01*
X145295238Y-130574761D01*
X145180952Y-130098571D02*
X145180952Y-130060476D01*
X145200000Y-130022380D01*
X145219047Y-130003333D01*
X145257142Y-129984285D01*
X145333333Y-129965238D01*
X145428571Y-129965238D01*
X145504761Y-129984285D01*
X145542857Y-130003333D01*
X145561904Y-130022380D01*
X145580952Y-130060476D01*
X145580952Y-130098571D01*
X145561904Y-130136666D01*
X145542857Y-130155714D01*
X145504761Y-130174761D01*
X145428571Y-130193809D01*
X145333333Y-130193809D01*
X145257142Y-130174761D01*
X145219047Y-130155714D01*
X145200000Y-130136666D01*
X145180952Y-130098571D01*
D13*
X135543988Y-102689641D02*
X135782520Y-103691476D01*
X135973346Y-102975879D01*
X136164172Y-103691476D01*
X136402704Y-102689641D01*
X136736649Y-102785053D02*
X136784355Y-102737347D01*
X136879768Y-102689641D01*
X137118300Y-102689641D01*
X137213713Y-102737347D01*
X137261420Y-102785053D01*
X137309126Y-102880466D01*
X137309126Y-102975879D01*
X137261420Y-103118998D01*
X136688942Y-103691476D01*
X137309126Y-103691476D01*
X138215548Y-102689641D02*
X137738484Y-102689641D01*
X137690777Y-103166705D01*
X137738484Y-103118998D01*
X137833897Y-103071292D01*
X138072429Y-103071292D01*
X138167842Y-103118998D01*
X138215548Y-103166705D01*
X138263255Y-103262118D01*
X138263255Y-103500650D01*
X138215548Y-103596063D01*
X138167842Y-103643769D01*
X138072429Y-103691476D01*
X137833897Y-103691476D01*
X137738484Y-103643769D01*
X137690777Y-103596063D01*
X139360502Y-103786888D02*
X139265090Y-103739182D01*
X139169677Y-103643769D01*
X139026557Y-103500650D01*
X138931145Y-103452943D01*
X138835732Y-103452943D01*
X138883438Y-103691476D02*
X138788025Y-103643769D01*
X138692612Y-103548356D01*
X138644906Y-103357531D01*
X138644906Y-103023586D01*
X138692612Y-102832760D01*
X138788025Y-102737347D01*
X138883438Y-102689641D01*
X139074264Y-102689641D01*
X139169677Y-102737347D01*
X139265090Y-102832760D01*
X139312796Y-103023586D01*
X139312796Y-103357531D01*
X139265090Y-103548356D01*
X139169677Y-103643769D01*
X139074264Y-103691476D01*
X138883438Y-103691476D01*
X139646741Y-102689641D02*
X140266925Y-102689641D01*
X139932980Y-103071292D01*
X140076099Y-103071292D01*
X140171512Y-103118998D01*
X140219218Y-103166705D01*
X140266925Y-103262118D01*
X140266925Y-103500650D01*
X140219218Y-103596063D01*
X140171512Y-103643769D01*
X140076099Y-103691476D01*
X139789860Y-103691476D01*
X139694447Y-103643769D01*
X139646741Y-103596063D01*
X140648576Y-102785053D02*
X140696282Y-102737347D01*
X140791695Y-102689641D01*
X141030227Y-102689641D01*
X141125640Y-102737347D01*
X141173347Y-102785053D01*
X141221053Y-102880466D01*
X141221053Y-102975879D01*
X141173347Y-103118998D01*
X140600870Y-103691476D01*
X141221053Y-103691476D01*
X141984356Y-103166705D02*
X141650411Y-103166705D01*
X141650411Y-103691476D02*
X141650411Y-102689641D01*
X142127475Y-102689641D01*
X142366007Y-102689641D02*
X142699952Y-103691476D01*
X143033897Y-102689641D01*
D14*
X155682380Y-127247619D02*
X155682380Y-127152380D01*
X155730000Y-127057142D01*
X155777619Y-127009523D01*
X155872857Y-126961904D01*
X156063333Y-126914285D01*
X156301428Y-126914285D01*
X156491904Y-126961904D01*
X156587142Y-127009523D01*
X156634761Y-127057142D01*
X156682380Y-127152380D01*
X156682380Y-127247619D01*
X156634761Y-127342857D01*
X156587142Y-127390476D01*
X156491904Y-127438095D01*
X156301428Y-127485714D01*
X156063333Y-127485714D01*
X155872857Y-127438095D01*
X155777619Y-127390476D01*
X155730000Y-127342857D01*
X155682380Y-127247619D01*
D16*
X154980952Y-127457142D02*
X154790476Y-127590476D01*
X154980952Y-127685714D02*
X154580952Y-127685714D01*
X154580952Y-127533333D01*
X154600000Y-127495238D01*
X154619047Y-127476190D01*
X154657142Y-127457142D01*
X154714285Y-127457142D01*
X154752380Y-127476190D01*
X154771428Y-127495238D01*
X154790476Y-127533333D01*
X154790476Y-127685714D01*
X154619047Y-127304761D02*
X154600000Y-127285714D01*
X154580952Y-127247619D01*
X154580952Y-127152380D01*
X154600000Y-127114285D01*
X154619047Y-127095238D01*
X154657142Y-127076190D01*
X154695238Y-127076190D01*
X154752380Y-127095238D01*
X154980952Y-127323809D01*
X154980952Y-127076190D01*
X154580952Y-126714285D02*
X154580952Y-126904761D01*
X154771428Y-126923809D01*
X154752380Y-126904761D01*
X154733333Y-126866666D01*
X154733333Y-126771428D01*
X154752380Y-126733333D01*
X154771428Y-126714285D01*
X154809523Y-126695238D01*
X154904761Y-126695238D01*
X154942857Y-126714285D01*
X154961904Y-126733333D01*
X154980952Y-126771428D01*
X154980952Y-126866666D01*
X154961904Y-126904761D01*
X154942857Y-126923809D01*
D14*
X146535880Y-109528380D02*
X146631119Y-109528380D01*
X146726357Y-109576000D01*
X146773976Y-109623619D01*
X146821595Y-109718857D01*
X146869214Y-109909333D01*
X146869214Y-110147428D01*
X146821595Y-110337904D01*
X146773976Y-110433142D01*
X146726357Y-110480761D01*
X146631119Y-110528380D01*
X146535880Y-110528380D01*
X146440642Y-110480761D01*
X146393023Y-110433142D01*
X146345404Y-110337904D01*
X146297785Y-110147428D01*
X146297785Y-109909333D01*
X146345404Y-109718857D01*
X146393023Y-109623619D01*
X146440642Y-109576000D01*
X146535880Y-109528380D01*
D16*
X146326357Y-111686952D02*
X146193023Y-111496476D01*
X146097785Y-111686952D02*
X146097785Y-111286952D01*
X146250166Y-111286952D01*
X146288261Y-111306000D01*
X146307309Y-111325047D01*
X146326357Y-111363142D01*
X146326357Y-111420285D01*
X146307309Y-111458380D01*
X146288261Y-111477428D01*
X146250166Y-111496476D01*
X146097785Y-111496476D01*
X146478738Y-111325047D02*
X146497785Y-111306000D01*
X146535880Y-111286952D01*
X146631119Y-111286952D01*
X146669214Y-111306000D01*
X146688261Y-111325047D01*
X146707309Y-111363142D01*
X146707309Y-111401238D01*
X146688261Y-111458380D01*
X146459690Y-111686952D01*
X146707309Y-111686952D01*
X146840642Y-111286952D02*
X147088261Y-111286952D01*
X146954928Y-111439333D01*
X147012071Y-111439333D01*
X147050166Y-111458380D01*
X147069214Y-111477428D01*
X147088261Y-111515523D01*
X147088261Y-111610761D01*
X147069214Y-111648857D01*
X147050166Y-111667904D01*
X147012071Y-111686952D01*
X146897785Y-111686952D01*
X146859690Y-111667904D01*
X146840642Y-111648857D01*
D14*
X148766666Y-136277142D02*
X148719047Y-136324761D01*
X148576190Y-136372380D01*
X148480952Y-136372380D01*
X148338095Y-136324761D01*
X148242857Y-136229523D01*
X148195238Y-136134285D01*
X148147619Y-135943809D01*
X148147619Y-135800952D01*
X148195238Y-135610476D01*
X148242857Y-135515238D01*
X148338095Y-135420000D01*
X148480952Y-135372380D01*
X148576190Y-135372380D01*
X148719047Y-135420000D01*
X148766666Y-135467619D01*
X149338095Y-136372380D02*
X149242857Y-136324761D01*
X149195238Y-136277142D01*
X149147619Y-136181904D01*
X149147619Y-135896190D01*
X149195238Y-135800952D01*
X149242857Y-135753333D01*
X149338095Y-135705714D01*
X149480952Y-135705714D01*
X149576190Y-135753333D01*
X149623809Y-135800952D01*
X149671428Y-135896190D01*
X149671428Y-136181904D01*
X149623809Y-136277142D01*
X149576190Y-136324761D01*
X149480952Y-136372380D01*
X149338095Y-136372380D01*
X150100000Y-135705714D02*
X150100000Y-136372380D01*
X150100000Y-135800952D02*
X150147619Y-135753333D01*
X150242857Y-135705714D01*
X150385714Y-135705714D01*
X150480952Y-135753333D01*
X150528571Y-135848571D01*
X150528571Y-136372380D01*
X151004761Y-135705714D02*
X151004761Y-136372380D01*
X151004761Y-135800952D02*
X151052380Y-135753333D01*
X151147619Y-135705714D01*
X151290476Y-135705714D01*
X151385714Y-135753333D01*
X151433333Y-135848571D01*
X151433333Y-136372380D01*
X151671428Y-136467619D02*
X152433333Y-136467619D01*
X152861904Y-135372380D02*
X152957142Y-135372380D01*
X153052380Y-135420000D01*
X153100000Y-135467619D01*
X153147619Y-135562857D01*
X153195238Y-135753333D01*
X153195238Y-135991428D01*
X153147619Y-136181904D01*
X153100000Y-136277142D01*
X153052380Y-136324761D01*
X152957142Y-136372380D01*
X152861904Y-136372380D01*
X152766666Y-136324761D01*
X152719047Y-136277142D01*
X152671428Y-136181904D01*
X152623809Y-135991428D01*
X152623809Y-135753333D01*
X152671428Y-135562857D01*
X152719047Y-135467619D01*
X152766666Y-135420000D01*
X152861904Y-135372380D01*
X154147619Y-136372380D02*
X153576190Y-136372380D01*
X153861904Y-136372380D02*
X153861904Y-135372380D01*
X153766666Y-135515238D01*
X153671428Y-135610476D01*
X153576190Y-135658095D01*
X154480952Y-136372380D02*
X155004761Y-135705714D01*
X154480952Y-135705714D02*
X155004761Y-136372380D01*
X155576190Y-135372380D02*
X155671428Y-135372380D01*
X155766666Y-135420000D01*
X155814285Y-135467619D01*
X155861904Y-135562857D01*
X155909523Y-135753333D01*
X155909523Y-135991428D01*
X155861904Y-136181904D01*
X155814285Y-136277142D01*
X155766666Y-136324761D01*
X155671428Y-136372380D01*
X155576190Y-136372380D01*
X155480952Y-136324761D01*
X155433333Y-136277142D01*
X155385714Y-136181904D01*
X155338095Y-135991428D01*
X155338095Y-135753333D01*
X155385714Y-135562857D01*
X155433333Y-135467619D01*
X155480952Y-135420000D01*
X155576190Y-135372380D01*
X156290476Y-135467619D02*
X156338095Y-135420000D01*
X156433333Y-135372380D01*
X156671428Y-135372380D01*
X156766666Y-135420000D01*
X156814285Y-135467619D01*
X156861904Y-135562857D01*
X156861904Y-135658095D01*
X156814285Y-135800952D01*
X156242857Y-136372380D01*
X156861904Y-136372380D01*
X157052380Y-136467619D02*
X157814285Y-136467619D01*
X158052380Y-136372380D02*
X158052380Y-135372380D01*
X158385714Y-136086666D01*
X158719047Y-135372380D01*
X158719047Y-136372380D01*
X159623809Y-136372380D02*
X159623809Y-135848571D01*
X159576190Y-135753333D01*
X159480952Y-135705714D01*
X159290476Y-135705714D01*
X159195238Y-135753333D01*
X159623809Y-136324761D02*
X159528571Y-136372380D01*
X159290476Y-136372380D01*
X159195238Y-136324761D01*
X159147619Y-136229523D01*
X159147619Y-136134285D01*
X159195238Y-136039047D01*
X159290476Y-135991428D01*
X159528571Y-135991428D01*
X159623809Y-135943809D01*
X160242857Y-136372380D02*
X160147619Y-136324761D01*
X160100000Y-136229523D01*
X160100000Y-135372380D01*
X161004761Y-136324761D02*
X160909523Y-136372380D01*
X160719047Y-136372380D01*
X160623809Y-136324761D01*
X160576190Y-136229523D01*
X160576190Y-135848571D01*
X160623809Y-135753333D01*
X160719047Y-135705714D01*
X160909523Y-135705714D01*
X161004761Y-135753333D01*
X161052380Y-135848571D01*
X161052380Y-135943809D01*
X160576190Y-136039047D01*
X154052380Y-132653333D02*
X154766666Y-132653333D01*
X154909523Y-132700952D01*
X155004761Y-132796190D01*
X155052380Y-132939047D01*
X155052380Y-133034285D01*
X154052380Y-132272380D02*
X154052380Y-131653333D01*
X154433333Y-131986666D01*
X154433333Y-131843809D01*
X154480952Y-131748571D01*
X154528571Y-131700952D01*
X154623809Y-131653333D01*
X154861904Y-131653333D01*
X154957142Y-131700952D01*
X155004761Y-131748571D01*
X155052380Y-131843809D01*
X155052380Y-132129523D01*
X155004761Y-132224761D01*
X154957142Y-132272380D01*
X139137619Y-142877142D02*
X139090000Y-142829523D01*
X139042380Y-142734285D01*
X139042380Y-142496190D01*
X139090000Y-142400952D01*
X139137619Y-142353333D01*
X139232857Y-142305714D01*
X139328095Y-142305714D01*
X139470952Y-142353333D01*
X140042380Y-142924761D01*
X140042380Y-142305714D01*
X139042380Y-141972380D02*
X140042380Y-141305714D01*
X139042380Y-141305714D02*
X140042380Y-141972380D01*
X139042380Y-140496190D02*
X139042380Y-140686666D01*
X139090000Y-140781904D01*
X139137619Y-140829523D01*
X139280476Y-140924761D01*
X139470952Y-140972380D01*
X139851904Y-140972380D01*
X139947142Y-140924761D01*
X139994761Y-140877142D01*
X140042380Y-140781904D01*
X140042380Y-140591428D01*
X139994761Y-140496190D01*
X139947142Y-140448571D01*
X139851904Y-140400952D01*
X139613809Y-140400952D01*
X139518571Y-140448571D01*
X139470952Y-140496190D01*
X139423333Y-140591428D01*
X139423333Y-140781904D01*
X139470952Y-140877142D01*
X139518571Y-140924761D01*
X139613809Y-140972380D01*
X139518571Y-138877142D02*
X139518571Y-139210476D01*
X140042380Y-139210476D02*
X139042380Y-139210476D01*
X139042380Y-138734285D01*
X139518571Y-138353333D02*
X139518571Y-138020000D01*
X140042380Y-137877142D02*
X140042380Y-138353333D01*
X139042380Y-138353333D01*
X139042380Y-137877142D01*
X140042380Y-137448571D02*
X139042380Y-137448571D01*
X139756666Y-137115238D01*
X139042380Y-136781904D01*
X140042380Y-136781904D01*
X139756666Y-136353333D02*
X139756666Y-135877142D01*
X140042380Y-136448571D02*
X139042380Y-136115238D01*
X140042380Y-135781904D01*
X140042380Y-134972380D02*
X140042380Y-135448571D01*
X139042380Y-135448571D01*
X139518571Y-134639047D02*
X139518571Y-134305714D01*
X140042380Y-134162857D02*
X140042380Y-134639047D01*
X139042380Y-134639047D01*
X139042380Y-134162857D01*
X147936666Y-137972380D02*
X147936666Y-138686666D01*
X147889047Y-138829523D01*
X147793809Y-138924761D01*
X147650952Y-138972380D01*
X147555714Y-138972380D01*
X148460476Y-138972380D02*
X148650952Y-138972380D01*
X148746190Y-138924761D01*
X148793809Y-138877142D01*
X148889047Y-138734285D01*
X148936666Y-138543809D01*
X148936666Y-138162857D01*
X148889047Y-138067619D01*
X148841428Y-138020000D01*
X148746190Y-137972380D01*
X148555714Y-137972380D01*
X148460476Y-138020000D01*
X148412857Y-138067619D01*
X148365238Y-138162857D01*
X148365238Y-138400952D01*
X148412857Y-138496190D01*
X148460476Y-138543809D01*
X148555714Y-138591428D01*
X148746190Y-138591428D01*
X148841428Y-138543809D01*
X148889047Y-138496190D01*
X148936666Y-138400952D01*
X140862380Y-106052976D02*
X140862380Y-106624404D01*
X140862380Y-106338690D02*
X139862380Y-106338690D01*
X140005238Y-106433928D01*
X140100476Y-106529166D01*
X140148095Y-106624404D01*
X139862380Y-105433928D02*
X139862380Y-105338690D01*
X139910000Y-105243452D01*
X139957619Y-105195833D01*
X140052857Y-105148214D01*
X140243333Y-105100595D01*
X140481428Y-105100595D01*
X140671904Y-105148214D01*
X140767142Y-105195833D01*
X140814761Y-105243452D01*
X140862380Y-105338690D01*
X140862380Y-105433928D01*
X140814761Y-105529166D01*
X140767142Y-105576785D01*
X140671904Y-105624404D01*
X140481428Y-105672023D01*
X140243333Y-105672023D01*
X140052857Y-105624404D01*
X139957619Y-105576785D01*
X139910000Y-105529166D01*
X139862380Y-105433928D01*
X140862380Y-104672023D02*
X139862380Y-104672023D01*
X140862380Y-104100595D02*
X140290952Y-104529166D01*
X139862380Y-104100595D02*
X140433809Y-104672023D01*
D16*
X142020952Y-105619642D02*
X141830476Y-105752976D01*
X142020952Y-105848214D02*
X141620952Y-105848214D01*
X141620952Y-105695833D01*
X141640000Y-105657738D01*
X141659047Y-105638690D01*
X141697142Y-105619642D01*
X141754285Y-105619642D01*
X141792380Y-105638690D01*
X141811428Y-105657738D01*
X141830476Y-105695833D01*
X141830476Y-105848214D01*
X142020952Y-105238690D02*
X142020952Y-105467261D01*
X142020952Y-105352976D02*
X141620952Y-105352976D01*
X141678095Y-105391071D01*
X141716190Y-105429166D01*
X141735238Y-105467261D01*
X141620952Y-104895833D02*
X141620952Y-104972023D01*
X141640000Y-105010119D01*
X141659047Y-105029166D01*
X141716190Y-105067261D01*
X141792380Y-105086309D01*
X141944761Y-105086309D01*
X141982857Y-105067261D01*
X142001904Y-105048214D01*
X142020952Y-105010119D01*
X142020952Y-104933928D01*
X142001904Y-104895833D01*
X141982857Y-104876785D01*
X141944761Y-104857738D01*
X141849523Y-104857738D01*
X141811428Y-104876785D01*
X141792380Y-104895833D01*
X141773333Y-104933928D01*
X141773333Y-105010119D01*
X141792380Y-105048214D01*
X141811428Y-105067261D01*
X141849523Y-105086309D01*
D14*
X142094380Y-102250476D02*
X142094380Y-102821904D01*
X142094380Y-102536190D02*
X141094380Y-102536190D01*
X141237238Y-102631428D01*
X141332476Y-102726666D01*
X141380095Y-102821904D01*
X141094380Y-101631428D02*
X141094380Y-101536190D01*
X141142000Y-101440952D01*
X141189619Y-101393333D01*
X141284857Y-101345714D01*
X141475333Y-101298095D01*
X141713428Y-101298095D01*
X141903904Y-101345714D01*
X141999142Y-101393333D01*
X142046761Y-101440952D01*
X142094380Y-101536190D01*
X142094380Y-101631428D01*
X142046761Y-101726666D01*
X141999142Y-101774285D01*
X141903904Y-101821904D01*
X141713428Y-101869523D01*
X141475333Y-101869523D01*
X141284857Y-101821904D01*
X141189619Y-101774285D01*
X141142000Y-101726666D01*
X141094380Y-101631428D01*
X142094380Y-100869523D02*
X141094380Y-100869523D01*
X142094380Y-100298095D02*
X141522952Y-100726666D01*
X141094380Y-100298095D02*
X141665809Y-100869523D01*
D16*
X143252952Y-101817142D02*
X143062476Y-101950476D01*
X143252952Y-102045714D02*
X142852952Y-102045714D01*
X142852952Y-101893333D01*
X142872000Y-101855238D01*
X142891047Y-101836190D01*
X142929142Y-101817142D01*
X142986285Y-101817142D01*
X143024380Y-101836190D01*
X143043428Y-101855238D01*
X143062476Y-101893333D01*
X143062476Y-102045714D01*
X143252952Y-101436190D02*
X143252952Y-101664761D01*
X143252952Y-101550476D02*
X142852952Y-101550476D01*
X142910095Y-101588571D01*
X142948190Y-101626666D01*
X142967238Y-101664761D01*
X142852952Y-101074285D02*
X142852952Y-101264761D01*
X143043428Y-101283809D01*
X143024380Y-101264761D01*
X143005333Y-101226666D01*
X143005333Y-101131428D01*
X143024380Y-101093333D01*
X143043428Y-101074285D01*
X143081523Y-101055238D01*
X143176761Y-101055238D01*
X143214857Y-101074285D01*
X143233904Y-101093333D01*
X143252952Y-101131428D01*
X143252952Y-101226666D01*
X143233904Y-101264761D01*
X143214857Y-101283809D01*
D14*
X152979523Y-107812380D02*
X152408095Y-107812380D01*
X152693809Y-107812380D02*
X152693809Y-106812380D01*
X152598571Y-106955238D01*
X152503333Y-107050476D01*
X152408095Y-107098095D01*
X153598571Y-106812380D02*
X153693809Y-106812380D01*
X153789047Y-106860000D01*
X153836666Y-106907619D01*
X153884285Y-107002857D01*
X153931904Y-107193333D01*
X153931904Y-107431428D01*
X153884285Y-107621904D01*
X153836666Y-107717142D01*
X153789047Y-107764761D01*
X153693809Y-107812380D01*
X153598571Y-107812380D01*
X153503333Y-107764761D01*
X153455714Y-107717142D01*
X153408095Y-107621904D01*
X153360476Y-107431428D01*
X153360476Y-107193333D01*
X153408095Y-107002857D01*
X153455714Y-106907619D01*
X153503333Y-106860000D01*
X153598571Y-106812380D01*
X154360476Y-107812380D02*
X154360476Y-106812380D01*
X154931904Y-107812380D02*
X154503333Y-107240952D01*
X154931904Y-106812380D02*
X154360476Y-107383809D01*
D16*
X153603333Y-108970952D02*
X153470000Y-108780476D01*
X153374761Y-108970952D02*
X153374761Y-108570952D01*
X153527142Y-108570952D01*
X153565238Y-108590000D01*
X153584285Y-108609047D01*
X153603333Y-108647142D01*
X153603333Y-108704285D01*
X153584285Y-108742380D01*
X153565238Y-108761428D01*
X153527142Y-108780476D01*
X153374761Y-108780476D01*
X153831904Y-108742380D02*
X153793809Y-108723333D01*
X153774761Y-108704285D01*
X153755714Y-108666190D01*
X153755714Y-108647142D01*
X153774761Y-108609047D01*
X153793809Y-108590000D01*
X153831904Y-108570952D01*
X153908095Y-108570952D01*
X153946190Y-108590000D01*
X153965238Y-108609047D01*
X153984285Y-108647142D01*
X153984285Y-108666190D01*
X153965238Y-108704285D01*
X153946190Y-108723333D01*
X153908095Y-108742380D01*
X153831904Y-108742380D01*
X153793809Y-108761428D01*
X153774761Y-108780476D01*
X153755714Y-108818571D01*
X153755714Y-108894761D01*
X153774761Y-108932857D01*
X153793809Y-108951904D01*
X153831904Y-108970952D01*
X153908095Y-108970952D01*
X153946190Y-108951904D01*
X153965238Y-108932857D01*
X153984285Y-108894761D01*
X153984285Y-108818571D01*
X153965238Y-108780476D01*
X153946190Y-108761428D01*
X153908095Y-108742380D01*
D14*
X136226666Y-129127142D02*
X136179047Y-129174761D01*
X136036190Y-129222380D01*
X135940952Y-129222380D01*
X135798095Y-129174761D01*
X135702857Y-129079523D01*
X135655238Y-128984285D01*
X135607619Y-128793809D01*
X135607619Y-128650952D01*
X135655238Y-128460476D01*
X135702857Y-128365238D01*
X135798095Y-128270000D01*
X135940952Y-128222380D01*
X136036190Y-128222380D01*
X136179047Y-128270000D01*
X136226666Y-128317619D01*
X136798095Y-129222380D02*
X136702857Y-129174761D01*
X136655238Y-129127142D01*
X136607619Y-129031904D01*
X136607619Y-128746190D01*
X136655238Y-128650952D01*
X136702857Y-128603333D01*
X136798095Y-128555714D01*
X136940952Y-128555714D01*
X137036190Y-128603333D01*
X137083809Y-128650952D01*
X137131428Y-128746190D01*
X137131428Y-129031904D01*
X137083809Y-129127142D01*
X137036190Y-129174761D01*
X136940952Y-129222380D01*
X136798095Y-129222380D01*
X137560000Y-128555714D02*
X137560000Y-129222380D01*
X137560000Y-128650952D02*
X137607619Y-128603333D01*
X137702857Y-128555714D01*
X137845714Y-128555714D01*
X137940952Y-128603333D01*
X137988571Y-128698571D01*
X137988571Y-129222380D01*
X138464761Y-128555714D02*
X138464761Y-129222380D01*
X138464761Y-128650952D02*
X138512380Y-128603333D01*
X138607619Y-128555714D01*
X138750476Y-128555714D01*
X138845714Y-128603333D01*
X138893333Y-128698571D01*
X138893333Y-129222380D01*
X139131428Y-129317619D02*
X139893333Y-129317619D01*
X140321904Y-128222380D02*
X140417142Y-128222380D01*
X140512380Y-128270000D01*
X140560000Y-128317619D01*
X140607619Y-128412857D01*
X140655238Y-128603333D01*
X140655238Y-128841428D01*
X140607619Y-129031904D01*
X140560000Y-129127142D01*
X140512380Y-129174761D01*
X140417142Y-129222380D01*
X140321904Y-129222380D01*
X140226666Y-129174761D01*
X140179047Y-129127142D01*
X140131428Y-129031904D01*
X140083809Y-128841428D01*
X140083809Y-128603333D01*
X140131428Y-128412857D01*
X140179047Y-128317619D01*
X140226666Y-128270000D01*
X140321904Y-128222380D01*
X141607619Y-129222380D02*
X141036190Y-129222380D01*
X141321904Y-129222380D02*
X141321904Y-128222380D01*
X141226666Y-128365238D01*
X141131428Y-128460476D01*
X141036190Y-128508095D01*
X141940952Y-129222380D02*
X142464761Y-128555714D01*
X141940952Y-128555714D02*
X142464761Y-129222380D01*
X143036190Y-128222380D02*
X143131428Y-128222380D01*
X143226666Y-128270000D01*
X143274285Y-128317619D01*
X143321904Y-128412857D01*
X143369523Y-128603333D01*
X143369523Y-128841428D01*
X143321904Y-129031904D01*
X143274285Y-129127142D01*
X143226666Y-129174761D01*
X143131428Y-129222380D01*
X143036190Y-129222380D01*
X142940952Y-129174761D01*
X142893333Y-129127142D01*
X142845714Y-129031904D01*
X142798095Y-128841428D01*
X142798095Y-128603333D01*
X142845714Y-128412857D01*
X142893333Y-128317619D01*
X142940952Y-128270000D01*
X143036190Y-128222380D01*
X143750476Y-128317619D02*
X143798095Y-128270000D01*
X143893333Y-128222380D01*
X144131428Y-128222380D01*
X144226666Y-128270000D01*
X144274285Y-128317619D01*
X144321904Y-128412857D01*
X144321904Y-128508095D01*
X144274285Y-128650952D01*
X143702857Y-129222380D01*
X144321904Y-129222380D01*
X144512380Y-129317619D02*
X145274285Y-129317619D01*
X145512380Y-129222380D02*
X145512380Y-128222380D01*
X145845714Y-128936666D01*
X146179047Y-128222380D01*
X146179047Y-129222380D01*
X147083809Y-129222380D02*
X147083809Y-128698571D01*
X147036190Y-128603333D01*
X146940952Y-128555714D01*
X146750476Y-128555714D01*
X146655238Y-128603333D01*
X147083809Y-129174761D02*
X146988571Y-129222380D01*
X146750476Y-129222380D01*
X146655238Y-129174761D01*
X146607619Y-129079523D01*
X146607619Y-128984285D01*
X146655238Y-128889047D01*
X146750476Y-128841428D01*
X146988571Y-128841428D01*
X147083809Y-128793809D01*
X147702857Y-129222380D02*
X147607619Y-129174761D01*
X147560000Y-129079523D01*
X147560000Y-128222380D01*
X148464761Y-129174761D02*
X148369523Y-129222380D01*
X148179047Y-129222380D01*
X148083809Y-129174761D01*
X148036190Y-129079523D01*
X148036190Y-128698571D01*
X148083809Y-128603333D01*
X148179047Y-128555714D01*
X148369523Y-128555714D01*
X148464761Y-128603333D01*
X148512380Y-128698571D01*
X148512380Y-128793809D01*
X148036190Y-128889047D01*
X141512380Y-132703333D02*
X142226666Y-132703333D01*
X142369523Y-132750952D01*
X142464761Y-132846190D01*
X142512380Y-132989047D01*
X142512380Y-133084285D01*
X141607619Y-132274761D02*
X141560000Y-132227142D01*
X141512380Y-132131904D01*
X141512380Y-131893809D01*
X141560000Y-131798571D01*
X141607619Y-131750952D01*
X141702857Y-131703333D01*
X141798095Y-131703333D01*
X141940952Y-131750952D01*
X142512380Y-132322380D01*
X142512380Y-131703333D01*
X143422380Y-128850000D02*
X143422380Y-128754761D01*
X143470000Y-128659523D01*
X143517619Y-128611904D01*
X143612857Y-128564285D01*
X143803333Y-128516666D01*
X144041428Y-128516666D01*
X144231904Y-128564285D01*
X144327142Y-128611904D01*
X144374761Y-128659523D01*
X144422380Y-128754761D01*
X144422380Y-128850000D01*
X144374761Y-128945238D01*
X144327142Y-128992857D01*
X144231904Y-129040476D01*
X144041428Y-129088095D01*
X143803333Y-129088095D01*
X143612857Y-129040476D01*
X143517619Y-128992857D01*
X143470000Y-128945238D01*
X143422380Y-128850000D01*
X144327142Y-128088095D02*
X144374761Y-128040476D01*
X144422380Y-128088095D01*
X144374761Y-128135714D01*
X144327142Y-128088095D01*
X144422380Y-128088095D01*
X144422380Y-127088095D02*
X144422380Y-127659523D01*
X144422380Y-127373809D02*
X143422380Y-127373809D01*
X143565238Y-127469047D01*
X143660476Y-127564285D01*
X143708095Y-127659523D01*
X143755714Y-126230952D02*
X144422380Y-126230952D01*
X143755714Y-126659523D02*
X144279523Y-126659523D01*
X144374761Y-126611904D01*
X144422380Y-126516666D01*
X144422380Y-126373809D01*
X144374761Y-126278571D01*
X144327142Y-126230952D01*
X143755714Y-125897619D02*
X143755714Y-125516666D01*
X144422380Y-125754761D02*
X143565238Y-125754761D01*
X143470000Y-125707142D01*
X143422380Y-125611904D01*
X143422380Y-125516666D01*
D16*
X145542857Y-127416666D02*
X145561904Y-127435714D01*
X145580952Y-127492857D01*
X145580952Y-127530952D01*
X145561904Y-127588095D01*
X145523809Y-127626190D01*
X145485714Y-127645238D01*
X145409523Y-127664285D01*
X145352380Y-127664285D01*
X145276190Y-127645238D01*
X145238095Y-127626190D01*
X145200000Y-127588095D01*
X145180952Y-127530952D01*
X145180952Y-127492857D01*
X145200000Y-127435714D01*
X145219047Y-127416666D01*
X145180952Y-127283333D02*
X145180952Y-127035714D01*
X145333333Y-127169047D01*
X145333333Y-127111904D01*
X145352380Y-127073809D01*
X145371428Y-127054761D01*
X145409523Y-127035714D01*
X145504761Y-127035714D01*
X145542857Y-127054761D01*
X145561904Y-127073809D01*
X145580952Y-127111904D01*
X145580952Y-127226190D01*
X145561904Y-127264285D01*
X145542857Y-127283333D01*
D14*
X148502380Y-134552857D02*
X148502380Y-135029047D01*
X147502380Y-135029047D01*
X147978571Y-134219523D02*
X147978571Y-133886190D01*
X148502380Y-133743333D02*
X148502380Y-134219523D01*
X147502380Y-134219523D01*
X147502380Y-133743333D01*
X148502380Y-133314761D02*
X147502380Y-133314761D01*
X147502380Y-133076666D01*
X147550000Y-132933809D01*
X147645238Y-132838571D01*
X147740476Y-132790952D01*
X147930952Y-132743333D01*
X148073809Y-132743333D01*
X148264285Y-132790952D01*
X148359523Y-132838571D01*
X148454761Y-132933809D01*
X148502380Y-133076666D01*
X148502380Y-133314761D01*
D16*
X146800952Y-134205238D02*
X146400952Y-134205238D01*
X146400952Y-134110000D01*
X146420000Y-134052857D01*
X146458095Y-134014761D01*
X146496190Y-133995714D01*
X146572380Y-133976666D01*
X146629523Y-133976666D01*
X146705714Y-133995714D01*
X146743809Y-134014761D01*
X146781904Y-134052857D01*
X146800952Y-134110000D01*
X146800952Y-134205238D01*
X146400952Y-133843333D02*
X146400952Y-133576666D01*
X146800952Y-133748095D01*
D14*
X148228680Y-102201457D02*
X148228680Y-102677647D01*
X147228680Y-102677647D01*
X147704871Y-101868123D02*
X147704871Y-101534790D01*
X148228680Y-101391933D02*
X148228680Y-101868123D01*
X147228680Y-101868123D01*
X147228680Y-101391933D01*
X148228680Y-100963361D02*
X147228680Y-100963361D01*
X147228680Y-100725266D01*
X147276300Y-100582409D01*
X147371538Y-100487171D01*
X147466776Y-100439552D01*
X147657252Y-100391933D01*
X147800109Y-100391933D01*
X147990585Y-100439552D01*
X148085823Y-100487171D01*
X148181061Y-100582409D01*
X148228680Y-100725266D01*
X148228680Y-100963361D01*
D16*
X146527252Y-101853838D02*
X146127252Y-101853838D01*
X146127252Y-101758600D01*
X146146300Y-101701457D01*
X146184395Y-101663361D01*
X146222490Y-101644314D01*
X146298680Y-101625266D01*
X146355823Y-101625266D01*
X146432014Y-101644314D01*
X146470109Y-101663361D01*
X146508204Y-101701457D01*
X146527252Y-101758600D01*
X146527252Y-101853838D01*
X146127252Y-101282409D02*
X146127252Y-101358600D01*
X146146300Y-101396695D01*
X146165347Y-101415742D01*
X146222490Y-101453838D01*
X146298680Y-101472885D01*
X146451061Y-101472885D01*
X146489157Y-101453838D01*
X146508204Y-101434790D01*
X146527252Y-101396695D01*
X146527252Y-101320504D01*
X146508204Y-101282409D01*
X146489157Y-101263361D01*
X146451061Y-101244314D01*
X146355823Y-101244314D01*
X146317728Y-101263361D01*
X146298680Y-101282409D01*
X146279633Y-101320504D01*
X146279633Y-101396695D01*
X146298680Y-101434790D01*
X146317728Y-101453838D01*
X146355823Y-101472885D01*
D14*
X149981280Y-102201457D02*
X149981280Y-102677647D01*
X148981280Y-102677647D01*
X149457471Y-101868123D02*
X149457471Y-101534790D01*
X149981280Y-101391933D02*
X149981280Y-101868123D01*
X148981280Y-101868123D01*
X148981280Y-101391933D01*
X149981280Y-100963361D02*
X148981280Y-100963361D01*
X148981280Y-100725266D01*
X149028900Y-100582409D01*
X149124138Y-100487171D01*
X149219376Y-100439552D01*
X149409852Y-100391933D01*
X149552709Y-100391933D01*
X149743185Y-100439552D01*
X149838423Y-100487171D01*
X149933661Y-100582409D01*
X149981280Y-100725266D01*
X149981280Y-100963361D01*
D16*
X148279852Y-101853838D02*
X147879852Y-101853838D01*
X147879852Y-101758600D01*
X147898900Y-101701457D01*
X147936995Y-101663361D01*
X147975090Y-101644314D01*
X148051280Y-101625266D01*
X148108423Y-101625266D01*
X148184614Y-101644314D01*
X148222709Y-101663361D01*
X148260804Y-101701457D01*
X148279852Y-101758600D01*
X148279852Y-101853838D01*
X147879852Y-101263361D02*
X147879852Y-101453838D01*
X148070328Y-101472885D01*
X148051280Y-101453838D01*
X148032233Y-101415742D01*
X148032233Y-101320504D01*
X148051280Y-101282409D01*
X148070328Y-101263361D01*
X148108423Y-101244314D01*
X148203661Y-101244314D01*
X148241757Y-101263361D01*
X148260804Y-101282409D01*
X148279852Y-101320504D01*
X148279852Y-101415742D01*
X148260804Y-101453838D01*
X148241757Y-101472885D01*
D17*
X152974523Y-113804095D02*
X154244523Y-112957428D01*
X152974523Y-112957428D02*
X154244523Y-113804095D01*
X153095476Y-112534095D02*
X153035000Y-112473619D01*
X152974523Y-112352666D01*
X152974523Y-112050285D01*
X153035000Y-111929333D01*
X153095476Y-111868857D01*
X153216428Y-111808380D01*
X153337380Y-111808380D01*
X153518809Y-111868857D01*
X154244523Y-112594571D01*
X154244523Y-111808380D01*
D14*
X147720000Y-129392380D02*
X147815238Y-129392380D01*
X147910476Y-129440000D01*
X147958095Y-129487619D01*
X148005714Y-129582857D01*
X148053333Y-129773333D01*
X148053333Y-130011428D01*
X148005714Y-130201904D01*
X147958095Y-130297142D01*
X147910476Y-130344761D01*
X147815238Y-130392380D01*
X147720000Y-130392380D01*
X147624761Y-130344761D01*
X147577142Y-130297142D01*
X147529523Y-130201904D01*
X147481904Y-130011428D01*
X147481904Y-129773333D01*
X147529523Y-129582857D01*
X147577142Y-129487619D01*
X147624761Y-129440000D01*
X147720000Y-129392380D01*
X148481904Y-130297142D02*
X148529523Y-130344761D01*
X148481904Y-130392380D01*
X148434285Y-130344761D01*
X148481904Y-130297142D01*
X148481904Y-130392380D01*
X149481904Y-130392380D02*
X148910476Y-130392380D01*
X149196190Y-130392380D02*
X149196190Y-129392380D01*
X149100952Y-129535238D01*
X149005714Y-129630476D01*
X148910476Y-129678095D01*
X150339047Y-129725714D02*
X150339047Y-130392380D01*
X149910476Y-129725714D02*
X149910476Y-130249523D01*
X149958095Y-130344761D01*
X150053333Y-130392380D01*
X150196190Y-130392380D01*
X150291428Y-130344761D01*
X150339047Y-130297142D01*
X150672380Y-129725714D02*
X151053333Y-129725714D01*
X150815238Y-130392380D02*
X150815238Y-129535238D01*
X150862857Y-129440000D01*
X150958095Y-129392380D01*
X151053333Y-129392380D01*
D16*
X149153333Y-128652857D02*
X149134285Y-128671904D01*
X149077142Y-128690952D01*
X149039047Y-128690952D01*
X148981904Y-128671904D01*
X148943809Y-128633809D01*
X148924761Y-128595714D01*
X148905714Y-128519523D01*
X148905714Y-128462380D01*
X148924761Y-128386190D01*
X148943809Y-128348095D01*
X148981904Y-128310000D01*
X149039047Y-128290952D01*
X149077142Y-128290952D01*
X149134285Y-128310000D01*
X149153333Y-128329047D01*
X149305714Y-128329047D02*
X149324761Y-128310000D01*
X149362857Y-128290952D01*
X149458095Y-128290952D01*
X149496190Y-128310000D01*
X149515238Y-128329047D01*
X149534285Y-128367142D01*
X149534285Y-128405238D01*
X149515238Y-128462380D01*
X149286666Y-128690952D01*
X149534285Y-128690952D01*
D14*
X154233619Y-101638380D02*
X153662190Y-101638380D01*
X153947904Y-101638380D02*
X153947904Y-100638380D01*
X153852666Y-100781238D01*
X153757428Y-100876476D01*
X153662190Y-100924095D01*
X155090761Y-100971714D02*
X155090761Y-101638380D01*
X154662190Y-100971714D02*
X154662190Y-101495523D01*
X154709809Y-101590761D01*
X154805047Y-101638380D01*
X154947904Y-101638380D01*
X155043142Y-101590761D01*
X155090761Y-101543142D01*
X155424095Y-100971714D02*
X155805047Y-100971714D01*
X155566952Y-101638380D02*
X155566952Y-100781238D01*
X155614571Y-100686000D01*
X155709809Y-100638380D01*
X155805047Y-100638380D01*
D16*
X154619333Y-102758857D02*
X154600285Y-102777904D01*
X154543142Y-102796952D01*
X154505047Y-102796952D01*
X154447904Y-102777904D01*
X154409809Y-102739809D01*
X154390761Y-102701714D01*
X154371714Y-102625523D01*
X154371714Y-102568380D01*
X154390761Y-102492190D01*
X154409809Y-102454095D01*
X154447904Y-102416000D01*
X154505047Y-102396952D01*
X154543142Y-102396952D01*
X154600285Y-102416000D01*
X154619333Y-102435047D01*
X154962190Y-102530285D02*
X154962190Y-102796952D01*
X154866952Y-102377904D02*
X154771714Y-102663619D01*
X155019333Y-102663619D01*
D14*
X144632380Y-113070000D02*
X144632380Y-112974761D01*
X144680000Y-112879523D01*
X144727619Y-112831904D01*
X144822857Y-112784285D01*
X145013333Y-112736666D01*
X145251428Y-112736666D01*
X145441904Y-112784285D01*
X145537142Y-112831904D01*
X145584761Y-112879523D01*
X145632380Y-112974761D01*
X145632380Y-113070000D01*
X145584761Y-113165238D01*
X145537142Y-113212857D01*
X145441904Y-113260476D01*
X145251428Y-113308095D01*
X145013333Y-113308095D01*
X144822857Y-113260476D01*
X144727619Y-113212857D01*
X144680000Y-113165238D01*
X144632380Y-113070000D01*
X145537142Y-112308095D02*
X145584761Y-112260476D01*
X145632380Y-112308095D01*
X145584761Y-112355714D01*
X145537142Y-112308095D01*
X145632380Y-112308095D01*
X145632380Y-111308095D02*
X145632380Y-111879523D01*
X145632380Y-111593809D02*
X144632380Y-111593809D01*
X144775238Y-111689047D01*
X144870476Y-111784285D01*
X144918095Y-111879523D01*
X144965714Y-110450952D02*
X145632380Y-110450952D01*
X144965714Y-110879523D02*
X145489523Y-110879523D01*
X145584761Y-110831904D01*
X145632380Y-110736666D01*
X145632380Y-110593809D01*
X145584761Y-110498571D01*
X145537142Y-110450952D01*
X144965714Y-110117619D02*
X144965714Y-109736666D01*
X145632380Y-109974761D02*
X144775238Y-109974761D01*
X144680000Y-109927142D01*
X144632380Y-109831904D01*
X144632380Y-109736666D01*
D16*
X143892857Y-111636666D02*
X143911904Y-111655714D01*
X143930952Y-111712857D01*
X143930952Y-111750952D01*
X143911904Y-111808095D01*
X143873809Y-111846190D01*
X143835714Y-111865238D01*
X143759523Y-111884285D01*
X143702380Y-111884285D01*
X143626190Y-111865238D01*
X143588095Y-111846190D01*
X143550000Y-111808095D01*
X143530952Y-111750952D01*
X143530952Y-111712857D01*
X143550000Y-111655714D01*
X143569047Y-111636666D01*
X143530952Y-111274761D02*
X143530952Y-111465238D01*
X143721428Y-111484285D01*
X143702380Y-111465238D01*
X143683333Y-111427142D01*
X143683333Y-111331904D01*
X143702380Y-111293809D01*
X143721428Y-111274761D01*
X143759523Y-111255714D01*
X143854761Y-111255714D01*
X143892857Y-111274761D01*
X143911904Y-111293809D01*
X143930952Y-111331904D01*
X143930952Y-111427142D01*
X143911904Y-111465238D01*
X143892857Y-111484285D01*
D14*
X150406380Y-102052380D02*
X150406380Y-102623809D01*
X150406380Y-102338095D02*
X149406380Y-102338095D01*
X149549238Y-102433333D01*
X149644476Y-102528571D01*
X149692095Y-102623809D01*
X149739714Y-101195238D02*
X150406380Y-101195238D01*
X149739714Y-101623809D02*
X150263523Y-101623809D01*
X150358761Y-101576190D01*
X150406380Y-101480952D01*
X150406380Y-101338095D01*
X150358761Y-101242857D01*
X150311142Y-101195238D01*
X149739714Y-100861904D02*
X149739714Y-100480952D01*
X150406380Y-100719047D02*
X149549238Y-100719047D01*
X149454000Y-100671428D01*
X149406380Y-100576190D01*
X149406380Y-100480952D01*
D16*
X151526857Y-101666666D02*
X151545904Y-101685714D01*
X151564952Y-101742857D01*
X151564952Y-101780952D01*
X151545904Y-101838095D01*
X151507809Y-101876190D01*
X151469714Y-101895238D01*
X151393523Y-101914285D01*
X151336380Y-101914285D01*
X151260190Y-101895238D01*
X151222095Y-101876190D01*
X151184000Y-101838095D01*
X151164952Y-101780952D01*
X151164952Y-101742857D01*
X151184000Y-101685714D01*
X151203047Y-101666666D01*
X151564952Y-101476190D02*
X151564952Y-101400000D01*
X151545904Y-101361904D01*
X151526857Y-101342857D01*
X151469714Y-101304761D01*
X151393523Y-101285714D01*
X151241142Y-101285714D01*
X151203047Y-101304761D01*
X151184000Y-101323809D01*
X151164952Y-101361904D01*
X151164952Y-101438095D01*
X151184000Y-101476190D01*
X151203047Y-101495238D01*
X151241142Y-101514285D01*
X151336380Y-101514285D01*
X151374476Y-101495238D01*
X151393523Y-101476190D01*
X151412571Y-101438095D01*
X151412571Y-101361904D01*
X151393523Y-101323809D01*
X151374476Y-101304761D01*
X151336380Y-101285714D01*
D14*
X144942380Y-130032500D02*
X144942380Y-129937261D01*
X144990000Y-129842023D01*
X145037619Y-129794404D01*
X145132857Y-129746785D01*
X145323333Y-129699166D01*
X145561428Y-129699166D01*
X145751904Y-129746785D01*
X145847142Y-129794404D01*
X145894761Y-129842023D01*
X145942380Y-129937261D01*
X145942380Y-130032500D01*
X145894761Y-130127738D01*
X145847142Y-130175357D01*
X145751904Y-130222976D01*
X145561428Y-130270595D01*
X145323333Y-130270595D01*
X145132857Y-130222976D01*
X145037619Y-130175357D01*
X144990000Y-130127738D01*
X144942380Y-130032500D01*
X145847142Y-129270595D02*
X145894761Y-129222976D01*
X145942380Y-129270595D01*
X145894761Y-129318214D01*
X145847142Y-129270595D01*
X145942380Y-129270595D01*
X145942380Y-128270595D02*
X145942380Y-128842023D01*
X145942380Y-128556309D02*
X144942380Y-128556309D01*
X145085238Y-128651547D01*
X145180476Y-128746785D01*
X145228095Y-128842023D01*
X145275714Y-127413452D02*
X145942380Y-127413452D01*
X145275714Y-127842023D02*
X145799523Y-127842023D01*
X145894761Y-127794404D01*
X145942380Y-127699166D01*
X145942380Y-127556309D01*
X145894761Y-127461071D01*
X145847142Y-127413452D01*
X145275714Y-127080119D02*
X145275714Y-126699166D01*
X145942380Y-126937261D02*
X145085238Y-126937261D01*
X144990000Y-126889642D01*
X144942380Y-126794404D01*
X144942380Y-126699166D01*
D16*
X147062857Y-128789642D02*
X147081904Y-128808690D01*
X147100952Y-128865833D01*
X147100952Y-128903928D01*
X147081904Y-128961071D01*
X147043809Y-128999166D01*
X147005714Y-129018214D01*
X146929523Y-129037261D01*
X146872380Y-129037261D01*
X146796190Y-129018214D01*
X146758095Y-128999166D01*
X146720000Y-128961071D01*
X146700952Y-128903928D01*
X146700952Y-128865833D01*
X146720000Y-128808690D01*
X146739047Y-128789642D01*
X147100952Y-128408690D02*
X147100952Y-128637261D01*
X147100952Y-128522976D02*
X146700952Y-128522976D01*
X146758095Y-128561071D01*
X146796190Y-128599166D01*
X146815238Y-128637261D01*
X147100952Y-128027738D02*
X147100952Y-128256309D01*
X147100952Y-128142023D02*
X146700952Y-128142023D01*
X146758095Y-128180119D01*
X146796190Y-128218214D01*
X146815238Y-128256309D01*
D14*
X150152380Y-94686380D02*
X150152380Y-95257809D01*
X150152380Y-94972095D02*
X149152380Y-94972095D01*
X149295238Y-95067333D01*
X149390476Y-95162571D01*
X149438095Y-95257809D01*
X149485714Y-93829238D02*
X150152380Y-93829238D01*
X149485714Y-94257809D02*
X150009523Y-94257809D01*
X150104761Y-94210190D01*
X150152380Y-94114952D01*
X150152380Y-93972095D01*
X150104761Y-93876857D01*
X150057142Y-93829238D01*
X149485714Y-93495904D02*
X149485714Y-93114952D01*
X150152380Y-93353047D02*
X149295238Y-93353047D01*
X149200000Y-93305428D01*
X149152380Y-93210190D01*
X149152380Y-93114952D01*
D16*
X151272857Y-94491142D02*
X151291904Y-94510190D01*
X151310952Y-94567333D01*
X151310952Y-94605428D01*
X151291904Y-94662571D01*
X151253809Y-94700666D01*
X151215714Y-94719714D01*
X151139523Y-94738761D01*
X151082380Y-94738761D01*
X151006190Y-94719714D01*
X150968095Y-94700666D01*
X150930000Y-94662571D01*
X150910952Y-94605428D01*
X150910952Y-94567333D01*
X150930000Y-94510190D01*
X150949047Y-94491142D01*
X151310952Y-94110190D02*
X151310952Y-94338761D01*
X151310952Y-94224476D02*
X150910952Y-94224476D01*
X150968095Y-94262571D01*
X151006190Y-94300666D01*
X151025238Y-94338761D01*
X151082380Y-93881619D02*
X151063333Y-93919714D01*
X151044285Y-93938761D01*
X151006190Y-93957809D01*
X150987142Y-93957809D01*
X150949047Y-93938761D01*
X150930000Y-93919714D01*
X150910952Y-93881619D01*
X150910952Y-93805428D01*
X150930000Y-93767333D01*
X150949047Y-93748285D01*
X150987142Y-93729238D01*
X151006190Y-93729238D01*
X151044285Y-93748285D01*
X151063333Y-93767333D01*
X151082380Y-93805428D01*
X151082380Y-93881619D01*
X151101428Y-93919714D01*
X151120476Y-93938761D01*
X151158571Y-93957809D01*
X151234761Y-93957809D01*
X151272857Y-93938761D01*
X151291904Y-93919714D01*
X151310952Y-93881619D01*
X151310952Y-93805428D01*
X151291904Y-93767333D01*
X151272857Y-93748285D01*
X151234761Y-93729238D01*
X151158571Y-93729238D01*
X151120476Y-93748285D01*
X151101428Y-93767333D01*
X151082380Y-93805428D01*
D14*
X151672380Y-115038000D02*
X151672380Y-114942761D01*
X151720000Y-114847523D01*
X151767619Y-114799904D01*
X151862857Y-114752285D01*
X152053333Y-114704666D01*
X152291428Y-114704666D01*
X152481904Y-114752285D01*
X152577142Y-114799904D01*
X152624761Y-114847523D01*
X152672380Y-114942761D01*
X152672380Y-115038000D01*
X152624761Y-115133238D01*
X152577142Y-115180857D01*
X152481904Y-115228476D01*
X152291428Y-115276095D01*
X152053333Y-115276095D01*
X151862857Y-115228476D01*
X151767619Y-115180857D01*
X151720000Y-115133238D01*
X151672380Y-115038000D01*
X152577142Y-114276095D02*
X152624761Y-114228476D01*
X152672380Y-114276095D01*
X152624761Y-114323714D01*
X152577142Y-114276095D01*
X152672380Y-114276095D01*
X152672380Y-113276095D02*
X152672380Y-113847523D01*
X152672380Y-113561809D02*
X151672380Y-113561809D01*
X151815238Y-113657047D01*
X151910476Y-113752285D01*
X151958095Y-113847523D01*
X152005714Y-112418952D02*
X152672380Y-112418952D01*
X152005714Y-112847523D02*
X152529523Y-112847523D01*
X152624761Y-112799904D01*
X152672380Y-112704666D01*
X152672380Y-112561809D01*
X152624761Y-112466571D01*
X152577142Y-112418952D01*
X152005714Y-112085619D02*
X152005714Y-111704666D01*
X152672380Y-111942761D02*
X151815238Y-111942761D01*
X151720000Y-111895142D01*
X151672380Y-111799904D01*
X151672380Y-111704666D01*
D16*
X150932857Y-113795142D02*
X150951904Y-113814190D01*
X150970952Y-113871333D01*
X150970952Y-113909428D01*
X150951904Y-113966571D01*
X150913809Y-114004666D01*
X150875714Y-114023714D01*
X150799523Y-114042761D01*
X150742380Y-114042761D01*
X150666190Y-114023714D01*
X150628095Y-114004666D01*
X150590000Y-113966571D01*
X150570952Y-113909428D01*
X150570952Y-113871333D01*
X150590000Y-113814190D01*
X150609047Y-113795142D01*
X150609047Y-113642761D02*
X150590000Y-113623714D01*
X150570952Y-113585619D01*
X150570952Y-113490380D01*
X150590000Y-113452285D01*
X150609047Y-113433238D01*
X150647142Y-113414190D01*
X150685238Y-113414190D01*
X150742380Y-113433238D01*
X150970952Y-113661809D01*
X150970952Y-113414190D01*
X150570952Y-113052285D02*
X150570952Y-113242761D01*
X150761428Y-113261809D01*
X150742380Y-113242761D01*
X150723333Y-113204666D01*
X150723333Y-113109428D01*
X150742380Y-113071333D01*
X150761428Y-113052285D01*
X150799523Y-113033238D01*
X150894761Y-113033238D01*
X150932857Y-113052285D01*
X150951904Y-113071333D01*
X150970952Y-113109428D01*
X150970952Y-113204666D01*
X150951904Y-113242761D01*
X150932857Y-113261809D01*
D14*
X150162380Y-114540000D02*
X150162380Y-114444761D01*
X150210000Y-114349523D01*
X150257619Y-114301904D01*
X150352857Y-114254285D01*
X150543333Y-114206666D01*
X150781428Y-114206666D01*
X150971904Y-114254285D01*
X151067142Y-114301904D01*
X151114761Y-114349523D01*
X151162380Y-114444761D01*
X151162380Y-114540000D01*
X151114761Y-114635238D01*
X151067142Y-114682857D01*
X150971904Y-114730476D01*
X150781428Y-114778095D01*
X150543333Y-114778095D01*
X150352857Y-114730476D01*
X150257619Y-114682857D01*
X150210000Y-114635238D01*
X150162380Y-114540000D01*
X151067142Y-113778095D02*
X151114761Y-113730476D01*
X151162380Y-113778095D01*
X151114761Y-113825714D01*
X151067142Y-113778095D01*
X151162380Y-113778095D01*
X151162380Y-112778095D02*
X151162380Y-113349523D01*
X151162380Y-113063809D02*
X150162380Y-113063809D01*
X150305238Y-113159047D01*
X150400476Y-113254285D01*
X150448095Y-113349523D01*
X150495714Y-111920952D02*
X151162380Y-111920952D01*
X150495714Y-112349523D02*
X151019523Y-112349523D01*
X151114761Y-112301904D01*
X151162380Y-112206666D01*
X151162380Y-112063809D01*
X151114761Y-111968571D01*
X151067142Y-111920952D01*
X150495714Y-111587619D02*
X150495714Y-111206666D01*
X151162380Y-111444761D02*
X150305238Y-111444761D01*
X150210000Y-111397142D01*
X150162380Y-111301904D01*
X150162380Y-111206666D01*
D16*
X149422857Y-113297142D02*
X149441904Y-113316190D01*
X149460952Y-113373333D01*
X149460952Y-113411428D01*
X149441904Y-113468571D01*
X149403809Y-113506666D01*
X149365714Y-113525714D01*
X149289523Y-113544761D01*
X149232380Y-113544761D01*
X149156190Y-113525714D01*
X149118095Y-113506666D01*
X149080000Y-113468571D01*
X149060952Y-113411428D01*
X149060952Y-113373333D01*
X149080000Y-113316190D01*
X149099047Y-113297142D01*
X149099047Y-113144761D02*
X149080000Y-113125714D01*
X149060952Y-113087619D01*
X149060952Y-112992380D01*
X149080000Y-112954285D01*
X149099047Y-112935238D01*
X149137142Y-112916190D01*
X149175238Y-112916190D01*
X149232380Y-112935238D01*
X149460952Y-113163809D01*
X149460952Y-112916190D01*
X149060952Y-112573333D02*
X149060952Y-112649523D01*
X149080000Y-112687619D01*
X149099047Y-112706666D01*
X149156190Y-112744761D01*
X149232380Y-112763809D01*
X149384761Y-112763809D01*
X149422857Y-112744761D01*
X149441904Y-112725714D01*
X149460952Y-112687619D01*
X149460952Y-112611428D01*
X149441904Y-112573333D01*
X149422857Y-112554285D01*
X149384761Y-112535238D01*
X149289523Y-112535238D01*
X149251428Y-112554285D01*
X149232380Y-112573333D01*
X149213333Y-112611428D01*
X149213333Y-112687619D01*
X149232380Y-112725714D01*
X149251428Y-112744761D01*
X149289523Y-112763809D01*
D14*
X151193904Y-97374380D02*
X151193904Y-96374380D01*
X151527238Y-97088666D01*
X151860571Y-96374380D01*
X151860571Y-97374380D01*
X152908190Y-97279142D02*
X152860571Y-97326761D01*
X152717714Y-97374380D01*
X152622476Y-97374380D01*
X152479619Y-97326761D01*
X152384380Y-97231523D01*
X152336761Y-97136285D01*
X152289142Y-96945809D01*
X152289142Y-96802952D01*
X152336761Y-96612476D01*
X152384380Y-96517238D01*
X152479619Y-96422000D01*
X152622476Y-96374380D01*
X152717714Y-96374380D01*
X152860571Y-96422000D01*
X152908190Y-96469619D01*
X153336761Y-97374380D02*
X153336761Y-96374380D01*
X153717714Y-96374380D01*
X153812952Y-96422000D01*
X153860571Y-96469619D01*
X153908190Y-96564857D01*
X153908190Y-96707714D01*
X153860571Y-96802952D01*
X153812952Y-96850571D01*
X153717714Y-96898190D01*
X153336761Y-96898190D01*
X154860571Y-97374380D02*
X154289142Y-97374380D01*
X154574857Y-97374380D02*
X154574857Y-96374380D01*
X154479619Y-96517238D01*
X154384380Y-96612476D01*
X154289142Y-96660095D01*
X155193904Y-96374380D02*
X155860571Y-96374380D01*
X155432000Y-97374380D01*
X156717714Y-96374380D02*
X156241523Y-96374380D01*
X156193904Y-96850571D01*
X156241523Y-96802952D01*
X156336761Y-96755333D01*
X156574857Y-96755333D01*
X156670095Y-96802952D01*
X156717714Y-96850571D01*
X156765333Y-96945809D01*
X156765333Y-97183904D01*
X156717714Y-97279142D01*
X156670095Y-97326761D01*
X156574857Y-97374380D01*
X156336761Y-97374380D01*
X156241523Y-97326761D01*
X156193904Y-97279142D01*
X157670095Y-96374380D02*
X157193904Y-96374380D01*
X157146285Y-96850571D01*
X157193904Y-96802952D01*
X157289142Y-96755333D01*
X157527238Y-96755333D01*
X157622476Y-96802952D01*
X157670095Y-96850571D01*
X157717714Y-96945809D01*
X157717714Y-97183904D01*
X157670095Y-97279142D01*
X157622476Y-97326761D01*
X157527238Y-97374380D01*
X157289142Y-97374380D01*
X157193904Y-97326761D01*
X157146285Y-97279142D01*
D18*
X154658190Y-100310095D02*
X154158190Y-100310095D01*
X154610571Y-99786285D02*
X154634380Y-99810095D01*
X154658190Y-99881523D01*
X154658190Y-99929142D01*
X154634380Y-100000571D01*
X154586761Y-100048190D01*
X154539142Y-100072000D01*
X154443904Y-100095809D01*
X154372476Y-100095809D01*
X154277238Y-100072000D01*
X154229619Y-100048190D01*
X154182000Y-100000571D01*
X154158190Y-99929142D01*
X154158190Y-99881523D01*
X154182000Y-99810095D01*
X154205809Y-99786285D01*
X154158190Y-99619619D02*
X154158190Y-99310095D01*
X154348666Y-99476761D01*
X154348666Y-99405333D01*
X154372476Y-99357714D01*
X154396285Y-99333904D01*
X154443904Y-99310095D01*
X154562952Y-99310095D01*
X154610571Y-99333904D01*
X154634380Y-99357714D01*
X154658190Y-99405333D01*
X154658190Y-99548190D01*
X154634380Y-99595809D01*
X154610571Y-99619619D01*
D14*
X155659361Y-136324242D02*
X155611742Y-136371861D01*
X155468885Y-136419480D01*
X155373647Y-136419480D01*
X155230790Y-136371861D01*
X155135552Y-136276623D01*
X155087933Y-136181385D01*
X155040314Y-135990909D01*
X155040314Y-135848052D01*
X155087933Y-135657576D01*
X155135552Y-135562338D01*
X155230790Y-135467100D01*
X155373647Y-135419480D01*
X155468885Y-135419480D01*
X155611742Y-135467100D01*
X155659361Y-135514719D01*
X156278409Y-135419480D02*
X156468885Y-135419480D01*
X156564123Y-135467100D01*
X156659361Y-135562338D01*
X156706980Y-135752814D01*
X156706980Y-136086147D01*
X156659361Y-136276623D01*
X156564123Y-136371861D01*
X156468885Y-136419480D01*
X156278409Y-136419480D01*
X156183171Y-136371861D01*
X156087933Y-136276623D01*
X156040314Y-136086147D01*
X156040314Y-135752814D01*
X156087933Y-135562338D01*
X156183171Y-135467100D01*
X156278409Y-135419480D01*
X157135552Y-136419480D02*
X157135552Y-135419480D01*
X157706980Y-136419480D01*
X157706980Y-135419480D01*
X158183171Y-136419480D02*
X158183171Y-135419480D01*
X158754600Y-136419480D01*
X158754600Y-135419480D01*
X158992695Y-136514719D02*
X159754600Y-136514719D01*
X159945076Y-135514719D02*
X159992695Y-135467100D01*
X160087933Y-135419480D01*
X160326028Y-135419480D01*
X160421266Y-135467100D01*
X160468885Y-135514719D01*
X160516504Y-135609957D01*
X160516504Y-135705195D01*
X160468885Y-135848052D01*
X159897457Y-136419480D01*
X160516504Y-136419480D01*
X161135552Y-135419480D02*
X161230790Y-135419480D01*
X161326028Y-135467100D01*
X161373647Y-135514719D01*
X161421266Y-135609957D01*
X161468885Y-135800433D01*
X161468885Y-136038528D01*
X161421266Y-136229004D01*
X161373647Y-136324242D01*
X161326028Y-136371861D01*
X161230790Y-136419480D01*
X161135552Y-136419480D01*
X161040314Y-136371861D01*
X160992695Y-136324242D01*
X160945076Y-136229004D01*
X160897457Y-136038528D01*
X160897457Y-135800433D01*
X160945076Y-135609957D01*
X160992695Y-135514719D01*
X161040314Y-135467100D01*
X161135552Y-135419480D01*
X157706980Y-110316623D02*
X158421266Y-110316623D01*
X158564123Y-110364242D01*
X158659361Y-110459480D01*
X158706980Y-110602338D01*
X158706980Y-110697576D01*
X158706980Y-109316623D02*
X158706980Y-109888052D01*
X158706980Y-109602338D02*
X157706980Y-109602338D01*
X157849838Y-109697576D01*
X157945076Y-109792814D01*
X157992695Y-109888052D01*
X158706980Y-108364242D02*
X158706980Y-108935671D01*
X158706980Y-108649957D02*
X157706980Y-108649957D01*
X157849838Y-108745195D01*
X157945076Y-108840433D01*
X157992695Y-108935671D01*
X152954023Y-104552380D02*
X152382595Y-104552380D01*
X152668309Y-104552380D02*
X152668309Y-103552380D01*
X152573071Y-103695238D01*
X152477833Y-103790476D01*
X152382595Y-103838095D01*
X153573071Y-103552380D02*
X153668309Y-103552380D01*
X153763547Y-103600000D01*
X153811166Y-103647619D01*
X153858785Y-103742857D01*
X153906404Y-103933333D01*
X153906404Y-104171428D01*
X153858785Y-104361904D01*
X153811166Y-104457142D01*
X153763547Y-104504761D01*
X153668309Y-104552380D01*
X153573071Y-104552380D01*
X153477833Y-104504761D01*
X153430214Y-104457142D01*
X153382595Y-104361904D01*
X153334976Y-104171428D01*
X153334976Y-103933333D01*
X153382595Y-103742857D01*
X153430214Y-103647619D01*
X153477833Y-103600000D01*
X153573071Y-103552380D01*
X154334976Y-104552380D02*
X154334976Y-103552380D01*
X154906404Y-104552380D02*
X154477833Y-103980952D01*
X154906404Y-103552380D02*
X154334976Y-104123809D01*
D16*
X153577833Y-105710952D02*
X153444500Y-105520476D01*
X153349261Y-105710952D02*
X153349261Y-105310952D01*
X153501642Y-105310952D01*
X153539738Y-105330000D01*
X153558785Y-105349047D01*
X153577833Y-105387142D01*
X153577833Y-105444285D01*
X153558785Y-105482380D01*
X153539738Y-105501428D01*
X153501642Y-105520476D01*
X153349261Y-105520476D01*
X153958785Y-105710952D02*
X153730214Y-105710952D01*
X153844500Y-105710952D02*
X153844500Y-105310952D01*
X153806404Y-105368095D01*
X153768309Y-105406190D01*
X153730214Y-105425238D01*
D14*
X153799820Y-124669956D02*
X153799820Y-125241384D01*
X153799820Y-124955670D02*
X152799820Y-124955670D01*
X152942678Y-125050908D01*
X153037916Y-125146146D01*
X153085535Y-125241384D01*
X152799820Y-124050908D02*
X152799820Y-123955670D01*
X152847440Y-123860432D01*
X152895059Y-123812813D01*
X152990297Y-123765194D01*
X153180773Y-123717575D01*
X153418868Y-123717575D01*
X153609344Y-123765194D01*
X153704582Y-123812813D01*
X153752201Y-123860432D01*
X153799820Y-123955670D01*
X153799820Y-124050908D01*
X153752201Y-124146146D01*
X153704582Y-124193765D01*
X153609344Y-124241384D01*
X153418868Y-124289003D01*
X153180773Y-124289003D01*
X152990297Y-124241384D01*
X152895059Y-124193765D01*
X152847440Y-124146146D01*
X152799820Y-124050908D01*
X153799820Y-123289003D02*
X152799820Y-123289003D01*
X153799820Y-122717575D02*
X153228392Y-123146146D01*
X152799820Y-122717575D02*
X153371249Y-123289003D01*
D16*
X154958392Y-124046146D02*
X154767916Y-124179480D01*
X154958392Y-124274718D02*
X154558392Y-124274718D01*
X154558392Y-124122337D01*
X154577440Y-124084241D01*
X154596487Y-124065194D01*
X154634582Y-124046146D01*
X154691725Y-124046146D01*
X154729820Y-124065194D01*
X154748868Y-124084241D01*
X154767916Y-124122337D01*
X154767916Y-124274718D01*
X154558392Y-123912813D02*
X154558392Y-123665194D01*
X154710773Y-123798527D01*
X154710773Y-123741384D01*
X154729820Y-123703289D01*
X154748868Y-123684241D01*
X154786963Y-123665194D01*
X154882201Y-123665194D01*
X154920297Y-123684241D01*
X154939344Y-123703289D01*
X154958392Y-123741384D01*
X154958392Y-123855670D01*
X154939344Y-123893765D01*
X154920297Y-123912813D01*
D14*
X156568380Y-91622476D02*
X156568380Y-92193904D01*
X156568380Y-91908190D02*
X155568380Y-91908190D01*
X155711238Y-92003428D01*
X155806476Y-92098666D01*
X155854095Y-92193904D01*
X155568380Y-91003428D02*
X155568380Y-90908190D01*
X155616000Y-90812952D01*
X155663619Y-90765333D01*
X155758857Y-90717714D01*
X155949333Y-90670095D01*
X156187428Y-90670095D01*
X156377904Y-90717714D01*
X156473142Y-90765333D01*
X156520761Y-90812952D01*
X156568380Y-90908190D01*
X156568380Y-91003428D01*
X156520761Y-91098666D01*
X156473142Y-91146285D01*
X156377904Y-91193904D01*
X156187428Y-91241523D01*
X155949333Y-91241523D01*
X155758857Y-91193904D01*
X155663619Y-91146285D01*
X155616000Y-91098666D01*
X155568380Y-91003428D01*
X156568380Y-90241523D02*
X155568380Y-90241523D01*
X156568380Y-89670095D02*
X155996952Y-90098666D01*
X155568380Y-89670095D02*
X156139809Y-90241523D01*
D16*
X154866952Y-90998666D02*
X154676476Y-91132000D01*
X154866952Y-91227238D02*
X154466952Y-91227238D01*
X154466952Y-91074857D01*
X154486000Y-91036761D01*
X154505047Y-91017714D01*
X154543142Y-90998666D01*
X154600285Y-90998666D01*
X154638380Y-91017714D01*
X154657428Y-91036761D01*
X154676476Y-91074857D01*
X154676476Y-91227238D01*
X154600285Y-90655809D02*
X154866952Y-90655809D01*
X154447904Y-90751047D02*
X154733619Y-90846285D01*
X154733619Y-90598666D01*
D14*
X151634380Y-102236666D02*
X151634380Y-102808095D01*
X151634380Y-102522380D02*
X150634380Y-102522380D01*
X150777238Y-102617619D01*
X150872476Y-102712857D01*
X150920095Y-102808095D01*
X150634380Y-101331904D02*
X150634380Y-101808095D01*
X151110571Y-101855714D01*
X151062952Y-101808095D01*
X151015333Y-101712857D01*
X151015333Y-101474761D01*
X151062952Y-101379523D01*
X151110571Y-101331904D01*
X151205809Y-101284285D01*
X151443904Y-101284285D01*
X151539142Y-101331904D01*
X151586761Y-101379523D01*
X151634380Y-101474761D01*
X151634380Y-101712857D01*
X151586761Y-101808095D01*
X151539142Y-101855714D01*
X150634380Y-100665238D02*
X150634380Y-100570000D01*
X150682000Y-100474761D01*
X150729619Y-100427142D01*
X150824857Y-100379523D01*
X151015333Y-100331904D01*
X151253428Y-100331904D01*
X151443904Y-100379523D01*
X151539142Y-100427142D01*
X151586761Y-100474761D01*
X151634380Y-100570000D01*
X151634380Y-100665238D01*
X151586761Y-100760476D01*
X151539142Y-100808095D01*
X151443904Y-100855714D01*
X151253428Y-100903333D01*
X151015333Y-100903333D01*
X150824857Y-100855714D01*
X150729619Y-100808095D01*
X150682000Y-100760476D01*
X150634380Y-100665238D01*
D16*
X149932952Y-101636666D02*
X149742476Y-101770000D01*
X149932952Y-101865238D02*
X149532952Y-101865238D01*
X149532952Y-101712857D01*
X149552000Y-101674761D01*
X149571047Y-101655714D01*
X149609142Y-101636666D01*
X149666285Y-101636666D01*
X149704380Y-101655714D01*
X149723428Y-101674761D01*
X149742476Y-101712857D01*
X149742476Y-101865238D01*
X149532952Y-101293809D02*
X149532952Y-101370000D01*
X149552000Y-101408095D01*
X149571047Y-101427142D01*
X149628190Y-101465238D01*
X149704380Y-101484285D01*
X149856761Y-101484285D01*
X149894857Y-101465238D01*
X149913904Y-101446190D01*
X149932952Y-101408095D01*
X149932952Y-101331904D01*
X149913904Y-101293809D01*
X149894857Y-101274761D01*
X149856761Y-101255714D01*
X149761523Y-101255714D01*
X149723428Y-101274761D01*
X149704380Y-101293809D01*
X149685333Y-101331904D01*
X149685333Y-101408095D01*
X149704380Y-101446190D01*
X149723428Y-101465238D01*
X149761523Y-101484285D01*
D14*
X150101580Y-100163047D02*
X150101580Y-100734476D01*
X150101580Y-100448761D02*
X149101580Y-100448761D01*
X149244438Y-100544000D01*
X149339676Y-100639238D01*
X149387295Y-100734476D01*
X149196819Y-99782095D02*
X149149200Y-99734476D01*
X149101580Y-99639238D01*
X149101580Y-99401142D01*
X149149200Y-99305904D01*
X149196819Y-99258285D01*
X149292057Y-99210666D01*
X149387295Y-99210666D01*
X149530152Y-99258285D01*
X150101580Y-99829714D01*
X150101580Y-99210666D01*
X150101580Y-98782095D02*
X149101580Y-98782095D01*
X150101580Y-98210666D02*
X149530152Y-98639238D01*
X149101580Y-98210666D02*
X149673009Y-98782095D01*
X150101580Y-96496380D02*
X150101580Y-97067809D01*
X150101580Y-96782095D02*
X149101580Y-96782095D01*
X149244438Y-96877333D01*
X149339676Y-96972571D01*
X149387295Y-97067809D01*
X150101580Y-96115428D02*
X149101580Y-95353523D01*
X149101580Y-95972571D02*
X149149200Y-95877333D01*
X149244438Y-95829714D01*
X149339676Y-95877333D01*
X149387295Y-95972571D01*
X149339676Y-96067809D01*
X149244438Y-96115428D01*
X149149200Y-96067809D01*
X149101580Y-95972571D01*
X150053961Y-95401142D02*
X149958723Y-95353523D01*
X149863485Y-95401142D01*
X149815866Y-95496380D01*
X149863485Y-95591619D01*
X149958723Y-95639238D01*
X150053961Y-95591619D01*
X150101580Y-95496380D01*
X150053961Y-95401142D01*
D16*
X151260152Y-98110666D02*
X151069676Y-98244000D01*
X151260152Y-98339238D02*
X150860152Y-98339238D01*
X150860152Y-98186857D01*
X150879200Y-98148761D01*
X150898247Y-98129714D01*
X150936342Y-98110666D01*
X150993485Y-98110666D01*
X151031580Y-98129714D01*
X151050628Y-98148761D01*
X151069676Y-98186857D01*
X151069676Y-98339238D01*
X151260152Y-97920190D02*
X151260152Y-97844000D01*
X151241104Y-97805904D01*
X151222057Y-97786857D01*
X151164914Y-97748761D01*
X151088723Y-97729714D01*
X150936342Y-97729714D01*
X150898247Y-97748761D01*
X150879200Y-97767809D01*
X150860152Y-97805904D01*
X150860152Y-97882095D01*
X150879200Y-97920190D01*
X150898247Y-97939238D01*
X150936342Y-97958285D01*
X151031580Y-97958285D01*
X151069676Y-97939238D01*
X151088723Y-97920190D01*
X151107771Y-97882095D01*
X151107771Y-97805904D01*
X151088723Y-97767809D01*
X151069676Y-97748761D01*
X151031580Y-97729714D01*
D14*
X152979523Y-106162380D02*
X152408095Y-106162380D01*
X152693809Y-106162380D02*
X152693809Y-105162380D01*
X152598571Y-105305238D01*
X152503333Y-105400476D01*
X152408095Y-105448095D01*
X153598571Y-105162380D02*
X153693809Y-105162380D01*
X153789047Y-105210000D01*
X153836666Y-105257619D01*
X153884285Y-105352857D01*
X153931904Y-105543333D01*
X153931904Y-105781428D01*
X153884285Y-105971904D01*
X153836666Y-106067142D01*
X153789047Y-106114761D01*
X153693809Y-106162380D01*
X153598571Y-106162380D01*
X153503333Y-106114761D01*
X153455714Y-106067142D01*
X153408095Y-105971904D01*
X153360476Y-105781428D01*
X153360476Y-105543333D01*
X153408095Y-105352857D01*
X153455714Y-105257619D01*
X153503333Y-105210000D01*
X153598571Y-105162380D01*
X154360476Y-106162380D02*
X154360476Y-105162380D01*
X154931904Y-106162380D02*
X154503333Y-105590952D01*
X154931904Y-105162380D02*
X154360476Y-105733809D01*
D16*
X153412857Y-107320952D02*
X153279523Y-107130476D01*
X153184285Y-107320952D02*
X153184285Y-106920952D01*
X153336666Y-106920952D01*
X153374761Y-106940000D01*
X153393809Y-106959047D01*
X153412857Y-106997142D01*
X153412857Y-107054285D01*
X153393809Y-107092380D01*
X153374761Y-107111428D01*
X153336666Y-107130476D01*
X153184285Y-107130476D01*
X153793809Y-107320952D02*
X153565238Y-107320952D01*
X153679523Y-107320952D02*
X153679523Y-106920952D01*
X153641428Y-106978095D01*
X153603333Y-107016190D01*
X153565238Y-107035238D01*
X154041428Y-106920952D02*
X154079523Y-106920952D01*
X154117619Y-106940000D01*
X154136666Y-106959047D01*
X154155714Y-106997142D01*
X154174761Y-107073333D01*
X154174761Y-107168571D01*
X154155714Y-107244761D01*
X154136666Y-107282857D01*
X154117619Y-107301904D01*
X154079523Y-107320952D01*
X154041428Y-107320952D01*
X154003333Y-107301904D01*
X153984285Y-107282857D01*
X153965238Y-107244761D01*
X153946190Y-107168571D01*
X153946190Y-107073333D01*
X153965238Y-106997142D01*
X153984285Y-106959047D01*
X154003333Y-106940000D01*
X154041428Y-106920952D01*
D14*
X143712380Y-109120476D02*
X143712380Y-109691904D01*
X143712380Y-109406190D02*
X142712380Y-109406190D01*
X142855238Y-109501428D01*
X142950476Y-109596666D01*
X142998095Y-109691904D01*
X142712380Y-108501428D02*
X142712380Y-108406190D01*
X142760000Y-108310952D01*
X142807619Y-108263333D01*
X142902857Y-108215714D01*
X143093333Y-108168095D01*
X143331428Y-108168095D01*
X143521904Y-108215714D01*
X143617142Y-108263333D01*
X143664761Y-108310952D01*
X143712380Y-108406190D01*
X143712380Y-108501428D01*
X143664761Y-108596666D01*
X143617142Y-108644285D01*
X143521904Y-108691904D01*
X143331428Y-108739523D01*
X143093333Y-108739523D01*
X142902857Y-108691904D01*
X142807619Y-108644285D01*
X142760000Y-108596666D01*
X142712380Y-108501428D01*
X143712380Y-107739523D02*
X142712380Y-107739523D01*
X143712380Y-107168095D02*
X143140952Y-107596666D01*
X142712380Y-107168095D02*
X143283809Y-107739523D01*
D16*
X142010952Y-108687142D02*
X141820476Y-108820476D01*
X142010952Y-108915714D02*
X141610952Y-108915714D01*
X141610952Y-108763333D01*
X141630000Y-108725238D01*
X141649047Y-108706190D01*
X141687142Y-108687142D01*
X141744285Y-108687142D01*
X141782380Y-108706190D01*
X141801428Y-108725238D01*
X141820476Y-108763333D01*
X141820476Y-108915714D01*
X142010952Y-108306190D02*
X142010952Y-108534761D01*
X142010952Y-108420476D02*
X141610952Y-108420476D01*
X141668095Y-108458571D01*
X141706190Y-108496666D01*
X141725238Y-108534761D01*
X141649047Y-108153809D02*
X141630000Y-108134761D01*
X141610952Y-108096666D01*
X141610952Y-108001428D01*
X141630000Y-107963333D01*
X141649047Y-107944285D01*
X141687142Y-107925238D01*
X141725238Y-107925238D01*
X141782380Y-107944285D01*
X142010952Y-108172857D01*
X142010952Y-107925238D01*
D14*
X143868380Y-90836666D02*
X143868380Y-91408095D01*
X143868380Y-91122380D02*
X142868380Y-91122380D01*
X143011238Y-91217619D01*
X143106476Y-91312857D01*
X143154095Y-91408095D01*
X142868380Y-89931904D02*
X142868380Y-90408095D01*
X143344571Y-90455714D01*
X143296952Y-90408095D01*
X143249333Y-90312857D01*
X143249333Y-90074761D01*
X143296952Y-89979523D01*
X143344571Y-89931904D01*
X143439809Y-89884285D01*
X143677904Y-89884285D01*
X143773142Y-89931904D01*
X143820761Y-89979523D01*
X143868380Y-90074761D01*
X143868380Y-90312857D01*
X143820761Y-90408095D01*
X143773142Y-90455714D01*
X142868380Y-89265238D02*
X142868380Y-89170000D01*
X142916000Y-89074761D01*
X142963619Y-89027142D01*
X143058857Y-88979523D01*
X143249333Y-88931904D01*
X143487428Y-88931904D01*
X143677904Y-88979523D01*
X143773142Y-89027142D01*
X143820761Y-89074761D01*
X143868380Y-89170000D01*
X143868380Y-89265238D01*
X143820761Y-89360476D01*
X143773142Y-89408095D01*
X143677904Y-89455714D01*
X143487428Y-89503333D01*
X143249333Y-89503333D01*
X143058857Y-89455714D01*
X142963619Y-89408095D01*
X142916000Y-89360476D01*
X142868380Y-89265238D01*
D16*
X142166952Y-90427142D02*
X141976476Y-90560476D01*
X142166952Y-90655714D02*
X141766952Y-90655714D01*
X141766952Y-90503333D01*
X141786000Y-90465238D01*
X141805047Y-90446190D01*
X141843142Y-90427142D01*
X141900285Y-90427142D01*
X141938380Y-90446190D01*
X141957428Y-90465238D01*
X141976476Y-90503333D01*
X141976476Y-90655714D01*
X142166952Y-90046190D02*
X142166952Y-90274761D01*
X142166952Y-90160476D02*
X141766952Y-90160476D01*
X141824095Y-90198571D01*
X141862190Y-90236666D01*
X141881238Y-90274761D01*
X141766952Y-89912857D02*
X141766952Y-89646190D01*
X142166952Y-89817619D01*
D14*
X150772380Y-131566666D02*
X150772380Y-132138095D01*
X150772380Y-131852380D02*
X149772380Y-131852380D01*
X149915238Y-131947619D01*
X150010476Y-132042857D01*
X150058095Y-132138095D01*
X149772380Y-130661904D02*
X149772380Y-131138095D01*
X150248571Y-131185714D01*
X150200952Y-131138095D01*
X150153333Y-131042857D01*
X150153333Y-130804761D01*
X150200952Y-130709523D01*
X150248571Y-130661904D01*
X150343809Y-130614285D01*
X150581904Y-130614285D01*
X150677142Y-130661904D01*
X150724761Y-130709523D01*
X150772380Y-130804761D01*
X150772380Y-131042857D01*
X150724761Y-131138095D01*
X150677142Y-131185714D01*
X149772380Y-129995238D02*
X149772380Y-129900000D01*
X149820000Y-129804761D01*
X149867619Y-129757142D01*
X149962857Y-129709523D01*
X150153333Y-129661904D01*
X150391428Y-129661904D01*
X150581904Y-129709523D01*
X150677142Y-129757142D01*
X150724761Y-129804761D01*
X150772380Y-129900000D01*
X150772380Y-129995238D01*
X150724761Y-130090476D01*
X150677142Y-130138095D01*
X150581904Y-130185714D01*
X150391428Y-130233333D01*
X150153333Y-130233333D01*
X149962857Y-130185714D01*
X149867619Y-130138095D01*
X149820000Y-130090476D01*
X149772380Y-129995238D01*
D16*
X151930952Y-131157142D02*
X151740476Y-131290476D01*
X151930952Y-131385714D02*
X151530952Y-131385714D01*
X151530952Y-131233333D01*
X151550000Y-131195238D01*
X151569047Y-131176190D01*
X151607142Y-131157142D01*
X151664285Y-131157142D01*
X151702380Y-131176190D01*
X151721428Y-131195238D01*
X151740476Y-131233333D01*
X151740476Y-131385714D01*
X151930952Y-130776190D02*
X151930952Y-131004761D01*
X151930952Y-130890476D02*
X151530952Y-130890476D01*
X151588095Y-130928571D01*
X151626190Y-130966666D01*
X151645238Y-131004761D01*
X151702380Y-130547619D02*
X151683333Y-130585714D01*
X151664285Y-130604761D01*
X151626190Y-130623809D01*
X151607142Y-130623809D01*
X151569047Y-130604761D01*
X151550000Y-130585714D01*
X151530952Y-130547619D01*
X151530952Y-130471428D01*
X151550000Y-130433333D01*
X151569047Y-130414285D01*
X151607142Y-130395238D01*
X151626190Y-130395238D01*
X151664285Y-130414285D01*
X151683333Y-130433333D01*
X151702380Y-130471428D01*
X151702380Y-130547619D01*
X151721428Y-130585714D01*
X151740476Y-130604761D01*
X151778571Y-130623809D01*
X151854761Y-130623809D01*
X151892857Y-130604761D01*
X151911904Y-130585714D01*
X151930952Y-130547619D01*
X151930952Y-130471428D01*
X151911904Y-130433333D01*
X151892857Y-130414285D01*
X151854761Y-130395238D01*
X151778571Y-130395238D01*
X151740476Y-130414285D01*
X151721428Y-130433333D01*
X151702380Y-130471428D01*
D14*
X152082380Y-131566666D02*
X152082380Y-132138095D01*
X152082380Y-131852380D02*
X151082380Y-131852380D01*
X151225238Y-131947619D01*
X151320476Y-132042857D01*
X151368095Y-132138095D01*
X151082380Y-130661904D02*
X151082380Y-131138095D01*
X151558571Y-131185714D01*
X151510952Y-131138095D01*
X151463333Y-131042857D01*
X151463333Y-130804761D01*
X151510952Y-130709523D01*
X151558571Y-130661904D01*
X151653809Y-130614285D01*
X151891904Y-130614285D01*
X151987142Y-130661904D01*
X152034761Y-130709523D01*
X152082380Y-130804761D01*
X152082380Y-131042857D01*
X152034761Y-131138095D01*
X151987142Y-131185714D01*
X151082380Y-129995238D02*
X151082380Y-129900000D01*
X151130000Y-129804761D01*
X151177619Y-129757142D01*
X151272857Y-129709523D01*
X151463333Y-129661904D01*
X151701428Y-129661904D01*
X151891904Y-129709523D01*
X151987142Y-129757142D01*
X152034761Y-129804761D01*
X152082380Y-129900000D01*
X152082380Y-129995238D01*
X152034761Y-130090476D01*
X151987142Y-130138095D01*
X151891904Y-130185714D01*
X151701428Y-130233333D01*
X151463333Y-130233333D01*
X151272857Y-130185714D01*
X151177619Y-130138095D01*
X151130000Y-130090476D01*
X151082380Y-129995238D01*
D16*
X150380952Y-131157142D02*
X150190476Y-131290476D01*
X150380952Y-131385714D02*
X149980952Y-131385714D01*
X149980952Y-131233333D01*
X150000000Y-131195238D01*
X150019047Y-131176190D01*
X150057142Y-131157142D01*
X150114285Y-131157142D01*
X150152380Y-131176190D01*
X150171428Y-131195238D01*
X150190476Y-131233333D01*
X150190476Y-131385714D01*
X150380952Y-130776190D02*
X150380952Y-131004761D01*
X150380952Y-130890476D02*
X149980952Y-130890476D01*
X150038095Y-130928571D01*
X150076190Y-130966666D01*
X150095238Y-131004761D01*
X150380952Y-130585714D02*
X150380952Y-130509523D01*
X150361904Y-130471428D01*
X150342857Y-130452380D01*
X150285714Y-130414285D01*
X150209523Y-130395238D01*
X150057142Y-130395238D01*
X150019047Y-130414285D01*
X150000000Y-130433333D01*
X149980952Y-130471428D01*
X149980952Y-130547619D01*
X150000000Y-130585714D01*
X150019047Y-130604761D01*
X150057142Y-130623809D01*
X150152380Y-130623809D01*
X150190476Y-130604761D01*
X150209523Y-130585714D01*
X150228571Y-130547619D01*
X150228571Y-130471428D01*
X150209523Y-130433333D01*
X150190476Y-130414285D01*
X150152380Y-130395238D01*
D14*
X150482380Y-131554166D02*
X150482380Y-132125595D01*
X150482380Y-131839880D02*
X149482380Y-131839880D01*
X149625238Y-131935119D01*
X149720476Y-132030357D01*
X149768095Y-132125595D01*
X149482380Y-130649404D02*
X149482380Y-131125595D01*
X149958571Y-131173214D01*
X149910952Y-131125595D01*
X149863333Y-131030357D01*
X149863333Y-130792261D01*
X149910952Y-130697023D01*
X149958571Y-130649404D01*
X150053809Y-130601785D01*
X150291904Y-130601785D01*
X150387142Y-130649404D01*
X150434761Y-130697023D01*
X150482380Y-130792261D01*
X150482380Y-131030357D01*
X150434761Y-131125595D01*
X150387142Y-131173214D01*
X149482380Y-129982738D02*
X149482380Y-129887500D01*
X149530000Y-129792261D01*
X149577619Y-129744642D01*
X149672857Y-129697023D01*
X149863333Y-129649404D01*
X150101428Y-129649404D01*
X150291904Y-129697023D01*
X150387142Y-129744642D01*
X150434761Y-129792261D01*
X150482380Y-129887500D01*
X150482380Y-129982738D01*
X150434761Y-130077976D01*
X150387142Y-130125595D01*
X150291904Y-130173214D01*
X150101428Y-130220833D01*
X149863333Y-130220833D01*
X149672857Y-130173214D01*
X149577619Y-130125595D01*
X149530000Y-130077976D01*
X149482380Y-129982738D01*
D16*
X148780952Y-131144642D02*
X148590476Y-131277976D01*
X148780952Y-131373214D02*
X148380952Y-131373214D01*
X148380952Y-131220833D01*
X148400000Y-131182738D01*
X148419047Y-131163690D01*
X148457142Y-131144642D01*
X148514285Y-131144642D01*
X148552380Y-131163690D01*
X148571428Y-131182738D01*
X148590476Y-131220833D01*
X148590476Y-131373214D01*
X148419047Y-130992261D02*
X148400000Y-130973214D01*
X148380952Y-130935119D01*
X148380952Y-130839880D01*
X148400000Y-130801785D01*
X148419047Y-130782738D01*
X148457142Y-130763690D01*
X148495238Y-130763690D01*
X148552380Y-130782738D01*
X148780952Y-131011309D01*
X148780952Y-130763690D01*
X148380952Y-130516071D02*
X148380952Y-130477976D01*
X148400000Y-130439880D01*
X148419047Y-130420833D01*
X148457142Y-130401785D01*
X148533333Y-130382738D01*
X148628571Y-130382738D01*
X148704761Y-130401785D01*
X148742857Y-130420833D01*
X148761904Y-130439880D01*
X148780952Y-130477976D01*
X148780952Y-130516071D01*
X148761904Y-130554166D01*
X148742857Y-130573214D01*
X148704761Y-130592261D01*
X148628571Y-130611309D01*
X148533333Y-130611309D01*
X148457142Y-130592261D01*
X148419047Y-130573214D01*
X148400000Y-130554166D01*
X148380952Y-130516071D01*
D14*
X144122380Y-134566666D02*
X144122380Y-135138095D01*
X144122380Y-134852380D02*
X143122380Y-134852380D01*
X143265238Y-134947619D01*
X143360476Y-135042857D01*
X143408095Y-135138095D01*
X143122380Y-133661904D02*
X143122380Y-134138095D01*
X143598571Y-134185714D01*
X143550952Y-134138095D01*
X143503333Y-134042857D01*
X143503333Y-133804761D01*
X143550952Y-133709523D01*
X143598571Y-133661904D01*
X143693809Y-133614285D01*
X143931904Y-133614285D01*
X144027142Y-133661904D01*
X144074761Y-133709523D01*
X144122380Y-133804761D01*
X144122380Y-134042857D01*
X144074761Y-134138095D01*
X144027142Y-134185714D01*
X143122380Y-132995238D02*
X143122380Y-132900000D01*
X143170000Y-132804761D01*
X143217619Y-132757142D01*
X143312857Y-132709523D01*
X143503333Y-132661904D01*
X143741428Y-132661904D01*
X143931904Y-132709523D01*
X144027142Y-132757142D01*
X144074761Y-132804761D01*
X144122380Y-132900000D01*
X144122380Y-132995238D01*
X144074761Y-133090476D01*
X144027142Y-133138095D01*
X143931904Y-133185714D01*
X143741428Y-133233333D01*
X143503333Y-133233333D01*
X143312857Y-133185714D01*
X143217619Y-133138095D01*
X143170000Y-133090476D01*
X143122380Y-132995238D01*
D16*
X145280952Y-134157142D02*
X145090476Y-134290476D01*
X145280952Y-134385714D02*
X144880952Y-134385714D01*
X144880952Y-134233333D01*
X144900000Y-134195238D01*
X144919047Y-134176190D01*
X144957142Y-134157142D01*
X145014285Y-134157142D01*
X145052380Y-134176190D01*
X145071428Y-134195238D01*
X145090476Y-134233333D01*
X145090476Y-134385714D01*
X144919047Y-134004761D02*
X144900000Y-133985714D01*
X144880952Y-133947619D01*
X144880952Y-133852380D01*
X144900000Y-133814285D01*
X144919047Y-133795238D01*
X144957142Y-133776190D01*
X144995238Y-133776190D01*
X145052380Y-133795238D01*
X145280952Y-134023809D01*
X145280952Y-133776190D01*
X145280952Y-133395238D02*
X145280952Y-133623809D01*
X145280952Y-133509523D02*
X144880952Y-133509523D01*
X144938095Y-133547619D01*
X144976190Y-133585714D01*
X144995238Y-133623809D01*
D17*
X144362714Y-95366523D02*
X143939380Y-94761761D01*
X143637000Y-95366523D02*
X143637000Y-94096523D01*
X144120809Y-94096523D01*
X144241761Y-94157000D01*
X144302238Y-94217476D01*
X144362714Y-94338428D01*
X144362714Y-94519857D01*
X144302238Y-94640809D01*
X144241761Y-94701285D01*
X144120809Y-94761761D01*
X143637000Y-94761761D01*
X144907000Y-94701285D02*
X145330333Y-94701285D01*
X145511761Y-95366523D02*
X144907000Y-95366523D01*
X144907000Y-94096523D01*
X145511761Y-94096523D01*
X145995571Y-95306047D02*
X146177000Y-95366523D01*
X146479380Y-95366523D01*
X146600333Y-95306047D01*
X146660809Y-95245571D01*
X146721285Y-95124619D01*
X146721285Y-95003666D01*
X146660809Y-94882714D01*
X146600333Y-94822238D01*
X146479380Y-94761761D01*
X146237476Y-94701285D01*
X146116523Y-94640809D01*
X146056047Y-94580333D01*
X145995571Y-94459380D01*
X145995571Y-94338428D01*
X146056047Y-94217476D01*
X146116523Y-94157000D01*
X146237476Y-94096523D01*
X146539857Y-94096523D01*
X146721285Y-94157000D01*
X147265571Y-94701285D02*
X147688904Y-94701285D01*
X147870333Y-95366523D02*
X147265571Y-95366523D01*
X147265571Y-94096523D01*
X147870333Y-94096523D01*
X148233190Y-94096523D02*
X148958904Y-94096523D01*
X148596047Y-95366523D02*
X148596047Y-94096523D01*
X150047476Y-95366523D02*
X149321761Y-95366523D01*
X149684619Y-95366523D02*
X149684619Y-94096523D01*
X149563666Y-94277952D01*
X149442714Y-94398904D01*
X149321761Y-94459380D01*
D14*
X150114476Y-92040380D02*
X150114476Y-91040380D01*
X150447809Y-91754666D01*
X150781142Y-91040380D01*
X150781142Y-92040380D01*
X151828761Y-91945142D02*
X151781142Y-91992761D01*
X151638285Y-92040380D01*
X151543047Y-92040380D01*
X151400190Y-91992761D01*
X151304952Y-91897523D01*
X151257333Y-91802285D01*
X151209714Y-91611809D01*
X151209714Y-91468952D01*
X151257333Y-91278476D01*
X151304952Y-91183238D01*
X151400190Y-91088000D01*
X151543047Y-91040380D01*
X151638285Y-91040380D01*
X151781142Y-91088000D01*
X151828761Y-91135619D01*
X152257333Y-92040380D02*
X152257333Y-91040380D01*
X152638285Y-91040380D01*
X152733523Y-91088000D01*
X152781142Y-91135619D01*
X152828761Y-91230857D01*
X152828761Y-91373714D01*
X152781142Y-91468952D01*
X152733523Y-91516571D01*
X152638285Y-91564190D01*
X152257333Y-91564190D01*
X153781142Y-92040380D02*
X153209714Y-92040380D01*
X153495428Y-92040380D02*
X153495428Y-91040380D01*
X153400190Y-91183238D01*
X153304952Y-91278476D01*
X153209714Y-91326095D01*
X154114476Y-91040380D02*
X154733523Y-91040380D01*
X154400190Y-91421333D01*
X154543047Y-91421333D01*
X154638285Y-91468952D01*
X154685904Y-91516571D01*
X154733523Y-91611809D01*
X154733523Y-91849904D01*
X154685904Y-91945142D01*
X154638285Y-91992761D01*
X154543047Y-92040380D01*
X154257333Y-92040380D01*
X154162095Y-91992761D01*
X154114476Y-91945142D01*
X155685904Y-92040380D02*
X155114476Y-92040380D01*
X155400190Y-92040380D02*
X155400190Y-91040380D01*
X155304952Y-91183238D01*
X155209714Y-91278476D01*
X155114476Y-91326095D01*
X156543047Y-91040380D02*
X156352571Y-91040380D01*
X156257333Y-91088000D01*
X156209714Y-91135619D01*
X156114476Y-91278476D01*
X156066857Y-91468952D01*
X156066857Y-91849904D01*
X156114476Y-91945142D01*
X156162095Y-91992761D01*
X156257333Y-92040380D01*
X156447809Y-92040380D01*
X156543047Y-91992761D01*
X156590666Y-91945142D01*
X156638285Y-91849904D01*
X156638285Y-91611809D01*
X156590666Y-91516571D01*
X156543047Y-91468952D01*
X156447809Y-91421333D01*
X156257333Y-91421333D01*
X156162095Y-91468952D01*
X156114476Y-91516571D01*
X156066857Y-91611809D01*
X157066857Y-92040380D02*
X157066857Y-91040380D01*
X157400190Y-91754666D01*
X157733523Y-91040380D01*
X157733523Y-92040380D01*
D18*
X153650190Y-94868952D02*
X154054952Y-94868952D01*
X154102571Y-94845142D01*
X154126380Y-94821333D01*
X154150190Y-94773714D01*
X154150190Y-94678476D01*
X154126380Y-94630857D01*
X154102571Y-94607047D01*
X154054952Y-94583238D01*
X153650190Y-94583238D01*
X154150190Y-94083238D02*
X154150190Y-94368952D01*
X154150190Y-94226095D02*
X153650190Y-94226095D01*
X153721619Y-94273714D01*
X153769238Y-94321333D01*
X153793047Y-94368952D01*
D14*
X150182380Y-134545357D02*
X150182380Y-135021547D01*
X149182380Y-135021547D01*
X149658571Y-134212023D02*
X149658571Y-133878690D01*
X150182380Y-133735833D02*
X150182380Y-134212023D01*
X149182380Y-134212023D01*
X149182380Y-133735833D01*
X150182380Y-133307261D02*
X149182380Y-133307261D01*
X149182380Y-133069166D01*
X149230000Y-132926309D01*
X149325238Y-132831071D01*
X149420476Y-132783452D01*
X149610952Y-132735833D01*
X149753809Y-132735833D01*
X149944285Y-132783452D01*
X150039523Y-132831071D01*
X150134761Y-132926309D01*
X150182380Y-133069166D01*
X150182380Y-133307261D01*
D16*
X148480952Y-134197738D02*
X148080952Y-134197738D01*
X148080952Y-134102500D01*
X148100000Y-134045357D01*
X148138095Y-134007261D01*
X148176190Y-133988214D01*
X148252380Y-133969166D01*
X148309523Y-133969166D01*
X148385714Y-133988214D01*
X148423809Y-134007261D01*
X148461904Y-134045357D01*
X148480952Y-134102500D01*
X148480952Y-134197738D01*
X148480952Y-133588214D02*
X148480952Y-133816785D01*
X148480952Y-133702500D02*
X148080952Y-133702500D01*
X148138095Y-133740595D01*
X148176190Y-133778690D01*
X148195238Y-133816785D01*
D14*
X151822380Y-134582857D02*
X151822380Y-135059047D01*
X150822380Y-135059047D01*
X151298571Y-134249523D02*
X151298571Y-133916190D01*
X151822380Y-133773333D02*
X151822380Y-134249523D01*
X150822380Y-134249523D01*
X150822380Y-133773333D01*
X151822380Y-133344761D02*
X150822380Y-133344761D01*
X150822380Y-133106666D01*
X150870000Y-132963809D01*
X150965238Y-132868571D01*
X151060476Y-132820952D01*
X151250952Y-132773333D01*
X151393809Y-132773333D01*
X151584285Y-132820952D01*
X151679523Y-132868571D01*
X151774761Y-132963809D01*
X151822380Y-133106666D01*
X151822380Y-133344761D01*
D16*
X150120952Y-134235238D02*
X149720952Y-134235238D01*
X149720952Y-134140000D01*
X149740000Y-134082857D01*
X149778095Y-134044761D01*
X149816190Y-134025714D01*
X149892380Y-134006666D01*
X149949523Y-134006666D01*
X150025714Y-134025714D01*
X150063809Y-134044761D01*
X150101904Y-134082857D01*
X150120952Y-134140000D01*
X150120952Y-134235238D01*
X149759047Y-133854285D02*
X149740000Y-133835238D01*
X149720952Y-133797142D01*
X149720952Y-133701904D01*
X149740000Y-133663809D01*
X149759047Y-133644761D01*
X149797142Y-133625714D01*
X149835238Y-133625714D01*
X149892380Y-133644761D01*
X150120952Y-133873333D01*
X150120952Y-133625714D01*
D14*
X153552380Y-134572857D02*
X153552380Y-135049047D01*
X152552380Y-135049047D01*
X153028571Y-134239523D02*
X153028571Y-133906190D01*
X153552380Y-133763333D02*
X153552380Y-134239523D01*
X152552380Y-134239523D01*
X152552380Y-133763333D01*
X153552380Y-133334761D02*
X152552380Y-133334761D01*
X152552380Y-133096666D01*
X152600000Y-132953809D01*
X152695238Y-132858571D01*
X152790476Y-132810952D01*
X152980952Y-132763333D01*
X153123809Y-132763333D01*
X153314285Y-132810952D01*
X153409523Y-132858571D01*
X153504761Y-132953809D01*
X153552380Y-133096666D01*
X153552380Y-133334761D01*
D16*
X151850952Y-134225238D02*
X151450952Y-134225238D01*
X151450952Y-134130000D01*
X151470000Y-134072857D01*
X151508095Y-134034761D01*
X151546190Y-134015714D01*
X151622380Y-133996666D01*
X151679523Y-133996666D01*
X151755714Y-134015714D01*
X151793809Y-134034761D01*
X151831904Y-134072857D01*
X151850952Y-134130000D01*
X151850952Y-134225238D01*
X151450952Y-133863333D02*
X151450952Y-133615714D01*
X151603333Y-133749047D01*
X151603333Y-133691904D01*
X151622380Y-133653809D01*
X151641428Y-133634761D01*
X151679523Y-133615714D01*
X151774761Y-133615714D01*
X151812857Y-133634761D01*
X151831904Y-133653809D01*
X151850952Y-133691904D01*
X151850952Y-133806190D01*
X151831904Y-133844285D01*
X151812857Y-133863333D01*
D14*
X143868380Y-87256857D02*
X143868380Y-87733047D01*
X142868380Y-87733047D01*
X143344571Y-86923523D02*
X143344571Y-86590190D01*
X143868380Y-86447333D02*
X143868380Y-86923523D01*
X142868380Y-86923523D01*
X142868380Y-86447333D01*
X143868380Y-86018761D02*
X142868380Y-86018761D01*
X142868380Y-85780666D01*
X142916000Y-85637809D01*
X143011238Y-85542571D01*
X143106476Y-85494952D01*
X143296952Y-85447333D01*
X143439809Y-85447333D01*
X143630285Y-85494952D01*
X143725523Y-85542571D01*
X143820761Y-85637809D01*
X143868380Y-85780666D01*
X143868380Y-86018761D01*
D16*
X142166952Y-86909238D02*
X141766952Y-86909238D01*
X141766952Y-86814000D01*
X141786000Y-86756857D01*
X141824095Y-86718761D01*
X141862190Y-86699714D01*
X141938380Y-86680666D01*
X141995523Y-86680666D01*
X142071714Y-86699714D01*
X142109809Y-86718761D01*
X142147904Y-86756857D01*
X142166952Y-86814000D01*
X142166952Y-86909238D01*
X141900285Y-86337809D02*
X142166952Y-86337809D01*
X141747904Y-86433047D02*
X142033619Y-86528285D01*
X142033619Y-86280666D01*
M02*
