G04 #@! TF.GenerationSoftware,KiCad,Pcbnew,(5.1.5-0-10_14)*
G04 #@! TF.CreationDate,2020-08-07T08:21:10-07:00*
G04 #@! TF.ProjectId,raptor,72617074-6f72-42e6-9b69-6361645f7063,rev?*
G04 #@! TF.SameCoordinates,Original*
G04 #@! TF.FileFunction,Legend,Bot*
G04 #@! TF.FilePolarity,Positive*
%FSLAX46Y46*%
G04 Gerber Fmt 4.6, Leading zero omitted, Abs format (unit mm)*
G04 Created by KiCad (PCBNEW (5.1.5-0-10_14)) date 2020-08-07 08:21:10*
%MOMM*%
%LPD*%
G04 APERTURE LIST*
%ADD10C,0.100000*%
%ADD11C,0.200000*%
%ADD12C,0.152400*%
%ADD13C,0.120000*%
%ADD14C,0.063500*%
G04 APERTURE END LIST*
D10*
X155130000Y-100950000D02*
X153830000Y-100950000D01*
X155130000Y-97750000D02*
X153830000Y-97750000D01*
D11*
X153080000Y-98250000D02*
X153080000Y-98250000D01*
X153080000Y-98050000D02*
X153080000Y-98050000D01*
X153080000Y-98050000D02*
G75*
G03X153080000Y-98250000I0J-100000D01*
G01*
X153080000Y-98250000D02*
G75*
G03X153080000Y-98050000I0J100000D01*
G01*
D12*
X146735800Y-126009400D02*
G75*
G03X146735800Y-126263400I278676J-127000D01*
G01*
X142265400Y-126060200D02*
G75*
G03X142265400Y-126314200I278676J-127000D01*
G01*
X147574000Y-130073400D02*
G75*
G03X147828000Y-130073400I127000J278676D01*
G01*
D13*
X147863679Y-129491200D02*
X147538121Y-129491200D01*
X147863679Y-128471200D02*
X147538121Y-128471200D01*
X139448000Y-137251221D02*
X139448000Y-137576779D01*
X138428000Y-137251221D02*
X138428000Y-137576779D01*
X154532779Y-94090000D02*
X154207221Y-94090000D01*
X154532779Y-93070000D02*
X154207221Y-93070000D01*
D11*
X141040000Y-96450000D02*
G75*
G03X141040000Y-96450000I-100000J0D01*
G01*
D13*
X142540000Y-102712779D02*
X142540000Y-102387221D01*
X141520000Y-102712779D02*
X141520000Y-102387221D01*
X143487221Y-99540000D02*
X143812779Y-99540000D01*
X143487221Y-98520000D02*
X143812779Y-98520000D01*
X155730000Y-103487221D02*
X155730000Y-103812779D01*
X154710000Y-103487221D02*
X154710000Y-103812779D01*
X143288600Y-110455821D02*
X143288600Y-110781379D01*
X144308600Y-110455821D02*
X144308600Y-110781379D01*
X150912600Y-98284579D02*
X150912600Y-97959021D01*
X149892600Y-98284579D02*
X149892600Y-97959021D01*
X153969300Y-110201821D02*
X153969300Y-110527379D01*
X154989300Y-110201821D02*
X154989300Y-110527379D01*
X155720000Y-106707221D02*
X155720000Y-107032779D01*
X154700000Y-106707221D02*
X154700000Y-107032779D01*
X146813040Y-97882821D02*
X146813040Y-98208379D01*
X145793040Y-97882821D02*
X145793040Y-98208379D01*
X149677221Y-87060000D02*
X150002779Y-87060000D01*
X149677221Y-88080000D02*
X150002779Y-88080000D01*
X146657221Y-88030000D02*
X146982779Y-88030000D01*
X146657221Y-87010000D02*
X146982779Y-87010000D01*
X145248600Y-108826100D02*
X144798600Y-108826100D01*
X144798600Y-108826100D02*
X144798600Y-108376100D01*
X151568600Y-108826100D02*
X152018600Y-108826100D01*
X152018600Y-108826100D02*
X152018600Y-108376100D01*
X145248600Y-101606100D02*
X144798600Y-101606100D01*
X144798600Y-101606100D02*
X144798600Y-102056100D01*
X151568600Y-101606100D02*
X152018600Y-101606100D01*
X152018600Y-101606100D02*
X152018600Y-102056100D01*
X152018600Y-102056100D02*
X153308600Y-102056100D01*
X151819700Y-96160000D02*
X150019700Y-96160000D01*
X150019700Y-92940000D02*
X152469700Y-92940000D01*
X148500000Y-94832779D02*
X148500000Y-94507221D01*
X147480000Y-94832779D02*
X147480000Y-94507221D01*
X141047240Y-102719419D02*
X141047240Y-102393861D01*
X140027240Y-102719419D02*
X140027240Y-102393861D01*
X154197221Y-94590000D02*
X154522779Y-94590000D01*
X154197221Y-95610000D02*
X154522779Y-95610000D01*
X145928760Y-94815179D02*
X145928760Y-94489621D01*
X146948760Y-94815179D02*
X146948760Y-94489621D01*
D14*
X154708502Y-97087045D02*
X154505302Y-97391845D01*
X154505302Y-97087045D02*
X154708502Y-97391845D01*
X154229531Y-97391845D02*
X154403702Y-97391845D01*
X154316617Y-97391845D02*
X154316617Y-97087045D01*
X154345645Y-97130588D01*
X154374674Y-97159617D01*
X154403702Y-97174131D01*
X144409885Y-125904171D02*
X144656628Y-125904171D01*
X144685657Y-125918685D01*
X144700171Y-125933200D01*
X144714685Y-125962228D01*
X144714685Y-126020285D01*
X144700171Y-126049314D01*
X144685657Y-126063828D01*
X144656628Y-126078342D01*
X144409885Y-126078342D01*
X144409885Y-126368628D02*
X144409885Y-126223485D01*
X144555028Y-126208971D01*
X144540514Y-126223485D01*
X144526000Y-126252514D01*
X144526000Y-126325085D01*
X144540514Y-126354114D01*
X144555028Y-126368628D01*
X144584057Y-126383142D01*
X144656628Y-126383142D01*
X144685657Y-126368628D01*
X144700171Y-126354114D01*
X144714685Y-126325085D01*
X144714685Y-126252514D01*
X144700171Y-126223485D01*
X144685657Y-126208971D01*
X139837885Y-125954971D02*
X140084628Y-125954971D01*
X140113657Y-125969485D01*
X140128171Y-125984000D01*
X140142685Y-126013028D01*
X140142685Y-126071085D01*
X140128171Y-126100114D01*
X140113657Y-126114628D01*
X140084628Y-126129142D01*
X139837885Y-126129142D01*
X139939485Y-126404914D02*
X140142685Y-126404914D01*
X139823371Y-126332342D02*
X140041085Y-126259771D01*
X140041085Y-126448457D01*
X147907828Y-132167085D02*
X147907828Y-132413828D01*
X147893314Y-132442857D01*
X147878800Y-132457371D01*
X147849771Y-132471885D01*
X147791714Y-132471885D01*
X147762685Y-132457371D01*
X147748171Y-132442857D01*
X147733657Y-132413828D01*
X147733657Y-132167085D01*
X147617542Y-132167085D02*
X147428857Y-132167085D01*
X147530457Y-132283200D01*
X147486914Y-132283200D01*
X147457885Y-132297714D01*
X147443371Y-132312228D01*
X147428857Y-132341257D01*
X147428857Y-132413828D01*
X147443371Y-132442857D01*
X147457885Y-132457371D01*
X147486914Y-132471885D01*
X147574000Y-132471885D01*
X147603028Y-132457371D01*
X147617542Y-132442857D01*
X147896842Y-128001485D02*
X147998442Y-127856342D01*
X148071014Y-128001485D02*
X148071014Y-127696685D01*
X147954900Y-127696685D01*
X147925871Y-127711200D01*
X147911357Y-127725714D01*
X147896842Y-127754742D01*
X147896842Y-127798285D01*
X147911357Y-127827314D01*
X147925871Y-127841828D01*
X147954900Y-127856342D01*
X148071014Y-127856342D01*
X147780728Y-127725714D02*
X147766214Y-127711200D01*
X147737185Y-127696685D01*
X147664614Y-127696685D01*
X147635585Y-127711200D01*
X147621071Y-127725714D01*
X147606557Y-127754742D01*
X147606557Y-127783771D01*
X147621071Y-127827314D01*
X147795242Y-128001485D01*
X147606557Y-128001485D01*
X147345300Y-127798285D02*
X147345300Y-128001485D01*
X147417871Y-127682171D02*
X147490442Y-127899885D01*
X147301757Y-127899885D01*
X138059885Y-137218057D02*
X137914742Y-137116457D01*
X138059885Y-137043885D02*
X137755085Y-137043885D01*
X137755085Y-137160000D01*
X137769600Y-137189028D01*
X137784114Y-137203542D01*
X137813142Y-137218057D01*
X137856685Y-137218057D01*
X137885714Y-137203542D01*
X137900228Y-137189028D01*
X137914742Y-137160000D01*
X137914742Y-137043885D01*
X138059885Y-137508342D02*
X138059885Y-137334171D01*
X138059885Y-137421257D02*
X137755085Y-137421257D01*
X137798628Y-137392228D01*
X137827657Y-137363200D01*
X137842171Y-137334171D01*
X138059885Y-137798628D02*
X138059885Y-137624457D01*
X138059885Y-137711542D02*
X137755085Y-137711542D01*
X137798628Y-137682514D01*
X137827657Y-137653485D01*
X137842171Y-137624457D01*
X154531942Y-92823885D02*
X154633542Y-92678742D01*
X154706114Y-92823885D02*
X154706114Y-92519085D01*
X154590000Y-92519085D01*
X154560971Y-92533600D01*
X154546457Y-92548114D01*
X154531942Y-92577142D01*
X154531942Y-92620685D01*
X154546457Y-92649714D01*
X154560971Y-92664228D01*
X154590000Y-92678742D01*
X154706114Y-92678742D01*
X154415828Y-92548114D02*
X154401314Y-92533600D01*
X154372285Y-92519085D01*
X154299714Y-92519085D01*
X154270685Y-92533600D01*
X154256171Y-92548114D01*
X154241657Y-92577142D01*
X154241657Y-92606171D01*
X154256171Y-92649714D01*
X154430342Y-92823885D01*
X154241657Y-92823885D01*
X154125542Y-92548114D02*
X154111028Y-92533600D01*
X154082000Y-92519085D01*
X154009428Y-92519085D01*
X153980400Y-92533600D01*
X153965885Y-92548114D01*
X153951371Y-92577142D01*
X153951371Y-92606171D01*
X153965885Y-92649714D01*
X154140057Y-92823885D01*
X153951371Y-92823885D01*
X140856062Y-93914685D02*
X140856062Y-93609885D01*
X140536748Y-93885657D02*
X140551262Y-93900171D01*
X140594805Y-93914685D01*
X140623834Y-93914685D01*
X140667377Y-93900171D01*
X140696405Y-93871142D01*
X140710920Y-93842114D01*
X140725434Y-93784057D01*
X140725434Y-93740514D01*
X140710920Y-93682457D01*
X140696405Y-93653428D01*
X140667377Y-93624400D01*
X140623834Y-93609885D01*
X140594805Y-93609885D01*
X140551262Y-93624400D01*
X140536748Y-93638914D01*
X140260977Y-93609885D02*
X140406120Y-93609885D01*
X140420634Y-93755028D01*
X140406120Y-93740514D01*
X140377091Y-93726000D01*
X140304520Y-93726000D01*
X140275491Y-93740514D01*
X140260977Y-93755028D01*
X140246462Y-93784057D01*
X140246462Y-93856628D01*
X140260977Y-93885657D01*
X140275491Y-93900171D01*
X140304520Y-93914685D01*
X140377091Y-93914685D01*
X140406120Y-93900171D01*
X140420634Y-93885657D01*
X142096800Y-101100857D02*
X142111314Y-101115371D01*
X142154857Y-101129885D01*
X142183885Y-101129885D01*
X142227428Y-101115371D01*
X142256457Y-101086342D01*
X142270971Y-101057314D01*
X142285485Y-100999257D01*
X142285485Y-100955714D01*
X142270971Y-100897657D01*
X142256457Y-100868628D01*
X142227428Y-100839600D01*
X142183885Y-100825085D01*
X142154857Y-100825085D01*
X142111314Y-100839600D01*
X142096800Y-100854114D01*
X141806514Y-101129885D02*
X141980685Y-101129885D01*
X141893600Y-101129885D02*
X141893600Y-100825085D01*
X141922628Y-100868628D01*
X141951657Y-100897657D01*
X141980685Y-100912171D01*
X143700800Y-98158417D02*
X143715314Y-98172931D01*
X143758857Y-98187445D01*
X143787885Y-98187445D01*
X143831428Y-98172931D01*
X143860457Y-98143902D01*
X143874971Y-98114874D01*
X143889485Y-98056817D01*
X143889485Y-98013274D01*
X143874971Y-97955217D01*
X143860457Y-97926188D01*
X143831428Y-97897160D01*
X143787885Y-97882645D01*
X143758857Y-97882645D01*
X143715314Y-97897160D01*
X143700800Y-97911674D01*
X143526628Y-98013274D02*
X143555657Y-97998760D01*
X143570171Y-97984245D01*
X143584685Y-97955217D01*
X143584685Y-97940702D01*
X143570171Y-97911674D01*
X143555657Y-97897160D01*
X143526628Y-97882645D01*
X143468571Y-97882645D01*
X143439542Y-97897160D01*
X143425028Y-97911674D01*
X143410514Y-97940702D01*
X143410514Y-97955217D01*
X143425028Y-97984245D01*
X143439542Y-97998760D01*
X143468571Y-98013274D01*
X143526628Y-98013274D01*
X143555657Y-98027788D01*
X143570171Y-98042302D01*
X143584685Y-98071331D01*
X143584685Y-98129388D01*
X143570171Y-98158417D01*
X143555657Y-98172931D01*
X143526628Y-98187445D01*
X143468571Y-98187445D01*
X143439542Y-98172931D01*
X143425028Y-98158417D01*
X143410514Y-98129388D01*
X143410514Y-98071331D01*
X143425028Y-98042302D01*
X143439542Y-98027788D01*
X143468571Y-98013274D01*
X154274757Y-103454057D02*
X154289271Y-103439542D01*
X154303785Y-103396000D01*
X154303785Y-103366971D01*
X154289271Y-103323428D01*
X154260242Y-103294400D01*
X154231214Y-103279885D01*
X154173157Y-103265371D01*
X154129614Y-103265371D01*
X154071557Y-103279885D01*
X154042528Y-103294400D01*
X154013500Y-103323428D01*
X153998985Y-103366971D01*
X153998985Y-103396000D01*
X154013500Y-103439542D01*
X154028014Y-103454057D01*
X154303785Y-103744342D02*
X154303785Y-103570171D01*
X154303785Y-103657257D02*
X153998985Y-103657257D01*
X154042528Y-103628228D01*
X154071557Y-103599200D01*
X154086071Y-103570171D01*
X153998985Y-104020114D02*
X153998985Y-103874971D01*
X154144128Y-103860457D01*
X154129614Y-103874971D01*
X154115100Y-103904000D01*
X154115100Y-103976571D01*
X154129614Y-104005600D01*
X154144128Y-104020114D01*
X154173157Y-104034628D01*
X154245728Y-104034628D01*
X154274757Y-104020114D01*
X154289271Y-104005600D01*
X154303785Y-103976571D01*
X154303785Y-103904000D01*
X154289271Y-103874971D01*
X154274757Y-103860457D01*
X143003942Y-110727457D02*
X143018457Y-110741971D01*
X143062000Y-110756485D01*
X143091028Y-110756485D01*
X143134571Y-110741971D01*
X143163600Y-110712942D01*
X143178114Y-110683914D01*
X143192628Y-110625857D01*
X143192628Y-110582314D01*
X143178114Y-110524257D01*
X143163600Y-110495228D01*
X143134571Y-110466200D01*
X143091028Y-110451685D01*
X143062000Y-110451685D01*
X143018457Y-110466200D01*
X143003942Y-110480714D01*
X142713657Y-110756485D02*
X142887828Y-110756485D01*
X142800742Y-110756485D02*
X142800742Y-110451685D01*
X142829771Y-110495228D01*
X142858800Y-110524257D01*
X142887828Y-110538771D01*
X142452400Y-110451685D02*
X142510457Y-110451685D01*
X142539485Y-110466200D01*
X142554000Y-110480714D01*
X142583028Y-110524257D01*
X142597542Y-110582314D01*
X142597542Y-110698428D01*
X142583028Y-110727457D01*
X142568514Y-110741971D01*
X142539485Y-110756485D01*
X142481428Y-110756485D01*
X142452400Y-110741971D01*
X142437885Y-110727457D01*
X142423371Y-110698428D01*
X142423371Y-110625857D01*
X142437885Y-110596828D01*
X142452400Y-110582314D01*
X142481428Y-110567800D01*
X142539485Y-110567800D01*
X142568514Y-110582314D01*
X142583028Y-110596828D01*
X142597542Y-110625857D01*
X151639942Y-98230657D02*
X151654457Y-98245171D01*
X151698000Y-98259685D01*
X151727028Y-98259685D01*
X151770571Y-98245171D01*
X151799600Y-98216142D01*
X151814114Y-98187114D01*
X151828628Y-98129057D01*
X151828628Y-98085514D01*
X151814114Y-98027457D01*
X151799600Y-97998428D01*
X151770571Y-97969400D01*
X151727028Y-97954885D01*
X151698000Y-97954885D01*
X151654457Y-97969400D01*
X151639942Y-97983914D01*
X151349657Y-98259685D02*
X151523828Y-98259685D01*
X151436742Y-98259685D02*
X151436742Y-97954885D01*
X151465771Y-97998428D01*
X151494800Y-98027457D01*
X151523828Y-98041971D01*
X151248057Y-97954885D02*
X151044857Y-97954885D01*
X151175485Y-98259685D01*
X155703942Y-110473457D02*
X155718457Y-110487971D01*
X155762000Y-110502485D01*
X155791028Y-110502485D01*
X155834571Y-110487971D01*
X155863600Y-110458942D01*
X155878114Y-110429914D01*
X155892628Y-110371857D01*
X155892628Y-110328314D01*
X155878114Y-110270257D01*
X155863600Y-110241228D01*
X155834571Y-110212200D01*
X155791028Y-110197685D01*
X155762000Y-110197685D01*
X155718457Y-110212200D01*
X155703942Y-110226714D01*
X155587828Y-110226714D02*
X155573314Y-110212200D01*
X155544285Y-110197685D01*
X155471714Y-110197685D01*
X155442685Y-110212200D01*
X155428171Y-110226714D01*
X155413657Y-110255742D01*
X155413657Y-110284771D01*
X155428171Y-110328314D01*
X155602342Y-110502485D01*
X155413657Y-110502485D01*
X155224971Y-110197685D02*
X155195942Y-110197685D01*
X155166914Y-110212200D01*
X155152400Y-110226714D01*
X155137885Y-110255742D01*
X155123371Y-110313800D01*
X155123371Y-110386371D01*
X155137885Y-110444428D01*
X155152400Y-110473457D01*
X155166914Y-110487971D01*
X155195942Y-110502485D01*
X155224971Y-110502485D01*
X155254000Y-110487971D01*
X155268514Y-110473457D01*
X155283028Y-110444428D01*
X155297542Y-110386371D01*
X155297542Y-110313800D01*
X155283028Y-110255742D01*
X155268514Y-110226714D01*
X155254000Y-110212200D01*
X155224971Y-110197685D01*
X154351757Y-107615757D02*
X154366271Y-107601242D01*
X154380785Y-107557700D01*
X154380785Y-107528671D01*
X154366271Y-107485128D01*
X154337242Y-107456100D01*
X154308214Y-107441585D01*
X154250157Y-107427071D01*
X154206614Y-107427071D01*
X154148557Y-107441585D01*
X154119528Y-107456100D01*
X154090500Y-107485128D01*
X154075985Y-107528671D01*
X154075985Y-107557700D01*
X154090500Y-107601242D01*
X154105014Y-107615757D01*
X154105014Y-107731871D02*
X154090500Y-107746385D01*
X154075985Y-107775414D01*
X154075985Y-107847985D01*
X154090500Y-107877014D01*
X154105014Y-107891528D01*
X154134042Y-107906042D01*
X154163071Y-107906042D01*
X154206614Y-107891528D01*
X154380785Y-107717357D01*
X154380785Y-107906042D01*
X154380785Y-108196328D02*
X154380785Y-108022157D01*
X154380785Y-108109242D02*
X154075985Y-108109242D01*
X154119528Y-108080214D01*
X154148557Y-108051185D01*
X154163071Y-108022157D01*
X145280742Y-98154457D02*
X145295257Y-98168971D01*
X145338800Y-98183485D01*
X145367828Y-98183485D01*
X145411371Y-98168971D01*
X145440400Y-98139942D01*
X145454914Y-98110914D01*
X145469428Y-98052857D01*
X145469428Y-98009314D01*
X145454914Y-97951257D01*
X145440400Y-97922228D01*
X145411371Y-97893200D01*
X145367828Y-97878685D01*
X145338800Y-97878685D01*
X145295257Y-97893200D01*
X145280742Y-97907714D01*
X145164628Y-97907714D02*
X145150114Y-97893200D01*
X145121085Y-97878685D01*
X145048514Y-97878685D01*
X145019485Y-97893200D01*
X145004971Y-97907714D01*
X144990457Y-97936742D01*
X144990457Y-97965771D01*
X145004971Y-98009314D01*
X145179142Y-98183485D01*
X144990457Y-98183485D01*
X144874342Y-97907714D02*
X144859828Y-97893200D01*
X144830800Y-97878685D01*
X144758228Y-97878685D01*
X144729200Y-97893200D01*
X144714685Y-97907714D01*
X144700171Y-97936742D01*
X144700171Y-97965771D01*
X144714685Y-98009314D01*
X144888857Y-98183485D01*
X144700171Y-98183485D01*
X150394285Y-86598228D02*
X150495885Y-86598228D01*
X150495885Y-86757885D02*
X150495885Y-86453085D01*
X150350742Y-86453085D01*
X150234628Y-86453085D02*
X150234628Y-86699828D01*
X150220114Y-86728857D01*
X150205600Y-86743371D01*
X150176571Y-86757885D01*
X150118514Y-86757885D01*
X150089485Y-86743371D01*
X150074971Y-86728857D01*
X150060457Y-86699828D01*
X150060457Y-86453085D01*
X149929828Y-86743371D02*
X149886285Y-86757885D01*
X149813714Y-86757885D01*
X149784685Y-86743371D01*
X149770171Y-86728857D01*
X149755657Y-86699828D01*
X149755657Y-86670800D01*
X149770171Y-86641771D01*
X149784685Y-86627257D01*
X149813714Y-86612742D01*
X149871771Y-86598228D01*
X149900800Y-86583714D01*
X149915314Y-86569200D01*
X149929828Y-86540171D01*
X149929828Y-86511142D01*
X149915314Y-86482114D01*
X149900800Y-86467600D01*
X149871771Y-86453085D01*
X149799200Y-86453085D01*
X149755657Y-86467600D01*
X149625028Y-86598228D02*
X149523428Y-86598228D01*
X149479885Y-86757885D02*
X149625028Y-86757885D01*
X149625028Y-86453085D01*
X149479885Y-86453085D01*
X149189600Y-86757885D02*
X149363771Y-86757885D01*
X149276685Y-86757885D02*
X149276685Y-86453085D01*
X149305714Y-86496628D01*
X149334742Y-86525657D01*
X149363771Y-86540171D01*
X147668360Y-86527948D02*
X147769960Y-86527948D01*
X147769960Y-86687605D02*
X147769960Y-86382805D01*
X147624817Y-86382805D01*
X147508702Y-86382805D02*
X147508702Y-86629548D01*
X147494188Y-86658577D01*
X147479674Y-86673091D01*
X147450645Y-86687605D01*
X147392588Y-86687605D01*
X147363560Y-86673091D01*
X147349045Y-86658577D01*
X147334531Y-86629548D01*
X147334531Y-86382805D01*
X147203902Y-86673091D02*
X147160360Y-86687605D01*
X147087788Y-86687605D01*
X147058760Y-86673091D01*
X147044245Y-86658577D01*
X147029731Y-86629548D01*
X147029731Y-86600520D01*
X147044245Y-86571491D01*
X147058760Y-86556977D01*
X147087788Y-86542462D01*
X147145845Y-86527948D01*
X147174874Y-86513434D01*
X147189388Y-86498920D01*
X147203902Y-86469891D01*
X147203902Y-86440862D01*
X147189388Y-86411834D01*
X147174874Y-86397320D01*
X147145845Y-86382805D01*
X147073274Y-86382805D01*
X147029731Y-86397320D01*
X146899102Y-86527948D02*
X146797502Y-86527948D01*
X146753960Y-86687605D02*
X146899102Y-86687605D01*
X146899102Y-86382805D01*
X146753960Y-86382805D01*
X146695902Y-86716634D02*
X146463674Y-86716634D01*
X146333045Y-86382805D02*
X146304017Y-86382805D01*
X146274988Y-86397320D01*
X146260474Y-86411834D01*
X146245960Y-86440862D01*
X146231445Y-86498920D01*
X146231445Y-86571491D01*
X146245960Y-86629548D01*
X146260474Y-86658577D01*
X146274988Y-86673091D01*
X146304017Y-86687605D01*
X146333045Y-86687605D01*
X146362074Y-86673091D01*
X146376588Y-86658577D01*
X146391102Y-86629548D01*
X146405617Y-86571491D01*
X146405617Y-86498920D01*
X146391102Y-86440862D01*
X146376588Y-86411834D01*
X146362074Y-86397320D01*
X146333045Y-86382805D01*
X149709542Y-99859885D02*
X149709542Y-99555085D01*
X149390228Y-99830857D02*
X149404742Y-99845371D01*
X149448285Y-99859885D01*
X149477314Y-99859885D01*
X149520857Y-99845371D01*
X149549885Y-99816342D01*
X149564400Y-99787314D01*
X149578914Y-99729257D01*
X149578914Y-99685714D01*
X149564400Y-99627657D01*
X149549885Y-99598628D01*
X149520857Y-99569600D01*
X149477314Y-99555085D01*
X149448285Y-99555085D01*
X149404742Y-99569600D01*
X149390228Y-99584114D01*
X149274114Y-99584114D02*
X149259600Y-99569600D01*
X149230571Y-99555085D01*
X149158000Y-99555085D01*
X149128971Y-99569600D01*
X149114457Y-99584114D01*
X149099942Y-99613142D01*
X149099942Y-99642171D01*
X149114457Y-99685714D01*
X149288628Y-99859885D01*
X149099942Y-99859885D01*
X151217242Y-96821485D02*
X151217242Y-96516685D01*
X150897928Y-96792457D02*
X150912442Y-96806971D01*
X150955985Y-96821485D01*
X150985014Y-96821485D01*
X151028557Y-96806971D01*
X151057585Y-96777942D01*
X151072100Y-96748914D01*
X151086614Y-96690857D01*
X151086614Y-96647314D01*
X151072100Y-96589257D01*
X151057585Y-96560228D01*
X151028557Y-96531200D01*
X150985014Y-96516685D01*
X150955985Y-96516685D01*
X150912442Y-96531200D01*
X150897928Y-96545714D01*
X150636671Y-96618285D02*
X150636671Y-96821485D01*
X150709242Y-96502171D02*
X150781814Y-96719885D01*
X150593128Y-96719885D01*
X149044800Y-94807885D02*
X149146400Y-94662742D01*
X149218971Y-94807885D02*
X149218971Y-94503085D01*
X149102857Y-94503085D01*
X149073828Y-94517600D01*
X149059314Y-94532114D01*
X149044800Y-94561142D01*
X149044800Y-94604685D01*
X149059314Y-94633714D01*
X149073828Y-94648228D01*
X149102857Y-94662742D01*
X149218971Y-94662742D01*
X148928685Y-94532114D02*
X148914171Y-94517600D01*
X148885142Y-94503085D01*
X148812571Y-94503085D01*
X148783542Y-94517600D01*
X148769028Y-94532114D01*
X148754514Y-94561142D01*
X148754514Y-94590171D01*
X148769028Y-94633714D01*
X148943200Y-94807885D01*
X148754514Y-94807885D01*
X140572800Y-101129885D02*
X140674400Y-100984742D01*
X140746971Y-101129885D02*
X140746971Y-100825085D01*
X140630857Y-100825085D01*
X140601828Y-100839600D01*
X140587314Y-100854114D01*
X140572800Y-100883142D01*
X140572800Y-100926685D01*
X140587314Y-100955714D01*
X140601828Y-100970228D01*
X140630857Y-100984742D01*
X140746971Y-100984742D01*
X140297028Y-100825085D02*
X140442171Y-100825085D01*
X140456685Y-100970228D01*
X140442171Y-100955714D01*
X140413142Y-100941200D01*
X140340571Y-100941200D01*
X140311542Y-100955714D01*
X140297028Y-100970228D01*
X140282514Y-100999257D01*
X140282514Y-101071828D01*
X140297028Y-101100857D01*
X140311542Y-101115371D01*
X140340571Y-101129885D01*
X140413142Y-101129885D01*
X140442171Y-101115371D01*
X140456685Y-101100857D01*
X154386800Y-96125885D02*
X154488400Y-95980742D01*
X154560971Y-96125885D02*
X154560971Y-95821085D01*
X154444857Y-95821085D01*
X154415828Y-95835600D01*
X154401314Y-95850114D01*
X154386800Y-95879142D01*
X154386800Y-95922685D01*
X154401314Y-95951714D01*
X154415828Y-95966228D01*
X154444857Y-95980742D01*
X154560971Y-95980742D01*
X154285200Y-95821085D02*
X154082000Y-95821085D01*
X154212628Y-96125885D01*
X145483942Y-94790285D02*
X145585542Y-94645142D01*
X145658114Y-94790285D02*
X145658114Y-94485485D01*
X145542000Y-94485485D01*
X145512971Y-94500000D01*
X145498457Y-94514514D01*
X145483942Y-94543542D01*
X145483942Y-94587085D01*
X145498457Y-94616114D01*
X145512971Y-94630628D01*
X145542000Y-94645142D01*
X145658114Y-94645142D01*
X145193657Y-94790285D02*
X145367828Y-94790285D01*
X145280742Y-94790285D02*
X145280742Y-94485485D01*
X145309771Y-94529028D01*
X145338800Y-94558057D01*
X145367828Y-94572571D01*
X144932400Y-94587085D02*
X144932400Y-94790285D01*
X145004971Y-94470971D02*
X145077542Y-94688685D01*
X144888857Y-94688685D01*
M02*
