M48
; DRILL file {KiCad (5.1.5-0-10_14)} date Monday, March 23, 2020 at 01:18:02 PM
; FORMAT={3:3/ absolute / metric / suppress leading zeros}
; #@! TF.CreationDate,2020-03-23T13:18:02-07:00
; #@! TF.GenerationSoftware,Kicad,Pcbnew,(5.1.5-0-10_14)
FMAT,2
METRIC,TZ
T1C0.200
T2C0.400
T3C0.550
T4C0.850
T5C1.000
T6C0.800
%
G90
G05
T1
X144742Y-121026
X145644Y-120125
X145644Y-121928
X146545Y-119223
X146545Y-121026
X146545Y-122829
X147447Y-118321
X147447Y-120125
X147447Y-121928
X147447Y-123731
X148349Y-117420
X148349Y-119223
X148349Y-121026
X148349Y-122829
X148349Y-124632
X149250Y-118321
X149250Y-120125
X149250Y-121928
X149250Y-123731
X150152Y-119223
X150152Y-121026
X150152Y-122829
X151053Y-120125
X151053Y-121928
X151955Y-121026
T2
X138938Y-139954
X139504Y-119576
X139589Y-99340
X140208Y-107188
X140371Y-95612
X140608Y-117665
X140862Y-94093
X140909Y-96717
X140961Y-110597
X141224Y-92202
X141224Y-123698
X141379Y-99473
X141586Y-121667
X141710Y-113557
X141747Y-98241
X142003Y-100611
X142240Y-111410
X142240Y-129032
X142350Y-122236
X142420Y-112921
X142562Y-97749
X142654Y-104283
X142704Y-110029
X142748Y-108458
X142963Y-113704
X143007Y-114936
X143099Y-90929
X143243Y-116200
X143459Y-126651
X143492Y-93635
X143510Y-97536
X143905Y-124640
X143916Y-113881
X143941Y-115276
X144004Y-92471
X144104Y-129451
X144212Y-134422
X144272Y-132080
X144354Y-128532
X144368Y-96919
X144782Y-115723
X144887Y-92114
X145034Y-109474
X145034Y-110490
X145334Y-114179
X145733Y-115778
X145814Y-111685
X145870Y-104582
X146118Y-92054
X146304Y-86360
X146740Y-91332
X146845Y-113904
X147030Y-99771
X147044Y-105906
X147146Y-96431
X147146Y-104089
X147230Y-107138
X147320Y-103124
X147464Y-110812
X147574Y-97282
X147668Y-130934
X147742Y-104832
X147828Y-86106
X147900Y-99098
X148146Y-108004
X148336Y-91694
X148336Y-113030
X148345Y-104032
X148546Y-96602
X148590Y-127254
X148748Y-114879
X148844Y-111252
X148974Y-104748
X149098Y-106426
X149651Y-127007
X149741Y-104184
X149860Y-86360
X149860Y-92710
X150392Y-111606
X150578Y-127228
X151239Y-103378
X151277Y-128353
X151426Y-111301
X151892Y-96520
X151895Y-127628
X152136Y-115506
X152143Y-110051
X152261Y-128632
X152285Y-116447
X152654Y-91948
X152757Y-131115
X152800Y-132111
X152884Y-126331
X152908Y-99822
X153085Y-127844
X153104Y-109839
X153161Y-124655
X153162Y-97434
X153451Y-115576
X153629Y-116808
X153671Y-123646
X153815Y-125843
X154178Y-104140
X154653Y-117234
X155448Y-108966
X155702Y-110744
X156064Y-114318
X156064Y-122150
X156172Y-115665
X156292Y-117896
X159308Y-121920
T5
X154600Y-131050
X154600Y-133590
X141920Y-137250
X141920Y-139790
X144460Y-137250
X144460Y-139790
X147000Y-137250
X147000Y-139790
X149540Y-137250
X149540Y-139790
X152080Y-137250
X152080Y-139790
X154620Y-137250
X154620Y-139790
X138410Y-85370
X138410Y-87910
X138410Y-90450
X138410Y-92990
X138410Y-95530
X138410Y-98070
X138410Y-100610
X138410Y-103150
X138410Y-105690
X138410Y-108230
X138410Y-110770
X138410Y-113310
X138410Y-115850
X138410Y-118390
X138410Y-120930
X138410Y-123470
X138410Y-126010
X138410Y-128550
X138410Y-131090
X138410Y-133630
X142060Y-131100
X142060Y-133640
X158255Y-85377
X158255Y-87917
X158255Y-90457
X158255Y-92997
X158255Y-95537
X158255Y-98077
X158255Y-100617
X158255Y-103157
X158255Y-105697
X158255Y-108237
X158255Y-110777
X158255Y-113317
X158255Y-115857
X158255Y-118397
X158255Y-120937
X158255Y-123477
X158255Y-126017
X158255Y-128557
X158255Y-131097
X158255Y-133637
T6
X145790Y-88600
X150790Y-88600
T3
G00X144415Y-86175
M15
G01X144415Y-85525
M16
G05
G00X152165Y-86175
M15
G01X152165Y-85525
M16
G05
T4
G00X144565Y-89925
M15
G01X144565Y-89375
M16
G05
G00X152015Y-89925
M15
G01X152015Y-89375
M16
G05
T0
M30
