G04 #@! TF.GenerationSoftware,KiCad,Pcbnew,(5.1.5-0-10_14)*
G04 #@! TF.CreationDate,2020-08-07T08:21:10-07:00*
G04 #@! TF.ProjectId,raptor,72617074-6f72-42e6-9b69-6361645f7063,rev?*
G04 #@! TF.SameCoordinates,Original*
G04 #@! TF.FileFunction,Legend,Top*
G04 #@! TF.FilePolarity,Positive*
%FSLAX46Y46*%
G04 Gerber Fmt 4.6, Leading zero omitted, Abs format (unit mm)*
G04 Created by KiCad (PCBNEW (5.1.5-0-10_14)) date 2020-08-07 08:21:10*
%MOMM*%
%LPD*%
G04 APERTURE LIST*
%ADD10C,0.114300*%
%ADD11C,0.152400*%
%ADD12C,0.508000*%
%ADD13C,0.203200*%
%ADD14C,0.127000*%
%ADD15C,0.100000*%
%ADD16C,0.200000*%
%ADD17C,0.120000*%
%ADD18C,0.010000*%
%ADD19C,0.063500*%
%ADD20C,0.015000*%
G04 APERTURE END LIST*
D10*
X143594061Y-88070266D02*
X142959061Y-88070266D01*
X142959061Y-87828361D01*
X142989300Y-87767885D01*
X143019538Y-87737647D01*
X143080014Y-87707409D01*
X143170728Y-87707409D01*
X143231204Y-87737647D01*
X143261442Y-87767885D01*
X143291680Y-87828361D01*
X143291680Y-88070266D01*
X142959061Y-87495742D02*
X143594061Y-87344552D01*
X143140490Y-87223600D01*
X143594061Y-87102647D01*
X142959061Y-86951457D01*
X143594061Y-86346695D02*
X143291680Y-86558361D01*
X143594061Y-86709552D02*
X142959061Y-86709552D01*
X142959061Y-86467647D01*
X142989300Y-86407171D01*
X143019538Y-86376933D01*
X143080014Y-86346695D01*
X143170728Y-86346695D01*
X143231204Y-86376933D01*
X143261442Y-86407171D01*
X143291680Y-86467647D01*
X143291680Y-86709552D01*
D11*
X141898914Y-127497114D02*
X141644914Y-127134257D01*
X141463485Y-127497114D02*
X141463485Y-126735114D01*
X141753771Y-126735114D01*
X141826342Y-126771400D01*
X141862628Y-126807685D01*
X141898914Y-126880257D01*
X141898914Y-126989114D01*
X141862628Y-127061685D01*
X141826342Y-127097971D01*
X141753771Y-127134257D01*
X141463485Y-127134257D01*
X142515771Y-127460828D02*
X142443200Y-127497114D01*
X142298057Y-127497114D01*
X142225485Y-127460828D01*
X142189200Y-127388257D01*
X142189200Y-127097971D01*
X142225485Y-127025400D01*
X142298057Y-126989114D01*
X142443200Y-126989114D01*
X142515771Y-127025400D01*
X142552057Y-127097971D01*
X142552057Y-127170542D01*
X142189200Y-127243114D01*
X142806057Y-126989114D02*
X142987485Y-127497114D01*
X143168914Y-126989114D01*
X144039771Y-127497114D02*
X144039771Y-126735114D01*
X144221200Y-126735114D01*
X144330057Y-126771400D01*
X144402628Y-126843971D01*
X144438914Y-126916542D01*
X144475200Y-127061685D01*
X144475200Y-127170542D01*
X144438914Y-127315685D01*
X144402628Y-127388257D01*
X144330057Y-127460828D01*
X144221200Y-127497114D01*
X144039771Y-127497114D01*
D10*
X152458661Y-133781195D02*
X152458661Y-133418338D01*
X153093661Y-133599766D02*
X152458661Y-133599766D01*
X152458661Y-133267147D02*
X153093661Y-132843814D01*
X152458661Y-132843814D02*
X153093661Y-133267147D01*
X153154138Y-132753100D02*
X153154138Y-132269290D01*
X152761042Y-132118100D02*
X152761042Y-131906433D01*
X153093661Y-131815719D02*
X153093661Y-132118100D01*
X152458661Y-132118100D01*
X152458661Y-131815719D01*
X153093661Y-131543576D02*
X152458661Y-131543576D01*
X153093661Y-131180719D01*
X152458661Y-131180719D01*
X144102061Y-133786638D02*
X143467061Y-133786638D01*
X143920633Y-133574971D01*
X143467061Y-133363304D01*
X144102061Y-133363304D01*
X144162538Y-133212114D02*
X144162538Y-132728304D01*
X144071823Y-132607352D02*
X144102061Y-132516638D01*
X144102061Y-132365447D01*
X144071823Y-132304971D01*
X144041585Y-132274733D01*
X143981109Y-132244495D01*
X143920633Y-132244495D01*
X143860157Y-132274733D01*
X143829919Y-132304971D01*
X143799680Y-132365447D01*
X143769442Y-132486400D01*
X143739204Y-132546876D01*
X143708966Y-132577114D01*
X143648490Y-132607352D01*
X143588014Y-132607352D01*
X143527538Y-132577114D01*
X143497300Y-132546876D01*
X143467061Y-132486400D01*
X143467061Y-132335209D01*
X143497300Y-132244495D01*
X143769442Y-131972352D02*
X143769442Y-131760685D01*
X144102061Y-131669971D02*
X144102061Y-131972352D01*
X143467061Y-131972352D01*
X143467061Y-131669971D01*
X144102061Y-131095447D02*
X144102061Y-131397828D01*
X143467061Y-131397828D01*
X156435357Y-86406428D02*
X156435357Y-85922619D01*
X156677261Y-86164523D02*
X156193452Y-86164523D01*
X156042261Y-85317857D02*
X156042261Y-85620238D01*
X156344642Y-85650476D01*
X156314404Y-85620238D01*
X156284166Y-85559761D01*
X156284166Y-85408571D01*
X156314404Y-85348095D01*
X156344642Y-85317857D01*
X156405119Y-85287619D01*
X156556309Y-85287619D01*
X156616785Y-85317857D01*
X156647023Y-85348095D01*
X156677261Y-85408571D01*
X156677261Y-85559761D01*
X156647023Y-85620238D01*
X156616785Y-85650476D01*
X156042261Y-85106190D02*
X156677261Y-84894523D01*
X156042261Y-84682857D01*
X156757261Y-106168690D02*
X156122261Y-106168690D01*
X156122261Y-105926785D01*
X156152500Y-105866309D01*
X156182738Y-105836071D01*
X156243214Y-105805833D01*
X156333928Y-105805833D01*
X156394404Y-105836071D01*
X156424642Y-105866309D01*
X156454880Y-105926785D01*
X156454880Y-106168690D01*
X156122261Y-105594166D02*
X156122261Y-105170833D01*
X156757261Y-105442976D01*
X156116261Y-108976190D02*
X156116261Y-108613333D01*
X156751261Y-108794761D02*
X156116261Y-108794761D01*
X156116261Y-108462142D02*
X156751261Y-108038809D01*
X156116261Y-108038809D02*
X156751261Y-108462142D01*
X156751261Y-107464285D02*
X156751261Y-107827142D01*
X156751261Y-107645714D02*
X156116261Y-107645714D01*
X156206976Y-107706190D01*
X156267452Y-107766666D01*
X156297690Y-107827142D01*
D12*
X154609800Y-119634000D02*
G75*
G03X154609800Y-119634000I-127000J0D01*
G01*
D13*
X142285961Y-114658019D02*
X141947295Y-114174209D01*
X141705390Y-114658019D02*
X141705390Y-113642019D01*
X142092438Y-113642019D01*
X142189200Y-113690400D01*
X142237580Y-113738780D01*
X142285961Y-113835542D01*
X142285961Y-113980685D01*
X142237580Y-114077447D01*
X142189200Y-114125828D01*
X142092438Y-114174209D01*
X141705390Y-114174209D01*
X142673009Y-114367733D02*
X143156819Y-114367733D01*
X142576247Y-114658019D02*
X142914914Y-113642019D01*
X143253580Y-114658019D01*
X143592247Y-114658019D02*
X143592247Y-113642019D01*
X143979295Y-113642019D01*
X144076057Y-113690400D01*
X144124438Y-113738780D01*
X144172819Y-113835542D01*
X144172819Y-113980685D01*
X144124438Y-114077447D01*
X144076057Y-114125828D01*
X143979295Y-114174209D01*
X143592247Y-114174209D01*
X144463104Y-113642019D02*
X145043676Y-113642019D01*
X144753390Y-114658019D02*
X144753390Y-113642019D01*
X145575866Y-113642019D02*
X145769390Y-113642019D01*
X145866152Y-113690400D01*
X145962914Y-113787161D01*
X146011295Y-113980685D01*
X146011295Y-114319352D01*
X145962914Y-114512876D01*
X145866152Y-114609638D01*
X145769390Y-114658019D01*
X145575866Y-114658019D01*
X145479104Y-114609638D01*
X145382342Y-114512876D01*
X145333961Y-114319352D01*
X145333961Y-113980685D01*
X145382342Y-113787161D01*
X145479104Y-113690400D01*
X145575866Y-113642019D01*
X147027295Y-114658019D02*
X146688628Y-114174209D01*
X146446723Y-114658019D02*
X146446723Y-113642019D01*
X146833771Y-113642019D01*
X146930533Y-113690400D01*
X146978914Y-113738780D01*
X147027295Y-113835542D01*
X147027295Y-113980685D01*
X146978914Y-114077447D01*
X146930533Y-114125828D01*
X146833771Y-114174209D01*
X146446723Y-114174209D01*
X143568057Y-115853028D02*
X143906723Y-115853028D01*
X144051866Y-116385219D02*
X143568057Y-116385219D01*
X143568057Y-115369219D01*
X144051866Y-115369219D01*
X144342152Y-115369219D02*
X144680819Y-116385219D01*
X145019485Y-115369219D01*
X145696819Y-115853028D02*
X145841961Y-115901409D01*
X145890342Y-115949790D01*
X145938723Y-116046552D01*
X145938723Y-116191695D01*
X145890342Y-116288457D01*
X145841961Y-116336838D01*
X145745200Y-116385219D01*
X145358152Y-116385219D01*
X145358152Y-115369219D01*
X145696819Y-115369219D01*
X145793580Y-115417600D01*
X145841961Y-115465980D01*
X145890342Y-115562742D01*
X145890342Y-115659504D01*
X145841961Y-115756266D01*
X145793580Y-115804647D01*
X145696819Y-115853028D01*
X145358152Y-115853028D01*
D10*
X156757261Y-103648690D02*
X156122261Y-103648690D01*
X156122261Y-103406785D01*
X156152500Y-103346309D01*
X156182738Y-103316071D01*
X156243214Y-103285833D01*
X156333928Y-103285833D01*
X156394404Y-103316071D01*
X156424642Y-103346309D01*
X156454880Y-103406785D01*
X156454880Y-103648690D01*
X156122261Y-102741547D02*
X156122261Y-102862500D01*
X156152500Y-102922976D01*
X156182738Y-102953214D01*
X156273452Y-103013690D01*
X156394404Y-103043928D01*
X156636309Y-103043928D01*
X156696785Y-103013690D01*
X156727023Y-102983452D01*
X156757261Y-102922976D01*
X156757261Y-102802023D01*
X156727023Y-102741547D01*
X156696785Y-102711309D01*
X156636309Y-102681071D01*
X156485119Y-102681071D01*
X156424642Y-102711309D01*
X156394404Y-102741547D01*
X156364166Y-102802023D01*
X156364166Y-102922976D01*
X156394404Y-102983452D01*
X156424642Y-103013690D01*
X156485119Y-103043928D01*
X156697261Y-88518690D02*
X156062261Y-88518690D01*
X156062261Y-88276785D01*
X156092500Y-88216309D01*
X156122738Y-88186071D01*
X156183214Y-88155833D01*
X156273928Y-88155833D01*
X156334404Y-88186071D01*
X156364642Y-88216309D01*
X156394880Y-88276785D01*
X156394880Y-88518690D01*
X156062261Y-87762738D02*
X156062261Y-87702261D01*
X156092500Y-87641785D01*
X156122738Y-87611547D01*
X156183214Y-87581309D01*
X156304166Y-87551071D01*
X156455357Y-87551071D01*
X156576309Y-87581309D01*
X156636785Y-87611547D01*
X156667023Y-87641785D01*
X156697261Y-87702261D01*
X156697261Y-87762738D01*
X156667023Y-87823214D01*
X156636785Y-87853452D01*
X156576309Y-87883690D01*
X156455357Y-87913928D01*
X156304166Y-87913928D01*
X156183214Y-87883690D01*
X156122738Y-87853452D01*
X156092500Y-87823214D01*
X156062261Y-87762738D01*
X156677261Y-90948690D02*
X156042261Y-90948690D01*
X156042261Y-90706785D01*
X156072500Y-90646309D01*
X156102738Y-90616071D01*
X156163214Y-90585833D01*
X156253928Y-90585833D01*
X156314404Y-90616071D01*
X156344642Y-90646309D01*
X156374880Y-90706785D01*
X156374880Y-90948690D01*
X156677261Y-89981071D02*
X156677261Y-90343928D01*
X156677261Y-90162500D02*
X156042261Y-90162500D01*
X156132976Y-90222976D01*
X156193452Y-90283452D01*
X156223690Y-90343928D01*
X156677261Y-93478690D02*
X156042261Y-93478690D01*
X156042261Y-93236785D01*
X156072500Y-93176309D01*
X156102738Y-93146071D01*
X156163214Y-93115833D01*
X156253928Y-93115833D01*
X156314404Y-93146071D01*
X156344642Y-93176309D01*
X156374880Y-93236785D01*
X156374880Y-93478690D01*
X156102738Y-92873928D02*
X156072500Y-92843690D01*
X156042261Y-92783214D01*
X156042261Y-92632023D01*
X156072500Y-92571547D01*
X156102738Y-92541309D01*
X156163214Y-92511071D01*
X156223690Y-92511071D01*
X156314404Y-92541309D01*
X156677261Y-92904166D01*
X156677261Y-92511071D01*
X156700461Y-95972690D02*
X156065461Y-95972690D01*
X156065461Y-95730785D01*
X156095700Y-95670309D01*
X156125938Y-95640071D01*
X156186414Y-95609833D01*
X156277128Y-95609833D01*
X156337604Y-95640071D01*
X156367842Y-95670309D01*
X156398080Y-95730785D01*
X156398080Y-95972690D01*
X156065461Y-95398166D02*
X156065461Y-95005071D01*
X156307366Y-95216738D01*
X156307366Y-95126023D01*
X156337604Y-95065547D01*
X156367842Y-95035309D01*
X156428319Y-95005071D01*
X156579509Y-95005071D01*
X156639985Y-95035309D01*
X156670223Y-95065547D01*
X156700461Y-95126023D01*
X156700461Y-95307452D01*
X156670223Y-95367928D01*
X156639985Y-95398166D01*
X156700461Y-98563490D02*
X156065461Y-98563490D01*
X156065461Y-98321585D01*
X156095700Y-98261109D01*
X156125938Y-98230871D01*
X156186414Y-98200633D01*
X156277128Y-98200633D01*
X156337604Y-98230871D01*
X156367842Y-98261109D01*
X156398080Y-98321585D01*
X156398080Y-98563490D01*
X156277128Y-97656347D02*
X156700461Y-97656347D01*
X156035223Y-97807538D02*
X156488795Y-97958728D01*
X156488795Y-97565633D01*
X156807261Y-100968690D02*
X156172261Y-100968690D01*
X156172261Y-100726785D01*
X156202500Y-100666309D01*
X156232738Y-100636071D01*
X156293214Y-100605833D01*
X156383928Y-100605833D01*
X156444404Y-100636071D01*
X156474642Y-100666309D01*
X156504880Y-100726785D01*
X156504880Y-100968690D01*
X156172261Y-100031309D02*
X156172261Y-100333690D01*
X156474642Y-100363928D01*
X156444404Y-100333690D01*
X156414166Y-100273214D01*
X156414166Y-100122023D01*
X156444404Y-100061547D01*
X156474642Y-100031309D01*
X156535119Y-100001071D01*
X156686309Y-100001071D01*
X156746785Y-100031309D01*
X156777023Y-100061547D01*
X156807261Y-100122023D01*
X156807261Y-100273214D01*
X156777023Y-100333690D01*
X156746785Y-100363928D01*
X156857261Y-111158214D02*
X156554880Y-111369880D01*
X156857261Y-111521071D02*
X156222261Y-111521071D01*
X156222261Y-111279166D01*
X156252500Y-111218690D01*
X156282738Y-111188452D01*
X156343214Y-111158214D01*
X156433928Y-111158214D01*
X156494404Y-111188452D01*
X156524642Y-111218690D01*
X156554880Y-111279166D01*
X156554880Y-111521071D01*
X156222261Y-110946547D02*
X156857261Y-110523214D01*
X156222261Y-110523214D02*
X156857261Y-110946547D01*
X156857261Y-109948690D02*
X156857261Y-110311547D01*
X156857261Y-110130119D02*
X156222261Y-110130119D01*
X156312976Y-110190595D01*
X156373452Y-110251071D01*
X156403690Y-110311547D01*
X156737023Y-114161071D02*
X156767261Y-114070357D01*
X156767261Y-113919166D01*
X156737023Y-113858690D01*
X156706785Y-113828452D01*
X156646309Y-113798214D01*
X156585833Y-113798214D01*
X156525357Y-113828452D01*
X156495119Y-113858690D01*
X156464880Y-113919166D01*
X156434642Y-114040119D01*
X156404404Y-114100595D01*
X156374166Y-114130833D01*
X156313690Y-114161071D01*
X156253214Y-114161071D01*
X156192738Y-114130833D01*
X156162500Y-114100595D01*
X156132261Y-114040119D01*
X156132261Y-113888928D01*
X156162500Y-113798214D01*
X156767261Y-113526071D02*
X156132261Y-113526071D01*
X156132261Y-113374880D01*
X156162500Y-113284166D01*
X156222976Y-113223690D01*
X156283452Y-113193452D01*
X156404404Y-113163214D01*
X156495119Y-113163214D01*
X156616071Y-113193452D01*
X156676547Y-113223690D01*
X156737023Y-113284166D01*
X156767261Y-113374880D01*
X156767261Y-113526071D01*
X156585833Y-112921309D02*
X156585833Y-112618928D01*
X156767261Y-112981785D02*
X156132261Y-112770119D01*
X156767261Y-112558452D01*
X156797023Y-116735952D02*
X156827261Y-116645238D01*
X156827261Y-116494047D01*
X156797023Y-116433571D01*
X156766785Y-116403333D01*
X156706309Y-116373095D01*
X156645833Y-116373095D01*
X156585357Y-116403333D01*
X156555119Y-116433571D01*
X156524880Y-116494047D01*
X156494642Y-116615000D01*
X156464404Y-116675476D01*
X156434166Y-116705714D01*
X156373690Y-116735952D01*
X156313214Y-116735952D01*
X156252738Y-116705714D01*
X156222500Y-116675476D01*
X156192261Y-116615000D01*
X156192261Y-116463809D01*
X156222500Y-116373095D01*
X156766785Y-115738095D02*
X156797023Y-115768333D01*
X156827261Y-115859047D01*
X156827261Y-115919523D01*
X156797023Y-116010238D01*
X156736547Y-116070714D01*
X156676071Y-116100952D01*
X156555119Y-116131190D01*
X156464404Y-116131190D01*
X156343452Y-116100952D01*
X156282976Y-116070714D01*
X156222500Y-116010238D01*
X156192261Y-115919523D01*
X156192261Y-115859047D01*
X156222500Y-115768333D01*
X156252738Y-115738095D01*
X156827261Y-115163571D02*
X156827261Y-115465952D01*
X156192261Y-115465952D01*
X156806785Y-119048214D02*
X156837023Y-119078452D01*
X156867261Y-119169166D01*
X156867261Y-119229642D01*
X156837023Y-119320357D01*
X156776547Y-119380833D01*
X156716071Y-119411071D01*
X156595119Y-119441309D01*
X156504404Y-119441309D01*
X156383452Y-119411071D01*
X156322976Y-119380833D01*
X156262500Y-119320357D01*
X156232261Y-119229642D01*
X156232261Y-119169166D01*
X156262500Y-119078452D01*
X156292738Y-119048214D01*
X156837023Y-118806309D02*
X156867261Y-118715595D01*
X156867261Y-118564404D01*
X156837023Y-118503928D01*
X156806785Y-118473690D01*
X156746309Y-118443452D01*
X156685833Y-118443452D01*
X156625357Y-118473690D01*
X156595119Y-118503928D01*
X156564880Y-118564404D01*
X156534642Y-118685357D01*
X156504404Y-118745833D01*
X156474166Y-118776071D01*
X156413690Y-118806309D01*
X156353214Y-118806309D01*
X156292738Y-118776071D01*
X156262500Y-118745833D01*
X156232261Y-118685357D01*
X156232261Y-118534166D01*
X156262500Y-118443452D01*
X156867261Y-117838690D02*
X156867261Y-118201547D01*
X156867261Y-118020119D02*
X156232261Y-118020119D01*
X156322976Y-118080595D01*
X156383452Y-118141071D01*
X156413690Y-118201547D01*
X156767023Y-122118809D02*
X156797261Y-122028095D01*
X156797261Y-121876904D01*
X156767023Y-121816428D01*
X156736785Y-121786190D01*
X156676309Y-121755952D01*
X156615833Y-121755952D01*
X156555357Y-121786190D01*
X156525119Y-121816428D01*
X156494880Y-121876904D01*
X156464642Y-121997857D01*
X156434404Y-122058333D01*
X156404166Y-122088571D01*
X156343690Y-122118809D01*
X156283214Y-122118809D01*
X156222738Y-122088571D01*
X156192500Y-122058333D01*
X156162261Y-121997857D01*
X156162261Y-121846666D01*
X156192500Y-121755952D01*
X156736785Y-121120952D02*
X156767023Y-121151190D01*
X156797261Y-121241904D01*
X156797261Y-121302380D01*
X156767023Y-121393095D01*
X156706547Y-121453571D01*
X156646071Y-121483809D01*
X156525119Y-121514047D01*
X156434404Y-121514047D01*
X156313452Y-121483809D01*
X156252976Y-121453571D01*
X156192500Y-121393095D01*
X156162261Y-121302380D01*
X156162261Y-121241904D01*
X156192500Y-121151190D01*
X156222738Y-121120952D01*
X156797261Y-120848809D02*
X156162261Y-120848809D01*
X156797261Y-120485952D02*
X156434404Y-120758095D01*
X156162261Y-120485952D02*
X156525119Y-120848809D01*
X156797261Y-119881190D02*
X156797261Y-120244047D01*
X156797261Y-120062619D02*
X156162261Y-120062619D01*
X156252976Y-120123095D01*
X156313452Y-120183571D01*
X156343690Y-120244047D01*
X156721023Y-124396500D02*
X156751261Y-124305785D01*
X156751261Y-124154595D01*
X156721023Y-124094119D01*
X156690785Y-124063880D01*
X156630309Y-124033642D01*
X156569833Y-124033642D01*
X156509357Y-124063880D01*
X156479119Y-124094119D01*
X156448880Y-124154595D01*
X156418642Y-124275547D01*
X156388404Y-124336023D01*
X156358166Y-124366261D01*
X156297690Y-124396500D01*
X156237214Y-124396500D01*
X156176738Y-124366261D01*
X156146500Y-124336023D01*
X156116261Y-124275547D01*
X156116261Y-124124357D01*
X156146500Y-124033642D01*
X156751261Y-123761500D02*
X156116261Y-123761500D01*
X156116261Y-123610309D01*
X156146500Y-123519595D01*
X156206976Y-123459119D01*
X156267452Y-123428880D01*
X156388404Y-123398642D01*
X156479119Y-123398642D01*
X156600071Y-123428880D01*
X156660547Y-123459119D01*
X156721023Y-123519595D01*
X156751261Y-123610309D01*
X156751261Y-123761500D01*
X156751261Y-123126500D02*
X156116261Y-123126500D01*
X156751261Y-122491500D02*
X156751261Y-122854357D01*
X156751261Y-122672928D02*
X156116261Y-122672928D01*
X156206976Y-122733404D01*
X156267452Y-122793880D01*
X156297690Y-122854357D01*
X156707023Y-127133928D02*
X156737261Y-127043214D01*
X156737261Y-126892023D01*
X156707023Y-126831547D01*
X156676785Y-126801309D01*
X156616309Y-126771071D01*
X156555833Y-126771071D01*
X156495357Y-126801309D01*
X156465119Y-126831547D01*
X156434880Y-126892023D01*
X156404642Y-127012976D01*
X156374404Y-127073452D01*
X156344166Y-127103690D01*
X156283690Y-127133928D01*
X156223214Y-127133928D01*
X156162738Y-127103690D01*
X156132500Y-127073452D01*
X156102261Y-127012976D01*
X156102261Y-126861785D01*
X156132500Y-126771071D01*
X156737261Y-126498928D02*
X156102261Y-126498928D01*
X156102261Y-126347738D01*
X156132500Y-126257023D01*
X156192976Y-126196547D01*
X156253452Y-126166309D01*
X156374404Y-126136071D01*
X156465119Y-126136071D01*
X156586071Y-126166309D01*
X156646547Y-126196547D01*
X156707023Y-126257023D01*
X156737261Y-126347738D01*
X156737261Y-126498928D01*
X156102261Y-125742976D02*
X156102261Y-125622023D01*
X156132500Y-125561547D01*
X156192976Y-125501071D01*
X156313928Y-125470833D01*
X156525595Y-125470833D01*
X156646547Y-125501071D01*
X156707023Y-125561547D01*
X156737261Y-125622023D01*
X156737261Y-125742976D01*
X156707023Y-125803452D01*
X156646547Y-125863928D01*
X156525595Y-125894166D01*
X156313928Y-125894166D01*
X156192976Y-125863928D01*
X156132500Y-125803452D01*
X156102261Y-125742976D01*
X156737261Y-124866071D02*
X156737261Y-125228928D01*
X156737261Y-125047500D02*
X156102261Y-125047500D01*
X156192976Y-125107976D01*
X156253452Y-125168452D01*
X156283690Y-125228928D01*
X156092261Y-129376190D02*
X156092261Y-129013333D01*
X156727261Y-129194761D02*
X156092261Y-129194761D01*
X156092261Y-128862142D02*
X156727261Y-128438809D01*
X156092261Y-128438809D02*
X156727261Y-128862142D01*
X156092261Y-128075952D02*
X156092261Y-128015476D01*
X156122500Y-127955000D01*
X156152738Y-127924761D01*
X156213214Y-127894523D01*
X156334166Y-127864285D01*
X156485357Y-127864285D01*
X156606309Y-127894523D01*
X156666785Y-127924761D01*
X156697023Y-127955000D01*
X156727261Y-128015476D01*
X156727261Y-128075952D01*
X156697023Y-128136428D01*
X156666785Y-128166666D01*
X156606309Y-128196904D01*
X156485357Y-128227142D01*
X156334166Y-128227142D01*
X156213214Y-128196904D01*
X156152738Y-128166666D01*
X156122500Y-128136428D01*
X156092261Y-128075952D01*
X156092261Y-131850190D02*
X156092261Y-131487333D01*
X156727261Y-131668761D02*
X156092261Y-131668761D01*
X156092261Y-131336142D02*
X156727261Y-130912809D01*
X156092261Y-130912809D02*
X156727261Y-131336142D01*
X156727261Y-130338285D02*
X156727261Y-130701142D01*
X156727261Y-130519714D02*
X156092261Y-130519714D01*
X156182976Y-130580190D01*
X156243452Y-130640666D01*
X156273690Y-130701142D01*
X156192500Y-134087809D02*
X156162261Y-134148285D01*
X156162261Y-134239000D01*
X156192500Y-134329714D01*
X156252976Y-134390190D01*
X156313452Y-134420428D01*
X156434404Y-134450666D01*
X156525119Y-134450666D01*
X156646071Y-134420428D01*
X156706547Y-134390190D01*
X156767023Y-134329714D01*
X156797261Y-134239000D01*
X156797261Y-134178523D01*
X156767023Y-134087809D01*
X156736785Y-134057571D01*
X156525119Y-134057571D01*
X156525119Y-134178523D01*
X156797261Y-133785428D02*
X156162261Y-133785428D01*
X156797261Y-133422571D01*
X156162261Y-133422571D01*
X156797261Y-133120190D02*
X156162261Y-133120190D01*
X156162261Y-132969000D01*
X156192500Y-132878285D01*
X156252976Y-132817809D01*
X156313452Y-132787571D01*
X156434404Y-132757333D01*
X156525119Y-132757333D01*
X156646071Y-132787571D01*
X156706547Y-132817809D01*
X156767023Y-132878285D01*
X156797261Y-132969000D01*
X156797261Y-133120190D01*
X140426785Y-133555833D02*
X140457023Y-133586071D01*
X140487261Y-133676785D01*
X140487261Y-133737261D01*
X140457023Y-133827976D01*
X140396547Y-133888452D01*
X140336071Y-133918690D01*
X140215119Y-133948928D01*
X140124404Y-133948928D01*
X140003452Y-133918690D01*
X139942976Y-133888452D01*
X139882500Y-133827976D01*
X139852261Y-133737261D01*
X139852261Y-133676785D01*
X139882500Y-133586071D01*
X139912738Y-133555833D01*
X140487261Y-132951071D02*
X140487261Y-133313928D01*
X140487261Y-133132500D02*
X139852261Y-133132500D01*
X139942976Y-133192976D01*
X140003452Y-133253452D01*
X140033690Y-133313928D01*
X140416785Y-131065833D02*
X140447023Y-131096071D01*
X140477261Y-131186785D01*
X140477261Y-131247261D01*
X140447023Y-131337976D01*
X140386547Y-131398452D01*
X140326071Y-131428690D01*
X140205119Y-131458928D01*
X140114404Y-131458928D01*
X139993452Y-131428690D01*
X139932976Y-131398452D01*
X139872500Y-131337976D01*
X139842261Y-131247261D01*
X139842261Y-131186785D01*
X139872500Y-131096071D01*
X139902738Y-131065833D01*
X139842261Y-130672738D02*
X139842261Y-130612261D01*
X139872500Y-130551785D01*
X139902738Y-130521547D01*
X139963214Y-130491309D01*
X140084166Y-130461071D01*
X140235357Y-130461071D01*
X140356309Y-130491309D01*
X140416785Y-130521547D01*
X140447023Y-130551785D01*
X140477261Y-130612261D01*
X140477261Y-130672738D01*
X140447023Y-130733214D01*
X140416785Y-130763452D01*
X140356309Y-130793690D01*
X140235357Y-130823928D01*
X140084166Y-130823928D01*
X139963214Y-130793690D01*
X139902738Y-130763452D01*
X139872500Y-130733214D01*
X139842261Y-130672738D01*
X140495261Y-129361547D02*
X139860261Y-129361547D01*
X139860261Y-129119642D01*
X139890500Y-129059166D01*
X139920738Y-129028928D01*
X139981214Y-128998690D01*
X140071928Y-128998690D01*
X140132404Y-129028928D01*
X140162642Y-129059166D01*
X140192880Y-129119642D01*
X140192880Y-129361547D01*
X139860261Y-128787023D02*
X140495261Y-128635833D01*
X140041690Y-128514880D01*
X140495261Y-128393928D01*
X139860261Y-128242738D01*
X140495261Y-127668214D02*
X140495261Y-128031071D01*
X140495261Y-127849642D02*
X139860261Y-127849642D01*
X139950976Y-127910119D01*
X140011452Y-127970595D01*
X140041690Y-128031071D01*
X140495261Y-126815547D02*
X139860261Y-126815547D01*
X139860261Y-126573642D01*
X139890500Y-126513166D01*
X139920738Y-126482928D01*
X139981214Y-126452690D01*
X140071928Y-126452690D01*
X140132404Y-126482928D01*
X140162642Y-126513166D01*
X140192880Y-126573642D01*
X140192880Y-126815547D01*
X139860261Y-126241023D02*
X140495261Y-126089833D01*
X140041690Y-125968880D01*
X140495261Y-125847928D01*
X139860261Y-125696738D01*
X139860261Y-125333880D02*
X139860261Y-125273404D01*
X139890500Y-125212928D01*
X139920738Y-125182690D01*
X139981214Y-125152452D01*
X140102166Y-125122214D01*
X140253357Y-125122214D01*
X140374309Y-125152452D01*
X140434785Y-125182690D01*
X140465023Y-125212928D01*
X140495261Y-125273404D01*
X140495261Y-125333880D01*
X140465023Y-125394357D01*
X140434785Y-125424595D01*
X140374309Y-125454833D01*
X140253357Y-125485071D01*
X140102166Y-125485071D01*
X139981214Y-125454833D01*
X139920738Y-125424595D01*
X139890500Y-125394357D01*
X139860261Y-125333880D01*
X139860261Y-124125000D02*
X139860261Y-124004047D01*
X139890500Y-123943571D01*
X139950976Y-123883095D01*
X140071928Y-123852857D01*
X140283595Y-123852857D01*
X140404547Y-123883095D01*
X140465023Y-123943571D01*
X140495261Y-124004047D01*
X140495261Y-124125000D01*
X140465023Y-124185476D01*
X140404547Y-124245952D01*
X140283595Y-124276190D01*
X140071928Y-124276190D01*
X139950976Y-124245952D01*
X139890500Y-124185476D01*
X139860261Y-124125000D01*
X139860261Y-123580714D02*
X140374309Y-123580714D01*
X140434785Y-123550476D01*
X140465023Y-123520238D01*
X140495261Y-123459761D01*
X140495261Y-123338809D01*
X140465023Y-123278333D01*
X140434785Y-123248095D01*
X140374309Y-123217857D01*
X139860261Y-123217857D01*
X139860261Y-123006190D02*
X139860261Y-122643333D01*
X140495261Y-122824761D02*
X139860261Y-122824761D01*
X139326861Y-86190666D02*
X139961861Y-85979000D01*
X139326861Y-85767333D01*
X139961861Y-85555666D02*
X139326861Y-85555666D01*
X139326861Y-85404476D01*
X139357100Y-85313761D01*
X139417576Y-85253285D01*
X139478052Y-85223047D01*
X139599004Y-85192809D01*
X139689719Y-85192809D01*
X139810671Y-85223047D01*
X139871147Y-85253285D01*
X139931623Y-85313761D01*
X139961861Y-85404476D01*
X139961861Y-85555666D01*
X139961861Y-84920666D02*
X139326861Y-84920666D01*
X139326861Y-84769476D01*
X139357100Y-84678761D01*
X139417576Y-84618285D01*
X139478052Y-84588047D01*
X139599004Y-84557809D01*
X139689719Y-84557809D01*
X139810671Y-84588047D01*
X139871147Y-84618285D01*
X139931623Y-84678761D01*
X139961861Y-84769476D01*
X139961861Y-84920666D01*
X141270566Y-86190666D02*
X141240328Y-86220904D01*
X141149614Y-86281380D01*
X141089138Y-86311619D01*
X140998423Y-86341857D01*
X140847233Y-86372095D01*
X140726280Y-86372095D01*
X140575090Y-86341857D01*
X140484376Y-86311619D01*
X140423900Y-86281380D01*
X140333185Y-86220904D01*
X140302947Y-86190666D01*
X140393661Y-86009238D02*
X140393661Y-85616142D01*
X140635566Y-85827809D01*
X140635566Y-85737095D01*
X140665804Y-85676619D01*
X140696042Y-85646380D01*
X140756519Y-85616142D01*
X140907709Y-85616142D01*
X140968185Y-85646380D01*
X140998423Y-85676619D01*
X141028661Y-85737095D01*
X141028661Y-85918523D01*
X140998423Y-85979000D01*
X140968185Y-86009238D01*
X140968185Y-85344000D02*
X140998423Y-85313761D01*
X141028661Y-85344000D01*
X140998423Y-85374238D01*
X140968185Y-85344000D01*
X141028661Y-85344000D01*
X140393661Y-85102095D02*
X140393661Y-84709000D01*
X140635566Y-84920666D01*
X140635566Y-84829952D01*
X140665804Y-84769476D01*
X140696042Y-84739238D01*
X140756519Y-84709000D01*
X140907709Y-84709000D01*
X140968185Y-84739238D01*
X140998423Y-84769476D01*
X141028661Y-84829952D01*
X141028661Y-85011380D01*
X140998423Y-85071857D01*
X140968185Y-85102095D01*
X141270566Y-84497333D02*
X141240328Y-84467095D01*
X141149614Y-84406619D01*
X141089138Y-84376380D01*
X140998423Y-84346142D01*
X140847233Y-84315904D01*
X140726280Y-84315904D01*
X140575090Y-84346142D01*
X140484376Y-84376380D01*
X140423900Y-84406619D01*
X140333185Y-84467095D01*
X140302947Y-84497333D01*
X140313833Y-88639952D02*
X140313833Y-88337571D01*
X140495261Y-88700428D02*
X139860261Y-88488761D01*
X140495261Y-88277095D01*
X139860261Y-87944476D02*
X139860261Y-87884000D01*
X139890500Y-87823523D01*
X139920738Y-87793285D01*
X139981214Y-87763047D01*
X140102166Y-87732809D01*
X140253357Y-87732809D01*
X140374309Y-87763047D01*
X140434785Y-87793285D01*
X140465023Y-87823523D01*
X140495261Y-87884000D01*
X140495261Y-87944476D01*
X140465023Y-88004952D01*
X140434785Y-88035190D01*
X140374309Y-88065428D01*
X140253357Y-88095666D01*
X140102166Y-88095666D01*
X139981214Y-88065428D01*
X139920738Y-88035190D01*
X139890500Y-88004952D01*
X139860261Y-87944476D01*
X139860261Y-87339714D02*
X139860261Y-87279238D01*
X139890500Y-87218761D01*
X139920738Y-87188523D01*
X139981214Y-87158285D01*
X140102166Y-87128047D01*
X140253357Y-87128047D01*
X140374309Y-87158285D01*
X140434785Y-87188523D01*
X140465023Y-87218761D01*
X140495261Y-87279238D01*
X140495261Y-87339714D01*
X140465023Y-87400190D01*
X140434785Y-87430428D01*
X140374309Y-87460666D01*
X140253357Y-87490904D01*
X140102166Y-87490904D01*
X139981214Y-87460666D01*
X139920738Y-87430428D01*
X139890500Y-87400190D01*
X139860261Y-87339714D01*
X140313833Y-91230752D02*
X140313833Y-90928371D01*
X140495261Y-91291228D02*
X139860261Y-91079561D01*
X140495261Y-90867895D01*
X139860261Y-90535276D02*
X139860261Y-90474800D01*
X139890500Y-90414323D01*
X139920738Y-90384085D01*
X139981214Y-90353847D01*
X140102166Y-90323609D01*
X140253357Y-90323609D01*
X140374309Y-90353847D01*
X140434785Y-90384085D01*
X140465023Y-90414323D01*
X140495261Y-90474800D01*
X140495261Y-90535276D01*
X140465023Y-90595752D01*
X140434785Y-90625990D01*
X140374309Y-90656228D01*
X140253357Y-90686466D01*
X140102166Y-90686466D01*
X139981214Y-90656228D01*
X139920738Y-90625990D01*
X139890500Y-90595752D01*
X139860261Y-90535276D01*
X140495261Y-89718847D02*
X140495261Y-90081704D01*
X140495261Y-89900276D02*
X139860261Y-89900276D01*
X139950976Y-89960752D01*
X140011452Y-90021228D01*
X140041690Y-90081704D01*
X140313833Y-93719952D02*
X140313833Y-93417571D01*
X140495261Y-93780428D02*
X139860261Y-93568761D01*
X140495261Y-93357095D01*
X139860261Y-93024476D02*
X139860261Y-92964000D01*
X139890500Y-92903523D01*
X139920738Y-92873285D01*
X139981214Y-92843047D01*
X140102166Y-92812809D01*
X140253357Y-92812809D01*
X140374309Y-92843047D01*
X140434785Y-92873285D01*
X140465023Y-92903523D01*
X140495261Y-92964000D01*
X140495261Y-93024476D01*
X140465023Y-93084952D01*
X140434785Y-93115190D01*
X140374309Y-93145428D01*
X140253357Y-93175666D01*
X140102166Y-93175666D01*
X139981214Y-93145428D01*
X139920738Y-93115190D01*
X139890500Y-93084952D01*
X139860261Y-93024476D01*
X139920738Y-92570904D02*
X139890500Y-92540666D01*
X139860261Y-92480190D01*
X139860261Y-92329000D01*
X139890500Y-92268523D01*
X139920738Y-92238285D01*
X139981214Y-92208047D01*
X140041690Y-92208047D01*
X140132404Y-92238285D01*
X140495261Y-92601142D01*
X140495261Y-92208047D01*
X140313833Y-96209152D02*
X140313833Y-95906771D01*
X140495261Y-96269628D02*
X139860261Y-96057961D01*
X140495261Y-95846295D01*
X139860261Y-95513676D02*
X139860261Y-95453200D01*
X139890500Y-95392723D01*
X139920738Y-95362485D01*
X139981214Y-95332247D01*
X140102166Y-95302009D01*
X140253357Y-95302009D01*
X140374309Y-95332247D01*
X140434785Y-95362485D01*
X140465023Y-95392723D01*
X140495261Y-95453200D01*
X140495261Y-95513676D01*
X140465023Y-95574152D01*
X140434785Y-95604390D01*
X140374309Y-95634628D01*
X140253357Y-95664866D01*
X140102166Y-95664866D01*
X139981214Y-95634628D01*
X139920738Y-95604390D01*
X139890500Y-95574152D01*
X139860261Y-95513676D01*
X139860261Y-95090342D02*
X139860261Y-94697247D01*
X140102166Y-94908914D01*
X140102166Y-94818200D01*
X140132404Y-94757723D01*
X140162642Y-94727485D01*
X140223119Y-94697247D01*
X140374309Y-94697247D01*
X140434785Y-94727485D01*
X140465023Y-94757723D01*
X140495261Y-94818200D01*
X140495261Y-94999628D01*
X140465023Y-95060104D01*
X140434785Y-95090342D01*
X140313833Y-98901552D02*
X140313833Y-98599171D01*
X140495261Y-98962028D02*
X139860261Y-98750361D01*
X140495261Y-98538695D01*
X140495261Y-97994409D02*
X140495261Y-98357266D01*
X140495261Y-98175838D02*
X139860261Y-98175838D01*
X139950976Y-98236314D01*
X140011452Y-98296790D01*
X140041690Y-98357266D01*
X139860261Y-97601314D02*
X139860261Y-97540838D01*
X139890500Y-97480361D01*
X139920738Y-97450123D01*
X139981214Y-97419885D01*
X140102166Y-97389647D01*
X140253357Y-97389647D01*
X140374309Y-97419885D01*
X140434785Y-97450123D01*
X140465023Y-97480361D01*
X140495261Y-97540838D01*
X140495261Y-97601314D01*
X140465023Y-97661790D01*
X140434785Y-97692028D01*
X140374309Y-97722266D01*
X140253357Y-97752504D01*
X140102166Y-97752504D01*
X139981214Y-97722266D01*
X139920738Y-97692028D01*
X139890500Y-97661790D01*
X139860261Y-97601314D01*
X140263033Y-101441552D02*
X140263033Y-101139171D01*
X140444461Y-101502028D02*
X139809461Y-101290361D01*
X140444461Y-101078695D01*
X140444461Y-100534409D02*
X140444461Y-100897266D01*
X140444461Y-100715838D02*
X139809461Y-100715838D01*
X139900176Y-100776314D01*
X139960652Y-100836790D01*
X139990890Y-100897266D01*
X140444461Y-99929647D02*
X140444461Y-100292504D01*
X140444461Y-100111076D02*
X139809461Y-100111076D01*
X139900176Y-100171552D01*
X139960652Y-100232028D01*
X139990890Y-100292504D01*
X140263033Y-104032352D02*
X140263033Y-103729971D01*
X140444461Y-104092828D02*
X139809461Y-103881161D01*
X140444461Y-103669495D01*
X140444461Y-103125209D02*
X140444461Y-103488066D01*
X140444461Y-103306638D02*
X139809461Y-103306638D01*
X139900176Y-103367114D01*
X139960652Y-103427590D01*
X139990890Y-103488066D01*
X139869938Y-102883304D02*
X139839700Y-102853066D01*
X139809461Y-102792590D01*
X139809461Y-102641400D01*
X139839700Y-102580923D01*
X139869938Y-102550685D01*
X139930414Y-102520447D01*
X139990890Y-102520447D01*
X140081604Y-102550685D01*
X140444461Y-102913542D01*
X140444461Y-102520447D01*
X140263033Y-106521552D02*
X140263033Y-106219171D01*
X140444461Y-106582028D02*
X139809461Y-106370361D01*
X140444461Y-106158695D01*
X140444461Y-105614409D02*
X140444461Y-105977266D01*
X140444461Y-105795838D02*
X139809461Y-105795838D01*
X139900176Y-105856314D01*
X139960652Y-105916790D01*
X139990890Y-105977266D01*
X139809461Y-105402742D02*
X139809461Y-105009647D01*
X140051366Y-105221314D01*
X140051366Y-105130600D01*
X140081604Y-105070123D01*
X140111842Y-105039885D01*
X140172319Y-105009647D01*
X140323509Y-105009647D01*
X140383985Y-105039885D01*
X140414223Y-105070123D01*
X140444461Y-105130600D01*
X140444461Y-105312028D01*
X140414223Y-105372504D01*
X140383985Y-105402742D01*
X140313833Y-108911571D02*
X140313833Y-108609190D01*
X140495261Y-108972047D02*
X139860261Y-108760380D01*
X140495261Y-108548714D01*
X139860261Y-108216095D02*
X139860261Y-108155619D01*
X139890500Y-108095142D01*
X139920738Y-108064904D01*
X139981214Y-108034666D01*
X140102166Y-108004428D01*
X140253357Y-108004428D01*
X140374309Y-108034666D01*
X140434785Y-108064904D01*
X140465023Y-108095142D01*
X140495261Y-108155619D01*
X140495261Y-108216095D01*
X140465023Y-108276571D01*
X140434785Y-108306809D01*
X140374309Y-108337047D01*
X140253357Y-108367285D01*
X140102166Y-108367285D01*
X139981214Y-108337047D01*
X139920738Y-108306809D01*
X139890500Y-108276571D01*
X139860261Y-108216095D01*
X140313833Y-111197571D02*
X140313833Y-110895190D01*
X140495261Y-111258047D02*
X139860261Y-111046380D01*
X140495261Y-110834714D01*
X140495261Y-110290428D02*
X140495261Y-110653285D01*
X140495261Y-110471857D02*
X139860261Y-110471857D01*
X139950976Y-110532333D01*
X140011452Y-110592809D01*
X140041690Y-110653285D01*
X140305833Y-113737571D02*
X140305833Y-113435190D01*
X140487261Y-113798047D02*
X139852261Y-113586380D01*
X140487261Y-113374714D01*
X139912738Y-113193285D02*
X139882500Y-113163047D01*
X139852261Y-113102571D01*
X139852261Y-112951380D01*
X139882500Y-112890904D01*
X139912738Y-112860666D01*
X139973214Y-112830428D01*
X140033690Y-112830428D01*
X140124404Y-112860666D01*
X140487261Y-113223523D01*
X140487261Y-112830428D01*
X140245833Y-116343571D02*
X140245833Y-116041190D01*
X140427261Y-116404047D02*
X139792261Y-116192380D01*
X140427261Y-115980714D01*
X139792261Y-115829523D02*
X139792261Y-115436428D01*
X140034166Y-115648095D01*
X140034166Y-115557380D01*
X140064404Y-115496904D01*
X140094642Y-115466666D01*
X140155119Y-115436428D01*
X140306309Y-115436428D01*
X140366785Y-115466666D01*
X140397023Y-115496904D01*
X140427261Y-115557380D01*
X140427261Y-115738809D01*
X140397023Y-115799285D01*
X140366785Y-115829523D01*
X139812261Y-119286261D02*
X140447261Y-119074595D01*
X139812261Y-118862928D01*
X140447261Y-118288404D02*
X140144880Y-118500071D01*
X140447261Y-118651261D02*
X139812261Y-118651261D01*
X139812261Y-118409357D01*
X139842500Y-118348880D01*
X139872738Y-118318642D01*
X139933214Y-118288404D01*
X140023928Y-118288404D01*
X140084404Y-118318642D01*
X140114642Y-118348880D01*
X140144880Y-118409357D01*
X140144880Y-118651261D01*
X140205357Y-118016261D02*
X140205357Y-117532452D01*
X140447261Y-117774357D02*
X139963452Y-117774357D01*
X139860261Y-121877061D02*
X140495261Y-121665395D01*
X139860261Y-121453728D01*
X140495261Y-120879204D02*
X140192880Y-121090871D01*
X140495261Y-121242061D02*
X139860261Y-121242061D01*
X139860261Y-121000157D01*
X139890500Y-120939680D01*
X139920738Y-120909442D01*
X139981214Y-120879204D01*
X140071928Y-120879204D01*
X140132404Y-120909442D01*
X140162642Y-120939680D01*
X140192880Y-121000157D01*
X140192880Y-121242061D01*
X140253357Y-120607061D02*
X140253357Y-120123252D01*
D14*
X144290000Y-84750000D02*
X144290000Y-83450000D01*
X152290000Y-84700000D02*
X152290000Y-83450000D01*
X144290000Y-88280000D02*
X144290000Y-86950000D01*
X152290000Y-88290000D02*
X152290000Y-86960000D01*
X146580000Y-90050000D02*
X145360000Y-90050000D01*
X151210000Y-90050000D02*
X150060000Y-90050000D01*
X152290000Y-83450000D02*
X144290000Y-83450000D01*
D15*
X154563600Y-110794800D02*
X153263600Y-110794800D01*
X154523200Y-115138200D02*
X153223200Y-115138200D01*
D16*
X152270000Y-114533200D02*
G75*
G02X152270000Y-114333200I0J100000D01*
G01*
X152270000Y-114333200D02*
G75*
G02X152270000Y-114533200I0J-100000D01*
G01*
D17*
X153825142Y-121361976D02*
X154161018Y-121026100D01*
X142536182Y-121026100D02*
X142872058Y-121361976D01*
X142872058Y-120690224D02*
X142536182Y-121026100D01*
X148348600Y-115213682D02*
X148684476Y-115549558D01*
X148012724Y-115549558D02*
X148348600Y-115213682D01*
X148348600Y-126838518D02*
X148012724Y-126502642D01*
X148684476Y-126502642D02*
X148348600Y-126838518D01*
X137080000Y-134960000D02*
X139740000Y-134960000D01*
X137080000Y-86640000D02*
X137080000Y-134960000D01*
X139740000Y-86640000D02*
X139740000Y-134960000D01*
X137080000Y-86640000D02*
X139740000Y-86640000D01*
X137080000Y-85370000D02*
X137080000Y-84040000D01*
X137080000Y-84040000D02*
X138410000Y-84040000D01*
D18*
G36*
X149969715Y-99184633D02*
G01*
X150021046Y-99211561D01*
X150060096Y-99248979D01*
X150064651Y-99255833D01*
X150083321Y-99304481D01*
X150089046Y-99361149D01*
X150081955Y-99415818D01*
X150062175Y-99458467D01*
X150062078Y-99458591D01*
X150013685Y-99501636D01*
X149955111Y-99525277D01*
X149892787Y-99528250D01*
X149833141Y-99509293D01*
X149825691Y-99505014D01*
X149781047Y-99464621D01*
X149754239Y-99412703D01*
X149745035Y-99355033D01*
X149745171Y-99354068D01*
X149847300Y-99354068D01*
X149857002Y-99381941D01*
X149880003Y-99409323D01*
X149907146Y-99426480D01*
X149917150Y-99428300D01*
X149939685Y-99419892D01*
X149961600Y-99402900D01*
X149982446Y-99369110D01*
X149982838Y-99336153D01*
X149967417Y-99308781D01*
X149940825Y-99291748D01*
X149907702Y-99289807D01*
X149872689Y-99307713D01*
X149870525Y-99309618D01*
X149852258Y-99335151D01*
X149847300Y-99354068D01*
X149745171Y-99354068D01*
X149753200Y-99297382D01*
X149778503Y-99245524D01*
X149820709Y-99205230D01*
X149838194Y-99195508D01*
X149877179Y-99181254D01*
X149913494Y-99174406D01*
X149917150Y-99174300D01*
X149969715Y-99184633D01*
G37*
X149969715Y-99184633D02*
X150021046Y-99211561D01*
X150060096Y-99248979D01*
X150064651Y-99255833D01*
X150083321Y-99304481D01*
X150089046Y-99361149D01*
X150081955Y-99415818D01*
X150062175Y-99458467D01*
X150062078Y-99458591D01*
X150013685Y-99501636D01*
X149955111Y-99525277D01*
X149892787Y-99528250D01*
X149833141Y-99509293D01*
X149825691Y-99505014D01*
X149781047Y-99464621D01*
X149754239Y-99412703D01*
X149745035Y-99355033D01*
X149745171Y-99354068D01*
X149847300Y-99354068D01*
X149857002Y-99381941D01*
X149880003Y-99409323D01*
X149907146Y-99426480D01*
X149917150Y-99428300D01*
X149939685Y-99419892D01*
X149961600Y-99402900D01*
X149982446Y-99369110D01*
X149982838Y-99336153D01*
X149967417Y-99308781D01*
X149940825Y-99291748D01*
X149907702Y-99289807D01*
X149872689Y-99307713D01*
X149870525Y-99309618D01*
X149852258Y-99335151D01*
X149847300Y-99354068D01*
X149745171Y-99354068D01*
X149753200Y-99297382D01*
X149778503Y-99245524D01*
X149820709Y-99205230D01*
X149838194Y-99195508D01*
X149877179Y-99181254D01*
X149913494Y-99174406D01*
X149917150Y-99174300D01*
X149969715Y-99184633D01*
G36*
X141503614Y-97832939D02*
G01*
X141620112Y-97849523D01*
X141715859Y-97878836D01*
X141792755Y-97922113D01*
X141852701Y-97980593D01*
X141897598Y-98055514D01*
X141915549Y-98101150D01*
X141927661Y-98149883D01*
X141938617Y-98218580D01*
X141947890Y-98301814D01*
X141954951Y-98394155D01*
X141959270Y-98490175D01*
X141960393Y-98561525D01*
X141960600Y-98679000D01*
X141274800Y-98679000D01*
X141274800Y-98831142D01*
X141277585Y-98927152D01*
X141286949Y-99000806D01*
X141304402Y-99054636D01*
X141331455Y-99091175D01*
X141369617Y-99112956D01*
X141420399Y-99122511D01*
X141449143Y-99123500D01*
X141507647Y-99116261D01*
X141551599Y-99093075D01*
X141582844Y-99051739D01*
X141603228Y-98990047D01*
X141612582Y-98928289D01*
X141621207Y-98844100D01*
X141951423Y-98844100D01*
X141944393Y-98955225D01*
X141935124Y-99045250D01*
X141918388Y-99116950D01*
X141891548Y-99176935D01*
X141851972Y-99231814D01*
X141820811Y-99265245D01*
X141772054Y-99309791D01*
X141728459Y-99338682D01*
X141681407Y-99357603D01*
X141680170Y-99357980D01*
X141618294Y-99371483D01*
X141541729Y-99380644D01*
X141460731Y-99384868D01*
X141385558Y-99383564D01*
X141335295Y-99377924D01*
X141226127Y-99349575D01*
X141137126Y-99307434D01*
X141066379Y-99250273D01*
X141011977Y-99176862D01*
X141006034Y-99166113D01*
X140988128Y-99130706D01*
X140973655Y-99096253D01*
X140962257Y-99059598D01*
X140953573Y-99017580D01*
X140947244Y-98967044D01*
X140942910Y-98904831D01*
X140940211Y-98827784D01*
X140938788Y-98732743D01*
X140938281Y-98616552D01*
X140938254Y-98571050D01*
X140938317Y-98460359D01*
X140938636Y-98371924D01*
X140939297Y-98312595D01*
X141274800Y-98312595D01*
X141274800Y-98412300D01*
X141620729Y-98412300D01*
X141615381Y-98290020D01*
X141612513Y-98233104D01*
X141608702Y-98195368D01*
X141602145Y-98170606D01*
X141591037Y-98152614D01*
X141573574Y-98135184D01*
X141569216Y-98131270D01*
X141541877Y-98110090D01*
X141514262Y-98099088D01*
X141476258Y-98095124D01*
X141451768Y-98094800D01*
X141386311Y-98099203D01*
X141338445Y-98114374D01*
X141305779Y-98143256D01*
X141285923Y-98188790D01*
X141276486Y-98253918D01*
X141274800Y-98312595D01*
X140939297Y-98312595D01*
X140939409Y-98302598D01*
X140940836Y-98249235D01*
X140943117Y-98208692D01*
X140946449Y-98177821D01*
X140951032Y-98153478D01*
X140957065Y-98132517D01*
X140964747Y-98111794D01*
X140967796Y-98104178D01*
X141007441Y-98032045D01*
X141063598Y-97964369D01*
X141129025Y-97908911D01*
X141174898Y-97882241D01*
X141259334Y-97852920D01*
X141357946Y-97835298D01*
X141461709Y-97830728D01*
X141503614Y-97832939D01*
G37*
X141503614Y-97832939D02*
X141620112Y-97849523D01*
X141715859Y-97878836D01*
X141792755Y-97922113D01*
X141852701Y-97980593D01*
X141897598Y-98055514D01*
X141915549Y-98101150D01*
X141927661Y-98149883D01*
X141938617Y-98218580D01*
X141947890Y-98301814D01*
X141954951Y-98394155D01*
X141959270Y-98490175D01*
X141960393Y-98561525D01*
X141960600Y-98679000D01*
X141274800Y-98679000D01*
X141274800Y-98831142D01*
X141277585Y-98927152D01*
X141286949Y-99000806D01*
X141304402Y-99054636D01*
X141331455Y-99091175D01*
X141369617Y-99112956D01*
X141420399Y-99122511D01*
X141449143Y-99123500D01*
X141507647Y-99116261D01*
X141551599Y-99093075D01*
X141582844Y-99051739D01*
X141603228Y-98990047D01*
X141612582Y-98928289D01*
X141621207Y-98844100D01*
X141951423Y-98844100D01*
X141944393Y-98955225D01*
X141935124Y-99045250D01*
X141918388Y-99116950D01*
X141891548Y-99176935D01*
X141851972Y-99231814D01*
X141820811Y-99265245D01*
X141772054Y-99309791D01*
X141728459Y-99338682D01*
X141681407Y-99357603D01*
X141680170Y-99357980D01*
X141618294Y-99371483D01*
X141541729Y-99380644D01*
X141460731Y-99384868D01*
X141385558Y-99383564D01*
X141335295Y-99377924D01*
X141226127Y-99349575D01*
X141137126Y-99307434D01*
X141066379Y-99250273D01*
X141011977Y-99176862D01*
X141006034Y-99166113D01*
X140988128Y-99130706D01*
X140973655Y-99096253D01*
X140962257Y-99059598D01*
X140953573Y-99017580D01*
X140947244Y-98967044D01*
X140942910Y-98904831D01*
X140940211Y-98827784D01*
X140938788Y-98732743D01*
X140938281Y-98616552D01*
X140938254Y-98571050D01*
X140938317Y-98460359D01*
X140938636Y-98371924D01*
X140939297Y-98312595D01*
X141274800Y-98312595D01*
X141274800Y-98412300D01*
X141620729Y-98412300D01*
X141615381Y-98290020D01*
X141612513Y-98233104D01*
X141608702Y-98195368D01*
X141602145Y-98170606D01*
X141591037Y-98152614D01*
X141573574Y-98135184D01*
X141569216Y-98131270D01*
X141541877Y-98110090D01*
X141514262Y-98099088D01*
X141476258Y-98095124D01*
X141451768Y-98094800D01*
X141386311Y-98099203D01*
X141338445Y-98114374D01*
X141305779Y-98143256D01*
X141285923Y-98188790D01*
X141276486Y-98253918D01*
X141274800Y-98312595D01*
X140939297Y-98312595D01*
X140939409Y-98302598D01*
X140940836Y-98249235D01*
X140943117Y-98208692D01*
X140946449Y-98177821D01*
X140951032Y-98153478D01*
X140957065Y-98132517D01*
X140964747Y-98111794D01*
X140967796Y-98104178D01*
X141007441Y-98032045D01*
X141063598Y-97964369D01*
X141129025Y-97908911D01*
X141174898Y-97882241D01*
X141259334Y-97852920D01*
X141357946Y-97835298D01*
X141461709Y-97830728D01*
X141503614Y-97832939D01*
G36*
X143639602Y-97851778D02*
G01*
X143740032Y-97880812D01*
X143822501Y-97925255D01*
X143885884Y-97984698D01*
X143918020Y-98034477D01*
X143926366Y-98051810D01*
X143933375Y-98069841D01*
X143939184Y-98090892D01*
X143943927Y-98117280D01*
X143947741Y-98151325D01*
X143950760Y-98195347D01*
X143953122Y-98251666D01*
X143954960Y-98322600D01*
X143956411Y-98410470D01*
X143957610Y-98517595D01*
X143958693Y-98646294D01*
X143959398Y-98742500D01*
X143960441Y-98858131D01*
X143961844Y-98966616D01*
X143963539Y-99065159D01*
X143965459Y-99150965D01*
X143967537Y-99221239D01*
X143969707Y-99273186D01*
X143971900Y-99304009D01*
X143973049Y-99310825D01*
X143982862Y-99339400D01*
X143830339Y-99339400D01*
X143762373Y-99339107D01*
X143715774Y-99336790D01*
X143686511Y-99330289D01*
X143670552Y-99317445D01*
X143663864Y-99296098D01*
X143662415Y-99264089D01*
X143662400Y-99249461D01*
X143659134Y-99217072D01*
X143650785Y-99200489D01*
X143648126Y-99199700D01*
X143632709Y-99208594D01*
X143607212Y-99231679D01*
X143583017Y-99257451D01*
X143515351Y-99319850D01*
X143441560Y-99358627D01*
X143358032Y-99375436D01*
X143323097Y-99376408D01*
X143273727Y-99374425D01*
X143230448Y-99370339D01*
X143205117Y-99365633D01*
X143121150Y-99328164D01*
X143054512Y-99272181D01*
X143005282Y-99197818D01*
X142973542Y-99105210D01*
X142959372Y-98994490D01*
X142958560Y-98958400D01*
X142961535Y-98911792D01*
X143287054Y-98911792D01*
X143289906Y-98976741D01*
X143302924Y-99035592D01*
X143325489Y-99081324D01*
X143341290Y-99097986D01*
X143378886Y-99115187D01*
X143429803Y-99123461D01*
X143483480Y-99122515D01*
X143529358Y-99112053D01*
X143545346Y-99103679D01*
X143569402Y-99083973D01*
X143587620Y-99060552D01*
X143600900Y-99029650D01*
X143610140Y-98987501D01*
X143616239Y-98930339D01*
X143620096Y-98854398D01*
X143622072Y-98782231D01*
X143623540Y-98701294D01*
X143623777Y-98642732D01*
X143622605Y-98603542D01*
X143619849Y-98580720D01*
X143615332Y-98571262D01*
X143609710Y-98571640D01*
X143560987Y-98601837D01*
X143506786Y-98638198D01*
X143451679Y-98677314D01*
X143400244Y-98715777D01*
X143357054Y-98750179D01*
X143326685Y-98777111D01*
X143314319Y-98791682D01*
X143294986Y-98847766D01*
X143287054Y-98911792D01*
X142961535Y-98911792D01*
X142964686Y-98862451D01*
X142984570Y-98778974D01*
X143020107Y-98705700D01*
X143073191Y-98640361D01*
X143145717Y-98580689D01*
X143239579Y-98524417D01*
X143356672Y-98469278D01*
X143372929Y-98462397D01*
X143459578Y-98424542D01*
X143524924Y-98392162D01*
X143572011Y-98363494D01*
X143603883Y-98336775D01*
X143616859Y-98321103D01*
X143629151Y-98289103D01*
X143635847Y-98242862D01*
X143636511Y-98193009D01*
X143630706Y-98150174D01*
X143624568Y-98133400D01*
X143597395Y-98107323D01*
X143553138Y-98090528D01*
X143498323Y-98082941D01*
X143439480Y-98084487D01*
X143383137Y-98095090D01*
X143335821Y-98114675D01*
X143308616Y-98137045D01*
X143297217Y-98161228D01*
X143287173Y-98199981D01*
X143283216Y-98224737D01*
X143275050Y-98291650D01*
X143117623Y-98295230D01*
X142960196Y-98298811D01*
X142968059Y-98223589D01*
X142988870Y-98116925D01*
X143027383Y-98028083D01*
X143083998Y-97956703D01*
X143159112Y-97902422D01*
X143253123Y-97864880D01*
X143366432Y-97843715D01*
X143389350Y-97841581D01*
X143522333Y-97838565D01*
X143639602Y-97851778D01*
G37*
X143639602Y-97851778D02*
X143740032Y-97880812D01*
X143822501Y-97925255D01*
X143885884Y-97984698D01*
X143918020Y-98034477D01*
X143926366Y-98051810D01*
X143933375Y-98069841D01*
X143939184Y-98090892D01*
X143943927Y-98117280D01*
X143947741Y-98151325D01*
X143950760Y-98195347D01*
X143953122Y-98251666D01*
X143954960Y-98322600D01*
X143956411Y-98410470D01*
X143957610Y-98517595D01*
X143958693Y-98646294D01*
X143959398Y-98742500D01*
X143960441Y-98858131D01*
X143961844Y-98966616D01*
X143963539Y-99065159D01*
X143965459Y-99150965D01*
X143967537Y-99221239D01*
X143969707Y-99273186D01*
X143971900Y-99304009D01*
X143973049Y-99310825D01*
X143982862Y-99339400D01*
X143830339Y-99339400D01*
X143762373Y-99339107D01*
X143715774Y-99336790D01*
X143686511Y-99330289D01*
X143670552Y-99317445D01*
X143663864Y-99296098D01*
X143662415Y-99264089D01*
X143662400Y-99249461D01*
X143659134Y-99217072D01*
X143650785Y-99200489D01*
X143648126Y-99199700D01*
X143632709Y-99208594D01*
X143607212Y-99231679D01*
X143583017Y-99257451D01*
X143515351Y-99319850D01*
X143441560Y-99358627D01*
X143358032Y-99375436D01*
X143323097Y-99376408D01*
X143273727Y-99374425D01*
X143230448Y-99370339D01*
X143205117Y-99365633D01*
X143121150Y-99328164D01*
X143054512Y-99272181D01*
X143005282Y-99197818D01*
X142973542Y-99105210D01*
X142959372Y-98994490D01*
X142958560Y-98958400D01*
X142961535Y-98911792D01*
X143287054Y-98911792D01*
X143289906Y-98976741D01*
X143302924Y-99035592D01*
X143325489Y-99081324D01*
X143341290Y-99097986D01*
X143378886Y-99115187D01*
X143429803Y-99123461D01*
X143483480Y-99122515D01*
X143529358Y-99112053D01*
X143545346Y-99103679D01*
X143569402Y-99083973D01*
X143587620Y-99060552D01*
X143600900Y-99029650D01*
X143610140Y-98987501D01*
X143616239Y-98930339D01*
X143620096Y-98854398D01*
X143622072Y-98782231D01*
X143623540Y-98701294D01*
X143623777Y-98642732D01*
X143622605Y-98603542D01*
X143619849Y-98580720D01*
X143615332Y-98571262D01*
X143609710Y-98571640D01*
X143560987Y-98601837D01*
X143506786Y-98638198D01*
X143451679Y-98677314D01*
X143400244Y-98715777D01*
X143357054Y-98750179D01*
X143326685Y-98777111D01*
X143314319Y-98791682D01*
X143294986Y-98847766D01*
X143287054Y-98911792D01*
X142961535Y-98911792D01*
X142964686Y-98862451D01*
X142984570Y-98778974D01*
X143020107Y-98705700D01*
X143073191Y-98640361D01*
X143145717Y-98580689D01*
X143239579Y-98524417D01*
X143356672Y-98469278D01*
X143372929Y-98462397D01*
X143459578Y-98424542D01*
X143524924Y-98392162D01*
X143572011Y-98363494D01*
X143603883Y-98336775D01*
X143616859Y-98321103D01*
X143629151Y-98289103D01*
X143635847Y-98242862D01*
X143636511Y-98193009D01*
X143630706Y-98150174D01*
X143624568Y-98133400D01*
X143597395Y-98107323D01*
X143553138Y-98090528D01*
X143498323Y-98082941D01*
X143439480Y-98084487D01*
X143383137Y-98095090D01*
X143335821Y-98114675D01*
X143308616Y-98137045D01*
X143297217Y-98161228D01*
X143287173Y-98199981D01*
X143283216Y-98224737D01*
X143275050Y-98291650D01*
X143117623Y-98295230D01*
X142960196Y-98298811D01*
X142968059Y-98223589D01*
X142988870Y-98116925D01*
X143027383Y-98028083D01*
X143083998Y-97956703D01*
X143159112Y-97902422D01*
X143253123Y-97864880D01*
X143366432Y-97843715D01*
X143389350Y-97841581D01*
X143522333Y-97838565D01*
X143639602Y-97851778D01*
G36*
X144562227Y-97694752D02*
G01*
X144561179Y-97803159D01*
X144561457Y-97889143D01*
X144563043Y-97951983D01*
X144565918Y-97990956D01*
X144570061Y-98005340D01*
X144570450Y-98005407D01*
X144584509Y-97995654D01*
X144607012Y-97971134D01*
X144623714Y-97949731D01*
X144674322Y-97895436D01*
X144733766Y-97860849D01*
X144806241Y-97844209D01*
X144878825Y-97842744D01*
X144965980Y-97854187D01*
X145037951Y-97880667D01*
X145096076Y-97923812D01*
X145141689Y-97985248D01*
X145176126Y-98066602D01*
X145200724Y-98169501D01*
X145212036Y-98248421D01*
X145216948Y-98308156D01*
X145220565Y-98386833D01*
X145222893Y-98478768D01*
X145223937Y-98578278D01*
X145223704Y-98679679D01*
X145222200Y-98777286D01*
X145219429Y-98865415D01*
X145215398Y-98938383D01*
X145211294Y-98981833D01*
X145188313Y-99100367D01*
X145151788Y-99198837D01*
X145102060Y-99276637D01*
X145039472Y-99333158D01*
X145002250Y-99353806D01*
X144945834Y-99369979D01*
X144877110Y-99375942D01*
X144807105Y-99371511D01*
X144750841Y-99358017D01*
X144676821Y-99318840D01*
X144615774Y-99259329D01*
X144603811Y-99243365D01*
X144575900Y-99209896D01*
X144556205Y-99200243D01*
X144544103Y-99214655D01*
X144538972Y-99253384D01*
X144538700Y-99269550D01*
X144538700Y-99339400D01*
X144233900Y-99339400D01*
X144233900Y-98598129D01*
X144564100Y-98598129D01*
X144564585Y-98716541D01*
X144566296Y-98812501D01*
X144569613Y-98888941D01*
X144574917Y-98948796D01*
X144582589Y-98995000D01*
X144593011Y-99030486D01*
X144606562Y-99058187D01*
X144623624Y-99081037D01*
X144627337Y-99085118D01*
X144653906Y-99109158D01*
X144681698Y-99120474D01*
X144722166Y-99123485D01*
X144726816Y-99123500D01*
X144768066Y-99121278D01*
X144794896Y-99111726D01*
X144818107Y-99090512D01*
X144822832Y-99085005D01*
X144848618Y-99045709D01*
X144867464Y-99002288D01*
X144868341Y-98999280D01*
X144872309Y-98971697D01*
X144875558Y-98922927D01*
X144878086Y-98857173D01*
X144879895Y-98778636D01*
X144880986Y-98691521D01*
X144881359Y-98600028D01*
X144881015Y-98508362D01*
X144879955Y-98420723D01*
X144878178Y-98341316D01*
X144875687Y-98274343D01*
X144872482Y-98224006D01*
X144868562Y-98194508D01*
X144868209Y-98193142D01*
X144846096Y-98141254D01*
X144812142Y-98109890D01*
X144762318Y-98096081D01*
X144734867Y-98094800D01*
X144674427Y-98102100D01*
X144630565Y-98125998D01*
X144599420Y-98169484D01*
X144583434Y-98212102D01*
X144577003Y-98239617D01*
X144572071Y-98275578D01*
X144568479Y-98323211D01*
X144566064Y-98385741D01*
X144564665Y-98466392D01*
X144564121Y-98568390D01*
X144564100Y-98598129D01*
X144233900Y-98598129D01*
X144233900Y-97383600D01*
X144566705Y-97383600D01*
X144562227Y-97694752D01*
G37*
X144562227Y-97694752D02*
X144561179Y-97803159D01*
X144561457Y-97889143D01*
X144563043Y-97951983D01*
X144565918Y-97990956D01*
X144570061Y-98005340D01*
X144570450Y-98005407D01*
X144584509Y-97995654D01*
X144607012Y-97971134D01*
X144623714Y-97949731D01*
X144674322Y-97895436D01*
X144733766Y-97860849D01*
X144806241Y-97844209D01*
X144878825Y-97842744D01*
X144965980Y-97854187D01*
X145037951Y-97880667D01*
X145096076Y-97923812D01*
X145141689Y-97985248D01*
X145176126Y-98066602D01*
X145200724Y-98169501D01*
X145212036Y-98248421D01*
X145216948Y-98308156D01*
X145220565Y-98386833D01*
X145222893Y-98478768D01*
X145223937Y-98578278D01*
X145223704Y-98679679D01*
X145222200Y-98777286D01*
X145219429Y-98865415D01*
X145215398Y-98938383D01*
X145211294Y-98981833D01*
X145188313Y-99100367D01*
X145151788Y-99198837D01*
X145102060Y-99276637D01*
X145039472Y-99333158D01*
X145002250Y-99353806D01*
X144945834Y-99369979D01*
X144877110Y-99375942D01*
X144807105Y-99371511D01*
X144750841Y-99358017D01*
X144676821Y-99318840D01*
X144615774Y-99259329D01*
X144603811Y-99243365D01*
X144575900Y-99209896D01*
X144556205Y-99200243D01*
X144544103Y-99214655D01*
X144538972Y-99253384D01*
X144538700Y-99269550D01*
X144538700Y-99339400D01*
X144233900Y-99339400D01*
X144233900Y-98598129D01*
X144564100Y-98598129D01*
X144564585Y-98716541D01*
X144566296Y-98812501D01*
X144569613Y-98888941D01*
X144574917Y-98948796D01*
X144582589Y-98995000D01*
X144593011Y-99030486D01*
X144606562Y-99058187D01*
X144623624Y-99081037D01*
X144627337Y-99085118D01*
X144653906Y-99109158D01*
X144681698Y-99120474D01*
X144722166Y-99123485D01*
X144726816Y-99123500D01*
X144768066Y-99121278D01*
X144794896Y-99111726D01*
X144818107Y-99090512D01*
X144822832Y-99085005D01*
X144848618Y-99045709D01*
X144867464Y-99002288D01*
X144868341Y-98999280D01*
X144872309Y-98971697D01*
X144875558Y-98922927D01*
X144878086Y-98857173D01*
X144879895Y-98778636D01*
X144880986Y-98691521D01*
X144881359Y-98600028D01*
X144881015Y-98508362D01*
X144879955Y-98420723D01*
X144878178Y-98341316D01*
X144875687Y-98274343D01*
X144872482Y-98224006D01*
X144868562Y-98194508D01*
X144868209Y-98193142D01*
X144846096Y-98141254D01*
X144812142Y-98109890D01*
X144762318Y-98096081D01*
X144734867Y-98094800D01*
X144674427Y-98102100D01*
X144630565Y-98125998D01*
X144599420Y-98169484D01*
X144583434Y-98212102D01*
X144577003Y-98239617D01*
X144572071Y-98275578D01*
X144568479Y-98323211D01*
X144566064Y-98385741D01*
X144564665Y-98466392D01*
X144564121Y-98568390D01*
X144564100Y-98598129D01*
X144233900Y-98598129D01*
X144233900Y-97383600D01*
X144566705Y-97383600D01*
X144562227Y-97694752D01*
G36*
X146612783Y-97841055D02*
G01*
X146629885Y-97842459D01*
X146723509Y-97855639D01*
X146798935Y-97877885D01*
X146862517Y-97911764D01*
X146920611Y-97959846D01*
X146920732Y-97959964D01*
X146958237Y-98000375D01*
X146987634Y-98042385D01*
X147009970Y-98089827D01*
X147026289Y-98146532D01*
X147037639Y-98216333D01*
X147045065Y-98303062D01*
X147049614Y-98410551D01*
X147050261Y-98434525D01*
X147056084Y-98666300D01*
X146364244Y-98666300D01*
X146370009Y-98840925D01*
X146373475Y-98920126D01*
X146378225Y-98978321D01*
X146384824Y-99019892D01*
X146393836Y-99049222D01*
X146397881Y-99057825D01*
X146433736Y-99100163D01*
X146486575Y-99126165D01*
X146552707Y-99134256D01*
X146573926Y-99133020D01*
X146634244Y-99117654D01*
X146678513Y-99084136D01*
X146707353Y-99031573D01*
X146721378Y-98959072D01*
X146723029Y-98917125D01*
X146723100Y-98856800D01*
X147056983Y-98856800D01*
X147049438Y-98942525D01*
X147029515Y-99060704D01*
X146992327Y-99161127D01*
X146938236Y-99243277D01*
X146867604Y-99306640D01*
X146780795Y-99350699D01*
X146756816Y-99358575D01*
X146700764Y-99369415D01*
X146628588Y-99375188D01*
X146549048Y-99375924D01*
X146470902Y-99371655D01*
X146402911Y-99362411D01*
X146380200Y-99357243D01*
X146284357Y-99320997D01*
X146205310Y-99267292D01*
X146142443Y-99195311D01*
X146095143Y-99104238D01*
X146062796Y-98993255D01*
X146050505Y-98918333D01*
X146045404Y-98861782D01*
X146041607Y-98787546D01*
X146039113Y-98701077D01*
X146037919Y-98607831D01*
X146038023Y-98513261D01*
X146039390Y-98425000D01*
X146364039Y-98425000D01*
X146723100Y-98425000D01*
X146723100Y-98303719D01*
X146720846Y-98227793D01*
X146713005Y-98173013D01*
X146697953Y-98135438D01*
X146674066Y-98111126D01*
X146639722Y-98096134D01*
X146637354Y-98095462D01*
X146563073Y-98082636D01*
X146496603Y-98086161D01*
X146442183Y-98105072D01*
X146404053Y-98138408D01*
X146396931Y-98150082D01*
X146384857Y-98187152D01*
X146375503Y-98243835D01*
X146370187Y-98307455D01*
X146364039Y-98425000D01*
X146039390Y-98425000D01*
X146039424Y-98422821D01*
X146042119Y-98341966D01*
X146046106Y-98276149D01*
X146050762Y-98234500D01*
X146079258Y-98124250D01*
X146126127Y-98031265D01*
X146190704Y-97955993D01*
X146272324Y-97898885D01*
X146370321Y-97860392D01*
X146484029Y-97840965D01*
X146612783Y-97841055D01*
G37*
X146612783Y-97841055D02*
X146629885Y-97842459D01*
X146723509Y-97855639D01*
X146798935Y-97877885D01*
X146862517Y-97911764D01*
X146920611Y-97959846D01*
X146920732Y-97959964D01*
X146958237Y-98000375D01*
X146987634Y-98042385D01*
X147009970Y-98089827D01*
X147026289Y-98146532D01*
X147037639Y-98216333D01*
X147045065Y-98303062D01*
X147049614Y-98410551D01*
X147050261Y-98434525D01*
X147056084Y-98666300D01*
X146364244Y-98666300D01*
X146370009Y-98840925D01*
X146373475Y-98920126D01*
X146378225Y-98978321D01*
X146384824Y-99019892D01*
X146393836Y-99049222D01*
X146397881Y-99057825D01*
X146433736Y-99100163D01*
X146486575Y-99126165D01*
X146552707Y-99134256D01*
X146573926Y-99133020D01*
X146634244Y-99117654D01*
X146678513Y-99084136D01*
X146707353Y-99031573D01*
X146721378Y-98959072D01*
X146723029Y-98917125D01*
X146723100Y-98856800D01*
X147056983Y-98856800D01*
X147049438Y-98942525D01*
X147029515Y-99060704D01*
X146992327Y-99161127D01*
X146938236Y-99243277D01*
X146867604Y-99306640D01*
X146780795Y-99350699D01*
X146756816Y-99358575D01*
X146700764Y-99369415D01*
X146628588Y-99375188D01*
X146549048Y-99375924D01*
X146470902Y-99371655D01*
X146402911Y-99362411D01*
X146380200Y-99357243D01*
X146284357Y-99320997D01*
X146205310Y-99267292D01*
X146142443Y-99195311D01*
X146095143Y-99104238D01*
X146062796Y-98993255D01*
X146050505Y-98918333D01*
X146045404Y-98861782D01*
X146041607Y-98787546D01*
X146039113Y-98701077D01*
X146037919Y-98607831D01*
X146038023Y-98513261D01*
X146039390Y-98425000D01*
X146364039Y-98425000D01*
X146723100Y-98425000D01*
X146723100Y-98303719D01*
X146720846Y-98227793D01*
X146713005Y-98173013D01*
X146697953Y-98135438D01*
X146674066Y-98111126D01*
X146639722Y-98096134D01*
X146637354Y-98095462D01*
X146563073Y-98082636D01*
X146496603Y-98086161D01*
X146442183Y-98105072D01*
X146404053Y-98138408D01*
X146396931Y-98150082D01*
X146384857Y-98187152D01*
X146375503Y-98243835D01*
X146370187Y-98307455D01*
X146364039Y-98425000D01*
X146039390Y-98425000D01*
X146039424Y-98422821D01*
X146042119Y-98341966D01*
X146046106Y-98276149D01*
X146050762Y-98234500D01*
X146079258Y-98124250D01*
X146126127Y-98031265D01*
X146190704Y-97955993D01*
X146272324Y-97898885D01*
X146370321Y-97860392D01*
X146484029Y-97840965D01*
X146612783Y-97841055D01*
G36*
X147951916Y-97852505D02*
G01*
X148046796Y-97883926D01*
X148126610Y-97933611D01*
X148146951Y-97951336D01*
X148208606Y-98026001D01*
X148249361Y-98115065D01*
X148269172Y-98218433D01*
X148269685Y-98224975D01*
X148275912Y-98310700D01*
X148117092Y-98310700D01*
X147958272Y-98310699D01*
X147949585Y-98245213D01*
X147940907Y-98199552D01*
X147928862Y-98158808D01*
X147922935Y-98144990D01*
X147892522Y-98111653D01*
X147846603Y-98090582D01*
X147792178Y-98082269D01*
X147736247Y-98087207D01*
X147685810Y-98105888D01*
X147658520Y-98126393D01*
X147644538Y-98154558D01*
X147637918Y-98197246D01*
X147638754Y-98244644D01*
X147647141Y-98286937D01*
X147656775Y-98307167D01*
X147673124Y-98322810D01*
X147706963Y-98349709D01*
X147754591Y-98385114D01*
X147812309Y-98426275D01*
X147875850Y-98470057D01*
X147984611Y-98545676D01*
X148072784Y-98611901D01*
X148142303Y-98671080D01*
X148195102Y-98725562D01*
X148233115Y-98777697D01*
X148258277Y-98829833D01*
X148272521Y-98884320D01*
X148277781Y-98943506D01*
X148277922Y-98958400D01*
X148267438Y-99066428D01*
X148236946Y-99159438D01*
X148186835Y-99236819D01*
X148117489Y-99297960D01*
X148036799Y-99339434D01*
X147968058Y-99358517D01*
X147884311Y-99370604D01*
X147794167Y-99375426D01*
X147706237Y-99372712D01*
X147629128Y-99362191D01*
X147595335Y-99353274D01*
X147496798Y-99309629D01*
X147418038Y-99250115D01*
X147358908Y-99174539D01*
X147319262Y-99082710D01*
X147298955Y-98974438D01*
X147298058Y-98963699D01*
X147290933Y-98869500D01*
X147624800Y-98869500D01*
X147624800Y-98946107D01*
X147630933Y-99019748D01*
X147648625Y-99076358D01*
X147676811Y-99113242D01*
X147694862Y-99123580D01*
X147747232Y-99134944D01*
X147804362Y-99133959D01*
X147858781Y-99122190D01*
X147903022Y-99101202D01*
X147928577Y-99074610D01*
X147939455Y-99035953D01*
X147941592Y-98985355D01*
X147935440Y-98934552D01*
X147921681Y-98895663D01*
X147903208Y-98874963D01*
X147868381Y-98844754D01*
X147822273Y-98809170D01*
X147772456Y-98774028D01*
X147665213Y-98700379D01*
X147577661Y-98636860D01*
X147507379Y-98581099D01*
X147451950Y-98530722D01*
X147408953Y-98483354D01*
X147375971Y-98436623D01*
X147350585Y-98388154D01*
X147332720Y-98342510D01*
X147308965Y-98242065D01*
X147308670Y-98149801D01*
X147330845Y-98067019D01*
X147374501Y-97995021D01*
X147438647Y-97935110D01*
X147522293Y-97888586D01*
X147624449Y-97856753D01*
X147712391Y-97843322D01*
X147840828Y-97839065D01*
X147951916Y-97852505D01*
G37*
X147951916Y-97852505D02*
X148046796Y-97883926D01*
X148126610Y-97933611D01*
X148146951Y-97951336D01*
X148208606Y-98026001D01*
X148249361Y-98115065D01*
X148269172Y-98218433D01*
X148269685Y-98224975D01*
X148275912Y-98310700D01*
X148117092Y-98310700D01*
X147958272Y-98310699D01*
X147949585Y-98245213D01*
X147940907Y-98199552D01*
X147928862Y-98158808D01*
X147922935Y-98144990D01*
X147892522Y-98111653D01*
X147846603Y-98090582D01*
X147792178Y-98082269D01*
X147736247Y-98087207D01*
X147685810Y-98105888D01*
X147658520Y-98126393D01*
X147644538Y-98154558D01*
X147637918Y-98197246D01*
X147638754Y-98244644D01*
X147647141Y-98286937D01*
X147656775Y-98307167D01*
X147673124Y-98322810D01*
X147706963Y-98349709D01*
X147754591Y-98385114D01*
X147812309Y-98426275D01*
X147875850Y-98470057D01*
X147984611Y-98545676D01*
X148072784Y-98611901D01*
X148142303Y-98671080D01*
X148195102Y-98725562D01*
X148233115Y-98777697D01*
X148258277Y-98829833D01*
X148272521Y-98884320D01*
X148277781Y-98943506D01*
X148277922Y-98958400D01*
X148267438Y-99066428D01*
X148236946Y-99159438D01*
X148186835Y-99236819D01*
X148117489Y-99297960D01*
X148036799Y-99339434D01*
X147968058Y-99358517D01*
X147884311Y-99370604D01*
X147794167Y-99375426D01*
X147706237Y-99372712D01*
X147629128Y-99362191D01*
X147595335Y-99353274D01*
X147496798Y-99309629D01*
X147418038Y-99250115D01*
X147358908Y-99174539D01*
X147319262Y-99082710D01*
X147298955Y-98974438D01*
X147298058Y-98963699D01*
X147290933Y-98869500D01*
X147624800Y-98869500D01*
X147624800Y-98946107D01*
X147630933Y-99019748D01*
X147648625Y-99076358D01*
X147676811Y-99113242D01*
X147694862Y-99123580D01*
X147747232Y-99134944D01*
X147804362Y-99133959D01*
X147858781Y-99122190D01*
X147903022Y-99101202D01*
X147928577Y-99074610D01*
X147939455Y-99035953D01*
X147941592Y-98985355D01*
X147935440Y-98934552D01*
X147921681Y-98895663D01*
X147903208Y-98874963D01*
X147868381Y-98844754D01*
X147822273Y-98809170D01*
X147772456Y-98774028D01*
X147665213Y-98700379D01*
X147577661Y-98636860D01*
X147507379Y-98581099D01*
X147451950Y-98530722D01*
X147408953Y-98483354D01*
X147375971Y-98436623D01*
X147350585Y-98388154D01*
X147332720Y-98342510D01*
X147308965Y-98242065D01*
X147308670Y-98149801D01*
X147330845Y-98067019D01*
X147374501Y-97995021D01*
X147438647Y-97935110D01*
X147522293Y-97888586D01*
X147624449Y-97856753D01*
X147712391Y-97843322D01*
X147840828Y-97839065D01*
X147951916Y-97852505D01*
G36*
X149120316Y-97852505D02*
G01*
X149215196Y-97883926D01*
X149295010Y-97933611D01*
X149315351Y-97951336D01*
X149377006Y-98026001D01*
X149417761Y-98115065D01*
X149437572Y-98218433D01*
X149438085Y-98224975D01*
X149444312Y-98310700D01*
X149285492Y-98310700D01*
X149126672Y-98310699D01*
X149117985Y-98245213D01*
X149109307Y-98199552D01*
X149097262Y-98158808D01*
X149091335Y-98144990D01*
X149060922Y-98111653D01*
X149015003Y-98090582D01*
X148960578Y-98082269D01*
X148904647Y-98087207D01*
X148854210Y-98105888D01*
X148826920Y-98126393D01*
X148812938Y-98154558D01*
X148806318Y-98197246D01*
X148807154Y-98244644D01*
X148815541Y-98286937D01*
X148825175Y-98307167D01*
X148841524Y-98322810D01*
X148875363Y-98349709D01*
X148922991Y-98385114D01*
X148980709Y-98426275D01*
X149044250Y-98470057D01*
X149153011Y-98545676D01*
X149241184Y-98611901D01*
X149310703Y-98671080D01*
X149363502Y-98725562D01*
X149401515Y-98777697D01*
X149426677Y-98829833D01*
X149440921Y-98884320D01*
X149446181Y-98943506D01*
X149446322Y-98958400D01*
X149435838Y-99066428D01*
X149405346Y-99159438D01*
X149355235Y-99236819D01*
X149285889Y-99297960D01*
X149205199Y-99339434D01*
X149136458Y-99358517D01*
X149052711Y-99370604D01*
X148962567Y-99375426D01*
X148874637Y-99372712D01*
X148797528Y-99362191D01*
X148763735Y-99353274D01*
X148665198Y-99309629D01*
X148586438Y-99250115D01*
X148527308Y-99174539D01*
X148487662Y-99082710D01*
X148467355Y-98974438D01*
X148466458Y-98963699D01*
X148459333Y-98869500D01*
X148793200Y-98869500D01*
X148793200Y-98946107D01*
X148799333Y-99019748D01*
X148817025Y-99076358D01*
X148845211Y-99113242D01*
X148863262Y-99123580D01*
X148915632Y-99134944D01*
X148972762Y-99133959D01*
X149027181Y-99122190D01*
X149071422Y-99101202D01*
X149096977Y-99074610D01*
X149107855Y-99035953D01*
X149109992Y-98985355D01*
X149103840Y-98934552D01*
X149090081Y-98895663D01*
X149071608Y-98874963D01*
X149036781Y-98844754D01*
X148990673Y-98809170D01*
X148940856Y-98774028D01*
X148833613Y-98700379D01*
X148746061Y-98636860D01*
X148675779Y-98581099D01*
X148620350Y-98530722D01*
X148577353Y-98483354D01*
X148544371Y-98436623D01*
X148518985Y-98388154D01*
X148501120Y-98342510D01*
X148477365Y-98242065D01*
X148477070Y-98149801D01*
X148499245Y-98067019D01*
X148542901Y-97995021D01*
X148607047Y-97935110D01*
X148690693Y-97888586D01*
X148792849Y-97856753D01*
X148880791Y-97843322D01*
X149009228Y-97839065D01*
X149120316Y-97852505D01*
G37*
X149120316Y-97852505D02*
X149215196Y-97883926D01*
X149295010Y-97933611D01*
X149315351Y-97951336D01*
X149377006Y-98026001D01*
X149417761Y-98115065D01*
X149437572Y-98218433D01*
X149438085Y-98224975D01*
X149444312Y-98310700D01*
X149285492Y-98310700D01*
X149126672Y-98310699D01*
X149117985Y-98245213D01*
X149109307Y-98199552D01*
X149097262Y-98158808D01*
X149091335Y-98144990D01*
X149060922Y-98111653D01*
X149015003Y-98090582D01*
X148960578Y-98082269D01*
X148904647Y-98087207D01*
X148854210Y-98105888D01*
X148826920Y-98126393D01*
X148812938Y-98154558D01*
X148806318Y-98197246D01*
X148807154Y-98244644D01*
X148815541Y-98286937D01*
X148825175Y-98307167D01*
X148841524Y-98322810D01*
X148875363Y-98349709D01*
X148922991Y-98385114D01*
X148980709Y-98426275D01*
X149044250Y-98470057D01*
X149153011Y-98545676D01*
X149241184Y-98611901D01*
X149310703Y-98671080D01*
X149363502Y-98725562D01*
X149401515Y-98777697D01*
X149426677Y-98829833D01*
X149440921Y-98884320D01*
X149446181Y-98943506D01*
X149446322Y-98958400D01*
X149435838Y-99066428D01*
X149405346Y-99159438D01*
X149355235Y-99236819D01*
X149285889Y-99297960D01*
X149205199Y-99339434D01*
X149136458Y-99358517D01*
X149052711Y-99370604D01*
X148962567Y-99375426D01*
X148874637Y-99372712D01*
X148797528Y-99362191D01*
X148763735Y-99353274D01*
X148665198Y-99309629D01*
X148586438Y-99250115D01*
X148527308Y-99174539D01*
X148487662Y-99082710D01*
X148467355Y-98974438D01*
X148466458Y-98963699D01*
X148459333Y-98869500D01*
X148793200Y-98869500D01*
X148793200Y-98946107D01*
X148799333Y-99019748D01*
X148817025Y-99076358D01*
X148845211Y-99113242D01*
X148863262Y-99123580D01*
X148915632Y-99134944D01*
X148972762Y-99133959D01*
X149027181Y-99122190D01*
X149071422Y-99101202D01*
X149096977Y-99074610D01*
X149107855Y-99035953D01*
X149109992Y-98985355D01*
X149103840Y-98934552D01*
X149090081Y-98895663D01*
X149071608Y-98874963D01*
X149036781Y-98844754D01*
X148990673Y-98809170D01*
X148940856Y-98774028D01*
X148833613Y-98700379D01*
X148746061Y-98636860D01*
X148675779Y-98581099D01*
X148620350Y-98530722D01*
X148577353Y-98483354D01*
X148544371Y-98436623D01*
X148518985Y-98388154D01*
X148501120Y-98342510D01*
X148477365Y-98242065D01*
X148477070Y-98149801D01*
X148499245Y-98067019D01*
X148542901Y-97995021D01*
X148607047Y-97935110D01*
X148690693Y-97888586D01*
X148792849Y-97856753D01*
X148880791Y-97843322D01*
X149009228Y-97839065D01*
X149120316Y-97852505D01*
G36*
X142786100Y-97631433D02*
G01*
X142728646Y-97626863D01*
X142687908Y-97625847D01*
X142660748Y-97633137D01*
X142644474Y-97652683D01*
X142636391Y-97688437D01*
X142633806Y-97744351D01*
X142633700Y-97766155D01*
X142633700Y-97878900D01*
X142786100Y-97878900D01*
X142786100Y-98107500D01*
X142633700Y-98107500D01*
X142633700Y-99339400D01*
X142303500Y-99339400D01*
X142303500Y-98107500D01*
X142176500Y-98107500D01*
X142176500Y-97878900D01*
X142299957Y-97878900D01*
X142306282Y-97735567D01*
X142315701Y-97629977D01*
X142335082Y-97546422D01*
X142366646Y-97482747D01*
X142412613Y-97436794D01*
X142475204Y-97406407D01*
X142556638Y-97389430D01*
X142659135Y-97383707D01*
X142668625Y-97383670D01*
X142786100Y-97383600D01*
X142786100Y-97631433D01*
G37*
X142786100Y-97631433D02*
X142728646Y-97626863D01*
X142687908Y-97625847D01*
X142660748Y-97633137D01*
X142644474Y-97652683D01*
X142636391Y-97688437D01*
X142633806Y-97744351D01*
X142633700Y-97766155D01*
X142633700Y-97878900D01*
X142786100Y-97878900D01*
X142786100Y-98107500D01*
X142633700Y-98107500D01*
X142633700Y-99339400D01*
X142303500Y-99339400D01*
X142303500Y-98107500D01*
X142176500Y-98107500D01*
X142176500Y-97878900D01*
X142299957Y-97878900D01*
X142306282Y-97735567D01*
X142315701Y-97629977D01*
X142335082Y-97546422D01*
X142366646Y-97482747D01*
X142412613Y-97436794D01*
X142475204Y-97406407D01*
X142556638Y-97389430D01*
X142659135Y-97383707D01*
X142668625Y-97383670D01*
X142786100Y-97383600D01*
X142786100Y-97631433D01*
G36*
X145796000Y-99339400D02*
G01*
X145465800Y-99339400D01*
X145465800Y-97383600D01*
X145796000Y-97383600D01*
X145796000Y-99339400D01*
G37*
X145796000Y-99339400D02*
X145465800Y-99339400D01*
X145465800Y-97383600D01*
X145796000Y-97383600D01*
X145796000Y-99339400D01*
G36*
X149838873Y-98779424D02*
G01*
X149847009Y-98803497D01*
X149847300Y-98812255D01*
X149841210Y-98835701D01*
X149818375Y-98845614D01*
X149812375Y-98846431D01*
X149787251Y-98853548D01*
X149778207Y-98872539D01*
X149777450Y-98888550D01*
X149777450Y-98926650D01*
X149905718Y-98930248D01*
X149966678Y-98931252D01*
X150007284Y-98929793D01*
X150032512Y-98925291D01*
X150047338Y-98917165D01*
X150051032Y-98913308D01*
X150060535Y-98887291D01*
X150048171Y-98864390D01*
X150017426Y-98849249D01*
X150000833Y-98846413D01*
X149972901Y-98840916D01*
X149963367Y-98827419D01*
X149964014Y-98808313D01*
X149969551Y-98785615D01*
X149984361Y-98777380D01*
X150012400Y-98778058D01*
X150059181Y-98793203D01*
X150093346Y-98825442D01*
X150111921Y-98868368D01*
X150111933Y-98915576D01*
X150094575Y-98955080D01*
X150063746Y-98979679D01*
X150014208Y-98997248D01*
X149951878Y-99006969D01*
X149882676Y-99008025D01*
X149812520Y-98999598D01*
X149796805Y-98996217D01*
X149748722Y-98974133D01*
X149717712Y-98936915D01*
X149707600Y-98892658D01*
X149716782Y-98840933D01*
X149745828Y-98804116D01*
X149779031Y-98785470D01*
X149817249Y-98773822D01*
X149838873Y-98779424D01*
G37*
X149838873Y-98779424D02*
X149847009Y-98803497D01*
X149847300Y-98812255D01*
X149841210Y-98835701D01*
X149818375Y-98845614D01*
X149812375Y-98846431D01*
X149787251Y-98853548D01*
X149778207Y-98872539D01*
X149777450Y-98888550D01*
X149777450Y-98926650D01*
X149905718Y-98930248D01*
X149966678Y-98931252D01*
X150007284Y-98929793D01*
X150032512Y-98925291D01*
X150047338Y-98917165D01*
X150051032Y-98913308D01*
X150060535Y-98887291D01*
X150048171Y-98864390D01*
X150017426Y-98849249D01*
X150000833Y-98846413D01*
X149972901Y-98840916D01*
X149963367Y-98827419D01*
X149964014Y-98808313D01*
X149969551Y-98785615D01*
X149984361Y-98777380D01*
X150012400Y-98778058D01*
X150059181Y-98793203D01*
X150093346Y-98825442D01*
X150111921Y-98868368D01*
X150111933Y-98915576D01*
X150094575Y-98955080D01*
X150063746Y-98979679D01*
X150014208Y-98997248D01*
X149951878Y-99006969D01*
X149882676Y-99008025D01*
X149812520Y-98999598D01*
X149796805Y-98996217D01*
X149748722Y-98974133D01*
X149717712Y-98936915D01*
X149707600Y-98892658D01*
X149716782Y-98840933D01*
X149745828Y-98804116D01*
X149779031Y-98785470D01*
X149817249Y-98773822D01*
X149838873Y-98779424D01*
G36*
X150022394Y-98432017D02*
G01*
X150067448Y-98447080D01*
X150095921Y-98472336D01*
X150110507Y-98509160D01*
X150114000Y-98550593D01*
X150107375Y-98607819D01*
X150085423Y-98646479D01*
X150045026Y-98670279D01*
X150005226Y-98679899D01*
X149947272Y-98687502D01*
X149897585Y-98688339D01*
X149841826Y-98682376D01*
X149823004Y-98679456D01*
X149769201Y-98660191D01*
X149730577Y-98625544D01*
X149709239Y-98580788D01*
X149707830Y-98544810D01*
X149785767Y-98544810D01*
X149791254Y-98571330D01*
X149803896Y-98586085D01*
X149829170Y-98594921D01*
X149871011Y-98600570D01*
X149920743Y-98602674D01*
X149969691Y-98600874D01*
X150009180Y-98594809D01*
X150009908Y-98594616D01*
X150031664Y-98582250D01*
X150035650Y-98556820D01*
X150035308Y-98553515D01*
X150031450Y-98520250D01*
X149910973Y-98520250D01*
X149854579Y-98520715D01*
X149818693Y-98522750D01*
X149798431Y-98527313D01*
X149788908Y-98535362D01*
X149785767Y-98544810D01*
X149707830Y-98544810D01*
X149707296Y-98531197D01*
X149726857Y-98482045D01*
X149738121Y-98467133D01*
X149755658Y-98449235D01*
X149775014Y-98438161D01*
X149803068Y-98431841D01*
X149846703Y-98428208D01*
X149871766Y-98426966D01*
X149958065Y-98425770D01*
X150022394Y-98432017D01*
G37*
X150022394Y-98432017D02*
X150067448Y-98447080D01*
X150095921Y-98472336D01*
X150110507Y-98509160D01*
X150114000Y-98550593D01*
X150107375Y-98607819D01*
X150085423Y-98646479D01*
X150045026Y-98670279D01*
X150005226Y-98679899D01*
X149947272Y-98687502D01*
X149897585Y-98688339D01*
X149841826Y-98682376D01*
X149823004Y-98679456D01*
X149769201Y-98660191D01*
X149730577Y-98625544D01*
X149709239Y-98580788D01*
X149707830Y-98544810D01*
X149785767Y-98544810D01*
X149791254Y-98571330D01*
X149803896Y-98586085D01*
X149829170Y-98594921D01*
X149871011Y-98600570D01*
X149920743Y-98602674D01*
X149969691Y-98600874D01*
X150009180Y-98594809D01*
X150009908Y-98594616D01*
X150031664Y-98582250D01*
X150035650Y-98556820D01*
X150035308Y-98553515D01*
X150031450Y-98520250D01*
X149910973Y-98520250D01*
X149854579Y-98520715D01*
X149818693Y-98522750D01*
X149798431Y-98527313D01*
X149788908Y-98535362D01*
X149785767Y-98544810D01*
X149707830Y-98544810D01*
X149707296Y-98531197D01*
X149726857Y-98482045D01*
X149738121Y-98467133D01*
X149755658Y-98449235D01*
X149775014Y-98438161D01*
X149803068Y-98431841D01*
X149846703Y-98428208D01*
X149871766Y-98426966D01*
X149958065Y-98425770D01*
X150022394Y-98432017D01*
G36*
X150111668Y-97901125D02*
G01*
X150107650Y-97936050D01*
X149938630Y-97939598D01*
X149769611Y-97943147D01*
X149773530Y-97990398D01*
X149777450Y-98037650D01*
X150107650Y-98050350D01*
X150111632Y-98084900D01*
X150115614Y-98119451D01*
X149946532Y-98123000D01*
X149777450Y-98126550D01*
X149773332Y-98169668D01*
X149775190Y-98204817D01*
X149786032Y-98223448D01*
X149804691Y-98227576D01*
X149843185Y-98230993D01*
X149895949Y-98233351D01*
X149957422Y-98234302D01*
X149959268Y-98234305D01*
X150115687Y-98234500D01*
X150111668Y-98269425D01*
X150107650Y-98304350D01*
X149913975Y-98307855D01*
X149720300Y-98311361D01*
X149720300Y-98272930D01*
X149723949Y-98246036D01*
X149732753Y-98234507D01*
X149733000Y-98234500D01*
X149744576Y-98225775D01*
X149742661Y-98206115D01*
X149728477Y-98185289D01*
X149726650Y-98183700D01*
X149712310Y-98159782D01*
X149707600Y-98132900D01*
X149714142Y-98101132D01*
X149726650Y-98082100D01*
X149742912Y-98057884D01*
X149745700Y-98044000D01*
X149736539Y-98017368D01*
X149726650Y-98005900D01*
X149710683Y-97978003D01*
X149709647Y-97940602D01*
X149722952Y-97904297D01*
X149733000Y-97891600D01*
X149745316Y-97881449D01*
X149761472Y-97874411D01*
X149785960Y-97869927D01*
X149823270Y-97867438D01*
X149877893Y-97866384D01*
X149937043Y-97866200D01*
X150115687Y-97866200D01*
X150111668Y-97901125D01*
G37*
X150111668Y-97901125D02*
X150107650Y-97936050D01*
X149938630Y-97939598D01*
X149769611Y-97943147D01*
X149773530Y-97990398D01*
X149777450Y-98037650D01*
X150107650Y-98050350D01*
X150111632Y-98084900D01*
X150115614Y-98119451D01*
X149946532Y-98123000D01*
X149777450Y-98126550D01*
X149773332Y-98169668D01*
X149775190Y-98204817D01*
X149786032Y-98223448D01*
X149804691Y-98227576D01*
X149843185Y-98230993D01*
X149895949Y-98233351D01*
X149957422Y-98234302D01*
X149959268Y-98234305D01*
X150115687Y-98234500D01*
X150111668Y-98269425D01*
X150107650Y-98304350D01*
X149913975Y-98307855D01*
X149720300Y-98311361D01*
X149720300Y-98272930D01*
X149723949Y-98246036D01*
X149732753Y-98234507D01*
X149733000Y-98234500D01*
X149744576Y-98225775D01*
X149742661Y-98206115D01*
X149728477Y-98185289D01*
X149726650Y-98183700D01*
X149712310Y-98159782D01*
X149707600Y-98132900D01*
X149714142Y-98101132D01*
X149726650Y-98082100D01*
X149742912Y-98057884D01*
X149745700Y-98044000D01*
X149736539Y-98017368D01*
X149726650Y-98005900D01*
X149710683Y-97978003D01*
X149709647Y-97940602D01*
X149722952Y-97904297D01*
X149733000Y-97891600D01*
X149745316Y-97881449D01*
X149761472Y-97874411D01*
X149785960Y-97869927D01*
X149823270Y-97867438D01*
X149877893Y-97866384D01*
X149937043Y-97866200D01*
X150115687Y-97866200D01*
X150111668Y-97901125D01*
D17*
X144172000Y-101712779D02*
X144172000Y-101387221D01*
X145192000Y-101712779D02*
X145192000Y-101387221D01*
X145910000Y-130632779D02*
X145910000Y-130307221D01*
X144890000Y-130632779D02*
X144890000Y-130307221D01*
D14*
X151110000Y-109510000D02*
G75*
G03X151110000Y-109510000I-100000J0D01*
G01*
X151010000Y-109510000D02*
G75*
G03X151010000Y-109510000I-100000J0D01*
G01*
X151233606Y-109510000D02*
G75*
G03X151233606Y-109510000I-223606J0D01*
G01*
X149310000Y-108710000D02*
G75*
G03X149310000Y-108710000I-100000J0D01*
G01*
X149310000Y-108810000D02*
G75*
G03X149310000Y-108810000I-100000J0D01*
G01*
X149351419Y-108810000D02*
G75*
G03X149351419Y-108810000I-141419J0D01*
G01*
X149433606Y-108810000D02*
G75*
G03X149433606Y-108810000I-223606J0D01*
G01*
X149526225Y-108810000D02*
G75*
G03X149526225Y-108810000I-316225J0D01*
G01*
D16*
X149885000Y-104260000D02*
X149885000Y-109560000D01*
X144935000Y-104260000D02*
X149885000Y-104260000D01*
X144935000Y-109560000D02*
X144935000Y-104260000D01*
X149885000Y-109560000D02*
X144935000Y-109560000D01*
D17*
X155310000Y-127362779D02*
X155310000Y-127037221D01*
X154290000Y-127362779D02*
X154290000Y-127037221D01*
X146746279Y-110996000D02*
X146420721Y-110996000D01*
X146746279Y-112016000D02*
X146420721Y-112016000D01*
X153270000Y-129720000D02*
X154600000Y-129720000D01*
X153270000Y-131050000D02*
X153270000Y-129720000D01*
X153270000Y-132320000D02*
X155930000Y-132320000D01*
X155930000Y-132320000D02*
X155930000Y-134920000D01*
X153270000Y-132320000D02*
X153270000Y-134920000D01*
X153270000Y-134920000D02*
X155930000Y-134920000D01*
X140590000Y-135920000D02*
X140590000Y-141120000D01*
X153350000Y-135920000D02*
X140590000Y-135920000D01*
X155950000Y-141120000D02*
X140590000Y-141120000D01*
X153350000Y-135920000D02*
X153350000Y-138520000D01*
X153350000Y-138520000D02*
X155950000Y-138520000D01*
X155950000Y-138520000D02*
X155950000Y-141120000D01*
X154620000Y-135920000D02*
X155950000Y-135920000D01*
X155950000Y-135920000D02*
X155950000Y-137250000D01*
X141330000Y-105199721D02*
X141330000Y-105525279D01*
X142350000Y-105199721D02*
X142350000Y-105525279D01*
X142562000Y-101397221D02*
X142562000Y-101722779D01*
X143582000Y-101397221D02*
X143582000Y-101722779D01*
X153832779Y-108280000D02*
X153507221Y-108280000D01*
X153832779Y-109300000D02*
X153507221Y-109300000D01*
X143390000Y-134970000D02*
X142060000Y-134970000D01*
X143390000Y-133640000D02*
X143390000Y-134970000D01*
X143390000Y-132370000D02*
X140730000Y-132370000D01*
X140730000Y-132370000D02*
X140730000Y-129770000D01*
X143390000Y-132370000D02*
X143390000Y-129770000D01*
X143390000Y-129770000D02*
X140730000Y-129770000D01*
X144890000Y-127187221D02*
X144890000Y-127512779D01*
X145910000Y-127187221D02*
X145910000Y-127512779D01*
X147355000Y-135395000D02*
X147355000Y-133110000D01*
X145885000Y-135395000D02*
X147355000Y-135395000D01*
X145885000Y-133110000D02*
X145885000Y-135395000D01*
X147081300Y-103043600D02*
X147081300Y-100758600D01*
X145611300Y-103043600D02*
X147081300Y-103043600D01*
X145611300Y-100758600D02*
X145611300Y-103043600D01*
X148833900Y-103043600D02*
X148833900Y-100758600D01*
X147363900Y-103043600D02*
X148833900Y-103043600D01*
X147363900Y-100758600D02*
X147363900Y-103043600D01*
X149057221Y-129020000D02*
X149382779Y-129020000D01*
X149057221Y-128000000D02*
X149382779Y-128000000D01*
X154848779Y-102106000D02*
X154523221Y-102106000D01*
X154848779Y-103126000D02*
X154523221Y-103126000D01*
X143240000Y-111732779D02*
X143240000Y-111407221D01*
X144260000Y-111732779D02*
X144260000Y-111407221D01*
X151894000Y-101437221D02*
X151894000Y-101762779D01*
X150874000Y-101437221D02*
X150874000Y-101762779D01*
X147430000Y-128369721D02*
X147430000Y-128695279D01*
X146410000Y-128369721D02*
X146410000Y-128695279D01*
X150620000Y-94071221D02*
X150620000Y-94396779D01*
X151640000Y-94071221D02*
X151640000Y-94396779D01*
X151300000Y-113700779D02*
X151300000Y-113375221D01*
X150280000Y-113700779D02*
X150280000Y-113375221D01*
X148770000Y-113202779D02*
X148770000Y-112877221D01*
X149790000Y-113202779D02*
X149790000Y-112877221D01*
X155332000Y-98212000D02*
X153532000Y-98212000D01*
X153532000Y-101432000D02*
X155982000Y-101432000D01*
X156924600Y-84047100D02*
X158254600Y-84047100D01*
X156924600Y-85377100D02*
X156924600Y-84047100D01*
X156924600Y-86647100D02*
X159584600Y-86647100D01*
X159584600Y-86647100D02*
X159584600Y-134967100D01*
X156924600Y-86647100D02*
X156924600Y-134967100D01*
X156924600Y-134967100D02*
X159584600Y-134967100D01*
X153807279Y-106040000D02*
X153481721Y-106040000D01*
X153807279Y-105020000D02*
X153481721Y-105020000D01*
X154267440Y-123816701D02*
X154267440Y-124142259D01*
X155287440Y-123816701D02*
X155287440Y-124142259D01*
X155196000Y-91094779D02*
X155196000Y-90769221D01*
X154176000Y-91094779D02*
X154176000Y-90769221D01*
X150262000Y-101732779D02*
X150262000Y-101407221D01*
X149242000Y-101732779D02*
X149242000Y-101407221D01*
X150569200Y-97881221D02*
X150569200Y-98206779D01*
X151589200Y-97881221D02*
X151589200Y-98206779D01*
X153832779Y-107650000D02*
X153507221Y-107650000D01*
X153832779Y-106630000D02*
X153507221Y-106630000D01*
X141320000Y-108592779D02*
X141320000Y-108267221D01*
X142340000Y-108592779D02*
X142340000Y-108267221D01*
X141476000Y-90332779D02*
X141476000Y-90007221D01*
X142496000Y-90332779D02*
X142496000Y-90007221D01*
X152260000Y-130737221D02*
X152260000Y-131062779D01*
X151240000Y-130737221D02*
X151240000Y-131062779D01*
X150710000Y-131062779D02*
X150710000Y-130737221D01*
X149690000Y-131062779D02*
X149690000Y-130737221D01*
X148090000Y-131050279D02*
X148090000Y-130724721D01*
X149110000Y-131050279D02*
X149110000Y-130724721D01*
X144590000Y-133737221D02*
X144590000Y-134062779D01*
X145610000Y-133737221D02*
X145610000Y-134062779D01*
D15*
X147812000Y-96142000D02*
X145812000Y-96142000D01*
X148662000Y-93617000D02*
X148662000Y-93342000D01*
X148662000Y-93342000D02*
X148312000Y-93342000D01*
X144962000Y-93617000D02*
X144962000Y-93342000D01*
X144962000Y-93342000D02*
X145312000Y-93342000D01*
D17*
X153024000Y-96098000D02*
X155474000Y-96098000D01*
X154824000Y-92878000D02*
X153024000Y-92878000D01*
X147565000Y-133102500D02*
X147565000Y-135387500D01*
X147565000Y-135387500D02*
X149035000Y-135387500D01*
X149035000Y-135387500D02*
X149035000Y-133102500D01*
X150675000Y-135425000D02*
X150675000Y-133140000D01*
X149205000Y-135425000D02*
X150675000Y-135425000D01*
X149205000Y-133140000D02*
X149205000Y-135425000D01*
X150935000Y-133130000D02*
X150935000Y-135415000D01*
X150935000Y-135415000D02*
X152405000Y-135415000D01*
X152405000Y-135415000D02*
X152405000Y-133130000D01*
X142721000Y-88099000D02*
X142721000Y-85814000D01*
X141251000Y-88099000D02*
X142721000Y-88099000D01*
X141251000Y-85814000D02*
X141251000Y-88099000D01*
D19*
X149606000Y-90815885D02*
X149606000Y-91033600D01*
X149591485Y-91077142D01*
X149562457Y-91106171D01*
X149518914Y-91120685D01*
X149489885Y-91120685D01*
X149910800Y-91120685D02*
X149736628Y-91120685D01*
X149823714Y-91120685D02*
X149823714Y-90815885D01*
X149794685Y-90859428D01*
X149765657Y-90888457D01*
X149736628Y-90902971D01*
D20*
X150072857Y-88139523D02*
X149707142Y-88139523D01*
X149890000Y-88139523D02*
X149890000Y-87499523D01*
X149829047Y-87590952D01*
X149768095Y-87651904D01*
X149707142Y-87682380D01*
X150072857Y-88139523D02*
X149707142Y-88139523D01*
X149890000Y-88139523D02*
X149890000Y-87499523D01*
X149829047Y-87590952D01*
X149768095Y-87651904D01*
X149707142Y-87682380D01*
D19*
X153608217Y-115504685D02*
X153811417Y-115809485D01*
X153811417Y-115504685D02*
X153608217Y-115809485D01*
X153913017Y-115533714D02*
X153927531Y-115519200D01*
X153956560Y-115504685D01*
X154029131Y-115504685D01*
X154058160Y-115519200D01*
X154072674Y-115533714D01*
X154087188Y-115562742D01*
X154087188Y-115591771D01*
X154072674Y-115635314D01*
X153898502Y-115809485D01*
X154087188Y-115809485D01*
X154936446Y-120531427D02*
X154720919Y-120315901D01*
X155141709Y-120285111D02*
X155141709Y-120305638D01*
X155121182Y-120346690D01*
X155100656Y-120367217D01*
X155059603Y-120387743D01*
X155018551Y-120387743D01*
X154987761Y-120377480D01*
X154936446Y-120346690D01*
X154905656Y-120315901D01*
X154874867Y-120264585D01*
X154864604Y-120233796D01*
X154864604Y-120192743D01*
X154885130Y-120151691D01*
X154905656Y-120131164D01*
X154946709Y-120110638D01*
X154967235Y-120110638D01*
X155367498Y-120100375D02*
X155244340Y-120223533D01*
X155305919Y-120161954D02*
X155090393Y-119946428D01*
X155100656Y-119997743D01*
X155100656Y-120038796D01*
X155090393Y-120069585D01*
X138750657Y-83732985D02*
X138750657Y-83950700D01*
X138736142Y-83994242D01*
X138707114Y-84023271D01*
X138663571Y-84037785D01*
X138634542Y-84037785D01*
X139055457Y-84037785D02*
X138881285Y-84037785D01*
X138968371Y-84037785D02*
X138968371Y-83732985D01*
X138939342Y-83776528D01*
X138910314Y-83805557D01*
X138881285Y-83820071D01*
X139171571Y-83762014D02*
X139186085Y-83747500D01*
X139215114Y-83732985D01*
X139287685Y-83732985D01*
X139316714Y-83747500D01*
X139331228Y-83762014D01*
X139345742Y-83791042D01*
X139345742Y-83820071D01*
X139331228Y-83863614D01*
X139157057Y-84037785D01*
X139345742Y-84037785D01*
X144444057Y-100087885D02*
X144342457Y-99942742D01*
X144269885Y-100087885D02*
X144269885Y-99783085D01*
X144386000Y-99783085D01*
X144415028Y-99797600D01*
X144429542Y-99812114D01*
X144444057Y-99841142D01*
X144444057Y-99884685D01*
X144429542Y-99913714D01*
X144415028Y-99928228D01*
X144386000Y-99942742D01*
X144269885Y-99942742D01*
X144734342Y-100087885D02*
X144560171Y-100087885D01*
X144647257Y-100087885D02*
X144647257Y-99783085D01*
X144618228Y-99826628D01*
X144589200Y-99855657D01*
X144560171Y-99870171D01*
X144835942Y-99783085D02*
X145024628Y-99783085D01*
X144923028Y-99899200D01*
X144966571Y-99899200D01*
X144995600Y-99913714D01*
X145010114Y-99928228D01*
X145024628Y-99957257D01*
X145024628Y-100029828D01*
X145010114Y-100058857D01*
X144995600Y-100073371D01*
X144966571Y-100087885D01*
X144879485Y-100087885D01*
X144850457Y-100073371D01*
X144835942Y-100058857D01*
X144076057Y-130563257D02*
X144061542Y-130577771D01*
X144018000Y-130592285D01*
X143988971Y-130592285D01*
X143945428Y-130577771D01*
X143916400Y-130548742D01*
X143901885Y-130519714D01*
X143887371Y-130461657D01*
X143887371Y-130418114D01*
X143901885Y-130360057D01*
X143916400Y-130331028D01*
X143945428Y-130302000D01*
X143988971Y-130287485D01*
X144018000Y-130287485D01*
X144061542Y-130302000D01*
X144076057Y-130316514D01*
X144366342Y-130592285D02*
X144192171Y-130592285D01*
X144279257Y-130592285D02*
X144279257Y-130287485D01*
X144250228Y-130331028D01*
X144221200Y-130360057D01*
X144192171Y-130374571D01*
X144555028Y-130287485D02*
X144584057Y-130287485D01*
X144613085Y-130302000D01*
X144627600Y-130316514D01*
X144642114Y-130345542D01*
X144656628Y-130403600D01*
X144656628Y-130476171D01*
X144642114Y-130534228D01*
X144627600Y-130563257D01*
X144613085Y-130577771D01*
X144584057Y-130592285D01*
X144555028Y-130592285D01*
X144526000Y-130577771D01*
X144511485Y-130563257D01*
X144496971Y-130534228D01*
X144482457Y-130476171D01*
X144482457Y-130403600D01*
X144496971Y-130345542D01*
X144511485Y-130316514D01*
X144526000Y-130302000D01*
X144555028Y-130287485D01*
X147327771Y-110073085D02*
X147327771Y-110319828D01*
X147342285Y-110348857D01*
X147356800Y-110363371D01*
X147385828Y-110377885D01*
X147443885Y-110377885D01*
X147472914Y-110363371D01*
X147487428Y-110348857D01*
X147501942Y-110319828D01*
X147501942Y-110073085D01*
X147632571Y-110102114D02*
X147647085Y-110087600D01*
X147676114Y-110073085D01*
X147748685Y-110073085D01*
X147777714Y-110087600D01*
X147792228Y-110102114D01*
X147806742Y-110131142D01*
X147806742Y-110160171D01*
X147792228Y-110203714D01*
X147618057Y-110377885D01*
X147806742Y-110377885D01*
X153423257Y-127337885D02*
X153321657Y-127192742D01*
X153249085Y-127337885D02*
X153249085Y-127033085D01*
X153365200Y-127033085D01*
X153394228Y-127047600D01*
X153408742Y-127062114D01*
X153423257Y-127091142D01*
X153423257Y-127134685D01*
X153408742Y-127163714D01*
X153394228Y-127178228D01*
X153365200Y-127192742D01*
X153249085Y-127192742D01*
X153539371Y-127062114D02*
X153553885Y-127047600D01*
X153582914Y-127033085D01*
X153655485Y-127033085D01*
X153684514Y-127047600D01*
X153699028Y-127062114D01*
X153713542Y-127091142D01*
X153713542Y-127120171D01*
X153699028Y-127163714D01*
X153524857Y-127337885D01*
X153713542Y-127337885D01*
X153989314Y-127033085D02*
X153844171Y-127033085D01*
X153829657Y-127178228D01*
X153844171Y-127163714D01*
X153873200Y-127149200D01*
X153945771Y-127149200D01*
X153974800Y-127163714D01*
X153989314Y-127178228D01*
X154003828Y-127207257D01*
X154003828Y-127279828D01*
X153989314Y-127308857D01*
X153974800Y-127323371D01*
X153945771Y-127337885D01*
X153873200Y-127337885D01*
X153844171Y-127323371D01*
X153829657Y-127308857D01*
X146741385Y-110571942D02*
X146596242Y-110673542D01*
X146741385Y-110746114D02*
X146436585Y-110746114D01*
X146436585Y-110630000D01*
X146451100Y-110600971D01*
X146465614Y-110586457D01*
X146494642Y-110571942D01*
X146538185Y-110571942D01*
X146567214Y-110586457D01*
X146581728Y-110600971D01*
X146596242Y-110630000D01*
X146596242Y-110746114D01*
X146465614Y-110455828D02*
X146451100Y-110441314D01*
X146436585Y-110412285D01*
X146436585Y-110339714D01*
X146451100Y-110310685D01*
X146465614Y-110296171D01*
X146494642Y-110281657D01*
X146523671Y-110281657D01*
X146567214Y-110296171D01*
X146741385Y-110470342D01*
X146741385Y-110281657D01*
X146436585Y-110180057D02*
X146436585Y-109991371D01*
X146552700Y-110092971D01*
X146552700Y-110049428D01*
X146567214Y-110020400D01*
X146581728Y-110005885D01*
X146610757Y-109991371D01*
X146683328Y-109991371D01*
X146712357Y-110005885D01*
X146726871Y-110020400D01*
X146741385Y-110049428D01*
X146741385Y-110136514D01*
X146726871Y-110165542D01*
X146712357Y-110180057D01*
X155358400Y-129593085D02*
X155358400Y-129810800D01*
X155343885Y-129854342D01*
X155314857Y-129883371D01*
X155271314Y-129897885D01*
X155242285Y-129897885D01*
X155474514Y-129593085D02*
X155663200Y-129593085D01*
X155561600Y-129709200D01*
X155605142Y-129709200D01*
X155634171Y-129723714D01*
X155648685Y-129738228D01*
X155663200Y-129767257D01*
X155663200Y-129839828D01*
X155648685Y-129868857D01*
X155634171Y-129883371D01*
X155605142Y-129897885D01*
X155518057Y-129897885D01*
X155489028Y-129883371D01*
X155474514Y-129868857D01*
X155088400Y-135473085D02*
X155088400Y-135690800D01*
X155073885Y-135734342D01*
X155044857Y-135763371D01*
X155001314Y-135777885D01*
X154972285Y-135777885D01*
X155248057Y-135777885D02*
X155306114Y-135777885D01*
X155335142Y-135763371D01*
X155349657Y-135748857D01*
X155378685Y-135705314D01*
X155393200Y-135647257D01*
X155393200Y-135531142D01*
X155378685Y-135502114D01*
X155364171Y-135487600D01*
X155335142Y-135473085D01*
X155277085Y-135473085D01*
X155248057Y-135487600D01*
X155233542Y-135502114D01*
X155219028Y-135531142D01*
X155219028Y-135603714D01*
X155233542Y-135632742D01*
X155248057Y-135647257D01*
X155277085Y-135661771D01*
X155335142Y-135661771D01*
X155364171Y-135647257D01*
X155378685Y-135632742D01*
X155393200Y-135603714D01*
X142674057Y-105760385D02*
X142572457Y-105615242D01*
X142499885Y-105760385D02*
X142499885Y-105455585D01*
X142616000Y-105455585D01*
X142645028Y-105470100D01*
X142659542Y-105484614D01*
X142674057Y-105513642D01*
X142674057Y-105557185D01*
X142659542Y-105586214D01*
X142645028Y-105600728D01*
X142616000Y-105615242D01*
X142499885Y-105615242D01*
X142964342Y-105760385D02*
X142790171Y-105760385D01*
X142877257Y-105760385D02*
X142877257Y-105455585D01*
X142848228Y-105499128D01*
X142819200Y-105528157D01*
X142790171Y-105542671D01*
X143225600Y-105455585D02*
X143167542Y-105455585D01*
X143138514Y-105470100D01*
X143124000Y-105484614D01*
X143094971Y-105528157D01*
X143080457Y-105586214D01*
X143080457Y-105702328D01*
X143094971Y-105731357D01*
X143109485Y-105745871D01*
X143138514Y-105760385D01*
X143196571Y-105760385D01*
X143225600Y-105745871D01*
X143240114Y-105731357D01*
X143254628Y-105702328D01*
X143254628Y-105629757D01*
X143240114Y-105600728D01*
X143225600Y-105586214D01*
X143196571Y-105571700D01*
X143138514Y-105571700D01*
X143109485Y-105586214D01*
X143094971Y-105600728D01*
X143080457Y-105629757D01*
X142844057Y-100047885D02*
X142742457Y-99902742D01*
X142669885Y-100047885D02*
X142669885Y-99743085D01*
X142786000Y-99743085D01*
X142815028Y-99757600D01*
X142829542Y-99772114D01*
X142844057Y-99801142D01*
X142844057Y-99844685D01*
X142829542Y-99873714D01*
X142815028Y-99888228D01*
X142786000Y-99902742D01*
X142669885Y-99902742D01*
X143134342Y-100047885D02*
X142960171Y-100047885D01*
X143047257Y-100047885D02*
X143047257Y-99743085D01*
X143018228Y-99786628D01*
X142989200Y-99815657D01*
X142960171Y-99830171D01*
X143410114Y-99743085D02*
X143264971Y-99743085D01*
X143250457Y-99888228D01*
X143264971Y-99873714D01*
X143294000Y-99859200D01*
X143366571Y-99859200D01*
X143395600Y-99873714D01*
X143410114Y-99888228D01*
X143424628Y-99917257D01*
X143424628Y-99989828D01*
X143410114Y-100018857D01*
X143395600Y-100033371D01*
X143366571Y-100047885D01*
X143294000Y-100047885D01*
X143264971Y-100033371D01*
X143250457Y-100018857D01*
X151889200Y-108947885D02*
X151787600Y-108802742D01*
X151715028Y-108947885D02*
X151715028Y-108643085D01*
X151831142Y-108643085D01*
X151860171Y-108657600D01*
X151874685Y-108672114D01*
X151889200Y-108701142D01*
X151889200Y-108744685D01*
X151874685Y-108773714D01*
X151860171Y-108788228D01*
X151831142Y-108802742D01*
X151715028Y-108802742D01*
X152063371Y-108773714D02*
X152034342Y-108759200D01*
X152019828Y-108744685D01*
X152005314Y-108715657D01*
X152005314Y-108701142D01*
X152019828Y-108672114D01*
X152034342Y-108657600D01*
X152063371Y-108643085D01*
X152121428Y-108643085D01*
X152150457Y-108657600D01*
X152164971Y-108672114D01*
X152179485Y-108701142D01*
X152179485Y-108715657D01*
X152164971Y-108744685D01*
X152150457Y-108759200D01*
X152121428Y-108773714D01*
X152063371Y-108773714D01*
X152034342Y-108788228D01*
X152019828Y-108802742D01*
X152005314Y-108831771D01*
X152005314Y-108889828D01*
X152019828Y-108918857D01*
X152034342Y-108933371D01*
X152063371Y-108947885D01*
X152121428Y-108947885D01*
X152150457Y-108933371D01*
X152164971Y-108918857D01*
X152179485Y-108889828D01*
X152179485Y-108831771D01*
X152164971Y-108802742D01*
X152150457Y-108788228D01*
X152121428Y-108773714D01*
X141488400Y-134743085D02*
X141488400Y-134960800D01*
X141473885Y-135004342D01*
X141444857Y-135033371D01*
X141401314Y-135047885D01*
X141372285Y-135047885D01*
X141619028Y-134772114D02*
X141633542Y-134757600D01*
X141662571Y-134743085D01*
X141735142Y-134743085D01*
X141764171Y-134757600D01*
X141778685Y-134772114D01*
X141793200Y-134801142D01*
X141793200Y-134830171D01*
X141778685Y-134873714D01*
X141604514Y-135047885D01*
X141793200Y-135047885D01*
X146289200Y-126828857D02*
X146274685Y-126843371D01*
X146231142Y-126857885D01*
X146202114Y-126857885D01*
X146158571Y-126843371D01*
X146129542Y-126814342D01*
X146115028Y-126785314D01*
X146100514Y-126727257D01*
X146100514Y-126683714D01*
X146115028Y-126625657D01*
X146129542Y-126596628D01*
X146158571Y-126567600D01*
X146202114Y-126553085D01*
X146231142Y-126553085D01*
X146274685Y-126567600D01*
X146289200Y-126582114D01*
X146390800Y-126553085D02*
X146579485Y-126553085D01*
X146477885Y-126669200D01*
X146521428Y-126669200D01*
X146550457Y-126683714D01*
X146564971Y-126698228D01*
X146579485Y-126727257D01*
X146579485Y-126799828D01*
X146564971Y-126828857D01*
X146550457Y-126843371D01*
X146521428Y-126857885D01*
X146434342Y-126857885D01*
X146405314Y-126843371D01*
X146390800Y-126828857D01*
X146395028Y-135807885D02*
X146395028Y-135503085D01*
X146467600Y-135503085D01*
X146511142Y-135517600D01*
X146540171Y-135546628D01*
X146554685Y-135575657D01*
X146569200Y-135633714D01*
X146569200Y-135677257D01*
X146554685Y-135735314D01*
X146540171Y-135764342D01*
X146511142Y-135793371D01*
X146467600Y-135807885D01*
X146395028Y-135807885D01*
X146670800Y-135503085D02*
X146874000Y-135503085D01*
X146743371Y-135807885D01*
X146085028Y-103467885D02*
X146085028Y-103163085D01*
X146157600Y-103163085D01*
X146201142Y-103177600D01*
X146230171Y-103206628D01*
X146244685Y-103235657D01*
X146259200Y-103293714D01*
X146259200Y-103337257D01*
X146244685Y-103395314D01*
X146230171Y-103424342D01*
X146201142Y-103453371D01*
X146157600Y-103467885D01*
X146085028Y-103467885D01*
X146520457Y-103163085D02*
X146462400Y-103163085D01*
X146433371Y-103177600D01*
X146418857Y-103192114D01*
X146389828Y-103235657D01*
X146375314Y-103293714D01*
X146375314Y-103409828D01*
X146389828Y-103438857D01*
X146404342Y-103453371D01*
X146433371Y-103467885D01*
X146491428Y-103467885D01*
X146520457Y-103453371D01*
X146534971Y-103438857D01*
X146549485Y-103409828D01*
X146549485Y-103337257D01*
X146534971Y-103308228D01*
X146520457Y-103293714D01*
X146491428Y-103279200D01*
X146433371Y-103279200D01*
X146404342Y-103293714D01*
X146389828Y-103308228D01*
X146375314Y-103337257D01*
X147875028Y-103477885D02*
X147875028Y-103173085D01*
X147947600Y-103173085D01*
X147991142Y-103187600D01*
X148020171Y-103216628D01*
X148034685Y-103245657D01*
X148049200Y-103303714D01*
X148049200Y-103347257D01*
X148034685Y-103405314D01*
X148020171Y-103434342D01*
X147991142Y-103463371D01*
X147947600Y-103477885D01*
X147875028Y-103477885D01*
X148324971Y-103173085D02*
X148179828Y-103173085D01*
X148165314Y-103318228D01*
X148179828Y-103303714D01*
X148208857Y-103289200D01*
X148281428Y-103289200D01*
X148310457Y-103303714D01*
X148324971Y-103318228D01*
X148339485Y-103347257D01*
X148339485Y-103419828D01*
X148324971Y-103448857D01*
X148310457Y-103463371D01*
X148281428Y-103477885D01*
X148208857Y-103477885D01*
X148179828Y-103463371D01*
X148165314Y-103448857D01*
X149209200Y-127858857D02*
X149194685Y-127873371D01*
X149151142Y-127887885D01*
X149122114Y-127887885D01*
X149078571Y-127873371D01*
X149049542Y-127844342D01*
X149035028Y-127815314D01*
X149020514Y-127757257D01*
X149020514Y-127713714D01*
X149035028Y-127655657D01*
X149049542Y-127626628D01*
X149078571Y-127597600D01*
X149122114Y-127583085D01*
X149151142Y-127583085D01*
X149194685Y-127597600D01*
X149209200Y-127612114D01*
X149325314Y-127612114D02*
X149339828Y-127597600D01*
X149368857Y-127583085D01*
X149441428Y-127583085D01*
X149470457Y-127597600D01*
X149484971Y-127612114D01*
X149499485Y-127641142D01*
X149499485Y-127670171D01*
X149484971Y-127713714D01*
X149310800Y-127887885D01*
X149499485Y-127887885D01*
X154599200Y-103618857D02*
X154584685Y-103633371D01*
X154541142Y-103647885D01*
X154512114Y-103647885D01*
X154468571Y-103633371D01*
X154439542Y-103604342D01*
X154425028Y-103575314D01*
X154410514Y-103517257D01*
X154410514Y-103473714D01*
X154425028Y-103415657D01*
X154439542Y-103386628D01*
X154468571Y-103357600D01*
X154512114Y-103343085D01*
X154541142Y-103343085D01*
X154584685Y-103357600D01*
X154599200Y-103372114D01*
X154860457Y-103444685D02*
X154860457Y-103647885D01*
X154787885Y-103328571D02*
X154715314Y-103546285D01*
X154904000Y-103546285D01*
X144712400Y-111688857D02*
X144697885Y-111703371D01*
X144654342Y-111717885D01*
X144625314Y-111717885D01*
X144581771Y-111703371D01*
X144552742Y-111674342D01*
X144538228Y-111645314D01*
X144523714Y-111587257D01*
X144523714Y-111543714D01*
X144538228Y-111485657D01*
X144552742Y-111456628D01*
X144581771Y-111427600D01*
X144625314Y-111413085D01*
X144654342Y-111413085D01*
X144697885Y-111427600D01*
X144712400Y-111442114D01*
X144988171Y-111413085D02*
X144843028Y-111413085D01*
X144828514Y-111558228D01*
X144843028Y-111543714D01*
X144872057Y-111529200D01*
X144944628Y-111529200D01*
X144973657Y-111543714D01*
X144988171Y-111558228D01*
X145002685Y-111587257D01*
X145002685Y-111659828D01*
X144988171Y-111688857D01*
X144973657Y-111703371D01*
X144944628Y-111717885D01*
X144872057Y-111717885D01*
X144843028Y-111703371D01*
X144828514Y-111688857D01*
X152273200Y-101698857D02*
X152258685Y-101713371D01*
X152215142Y-101727885D01*
X152186114Y-101727885D01*
X152142571Y-101713371D01*
X152113542Y-101684342D01*
X152099028Y-101655314D01*
X152084514Y-101597257D01*
X152084514Y-101553714D01*
X152099028Y-101495657D01*
X152113542Y-101466628D01*
X152142571Y-101437600D01*
X152186114Y-101423085D01*
X152215142Y-101423085D01*
X152258685Y-101437600D01*
X152273200Y-101452114D01*
X152418342Y-101727885D02*
X152476400Y-101727885D01*
X152505428Y-101713371D01*
X152519942Y-101698857D01*
X152548971Y-101655314D01*
X152563485Y-101597257D01*
X152563485Y-101481142D01*
X152548971Y-101452114D01*
X152534457Y-101437600D01*
X152505428Y-101423085D01*
X152447371Y-101423085D01*
X152418342Y-101437600D01*
X152403828Y-101452114D01*
X152389314Y-101481142D01*
X152389314Y-101553714D01*
X152403828Y-101582742D01*
X152418342Y-101597257D01*
X152447371Y-101611771D01*
X152505428Y-101611771D01*
X152534457Y-101597257D01*
X152548971Y-101582742D01*
X152563485Y-101553714D01*
X147724057Y-127608857D02*
X147709542Y-127623371D01*
X147666000Y-127637885D01*
X147636971Y-127637885D01*
X147593428Y-127623371D01*
X147564400Y-127594342D01*
X147549885Y-127565314D01*
X147535371Y-127507257D01*
X147535371Y-127463714D01*
X147549885Y-127405657D01*
X147564400Y-127376628D01*
X147593428Y-127347600D01*
X147636971Y-127333085D01*
X147666000Y-127333085D01*
X147709542Y-127347600D01*
X147724057Y-127362114D01*
X148014342Y-127637885D02*
X147840171Y-127637885D01*
X147927257Y-127637885D02*
X147927257Y-127333085D01*
X147898228Y-127376628D01*
X147869200Y-127405657D01*
X147840171Y-127420171D01*
X148304628Y-127637885D02*
X148130457Y-127637885D01*
X148217542Y-127637885D02*
X148217542Y-127333085D01*
X148188514Y-127376628D01*
X148159485Y-127405657D01*
X148130457Y-127420171D01*
X152153257Y-94342857D02*
X152138742Y-94357371D01*
X152095200Y-94371885D01*
X152066171Y-94371885D01*
X152022628Y-94357371D01*
X151993600Y-94328342D01*
X151979085Y-94299314D01*
X151964571Y-94241257D01*
X151964571Y-94197714D01*
X151979085Y-94139657D01*
X151993600Y-94110628D01*
X152022628Y-94081600D01*
X152066171Y-94067085D01*
X152095200Y-94067085D01*
X152138742Y-94081600D01*
X152153257Y-94096114D01*
X152443542Y-94371885D02*
X152269371Y-94371885D01*
X152356457Y-94371885D02*
X152356457Y-94067085D01*
X152327428Y-94110628D01*
X152298400Y-94139657D01*
X152269371Y-94154171D01*
X152617714Y-94197714D02*
X152588685Y-94183200D01*
X152574171Y-94168685D01*
X152559657Y-94139657D01*
X152559657Y-94125142D01*
X152574171Y-94096114D01*
X152588685Y-94081600D01*
X152617714Y-94067085D01*
X152675771Y-94067085D01*
X152704800Y-94081600D01*
X152719314Y-94096114D01*
X152733828Y-94125142D01*
X152733828Y-94139657D01*
X152719314Y-94168685D01*
X152704800Y-94183200D01*
X152675771Y-94197714D01*
X152617714Y-94197714D01*
X152588685Y-94212228D01*
X152574171Y-94226742D01*
X152559657Y-94255771D01*
X152559657Y-94313828D01*
X152574171Y-94342857D01*
X152588685Y-94357371D01*
X152617714Y-94371885D01*
X152675771Y-94371885D01*
X152704800Y-94357371D01*
X152719314Y-94342857D01*
X152733828Y-94313828D01*
X152733828Y-94255771D01*
X152719314Y-94226742D01*
X152704800Y-94212228D01*
X152675771Y-94197714D01*
X151818857Y-113733942D02*
X151833371Y-113748457D01*
X151847885Y-113792000D01*
X151847885Y-113821028D01*
X151833371Y-113864571D01*
X151804342Y-113893600D01*
X151775314Y-113908114D01*
X151717257Y-113922628D01*
X151673714Y-113922628D01*
X151615657Y-113908114D01*
X151586628Y-113893600D01*
X151557600Y-113864571D01*
X151543085Y-113821028D01*
X151543085Y-113792000D01*
X151557600Y-113748457D01*
X151572114Y-113733942D01*
X151572114Y-113617828D02*
X151557600Y-113603314D01*
X151543085Y-113574285D01*
X151543085Y-113501714D01*
X151557600Y-113472685D01*
X151572114Y-113458171D01*
X151601142Y-113443657D01*
X151630171Y-113443657D01*
X151673714Y-113458171D01*
X151847885Y-113632342D01*
X151847885Y-113443657D01*
X151543085Y-113167885D02*
X151543085Y-113313028D01*
X151688228Y-113327542D01*
X151673714Y-113313028D01*
X151659200Y-113284000D01*
X151659200Y-113211428D01*
X151673714Y-113182400D01*
X151688228Y-113167885D01*
X151717257Y-113153371D01*
X151789828Y-113153371D01*
X151818857Y-113167885D01*
X151833371Y-113182400D01*
X151847885Y-113211428D01*
X151847885Y-113284000D01*
X151833371Y-113313028D01*
X151818857Y-113327542D01*
X148398857Y-113225942D02*
X148413371Y-113240457D01*
X148427885Y-113284000D01*
X148427885Y-113313028D01*
X148413371Y-113356571D01*
X148384342Y-113385600D01*
X148355314Y-113400114D01*
X148297257Y-113414628D01*
X148253714Y-113414628D01*
X148195657Y-113400114D01*
X148166628Y-113385600D01*
X148137600Y-113356571D01*
X148123085Y-113313028D01*
X148123085Y-113284000D01*
X148137600Y-113240457D01*
X148152114Y-113225942D01*
X148152114Y-113109828D02*
X148137600Y-113095314D01*
X148123085Y-113066285D01*
X148123085Y-112993714D01*
X148137600Y-112964685D01*
X148152114Y-112950171D01*
X148181142Y-112935657D01*
X148210171Y-112935657D01*
X148253714Y-112950171D01*
X148427885Y-113124342D01*
X148427885Y-112935657D01*
X148123085Y-112674400D02*
X148123085Y-112732457D01*
X148137600Y-112761485D01*
X148152114Y-112776000D01*
X148195657Y-112805028D01*
X148253714Y-112819542D01*
X148369828Y-112819542D01*
X148398857Y-112805028D01*
X148413371Y-112790514D01*
X148427885Y-112761485D01*
X148427885Y-112703428D01*
X148413371Y-112674400D01*
X148398857Y-112659885D01*
X148369828Y-112645371D01*
X148297257Y-112645371D01*
X148268228Y-112659885D01*
X148253714Y-112674400D01*
X148239200Y-112703428D01*
X148239200Y-112761485D01*
X148253714Y-112790514D01*
X148268228Y-112805028D01*
X148297257Y-112819542D01*
X153782457Y-102017885D02*
X153782457Y-101713085D01*
X154101771Y-101988857D02*
X154087257Y-102003371D01*
X154043714Y-102017885D01*
X154014685Y-102017885D01*
X153971142Y-102003371D01*
X153942114Y-101974342D01*
X153927600Y-101945314D01*
X153913085Y-101887257D01*
X153913085Y-101843714D01*
X153927600Y-101785657D01*
X153942114Y-101756628D01*
X153971142Y-101727600D01*
X154014685Y-101713085D01*
X154043714Y-101713085D01*
X154087257Y-101727600D01*
X154101771Y-101742114D01*
X154203371Y-101713085D02*
X154392057Y-101713085D01*
X154290457Y-101829200D01*
X154334000Y-101829200D01*
X154363028Y-101843714D01*
X154377542Y-101858228D01*
X154392057Y-101887257D01*
X154392057Y-101959828D01*
X154377542Y-101988857D01*
X154363028Y-102003371D01*
X154334000Y-102017885D01*
X154246914Y-102017885D01*
X154217885Y-102003371D01*
X154203371Y-101988857D01*
X158803257Y-83823085D02*
X158803257Y-84040800D01*
X158788742Y-84084342D01*
X158759714Y-84113371D01*
X158716171Y-84127885D01*
X158687142Y-84127885D01*
X159108057Y-84127885D02*
X158933885Y-84127885D01*
X159020971Y-84127885D02*
X159020971Y-83823085D01*
X158991942Y-83866628D01*
X158962914Y-83895657D01*
X158933885Y-83910171D01*
X159398342Y-84127885D02*
X159224171Y-84127885D01*
X159311257Y-84127885D02*
X159311257Y-83823085D01*
X159282228Y-83866628D01*
X159253200Y-83895657D01*
X159224171Y-83910171D01*
X151963700Y-105697885D02*
X151862100Y-105552742D01*
X151789528Y-105697885D02*
X151789528Y-105393085D01*
X151905642Y-105393085D01*
X151934671Y-105407600D01*
X151949185Y-105422114D01*
X151963700Y-105451142D01*
X151963700Y-105494685D01*
X151949185Y-105523714D01*
X151934671Y-105538228D01*
X151905642Y-105552742D01*
X151789528Y-105552742D01*
X152253985Y-105697885D02*
X152079814Y-105697885D01*
X152166900Y-105697885D02*
X152166900Y-105393085D01*
X152137871Y-105436628D01*
X152108842Y-105465657D01*
X152079814Y-105480171D01*
X153809200Y-124737885D02*
X153707600Y-124592742D01*
X153635028Y-124737885D02*
X153635028Y-124433085D01*
X153751142Y-124433085D01*
X153780171Y-124447600D01*
X153794685Y-124462114D01*
X153809200Y-124491142D01*
X153809200Y-124534685D01*
X153794685Y-124563714D01*
X153780171Y-124578228D01*
X153751142Y-124592742D01*
X153635028Y-124592742D01*
X153910800Y-124433085D02*
X154099485Y-124433085D01*
X153997885Y-124549200D01*
X154041428Y-124549200D01*
X154070457Y-124563714D01*
X154084971Y-124578228D01*
X154099485Y-124607257D01*
X154099485Y-124679828D01*
X154084971Y-124708857D01*
X154070457Y-124723371D01*
X154041428Y-124737885D01*
X153954342Y-124737885D01*
X153925314Y-124723371D01*
X153910800Y-124708857D01*
X155653885Y-91022800D02*
X155508742Y-91124400D01*
X155653885Y-91196971D02*
X155349085Y-91196971D01*
X155349085Y-91080857D01*
X155363600Y-91051828D01*
X155378114Y-91037314D01*
X155407142Y-91022800D01*
X155450685Y-91022800D01*
X155479714Y-91037314D01*
X155494228Y-91051828D01*
X155508742Y-91080857D01*
X155508742Y-91196971D01*
X155450685Y-90761542D02*
X155653885Y-90761542D01*
X155334571Y-90834114D02*
X155552285Y-90906685D01*
X155552285Y-90718000D01*
X149659200Y-103307885D02*
X149557600Y-103162742D01*
X149485028Y-103307885D02*
X149485028Y-103003085D01*
X149601142Y-103003085D01*
X149630171Y-103017600D01*
X149644685Y-103032114D01*
X149659200Y-103061142D01*
X149659200Y-103104685D01*
X149644685Y-103133714D01*
X149630171Y-103148228D01*
X149601142Y-103162742D01*
X149485028Y-103162742D01*
X149920457Y-103003085D02*
X149862400Y-103003085D01*
X149833371Y-103017600D01*
X149818857Y-103032114D01*
X149789828Y-103075657D01*
X149775314Y-103133714D01*
X149775314Y-103249828D01*
X149789828Y-103278857D01*
X149804342Y-103293371D01*
X149833371Y-103307885D01*
X149891428Y-103307885D01*
X149920457Y-103293371D01*
X149934971Y-103278857D01*
X149949485Y-103249828D01*
X149949485Y-103177257D01*
X149934971Y-103148228D01*
X149920457Y-103133714D01*
X149891428Y-103119200D01*
X149833371Y-103119200D01*
X149804342Y-103133714D01*
X149789828Y-103148228D01*
X149775314Y-103177257D01*
X151043085Y-99822300D02*
X150897942Y-99923900D01*
X151043085Y-99996471D02*
X150738285Y-99996471D01*
X150738285Y-99880357D01*
X150752800Y-99851328D01*
X150767314Y-99836814D01*
X150796342Y-99822300D01*
X150839885Y-99822300D01*
X150868914Y-99836814D01*
X150883428Y-99851328D01*
X150897942Y-99880357D01*
X150897942Y-99996471D01*
X151043085Y-99677157D02*
X151043085Y-99619100D01*
X151028571Y-99590071D01*
X151014057Y-99575557D01*
X150970514Y-99546528D01*
X150912457Y-99532014D01*
X150796342Y-99532014D01*
X150767314Y-99546528D01*
X150752800Y-99561042D01*
X150738285Y-99590071D01*
X150738285Y-99648128D01*
X150752800Y-99677157D01*
X150767314Y-99691671D01*
X150796342Y-99706185D01*
X150868914Y-99706185D01*
X150897942Y-99691671D01*
X150912457Y-99677157D01*
X150926971Y-99648128D01*
X150926971Y-99590071D01*
X150912457Y-99561042D01*
X150897942Y-99546528D01*
X150868914Y-99532014D01*
X151726557Y-107287885D02*
X151624957Y-107142742D01*
X151552385Y-107287885D02*
X151552385Y-106983085D01*
X151668500Y-106983085D01*
X151697528Y-106997600D01*
X151712042Y-107012114D01*
X151726557Y-107041142D01*
X151726557Y-107084685D01*
X151712042Y-107113714D01*
X151697528Y-107128228D01*
X151668500Y-107142742D01*
X151552385Y-107142742D01*
X152016842Y-107287885D02*
X151842671Y-107287885D01*
X151929757Y-107287885D02*
X151929757Y-106983085D01*
X151900728Y-107026628D01*
X151871700Y-107055657D01*
X151842671Y-107070171D01*
X152205528Y-106983085D02*
X152234557Y-106983085D01*
X152263585Y-106997600D01*
X152278100Y-107012114D01*
X152292614Y-107041142D01*
X152307128Y-107099200D01*
X152307128Y-107171771D01*
X152292614Y-107229828D01*
X152278100Y-107258857D01*
X152263585Y-107273371D01*
X152234557Y-107287885D01*
X152205528Y-107287885D01*
X152176500Y-107273371D01*
X152161985Y-107258857D01*
X152147471Y-107229828D01*
X152132957Y-107171771D01*
X152132957Y-107099200D01*
X152147471Y-107041142D01*
X152161985Y-107012114D01*
X152176500Y-106997600D01*
X152205528Y-106983085D01*
X142552057Y-108341885D02*
X142450457Y-108196742D01*
X142377885Y-108341885D02*
X142377885Y-108037085D01*
X142494000Y-108037085D01*
X142523028Y-108051600D01*
X142537542Y-108066114D01*
X142552057Y-108095142D01*
X142552057Y-108138685D01*
X142537542Y-108167714D01*
X142523028Y-108182228D01*
X142494000Y-108196742D01*
X142377885Y-108196742D01*
X142842342Y-108341885D02*
X142668171Y-108341885D01*
X142755257Y-108341885D02*
X142755257Y-108037085D01*
X142726228Y-108080628D01*
X142697200Y-108109657D01*
X142668171Y-108124171D01*
X142958457Y-108066114D02*
X142972971Y-108051600D01*
X143002000Y-108037085D01*
X143074571Y-108037085D01*
X143103600Y-108051600D01*
X143118114Y-108066114D01*
X143132628Y-108095142D01*
X143132628Y-108124171D01*
X143118114Y-108167714D01*
X142943942Y-108341885D01*
X143132628Y-108341885D01*
X142958457Y-90307885D02*
X142856857Y-90162742D01*
X142784285Y-90307885D02*
X142784285Y-90003085D01*
X142900400Y-90003085D01*
X142929428Y-90017600D01*
X142943942Y-90032114D01*
X142958457Y-90061142D01*
X142958457Y-90104685D01*
X142943942Y-90133714D01*
X142929428Y-90148228D01*
X142900400Y-90162742D01*
X142784285Y-90162742D01*
X143248742Y-90307885D02*
X143074571Y-90307885D01*
X143161657Y-90307885D02*
X143161657Y-90003085D01*
X143132628Y-90046628D01*
X143103600Y-90075657D01*
X143074571Y-90090171D01*
X143350342Y-90003085D02*
X143553542Y-90003085D01*
X143422914Y-90307885D01*
X151664057Y-129447885D02*
X151562457Y-129302742D01*
X151489885Y-129447885D02*
X151489885Y-129143085D01*
X151606000Y-129143085D01*
X151635028Y-129157600D01*
X151649542Y-129172114D01*
X151664057Y-129201142D01*
X151664057Y-129244685D01*
X151649542Y-129273714D01*
X151635028Y-129288228D01*
X151606000Y-129302742D01*
X151489885Y-129302742D01*
X151954342Y-129447885D02*
X151780171Y-129447885D01*
X151867257Y-129447885D02*
X151867257Y-129143085D01*
X151838228Y-129186628D01*
X151809200Y-129215657D01*
X151780171Y-129230171D01*
X152128514Y-129273714D02*
X152099485Y-129259200D01*
X152084971Y-129244685D01*
X152070457Y-129215657D01*
X152070457Y-129201142D01*
X152084971Y-129172114D01*
X152099485Y-129157600D01*
X152128514Y-129143085D01*
X152186571Y-129143085D01*
X152215600Y-129157600D01*
X152230114Y-129172114D01*
X152244628Y-129201142D01*
X152244628Y-129215657D01*
X152230114Y-129244685D01*
X152215600Y-129259200D01*
X152186571Y-129273714D01*
X152128514Y-129273714D01*
X152099485Y-129288228D01*
X152084971Y-129302742D01*
X152070457Y-129331771D01*
X152070457Y-129389828D01*
X152084971Y-129418857D01*
X152099485Y-129433371D01*
X152128514Y-129447885D01*
X152186571Y-129447885D01*
X152215600Y-129433371D01*
X152230114Y-129418857D01*
X152244628Y-129389828D01*
X152244628Y-129331771D01*
X152230114Y-129302742D01*
X152215600Y-129288228D01*
X152186571Y-129273714D01*
X150394057Y-129467885D02*
X150292457Y-129322742D01*
X150219885Y-129467885D02*
X150219885Y-129163085D01*
X150336000Y-129163085D01*
X150365028Y-129177600D01*
X150379542Y-129192114D01*
X150394057Y-129221142D01*
X150394057Y-129264685D01*
X150379542Y-129293714D01*
X150365028Y-129308228D01*
X150336000Y-129322742D01*
X150219885Y-129322742D01*
X150684342Y-129467885D02*
X150510171Y-129467885D01*
X150597257Y-129467885D02*
X150597257Y-129163085D01*
X150568228Y-129206628D01*
X150539200Y-129235657D01*
X150510171Y-129250171D01*
X150829485Y-129467885D02*
X150887542Y-129467885D01*
X150916571Y-129453371D01*
X150931085Y-129438857D01*
X150960114Y-129395314D01*
X150974628Y-129337257D01*
X150974628Y-129221142D01*
X150960114Y-129192114D01*
X150945600Y-129177600D01*
X150916571Y-129163085D01*
X150858514Y-129163085D01*
X150829485Y-129177600D01*
X150814971Y-129192114D01*
X150800457Y-129221142D01*
X150800457Y-129293714D01*
X150814971Y-129322742D01*
X150829485Y-129337257D01*
X150858514Y-129351771D01*
X150916571Y-129351771D01*
X150945600Y-129337257D01*
X150960114Y-129322742D01*
X150974628Y-129293714D01*
X147370857Y-131865385D02*
X147269257Y-131720242D01*
X147196685Y-131865385D02*
X147196685Y-131560585D01*
X147312800Y-131560585D01*
X147341828Y-131575100D01*
X147356342Y-131589614D01*
X147370857Y-131618642D01*
X147370857Y-131662185D01*
X147356342Y-131691214D01*
X147341828Y-131705728D01*
X147312800Y-131720242D01*
X147196685Y-131720242D01*
X147486971Y-131589614D02*
X147501485Y-131575100D01*
X147530514Y-131560585D01*
X147603085Y-131560585D01*
X147632114Y-131575100D01*
X147646628Y-131589614D01*
X147661142Y-131618642D01*
X147661142Y-131647671D01*
X147646628Y-131691214D01*
X147472457Y-131865385D01*
X147661142Y-131865385D01*
X147849828Y-131560585D02*
X147878857Y-131560585D01*
X147907885Y-131575100D01*
X147922400Y-131589614D01*
X147936914Y-131618642D01*
X147951428Y-131676700D01*
X147951428Y-131749271D01*
X147936914Y-131807328D01*
X147922400Y-131836357D01*
X147907885Y-131850871D01*
X147878857Y-131865385D01*
X147849828Y-131865385D01*
X147820800Y-131850871D01*
X147806285Y-131836357D01*
X147791771Y-131807328D01*
X147777257Y-131749271D01*
X147777257Y-131676700D01*
X147791771Y-131618642D01*
X147806285Y-131589614D01*
X147820800Y-131575100D01*
X147849828Y-131560585D01*
X144930457Y-135694885D02*
X144828857Y-135549742D01*
X144756285Y-135694885D02*
X144756285Y-135390085D01*
X144872400Y-135390085D01*
X144901428Y-135404600D01*
X144915942Y-135419114D01*
X144930457Y-135448142D01*
X144930457Y-135491685D01*
X144915942Y-135520714D01*
X144901428Y-135535228D01*
X144872400Y-135549742D01*
X144756285Y-135549742D01*
X145046571Y-135419114D02*
X145061085Y-135404600D01*
X145090114Y-135390085D01*
X145162685Y-135390085D01*
X145191714Y-135404600D01*
X145206228Y-135419114D01*
X145220742Y-135448142D01*
X145220742Y-135477171D01*
X145206228Y-135520714D01*
X145032057Y-135694885D01*
X145220742Y-135694885D01*
X145511028Y-135694885D02*
X145336857Y-135694885D01*
X145423942Y-135694885D02*
X145423942Y-135390085D01*
X145394914Y-135433628D01*
X145365885Y-135462657D01*
X145336857Y-135477171D01*
D10*
X145832285Y-92685809D02*
X145662952Y-92443904D01*
X145542000Y-92685809D02*
X145542000Y-92177809D01*
X145735523Y-92177809D01*
X145783904Y-92202000D01*
X145808095Y-92226190D01*
X145832285Y-92274571D01*
X145832285Y-92347142D01*
X145808095Y-92395523D01*
X145783904Y-92419714D01*
X145735523Y-92443904D01*
X145542000Y-92443904D01*
X146050000Y-92419714D02*
X146219333Y-92419714D01*
X146291904Y-92685809D02*
X146050000Y-92685809D01*
X146050000Y-92177809D01*
X146291904Y-92177809D01*
X146485428Y-92661619D02*
X146558000Y-92685809D01*
X146678952Y-92685809D01*
X146727333Y-92661619D01*
X146751523Y-92637428D01*
X146775714Y-92589047D01*
X146775714Y-92540666D01*
X146751523Y-92492285D01*
X146727333Y-92468095D01*
X146678952Y-92443904D01*
X146582190Y-92419714D01*
X146533809Y-92395523D01*
X146509619Y-92371333D01*
X146485428Y-92322952D01*
X146485428Y-92274571D01*
X146509619Y-92226190D01*
X146533809Y-92202000D01*
X146582190Y-92177809D01*
X146703142Y-92177809D01*
X146775714Y-92202000D01*
X146993428Y-92419714D02*
X147162761Y-92419714D01*
X147235333Y-92685809D02*
X146993428Y-92685809D01*
X146993428Y-92177809D01*
X147235333Y-92177809D01*
X147380476Y-92177809D02*
X147670761Y-92177809D01*
X147525619Y-92685809D02*
X147525619Y-92177809D01*
X148106190Y-92685809D02*
X147815904Y-92685809D01*
X147961047Y-92685809D02*
X147961047Y-92177809D01*
X147912666Y-92250380D01*
X147864285Y-92298761D01*
X147815904Y-92322952D01*
D19*
X153407771Y-92283085D02*
X153407771Y-92529828D01*
X153422285Y-92558857D01*
X153436800Y-92573371D01*
X153465828Y-92587885D01*
X153523885Y-92587885D01*
X153552914Y-92573371D01*
X153567428Y-92558857D01*
X153581942Y-92529828D01*
X153581942Y-92283085D01*
X153886742Y-92587885D02*
X153712571Y-92587885D01*
X153799657Y-92587885D02*
X153799657Y-92283085D01*
X153770628Y-92326628D01*
X153741600Y-92355657D01*
X153712571Y-92370171D01*
X148055028Y-135787885D02*
X148055028Y-135483085D01*
X148127600Y-135483085D01*
X148171142Y-135497600D01*
X148200171Y-135526628D01*
X148214685Y-135555657D01*
X148229200Y-135613714D01*
X148229200Y-135657257D01*
X148214685Y-135715314D01*
X148200171Y-135744342D01*
X148171142Y-135773371D01*
X148127600Y-135787885D01*
X148055028Y-135787885D01*
X148519485Y-135787885D02*
X148345314Y-135787885D01*
X148432400Y-135787885D02*
X148432400Y-135483085D01*
X148403371Y-135526628D01*
X148374342Y-135555657D01*
X148345314Y-135570171D01*
X149705028Y-135827885D02*
X149705028Y-135523085D01*
X149777600Y-135523085D01*
X149821142Y-135537600D01*
X149850171Y-135566628D01*
X149864685Y-135595657D01*
X149879200Y-135653714D01*
X149879200Y-135697257D01*
X149864685Y-135755314D01*
X149850171Y-135784342D01*
X149821142Y-135813371D01*
X149777600Y-135827885D01*
X149705028Y-135827885D01*
X149995314Y-135552114D02*
X150009828Y-135537600D01*
X150038857Y-135523085D01*
X150111428Y-135523085D01*
X150140457Y-135537600D01*
X150154971Y-135552114D01*
X150169485Y-135581142D01*
X150169485Y-135610171D01*
X150154971Y-135653714D01*
X149980800Y-135827885D01*
X150169485Y-135827885D01*
X151455028Y-135817885D02*
X151455028Y-135513085D01*
X151527600Y-135513085D01*
X151571142Y-135527600D01*
X151600171Y-135556628D01*
X151614685Y-135585657D01*
X151629200Y-135643714D01*
X151629200Y-135687257D01*
X151614685Y-135745314D01*
X151600171Y-135774342D01*
X151571142Y-135803371D01*
X151527600Y-135817885D01*
X151455028Y-135817885D01*
X151730800Y-135513085D02*
X151919485Y-135513085D01*
X151817885Y-135629200D01*
X151861428Y-135629200D01*
X151890457Y-135643714D01*
X151904971Y-135658228D01*
X151919485Y-135687257D01*
X151919485Y-135759828D01*
X151904971Y-135788857D01*
X151890457Y-135803371D01*
X151861428Y-135817885D01*
X151774342Y-135817885D01*
X151745314Y-135803371D01*
X151730800Y-135788857D01*
X141715028Y-88527885D02*
X141715028Y-88223085D01*
X141787600Y-88223085D01*
X141831142Y-88237600D01*
X141860171Y-88266628D01*
X141874685Y-88295657D01*
X141889200Y-88353714D01*
X141889200Y-88397257D01*
X141874685Y-88455314D01*
X141860171Y-88484342D01*
X141831142Y-88513371D01*
X141787600Y-88527885D01*
X141715028Y-88527885D01*
X142150457Y-88324685D02*
X142150457Y-88527885D01*
X142077885Y-88208571D02*
X142005314Y-88426285D01*
X142194000Y-88426285D01*
M02*
