G04 #@! TF.GenerationSoftware,KiCad,Pcbnew,(5.1.5-0-10_14)*
G04 #@! TF.CreationDate,2020-04-01T16:07:59-07:00*
G04 #@! TF.ProjectId,raptor,72617074-6f72-42e6-9b69-6361645f7063,rev?*
G04 #@! TF.SameCoordinates,Original*
G04 #@! TF.FileFunction,Legend,Top*
G04 #@! TF.FilePolarity,Positive*
%FSLAX46Y46*%
G04 Gerber Fmt 4.6, Leading zero omitted, Abs format (unit mm)*
G04 Created by KiCad (PCBNEW (5.1.5-0-10_14)) date 2020-04-01 16:07:59*
%MOMM*%
%LPD*%
G04 APERTURE LIST*
%ADD10C,0.100000*%
%ADD11C,0.095250*%
%ADD12C,0.508000*%
%ADD13C,0.150000*%
%ADD14C,0.127000*%
%ADD15C,0.120000*%
%ADD16C,0.010000*%
%ADD17C,0.200000*%
%ADD18C,0.015000*%
%ADD19C,0.063500*%
%ADD20C,0.101600*%
G04 APERTURE END LIST*
D10*
X143578228Y-88023600D02*
X142978228Y-88023600D01*
X142978228Y-87795028D01*
X143006800Y-87737885D01*
X143035371Y-87709314D01*
X143092514Y-87680742D01*
X143178228Y-87680742D01*
X143235371Y-87709314D01*
X143263942Y-87737885D01*
X143292514Y-87795028D01*
X143292514Y-88023600D01*
X142978228Y-87480742D02*
X143578228Y-87337885D01*
X143149657Y-87223600D01*
X143578228Y-87109314D01*
X142978228Y-86966457D01*
X143578228Y-86395028D02*
X143292514Y-86595028D01*
X143578228Y-86737885D02*
X142978228Y-86737885D01*
X142978228Y-86509314D01*
X143006800Y-86452171D01*
X143035371Y-86423600D01*
X143092514Y-86395028D01*
X143178228Y-86395028D01*
X143235371Y-86423600D01*
X143263942Y-86452171D01*
X143292514Y-86509314D01*
X143292514Y-86737885D01*
X141208228Y-128033428D02*
X141008228Y-127747714D01*
X140865371Y-128033428D02*
X140865371Y-127433428D01*
X141093942Y-127433428D01*
X141151085Y-127462000D01*
X141179657Y-127490571D01*
X141208228Y-127547714D01*
X141208228Y-127633428D01*
X141179657Y-127690571D01*
X141151085Y-127719142D01*
X141093942Y-127747714D01*
X140865371Y-127747714D01*
X141693942Y-128004857D02*
X141636800Y-128033428D01*
X141522514Y-128033428D01*
X141465371Y-128004857D01*
X141436800Y-127947714D01*
X141436800Y-127719142D01*
X141465371Y-127662000D01*
X141522514Y-127633428D01*
X141636800Y-127633428D01*
X141693942Y-127662000D01*
X141722514Y-127719142D01*
X141722514Y-127776285D01*
X141436800Y-127833428D01*
X141922514Y-127633428D02*
X142065371Y-128033428D01*
X142208228Y-127633428D01*
X143093942Y-127719142D02*
X143179657Y-127747714D01*
X143208228Y-127776285D01*
X143236800Y-127833428D01*
X143236800Y-127919142D01*
X143208228Y-127976285D01*
X143179657Y-128004857D01*
X143122514Y-128033428D01*
X142893942Y-128033428D01*
X142893942Y-127433428D01*
X143093942Y-127433428D01*
X143151085Y-127462000D01*
X143179657Y-127490571D01*
X143208228Y-127547714D01*
X143208228Y-127604857D01*
X143179657Y-127662000D01*
X143151085Y-127690571D01*
X143093942Y-127719142D01*
X142893942Y-127719142D01*
D11*
X152699357Y-134855857D02*
X152699357Y-134638142D01*
X153080357Y-134747000D02*
X152699357Y-134747000D01*
X152699357Y-134547428D02*
X153080357Y-134293428D01*
X152699357Y-134293428D02*
X153080357Y-134547428D01*
X153080357Y-134148285D02*
X152699357Y-134148285D01*
X152699357Y-134057571D01*
X152717500Y-134003142D01*
X152753785Y-133966857D01*
X152790071Y-133948714D01*
X152862642Y-133930571D01*
X152917071Y-133930571D01*
X152989642Y-133948714D01*
X153025928Y-133966857D01*
X153062214Y-134003142D01*
X153080357Y-134057571D01*
X153080357Y-134148285D01*
X153116642Y-133858000D02*
X153116642Y-133567714D01*
X152880785Y-133477000D02*
X152880785Y-133350000D01*
X153080357Y-133295571D02*
X153080357Y-133477000D01*
X152699357Y-133477000D01*
X152699357Y-133295571D01*
X153080357Y-133132285D02*
X152699357Y-133132285D01*
X153080357Y-132914571D01*
X152699357Y-132914571D01*
X143555357Y-132424714D02*
X143555357Y-132207000D01*
X143936357Y-132315857D02*
X143555357Y-132315857D01*
X143936357Y-132080000D02*
X143555357Y-132080000D01*
X143827500Y-131953000D01*
X143555357Y-131826000D01*
X143936357Y-131826000D01*
X143555357Y-131644571D02*
X143863785Y-131644571D01*
X143900071Y-131626428D01*
X143918214Y-131608285D01*
X143936357Y-131572000D01*
X143936357Y-131499428D01*
X143918214Y-131463142D01*
X143900071Y-131445000D01*
X143863785Y-131426857D01*
X143555357Y-131426857D01*
X143555357Y-131281714D02*
X143936357Y-131027714D01*
X143555357Y-131027714D02*
X143936357Y-131281714D01*
X143972642Y-130973285D02*
X143972642Y-130683000D01*
X143918214Y-130610428D02*
X143936357Y-130556000D01*
X143936357Y-130465285D01*
X143918214Y-130429000D01*
X143900071Y-130410857D01*
X143863785Y-130392714D01*
X143827500Y-130392714D01*
X143791214Y-130410857D01*
X143773071Y-130429000D01*
X143754928Y-130465285D01*
X143736785Y-130537857D01*
X143718642Y-130574142D01*
X143700500Y-130592285D01*
X143664214Y-130610428D01*
X143627928Y-130610428D01*
X143591642Y-130592285D01*
X143573500Y-130574142D01*
X143555357Y-130537857D01*
X143555357Y-130447142D01*
X143573500Y-130392714D01*
X143736785Y-130229428D02*
X143736785Y-130102428D01*
X143936357Y-130048000D02*
X143936357Y-130229428D01*
X143555357Y-130229428D01*
X143555357Y-130048000D01*
X143936357Y-129703285D02*
X143936357Y-129884714D01*
X143555357Y-129884714D01*
X156417214Y-86079857D02*
X156417214Y-85789571D01*
X156562357Y-85934714D02*
X156272071Y-85934714D01*
X156181357Y-85426714D02*
X156181357Y-85608142D01*
X156362785Y-85626285D01*
X156344642Y-85608142D01*
X156326500Y-85571857D01*
X156326500Y-85481142D01*
X156344642Y-85444857D01*
X156362785Y-85426714D01*
X156399071Y-85408571D01*
X156489785Y-85408571D01*
X156526071Y-85426714D01*
X156544214Y-85444857D01*
X156562357Y-85481142D01*
X156562357Y-85571857D01*
X156544214Y-85608142D01*
X156526071Y-85626285D01*
X156181357Y-85299714D02*
X156562357Y-85172714D01*
X156181357Y-85045714D01*
X156642357Y-105981214D02*
X156261357Y-105981214D01*
X156261357Y-105836071D01*
X156279500Y-105799785D01*
X156297642Y-105781642D01*
X156333928Y-105763500D01*
X156388357Y-105763500D01*
X156424642Y-105781642D01*
X156442785Y-105799785D01*
X156460928Y-105836071D01*
X156460928Y-105981214D01*
X156261357Y-105636500D02*
X156261357Y-105382500D01*
X156642357Y-105545785D01*
X156255357Y-108661714D02*
X156255357Y-108444000D01*
X156636357Y-108552857D02*
X156255357Y-108552857D01*
X156255357Y-108353285D02*
X156636357Y-108099285D01*
X156255357Y-108099285D02*
X156636357Y-108353285D01*
X156636357Y-107754571D02*
X156636357Y-107972285D01*
X156636357Y-107863428D02*
X156255357Y-107863428D01*
X156309785Y-107899714D01*
X156346071Y-107936000D01*
X156364214Y-107972285D01*
D12*
X154178000Y-119888000D02*
G75*
G03X154178000Y-119888000I0J0D01*
G01*
D13*
X141808028Y-114712985D02*
X141558028Y-114355842D01*
X141379457Y-114712985D02*
X141379457Y-113962985D01*
X141665171Y-113962985D01*
X141736600Y-113998700D01*
X141772314Y-114034414D01*
X141808028Y-114105842D01*
X141808028Y-114212985D01*
X141772314Y-114284414D01*
X141736600Y-114320128D01*
X141665171Y-114355842D01*
X141379457Y-114355842D01*
X142093742Y-114498700D02*
X142450885Y-114498700D01*
X142022314Y-114712985D02*
X142272314Y-113962985D01*
X142522314Y-114712985D01*
X142772314Y-114712985D02*
X142772314Y-113962985D01*
X143058028Y-113962985D01*
X143129457Y-113998700D01*
X143165171Y-114034414D01*
X143200885Y-114105842D01*
X143200885Y-114212985D01*
X143165171Y-114284414D01*
X143129457Y-114320128D01*
X143058028Y-114355842D01*
X142772314Y-114355842D01*
X143415171Y-113962985D02*
X143843742Y-113962985D01*
X143629457Y-114712985D02*
X143629457Y-113962985D01*
X144236600Y-113962985D02*
X144379457Y-113962985D01*
X144450885Y-113998700D01*
X144522314Y-114070128D01*
X144558028Y-114212985D01*
X144558028Y-114462985D01*
X144522314Y-114605842D01*
X144450885Y-114677271D01*
X144379457Y-114712985D01*
X144236600Y-114712985D01*
X144165171Y-114677271D01*
X144093742Y-114605842D01*
X144058028Y-114462985D01*
X144058028Y-114212985D01*
X144093742Y-114070128D01*
X144165171Y-113998700D01*
X144236600Y-113962985D01*
X145308028Y-114712985D02*
X145058028Y-114355842D01*
X144879457Y-114712985D02*
X144879457Y-113962985D01*
X145165171Y-113962985D01*
X145236600Y-113998700D01*
X145272314Y-114034414D01*
X145308028Y-114105842D01*
X145308028Y-114212985D01*
X145272314Y-114284414D01*
X145236600Y-114320128D01*
X145165171Y-114355842D01*
X144879457Y-114355842D01*
X142754457Y-115595128D02*
X143004457Y-115595128D01*
X143111600Y-115987985D02*
X142754457Y-115987985D01*
X142754457Y-115237985D01*
X143111600Y-115237985D01*
X143325885Y-115237985D02*
X143575885Y-115987985D01*
X143825885Y-115237985D01*
X144325885Y-115595128D02*
X144433028Y-115630842D01*
X144468742Y-115666557D01*
X144504457Y-115737985D01*
X144504457Y-115845128D01*
X144468742Y-115916557D01*
X144433028Y-115952271D01*
X144361600Y-115987985D01*
X144075885Y-115987985D01*
X144075885Y-115237985D01*
X144325885Y-115237985D01*
X144397314Y-115273700D01*
X144433028Y-115309414D01*
X144468742Y-115380842D01*
X144468742Y-115452271D01*
X144433028Y-115523700D01*
X144397314Y-115559414D01*
X144325885Y-115595128D01*
X144075885Y-115595128D01*
D11*
X156642357Y-103461214D02*
X156261357Y-103461214D01*
X156261357Y-103316071D01*
X156279500Y-103279785D01*
X156297642Y-103261642D01*
X156333928Y-103243500D01*
X156388357Y-103243500D01*
X156424642Y-103261642D01*
X156442785Y-103279785D01*
X156460928Y-103316071D01*
X156460928Y-103461214D01*
X156261357Y-102916928D02*
X156261357Y-102989500D01*
X156279500Y-103025785D01*
X156297642Y-103043928D01*
X156352071Y-103080214D01*
X156424642Y-103098357D01*
X156569785Y-103098357D01*
X156606071Y-103080214D01*
X156624214Y-103062071D01*
X156642357Y-103025785D01*
X156642357Y-102953214D01*
X156624214Y-102916928D01*
X156606071Y-102898785D01*
X156569785Y-102880642D01*
X156479071Y-102880642D01*
X156442785Y-102898785D01*
X156424642Y-102916928D01*
X156406500Y-102953214D01*
X156406500Y-103025785D01*
X156424642Y-103062071D01*
X156442785Y-103080214D01*
X156479071Y-103098357D01*
X156582357Y-88331214D02*
X156201357Y-88331214D01*
X156201357Y-88186071D01*
X156219500Y-88149785D01*
X156237642Y-88131642D01*
X156273928Y-88113500D01*
X156328357Y-88113500D01*
X156364642Y-88131642D01*
X156382785Y-88149785D01*
X156400928Y-88186071D01*
X156400928Y-88331214D01*
X156201357Y-87877642D02*
X156201357Y-87841357D01*
X156219500Y-87805071D01*
X156237642Y-87786928D01*
X156273928Y-87768785D01*
X156346500Y-87750642D01*
X156437214Y-87750642D01*
X156509785Y-87768785D01*
X156546071Y-87786928D01*
X156564214Y-87805071D01*
X156582357Y-87841357D01*
X156582357Y-87877642D01*
X156564214Y-87913928D01*
X156546071Y-87932071D01*
X156509785Y-87950214D01*
X156437214Y-87968357D01*
X156346500Y-87968357D01*
X156273928Y-87950214D01*
X156237642Y-87932071D01*
X156219500Y-87913928D01*
X156201357Y-87877642D01*
X156562357Y-90761214D02*
X156181357Y-90761214D01*
X156181357Y-90616071D01*
X156199500Y-90579785D01*
X156217642Y-90561642D01*
X156253928Y-90543500D01*
X156308357Y-90543500D01*
X156344642Y-90561642D01*
X156362785Y-90579785D01*
X156380928Y-90616071D01*
X156380928Y-90761214D01*
X156562357Y-90180642D02*
X156562357Y-90398357D01*
X156562357Y-90289500D02*
X156181357Y-90289500D01*
X156235785Y-90325785D01*
X156272071Y-90362071D01*
X156290214Y-90398357D01*
X156562357Y-93291214D02*
X156181357Y-93291214D01*
X156181357Y-93146071D01*
X156199500Y-93109785D01*
X156217642Y-93091642D01*
X156253928Y-93073500D01*
X156308357Y-93073500D01*
X156344642Y-93091642D01*
X156362785Y-93109785D01*
X156380928Y-93146071D01*
X156380928Y-93291214D01*
X156217642Y-92928357D02*
X156199500Y-92910214D01*
X156181357Y-92873928D01*
X156181357Y-92783214D01*
X156199500Y-92746928D01*
X156217642Y-92728785D01*
X156253928Y-92710642D01*
X156290214Y-92710642D01*
X156344642Y-92728785D01*
X156562357Y-92946500D01*
X156562357Y-92710642D01*
X156612357Y-95121214D02*
X156231357Y-95121214D01*
X156231357Y-94976071D01*
X156249500Y-94939785D01*
X156267642Y-94921642D01*
X156303928Y-94903500D01*
X156358357Y-94903500D01*
X156394642Y-94921642D01*
X156412785Y-94939785D01*
X156430928Y-94976071D01*
X156430928Y-95121214D01*
X156231357Y-94776500D02*
X156231357Y-94540642D01*
X156376500Y-94667642D01*
X156376500Y-94613214D01*
X156394642Y-94576928D01*
X156412785Y-94558785D01*
X156449071Y-94540642D01*
X156539785Y-94540642D01*
X156576071Y-94558785D01*
X156594214Y-94576928D01*
X156612357Y-94613214D01*
X156612357Y-94722071D01*
X156594214Y-94758357D01*
X156576071Y-94776500D01*
X156622357Y-97711214D02*
X156241357Y-97711214D01*
X156241357Y-97566071D01*
X156259500Y-97529785D01*
X156277642Y-97511642D01*
X156313928Y-97493500D01*
X156368357Y-97493500D01*
X156404642Y-97511642D01*
X156422785Y-97529785D01*
X156440928Y-97566071D01*
X156440928Y-97711214D01*
X156368357Y-97166928D02*
X156622357Y-97166928D01*
X156223214Y-97257642D02*
X156495357Y-97348357D01*
X156495357Y-97112500D01*
X156692357Y-100781214D02*
X156311357Y-100781214D01*
X156311357Y-100636071D01*
X156329500Y-100599785D01*
X156347642Y-100581642D01*
X156383928Y-100563500D01*
X156438357Y-100563500D01*
X156474642Y-100581642D01*
X156492785Y-100599785D01*
X156510928Y-100636071D01*
X156510928Y-100781214D01*
X156311357Y-100218785D02*
X156311357Y-100400214D01*
X156492785Y-100418357D01*
X156474642Y-100400214D01*
X156456500Y-100363928D01*
X156456500Y-100273214D01*
X156474642Y-100236928D01*
X156492785Y-100218785D01*
X156529071Y-100200642D01*
X156619785Y-100200642D01*
X156656071Y-100218785D01*
X156674214Y-100236928D01*
X156692357Y-100273214D01*
X156692357Y-100363928D01*
X156674214Y-100400214D01*
X156656071Y-100418357D01*
X156742357Y-110994928D02*
X156560928Y-111121928D01*
X156742357Y-111212642D02*
X156361357Y-111212642D01*
X156361357Y-111067500D01*
X156379500Y-111031214D01*
X156397642Y-111013071D01*
X156433928Y-110994928D01*
X156488357Y-110994928D01*
X156524642Y-111013071D01*
X156542785Y-111031214D01*
X156560928Y-111067500D01*
X156560928Y-111212642D01*
X156361357Y-110867928D02*
X156742357Y-110613928D01*
X156361357Y-110613928D02*
X156742357Y-110867928D01*
X156742357Y-110269214D02*
X156742357Y-110486928D01*
X156742357Y-110378071D02*
X156361357Y-110378071D01*
X156415785Y-110414357D01*
X156452071Y-110450642D01*
X156470214Y-110486928D01*
X156634214Y-113852642D02*
X156652357Y-113798214D01*
X156652357Y-113707500D01*
X156634214Y-113671214D01*
X156616071Y-113653071D01*
X156579785Y-113634928D01*
X156543500Y-113634928D01*
X156507214Y-113653071D01*
X156489071Y-113671214D01*
X156470928Y-113707500D01*
X156452785Y-113780071D01*
X156434642Y-113816357D01*
X156416500Y-113834500D01*
X156380214Y-113852642D01*
X156343928Y-113852642D01*
X156307642Y-113834500D01*
X156289500Y-113816357D01*
X156271357Y-113780071D01*
X156271357Y-113689357D01*
X156289500Y-113634928D01*
X156652357Y-113471642D02*
X156271357Y-113471642D01*
X156271357Y-113380928D01*
X156289500Y-113326500D01*
X156325785Y-113290214D01*
X156362071Y-113272071D01*
X156434642Y-113253928D01*
X156489071Y-113253928D01*
X156561642Y-113272071D01*
X156597928Y-113290214D01*
X156634214Y-113326500D01*
X156652357Y-113380928D01*
X156652357Y-113471642D01*
X156543500Y-113108785D02*
X156543500Y-112927357D01*
X156652357Y-113145071D02*
X156271357Y-113018071D01*
X156652357Y-112891071D01*
X156694214Y-116433571D02*
X156712357Y-116379142D01*
X156712357Y-116288428D01*
X156694214Y-116252142D01*
X156676071Y-116234000D01*
X156639785Y-116215857D01*
X156603500Y-116215857D01*
X156567214Y-116234000D01*
X156549071Y-116252142D01*
X156530928Y-116288428D01*
X156512785Y-116361000D01*
X156494642Y-116397285D01*
X156476500Y-116415428D01*
X156440214Y-116433571D01*
X156403928Y-116433571D01*
X156367642Y-116415428D01*
X156349500Y-116397285D01*
X156331357Y-116361000D01*
X156331357Y-116270285D01*
X156349500Y-116215857D01*
X156676071Y-115834857D02*
X156694214Y-115853000D01*
X156712357Y-115907428D01*
X156712357Y-115943714D01*
X156694214Y-115998142D01*
X156657928Y-116034428D01*
X156621642Y-116052571D01*
X156549071Y-116070714D01*
X156494642Y-116070714D01*
X156422071Y-116052571D01*
X156385785Y-116034428D01*
X156349500Y-115998142D01*
X156331357Y-115943714D01*
X156331357Y-115907428D01*
X156349500Y-115853000D01*
X156367642Y-115834857D01*
X156712357Y-115490142D02*
X156712357Y-115671571D01*
X156331357Y-115671571D01*
X156752357Y-119320357D02*
X156371357Y-119320357D01*
X156643500Y-119193357D01*
X156371357Y-119066357D01*
X156752357Y-119066357D01*
X156716071Y-118667214D02*
X156734214Y-118685357D01*
X156752357Y-118739785D01*
X156752357Y-118776071D01*
X156734214Y-118830500D01*
X156697928Y-118866785D01*
X156661642Y-118884928D01*
X156589071Y-118903071D01*
X156534642Y-118903071D01*
X156462071Y-118884928D01*
X156425785Y-118866785D01*
X156389500Y-118830500D01*
X156371357Y-118776071D01*
X156371357Y-118739785D01*
X156389500Y-118685357D01*
X156407642Y-118667214D01*
X156734214Y-118522071D02*
X156752357Y-118467642D01*
X156752357Y-118376928D01*
X156734214Y-118340642D01*
X156716071Y-118322500D01*
X156679785Y-118304357D01*
X156643500Y-118304357D01*
X156607214Y-118322500D01*
X156589071Y-118340642D01*
X156570928Y-118376928D01*
X156552785Y-118449500D01*
X156534642Y-118485785D01*
X156516500Y-118503928D01*
X156480214Y-118522071D01*
X156443928Y-118522071D01*
X156407642Y-118503928D01*
X156389500Y-118485785D01*
X156371357Y-118449500D01*
X156371357Y-118358785D01*
X156389500Y-118304357D01*
X156752357Y-117941500D02*
X156752357Y-118159214D01*
X156752357Y-118050357D02*
X156371357Y-118050357D01*
X156425785Y-118086642D01*
X156462071Y-118122928D01*
X156480214Y-118159214D01*
X156682357Y-121870857D02*
X156301357Y-121870857D01*
X156573500Y-121743857D01*
X156301357Y-121616857D01*
X156682357Y-121616857D01*
X156664214Y-121453571D02*
X156682357Y-121399142D01*
X156682357Y-121308428D01*
X156664214Y-121272142D01*
X156646071Y-121254000D01*
X156609785Y-121235857D01*
X156573500Y-121235857D01*
X156537214Y-121254000D01*
X156519071Y-121272142D01*
X156500928Y-121308428D01*
X156482785Y-121381000D01*
X156464642Y-121417285D01*
X156446500Y-121435428D01*
X156410214Y-121453571D01*
X156373928Y-121453571D01*
X156337642Y-121435428D01*
X156319500Y-121417285D01*
X156301357Y-121381000D01*
X156301357Y-121290285D01*
X156319500Y-121235857D01*
X156646071Y-120854857D02*
X156664214Y-120873000D01*
X156682357Y-120927428D01*
X156682357Y-120963714D01*
X156664214Y-121018142D01*
X156627928Y-121054428D01*
X156591642Y-121072571D01*
X156519071Y-121090714D01*
X156464642Y-121090714D01*
X156392071Y-121072571D01*
X156355785Y-121054428D01*
X156319500Y-121018142D01*
X156301357Y-120963714D01*
X156301357Y-120927428D01*
X156319500Y-120873000D01*
X156337642Y-120854857D01*
X156682357Y-120691571D02*
X156301357Y-120691571D01*
X156682357Y-120473857D02*
X156464642Y-120637142D01*
X156301357Y-120473857D02*
X156519071Y-120691571D01*
X156682357Y-120111000D02*
X156682357Y-120328714D01*
X156682357Y-120219857D02*
X156301357Y-120219857D01*
X156355785Y-120256142D01*
X156392071Y-120292428D01*
X156410214Y-120328714D01*
X156636357Y-124024571D02*
X156255357Y-124024571D01*
X156527500Y-123897571D01*
X156255357Y-123770571D01*
X156636357Y-123770571D01*
X156618214Y-123607285D02*
X156636357Y-123552857D01*
X156636357Y-123462142D01*
X156618214Y-123425857D01*
X156600071Y-123407714D01*
X156563785Y-123389571D01*
X156527500Y-123389571D01*
X156491214Y-123407714D01*
X156473071Y-123425857D01*
X156454928Y-123462142D01*
X156436785Y-123534714D01*
X156418642Y-123571000D01*
X156400500Y-123589142D01*
X156364214Y-123607285D01*
X156327928Y-123607285D01*
X156291642Y-123589142D01*
X156273500Y-123571000D01*
X156255357Y-123534714D01*
X156255357Y-123444000D01*
X156273500Y-123389571D01*
X156636357Y-123226285D02*
X156255357Y-123226285D01*
X156636357Y-122845285D02*
X156636357Y-123063000D01*
X156636357Y-122954142D02*
X156255357Y-122954142D01*
X156309785Y-122990428D01*
X156346071Y-123026714D01*
X156364214Y-123063000D01*
X156622357Y-126689428D02*
X156241357Y-126689428D01*
X156513500Y-126562428D01*
X156241357Y-126435428D01*
X156622357Y-126435428D01*
X156604214Y-126272142D02*
X156622357Y-126217714D01*
X156622357Y-126127000D01*
X156604214Y-126090714D01*
X156586071Y-126072571D01*
X156549785Y-126054428D01*
X156513500Y-126054428D01*
X156477214Y-126072571D01*
X156459071Y-126090714D01*
X156440928Y-126127000D01*
X156422785Y-126199571D01*
X156404642Y-126235857D01*
X156386500Y-126254000D01*
X156350214Y-126272142D01*
X156313928Y-126272142D01*
X156277642Y-126254000D01*
X156259500Y-126235857D01*
X156241357Y-126199571D01*
X156241357Y-126108857D01*
X156259500Y-126054428D01*
X156241357Y-125818571D02*
X156241357Y-125746000D01*
X156259500Y-125709714D01*
X156295785Y-125673428D01*
X156368357Y-125655285D01*
X156495357Y-125655285D01*
X156567928Y-125673428D01*
X156604214Y-125709714D01*
X156622357Y-125746000D01*
X156622357Y-125818571D01*
X156604214Y-125854857D01*
X156567928Y-125891142D01*
X156495357Y-125909285D01*
X156368357Y-125909285D01*
X156295785Y-125891142D01*
X156259500Y-125854857D01*
X156241357Y-125818571D01*
X156622357Y-125292428D02*
X156622357Y-125510142D01*
X156622357Y-125401285D02*
X156241357Y-125401285D01*
X156295785Y-125437571D01*
X156332071Y-125473857D01*
X156350214Y-125510142D01*
X156231357Y-129061714D02*
X156231357Y-128844000D01*
X156612357Y-128952857D02*
X156231357Y-128952857D01*
X156231357Y-128753285D02*
X156612357Y-128499285D01*
X156231357Y-128499285D02*
X156612357Y-128753285D01*
X156231357Y-128281571D02*
X156231357Y-128245285D01*
X156249500Y-128209000D01*
X156267642Y-128190857D01*
X156303928Y-128172714D01*
X156376500Y-128154571D01*
X156467214Y-128154571D01*
X156539785Y-128172714D01*
X156576071Y-128190857D01*
X156594214Y-128209000D01*
X156612357Y-128245285D01*
X156612357Y-128281571D01*
X156594214Y-128317857D01*
X156576071Y-128336000D01*
X156539785Y-128354142D01*
X156467214Y-128372285D01*
X156376500Y-128372285D01*
X156303928Y-128354142D01*
X156267642Y-128336000D01*
X156249500Y-128317857D01*
X156231357Y-128281571D01*
X156231357Y-131535714D02*
X156231357Y-131318000D01*
X156612357Y-131426857D02*
X156231357Y-131426857D01*
X156231357Y-131227285D02*
X156612357Y-130973285D01*
X156231357Y-130973285D02*
X156612357Y-131227285D01*
X156612357Y-130628571D02*
X156612357Y-130846285D01*
X156612357Y-130737428D02*
X156231357Y-130737428D01*
X156285785Y-130773714D01*
X156322071Y-130810000D01*
X156340214Y-130846285D01*
X156319500Y-133894285D02*
X156301357Y-133930571D01*
X156301357Y-133985000D01*
X156319500Y-134039428D01*
X156355785Y-134075714D01*
X156392071Y-134093857D01*
X156464642Y-134112000D01*
X156519071Y-134112000D01*
X156591642Y-134093857D01*
X156627928Y-134075714D01*
X156664214Y-134039428D01*
X156682357Y-133985000D01*
X156682357Y-133948714D01*
X156664214Y-133894285D01*
X156646071Y-133876142D01*
X156519071Y-133876142D01*
X156519071Y-133948714D01*
X156682357Y-133712857D02*
X156301357Y-133712857D01*
X156682357Y-133495142D01*
X156301357Y-133495142D01*
X156682357Y-133313714D02*
X156301357Y-133313714D01*
X156301357Y-133223000D01*
X156319500Y-133168571D01*
X156355785Y-133132285D01*
X156392071Y-133114142D01*
X156464642Y-133096000D01*
X156519071Y-133096000D01*
X156591642Y-133114142D01*
X156627928Y-133132285D01*
X156664214Y-133168571D01*
X156682357Y-133223000D01*
X156682357Y-133313714D01*
X140336071Y-133513500D02*
X140354214Y-133531642D01*
X140372357Y-133586071D01*
X140372357Y-133622357D01*
X140354214Y-133676785D01*
X140317928Y-133713071D01*
X140281642Y-133731214D01*
X140209071Y-133749357D01*
X140154642Y-133749357D01*
X140082071Y-133731214D01*
X140045785Y-133713071D01*
X140009500Y-133676785D01*
X139991357Y-133622357D01*
X139991357Y-133586071D01*
X140009500Y-133531642D01*
X140027642Y-133513500D01*
X140372357Y-133150642D02*
X140372357Y-133368357D01*
X140372357Y-133259500D02*
X139991357Y-133259500D01*
X140045785Y-133295785D01*
X140082071Y-133332071D01*
X140100214Y-133368357D01*
X140326071Y-131023500D02*
X140344214Y-131041642D01*
X140362357Y-131096071D01*
X140362357Y-131132357D01*
X140344214Y-131186785D01*
X140307928Y-131223071D01*
X140271642Y-131241214D01*
X140199071Y-131259357D01*
X140144642Y-131259357D01*
X140072071Y-131241214D01*
X140035785Y-131223071D01*
X139999500Y-131186785D01*
X139981357Y-131132357D01*
X139981357Y-131096071D01*
X139999500Y-131041642D01*
X140017642Y-131023500D01*
X139981357Y-130787642D02*
X139981357Y-130751357D01*
X139999500Y-130715071D01*
X140017642Y-130696928D01*
X140053928Y-130678785D01*
X140126500Y-130660642D01*
X140217214Y-130660642D01*
X140289785Y-130678785D01*
X140326071Y-130696928D01*
X140344214Y-130715071D01*
X140362357Y-130751357D01*
X140362357Y-130787642D01*
X140344214Y-130823928D01*
X140326071Y-130842071D01*
X140289785Y-130860214D01*
X140217214Y-130878357D01*
X140126500Y-130878357D01*
X140053928Y-130860214D01*
X140017642Y-130842071D01*
X139999500Y-130823928D01*
X139981357Y-130787642D01*
X140380357Y-129246642D02*
X139999357Y-129246642D01*
X139999357Y-129101500D01*
X140017500Y-129065214D01*
X140035642Y-129047071D01*
X140071928Y-129028928D01*
X140126357Y-129028928D01*
X140162642Y-129047071D01*
X140180785Y-129065214D01*
X140198928Y-129101500D01*
X140198928Y-129246642D01*
X139999357Y-128901928D02*
X140380357Y-128811214D01*
X140108214Y-128738642D01*
X140380357Y-128666071D01*
X139999357Y-128575357D01*
X140380357Y-128430214D02*
X139999357Y-128430214D01*
X140271500Y-128303214D01*
X139999357Y-128176214D01*
X140380357Y-128176214D01*
X140380357Y-127795214D02*
X140380357Y-128012928D01*
X140380357Y-127904071D02*
X139999357Y-127904071D01*
X140053785Y-127940357D01*
X140090071Y-127976642D01*
X140108214Y-128012928D01*
X140380357Y-126700642D02*
X139999357Y-126700642D01*
X139999357Y-126555500D01*
X140017500Y-126519214D01*
X140035642Y-126501071D01*
X140071928Y-126482928D01*
X140126357Y-126482928D01*
X140162642Y-126501071D01*
X140180785Y-126519214D01*
X140198928Y-126555500D01*
X140198928Y-126700642D01*
X139999357Y-126355928D02*
X140380357Y-126265214D01*
X140108214Y-126192642D01*
X140380357Y-126120071D01*
X139999357Y-126029357D01*
X140380357Y-125884214D02*
X139999357Y-125884214D01*
X140271500Y-125757214D01*
X139999357Y-125630214D01*
X140380357Y-125630214D01*
X139999357Y-125376214D02*
X139999357Y-125339928D01*
X140017500Y-125303642D01*
X140035642Y-125285500D01*
X140071928Y-125267357D01*
X140144500Y-125249214D01*
X140235214Y-125249214D01*
X140307785Y-125267357D01*
X140344071Y-125285500D01*
X140362214Y-125303642D01*
X140380357Y-125339928D01*
X140380357Y-125376214D01*
X140362214Y-125412500D01*
X140344071Y-125430642D01*
X140307785Y-125448785D01*
X140235214Y-125466928D01*
X140144500Y-125466928D01*
X140071928Y-125448785D01*
X140035642Y-125430642D01*
X140017500Y-125412500D01*
X139999357Y-125376214D01*
X140271500Y-124125000D02*
X140271500Y-123943571D01*
X140380357Y-124161285D02*
X139999357Y-124034285D01*
X140380357Y-123907285D01*
X139999357Y-123707714D02*
X139999357Y-123635142D01*
X140017500Y-123598857D01*
X140053785Y-123562571D01*
X140126357Y-123544428D01*
X140253357Y-123544428D01*
X140325928Y-123562571D01*
X140362214Y-123598857D01*
X140380357Y-123635142D01*
X140380357Y-123707714D01*
X140362214Y-123744000D01*
X140325928Y-123780285D01*
X140253357Y-123798428D01*
X140126357Y-123798428D01*
X140053785Y-123780285D01*
X140017500Y-123744000D01*
X139999357Y-123707714D01*
X139999357Y-123381142D02*
X140307785Y-123381142D01*
X140344071Y-123363000D01*
X140362214Y-123344857D01*
X140380357Y-123308571D01*
X140380357Y-123236000D01*
X140362214Y-123199714D01*
X140344071Y-123181571D01*
X140307785Y-123163428D01*
X139999357Y-123163428D01*
X139999357Y-123036428D02*
X139999357Y-122818714D01*
X140380357Y-122927571D02*
X139999357Y-122927571D01*
X139665982Y-85852000D02*
X140046982Y-85725000D01*
X139665982Y-85598000D01*
X140046982Y-85471000D02*
X139665982Y-85471000D01*
X139665982Y-85380285D01*
X139684125Y-85325857D01*
X139720410Y-85289571D01*
X139756696Y-85271428D01*
X139829267Y-85253285D01*
X139883696Y-85253285D01*
X139956267Y-85271428D01*
X139992553Y-85289571D01*
X140028839Y-85325857D01*
X140046982Y-85380285D01*
X140046982Y-85471000D01*
X140046982Y-85090000D02*
X139665982Y-85090000D01*
X139665982Y-84999285D01*
X139684125Y-84944857D01*
X139720410Y-84908571D01*
X139756696Y-84890428D01*
X139829267Y-84872285D01*
X139883696Y-84872285D01*
X139956267Y-84890428D01*
X139992553Y-84908571D01*
X140028839Y-84944857D01*
X140046982Y-84999285D01*
X140046982Y-85090000D01*
X140858875Y-85852000D02*
X140840732Y-85870142D01*
X140786303Y-85906428D01*
X140750017Y-85924571D01*
X140695589Y-85942714D01*
X140604875Y-85960857D01*
X140532303Y-85960857D01*
X140441589Y-85942714D01*
X140387160Y-85924571D01*
X140350875Y-85906428D01*
X140296446Y-85870142D01*
X140278303Y-85852000D01*
X140332732Y-85743142D02*
X140332732Y-85507285D01*
X140477875Y-85634285D01*
X140477875Y-85579857D01*
X140496017Y-85543571D01*
X140514160Y-85525428D01*
X140550446Y-85507285D01*
X140641160Y-85507285D01*
X140677446Y-85525428D01*
X140695589Y-85543571D01*
X140713732Y-85579857D01*
X140713732Y-85688714D01*
X140695589Y-85725000D01*
X140677446Y-85743142D01*
X140677446Y-85344000D02*
X140695589Y-85325857D01*
X140713732Y-85344000D01*
X140695589Y-85362142D01*
X140677446Y-85344000D01*
X140713732Y-85344000D01*
X140332732Y-85198857D02*
X140332732Y-84963000D01*
X140477875Y-85090000D01*
X140477875Y-85035571D01*
X140496017Y-84999285D01*
X140514160Y-84981142D01*
X140550446Y-84963000D01*
X140641160Y-84963000D01*
X140677446Y-84981142D01*
X140695589Y-84999285D01*
X140713732Y-85035571D01*
X140713732Y-85144428D01*
X140695589Y-85180714D01*
X140677446Y-85198857D01*
X140858875Y-84836000D02*
X140840732Y-84817857D01*
X140786303Y-84781571D01*
X140750017Y-84763428D01*
X140695589Y-84745285D01*
X140604875Y-84727142D01*
X140532303Y-84727142D01*
X140441589Y-84745285D01*
X140387160Y-84763428D01*
X140350875Y-84781571D01*
X140296446Y-84817857D01*
X140278303Y-84836000D01*
X140271500Y-88591571D02*
X140271500Y-88410142D01*
X140380357Y-88627857D02*
X139999357Y-88500857D01*
X140380357Y-88373857D01*
X139999357Y-88174285D02*
X139999357Y-88138000D01*
X140017500Y-88101714D01*
X140035642Y-88083571D01*
X140071928Y-88065428D01*
X140144500Y-88047285D01*
X140235214Y-88047285D01*
X140307785Y-88065428D01*
X140344071Y-88083571D01*
X140362214Y-88101714D01*
X140380357Y-88138000D01*
X140380357Y-88174285D01*
X140362214Y-88210571D01*
X140344071Y-88228714D01*
X140307785Y-88246857D01*
X140235214Y-88265000D01*
X140144500Y-88265000D01*
X140071928Y-88246857D01*
X140035642Y-88228714D01*
X140017500Y-88210571D01*
X139999357Y-88174285D01*
X139999357Y-87811428D02*
X139999357Y-87775142D01*
X140017500Y-87738857D01*
X140035642Y-87720714D01*
X140071928Y-87702571D01*
X140144500Y-87684428D01*
X140235214Y-87684428D01*
X140307785Y-87702571D01*
X140344071Y-87720714D01*
X140362214Y-87738857D01*
X140380357Y-87775142D01*
X140380357Y-87811428D01*
X140362214Y-87847714D01*
X140344071Y-87865857D01*
X140307785Y-87884000D01*
X140235214Y-87902142D01*
X140144500Y-87902142D01*
X140071928Y-87884000D01*
X140035642Y-87865857D01*
X140017500Y-87847714D01*
X139999357Y-87811428D01*
X140271500Y-91131571D02*
X140271500Y-90950142D01*
X140380357Y-91167857D02*
X139999357Y-91040857D01*
X140380357Y-90913857D01*
X139999357Y-90714285D02*
X139999357Y-90678000D01*
X140017500Y-90641714D01*
X140035642Y-90623571D01*
X140071928Y-90605428D01*
X140144500Y-90587285D01*
X140235214Y-90587285D01*
X140307785Y-90605428D01*
X140344071Y-90623571D01*
X140362214Y-90641714D01*
X140380357Y-90678000D01*
X140380357Y-90714285D01*
X140362214Y-90750571D01*
X140344071Y-90768714D01*
X140307785Y-90786857D01*
X140235214Y-90805000D01*
X140144500Y-90805000D01*
X140071928Y-90786857D01*
X140035642Y-90768714D01*
X140017500Y-90750571D01*
X139999357Y-90714285D01*
X140380357Y-90224428D02*
X140380357Y-90442142D01*
X140380357Y-90333285D02*
X139999357Y-90333285D01*
X140053785Y-90369571D01*
X140090071Y-90405857D01*
X140108214Y-90442142D01*
X140271500Y-93671571D02*
X140271500Y-93490142D01*
X140380357Y-93707857D02*
X139999357Y-93580857D01*
X140380357Y-93453857D01*
X139999357Y-93254285D02*
X139999357Y-93218000D01*
X140017500Y-93181714D01*
X140035642Y-93163571D01*
X140071928Y-93145428D01*
X140144500Y-93127285D01*
X140235214Y-93127285D01*
X140307785Y-93145428D01*
X140344071Y-93163571D01*
X140362214Y-93181714D01*
X140380357Y-93218000D01*
X140380357Y-93254285D01*
X140362214Y-93290571D01*
X140344071Y-93308714D01*
X140307785Y-93326857D01*
X140235214Y-93345000D01*
X140144500Y-93345000D01*
X140071928Y-93326857D01*
X140035642Y-93308714D01*
X140017500Y-93290571D01*
X139999357Y-93254285D01*
X140035642Y-92982142D02*
X140017500Y-92964000D01*
X139999357Y-92927714D01*
X139999357Y-92837000D01*
X140017500Y-92800714D01*
X140035642Y-92782571D01*
X140071928Y-92764428D01*
X140108214Y-92764428D01*
X140162642Y-92782571D01*
X140380357Y-93000285D01*
X140380357Y-92764428D01*
X140271500Y-96719571D02*
X140271500Y-96538142D01*
X140380357Y-96755857D02*
X139999357Y-96628857D01*
X140380357Y-96501857D01*
X139999357Y-96302285D02*
X139999357Y-96266000D01*
X140017500Y-96229714D01*
X140035642Y-96211571D01*
X140071928Y-96193428D01*
X140144500Y-96175285D01*
X140235214Y-96175285D01*
X140307785Y-96193428D01*
X140344071Y-96211571D01*
X140362214Y-96229714D01*
X140380357Y-96266000D01*
X140380357Y-96302285D01*
X140362214Y-96338571D01*
X140344071Y-96356714D01*
X140307785Y-96374857D01*
X140235214Y-96393000D01*
X140144500Y-96393000D01*
X140071928Y-96374857D01*
X140035642Y-96356714D01*
X140017500Y-96338571D01*
X139999357Y-96302285D01*
X139999357Y-96048285D02*
X139999357Y-95812428D01*
X140144500Y-95939428D01*
X140144500Y-95885000D01*
X140162642Y-95848714D01*
X140180785Y-95830571D01*
X140217071Y-95812428D01*
X140307785Y-95812428D01*
X140344071Y-95830571D01*
X140362214Y-95848714D01*
X140380357Y-95885000D01*
X140380357Y-95993857D01*
X140362214Y-96030142D01*
X140344071Y-96048285D01*
X140271500Y-99005571D02*
X140271500Y-98824142D01*
X140380357Y-99041857D02*
X139999357Y-98914857D01*
X140380357Y-98787857D01*
X140380357Y-98461285D02*
X140380357Y-98679000D01*
X140380357Y-98570142D02*
X139999357Y-98570142D01*
X140053785Y-98606428D01*
X140090071Y-98642714D01*
X140108214Y-98679000D01*
X139999357Y-98225428D02*
X139999357Y-98189142D01*
X140017500Y-98152857D01*
X140035642Y-98134714D01*
X140071928Y-98116571D01*
X140144500Y-98098428D01*
X140235214Y-98098428D01*
X140307785Y-98116571D01*
X140344071Y-98134714D01*
X140362214Y-98152857D01*
X140380357Y-98189142D01*
X140380357Y-98225428D01*
X140362214Y-98261714D01*
X140344071Y-98279857D01*
X140307785Y-98298000D01*
X140235214Y-98316142D01*
X140144500Y-98316142D01*
X140071928Y-98298000D01*
X140035642Y-98279857D01*
X140017500Y-98261714D01*
X139999357Y-98225428D01*
X140271500Y-101291571D02*
X140271500Y-101110142D01*
X140380357Y-101327857D02*
X139999357Y-101200857D01*
X140380357Y-101073857D01*
X140380357Y-100747285D02*
X140380357Y-100965000D01*
X140380357Y-100856142D02*
X139999357Y-100856142D01*
X140053785Y-100892428D01*
X140090071Y-100928714D01*
X140108214Y-100965000D01*
X140380357Y-100384428D02*
X140380357Y-100602142D01*
X140380357Y-100493285D02*
X139999357Y-100493285D01*
X140053785Y-100529571D01*
X140090071Y-100565857D01*
X140108214Y-100602142D01*
X140271500Y-103831571D02*
X140271500Y-103650142D01*
X140380357Y-103867857D02*
X139999357Y-103740857D01*
X140380357Y-103613857D01*
X140380357Y-103287285D02*
X140380357Y-103505000D01*
X140380357Y-103396142D02*
X139999357Y-103396142D01*
X140053785Y-103432428D01*
X140090071Y-103468714D01*
X140108214Y-103505000D01*
X140035642Y-103142142D02*
X140017500Y-103124000D01*
X139999357Y-103087714D01*
X139999357Y-102997000D01*
X140017500Y-102960714D01*
X140035642Y-102942571D01*
X140071928Y-102924428D01*
X140108214Y-102924428D01*
X140162642Y-102942571D01*
X140380357Y-103160285D01*
X140380357Y-102924428D01*
X140271500Y-106371571D02*
X140271500Y-106190142D01*
X140380357Y-106407857D02*
X139999357Y-106280857D01*
X140380357Y-106153857D01*
X140380357Y-105827285D02*
X140380357Y-106045000D01*
X140380357Y-105936142D02*
X139999357Y-105936142D01*
X140053785Y-105972428D01*
X140090071Y-106008714D01*
X140108214Y-106045000D01*
X139999357Y-105700285D02*
X139999357Y-105464428D01*
X140144500Y-105591428D01*
X140144500Y-105537000D01*
X140162642Y-105500714D01*
X140180785Y-105482571D01*
X140217071Y-105464428D01*
X140307785Y-105464428D01*
X140344071Y-105482571D01*
X140362214Y-105500714D01*
X140380357Y-105537000D01*
X140380357Y-105645857D01*
X140362214Y-105682142D01*
X140344071Y-105700285D01*
X140271500Y-108730142D02*
X140271500Y-108548714D01*
X140380357Y-108766428D02*
X139999357Y-108639428D01*
X140380357Y-108512428D01*
X139999357Y-108312857D02*
X139999357Y-108276571D01*
X140017500Y-108240285D01*
X140035642Y-108222142D01*
X140071928Y-108204000D01*
X140144500Y-108185857D01*
X140235214Y-108185857D01*
X140307785Y-108204000D01*
X140344071Y-108222142D01*
X140362214Y-108240285D01*
X140380357Y-108276571D01*
X140380357Y-108312857D01*
X140362214Y-108349142D01*
X140344071Y-108367285D01*
X140307785Y-108385428D01*
X140235214Y-108403571D01*
X140144500Y-108403571D01*
X140071928Y-108385428D01*
X140035642Y-108367285D01*
X140017500Y-108349142D01*
X139999357Y-108312857D01*
X140271500Y-111016142D02*
X140271500Y-110834714D01*
X140380357Y-111052428D02*
X139999357Y-110925428D01*
X140380357Y-110798428D01*
X140380357Y-110471857D02*
X140380357Y-110689571D01*
X140380357Y-110580714D02*
X139999357Y-110580714D01*
X140053785Y-110617000D01*
X140090071Y-110653285D01*
X140108214Y-110689571D01*
X140263500Y-113556142D02*
X140263500Y-113374714D01*
X140372357Y-113592428D02*
X139991357Y-113465428D01*
X140372357Y-113338428D01*
X140027642Y-113229571D02*
X140009500Y-113211428D01*
X139991357Y-113175142D01*
X139991357Y-113084428D01*
X140009500Y-113048142D01*
X140027642Y-113030000D01*
X140063928Y-113011857D01*
X140100214Y-113011857D01*
X140154642Y-113030000D01*
X140372357Y-113247714D01*
X140372357Y-113011857D01*
X140203500Y-116162142D02*
X140203500Y-115980714D01*
X140312357Y-116198428D02*
X139931357Y-116071428D01*
X140312357Y-115944428D01*
X139931357Y-115853714D02*
X139931357Y-115617857D01*
X140076500Y-115744857D01*
X140076500Y-115690428D01*
X140094642Y-115654142D01*
X140112785Y-115636000D01*
X140149071Y-115617857D01*
X140239785Y-115617857D01*
X140276071Y-115636000D01*
X140294214Y-115654142D01*
X140312357Y-115690428D01*
X140312357Y-115799285D01*
X140294214Y-115835571D01*
X140276071Y-115853714D01*
X139951357Y-119369000D02*
X140332357Y-119242000D01*
X139951357Y-119115000D01*
X140332357Y-118770285D02*
X140150928Y-118897285D01*
X140332357Y-118988000D02*
X139951357Y-118988000D01*
X139951357Y-118842857D01*
X139969500Y-118806571D01*
X139987642Y-118788428D01*
X140023928Y-118770285D01*
X140078357Y-118770285D01*
X140114642Y-118788428D01*
X140132785Y-118806571D01*
X140150928Y-118842857D01*
X140150928Y-118988000D01*
X140132785Y-118607000D02*
X140132785Y-118480000D01*
X140332357Y-118425571D02*
X140332357Y-118607000D01*
X139951357Y-118607000D01*
X139951357Y-118425571D01*
X140132785Y-118135285D02*
X140132785Y-118262285D01*
X140332357Y-118262285D02*
X139951357Y-118262285D01*
X139951357Y-118080857D01*
X140187214Y-117935714D02*
X140187214Y-117645428D01*
X140332357Y-117790571D02*
X140042071Y-117790571D01*
X139999357Y-121899000D02*
X140380357Y-121772000D01*
X139999357Y-121645000D01*
X140380357Y-121300285D02*
X140198928Y-121427285D01*
X140380357Y-121518000D02*
X139999357Y-121518000D01*
X139999357Y-121372857D01*
X140017500Y-121336571D01*
X140035642Y-121318428D01*
X140071928Y-121300285D01*
X140126357Y-121300285D01*
X140162642Y-121318428D01*
X140180785Y-121336571D01*
X140198928Y-121372857D01*
X140198928Y-121518000D01*
X140180785Y-121137000D02*
X140180785Y-121010000D01*
X140380357Y-120955571D02*
X140380357Y-121137000D01*
X139999357Y-121137000D01*
X139999357Y-120955571D01*
X140180785Y-120665285D02*
X140180785Y-120792285D01*
X140380357Y-120792285D02*
X139999357Y-120792285D01*
X139999357Y-120610857D01*
X140235214Y-120465714D02*
X140235214Y-120175428D01*
D14*
X144290000Y-84750000D02*
X144290000Y-83450000D01*
X152290000Y-84700000D02*
X152290000Y-83450000D01*
X144290000Y-88280000D02*
X144290000Y-86950000D01*
X152290000Y-88290000D02*
X152290000Y-86960000D01*
X146580000Y-90050000D02*
X145360000Y-90050000D01*
X151210000Y-90050000D02*
X150060000Y-90050000D01*
X152290000Y-83450000D02*
X144290000Y-83450000D01*
D15*
X137080000Y-134960000D02*
X139740000Y-134960000D01*
X137080000Y-86640000D02*
X137080000Y-134960000D01*
X139740000Y-86640000D02*
X139740000Y-134960000D01*
X137080000Y-86640000D02*
X139740000Y-86640000D01*
X137080000Y-85370000D02*
X137080000Y-84040000D01*
X137080000Y-84040000D02*
X138410000Y-84040000D01*
X153825142Y-121361976D02*
X154161018Y-121026100D01*
X142536182Y-121026100D02*
X142872058Y-121361976D01*
X142872058Y-120690224D02*
X142536182Y-121026100D01*
X148348600Y-115213682D02*
X148684476Y-115549558D01*
X148012724Y-115549558D02*
X148348600Y-115213682D01*
X148348600Y-126838518D02*
X148012724Y-126502642D01*
X148684476Y-126502642D02*
X148348600Y-126838518D01*
D16*
G36*
X149969715Y-99184633D02*
G01*
X150021046Y-99211561D01*
X150060096Y-99248979D01*
X150064651Y-99255833D01*
X150083321Y-99304481D01*
X150089046Y-99361149D01*
X150081955Y-99415818D01*
X150062175Y-99458467D01*
X150062078Y-99458591D01*
X150013685Y-99501636D01*
X149955111Y-99525277D01*
X149892787Y-99528250D01*
X149833141Y-99509293D01*
X149825691Y-99505014D01*
X149781047Y-99464621D01*
X149754239Y-99412703D01*
X149745035Y-99355033D01*
X149745171Y-99354068D01*
X149847300Y-99354068D01*
X149857002Y-99381941D01*
X149880003Y-99409323D01*
X149907146Y-99426480D01*
X149917150Y-99428300D01*
X149939685Y-99419892D01*
X149961600Y-99402900D01*
X149982446Y-99369110D01*
X149982838Y-99336153D01*
X149967417Y-99308781D01*
X149940825Y-99291748D01*
X149907702Y-99289807D01*
X149872689Y-99307713D01*
X149870525Y-99309618D01*
X149852258Y-99335151D01*
X149847300Y-99354068D01*
X149745171Y-99354068D01*
X149753200Y-99297382D01*
X149778503Y-99245524D01*
X149820709Y-99205230D01*
X149838194Y-99195508D01*
X149877179Y-99181254D01*
X149913494Y-99174406D01*
X149917150Y-99174300D01*
X149969715Y-99184633D01*
G37*
X149969715Y-99184633D02*
X150021046Y-99211561D01*
X150060096Y-99248979D01*
X150064651Y-99255833D01*
X150083321Y-99304481D01*
X150089046Y-99361149D01*
X150081955Y-99415818D01*
X150062175Y-99458467D01*
X150062078Y-99458591D01*
X150013685Y-99501636D01*
X149955111Y-99525277D01*
X149892787Y-99528250D01*
X149833141Y-99509293D01*
X149825691Y-99505014D01*
X149781047Y-99464621D01*
X149754239Y-99412703D01*
X149745035Y-99355033D01*
X149745171Y-99354068D01*
X149847300Y-99354068D01*
X149857002Y-99381941D01*
X149880003Y-99409323D01*
X149907146Y-99426480D01*
X149917150Y-99428300D01*
X149939685Y-99419892D01*
X149961600Y-99402900D01*
X149982446Y-99369110D01*
X149982838Y-99336153D01*
X149967417Y-99308781D01*
X149940825Y-99291748D01*
X149907702Y-99289807D01*
X149872689Y-99307713D01*
X149870525Y-99309618D01*
X149852258Y-99335151D01*
X149847300Y-99354068D01*
X149745171Y-99354068D01*
X149753200Y-99297382D01*
X149778503Y-99245524D01*
X149820709Y-99205230D01*
X149838194Y-99195508D01*
X149877179Y-99181254D01*
X149913494Y-99174406D01*
X149917150Y-99174300D01*
X149969715Y-99184633D01*
G36*
X141503614Y-97832939D02*
G01*
X141620112Y-97849523D01*
X141715859Y-97878836D01*
X141792755Y-97922113D01*
X141852701Y-97980593D01*
X141897598Y-98055514D01*
X141915549Y-98101150D01*
X141927661Y-98149883D01*
X141938617Y-98218580D01*
X141947890Y-98301814D01*
X141954951Y-98394155D01*
X141959270Y-98490175D01*
X141960393Y-98561525D01*
X141960600Y-98679000D01*
X141274800Y-98679000D01*
X141274800Y-98831142D01*
X141277585Y-98927152D01*
X141286949Y-99000806D01*
X141304402Y-99054636D01*
X141331455Y-99091175D01*
X141369617Y-99112956D01*
X141420399Y-99122511D01*
X141449143Y-99123500D01*
X141507647Y-99116261D01*
X141551599Y-99093075D01*
X141582844Y-99051739D01*
X141603228Y-98990047D01*
X141612582Y-98928289D01*
X141621207Y-98844100D01*
X141951423Y-98844100D01*
X141944393Y-98955225D01*
X141935124Y-99045250D01*
X141918388Y-99116950D01*
X141891548Y-99176935D01*
X141851972Y-99231814D01*
X141820811Y-99265245D01*
X141772054Y-99309791D01*
X141728459Y-99338682D01*
X141681407Y-99357603D01*
X141680170Y-99357980D01*
X141618294Y-99371483D01*
X141541729Y-99380644D01*
X141460731Y-99384868D01*
X141385558Y-99383564D01*
X141335295Y-99377924D01*
X141226127Y-99349575D01*
X141137126Y-99307434D01*
X141066379Y-99250273D01*
X141011977Y-99176862D01*
X141006034Y-99166113D01*
X140988128Y-99130706D01*
X140973655Y-99096253D01*
X140962257Y-99059598D01*
X140953573Y-99017580D01*
X140947244Y-98967044D01*
X140942910Y-98904831D01*
X140940211Y-98827784D01*
X140938788Y-98732743D01*
X140938281Y-98616552D01*
X140938254Y-98571050D01*
X140938317Y-98460359D01*
X140938636Y-98371924D01*
X140939297Y-98312595D01*
X141274800Y-98312595D01*
X141274800Y-98412300D01*
X141620729Y-98412300D01*
X141615381Y-98290020D01*
X141612513Y-98233104D01*
X141608702Y-98195368D01*
X141602145Y-98170606D01*
X141591037Y-98152614D01*
X141573574Y-98135184D01*
X141569216Y-98131270D01*
X141541877Y-98110090D01*
X141514262Y-98099088D01*
X141476258Y-98095124D01*
X141451768Y-98094800D01*
X141386311Y-98099203D01*
X141338445Y-98114374D01*
X141305779Y-98143256D01*
X141285923Y-98188790D01*
X141276486Y-98253918D01*
X141274800Y-98312595D01*
X140939297Y-98312595D01*
X140939409Y-98302598D01*
X140940836Y-98249235D01*
X140943117Y-98208692D01*
X140946449Y-98177821D01*
X140951032Y-98153478D01*
X140957065Y-98132517D01*
X140964747Y-98111794D01*
X140967796Y-98104178D01*
X141007441Y-98032045D01*
X141063598Y-97964369D01*
X141129025Y-97908911D01*
X141174898Y-97882241D01*
X141259334Y-97852920D01*
X141357946Y-97835298D01*
X141461709Y-97830728D01*
X141503614Y-97832939D01*
G37*
X141503614Y-97832939D02*
X141620112Y-97849523D01*
X141715859Y-97878836D01*
X141792755Y-97922113D01*
X141852701Y-97980593D01*
X141897598Y-98055514D01*
X141915549Y-98101150D01*
X141927661Y-98149883D01*
X141938617Y-98218580D01*
X141947890Y-98301814D01*
X141954951Y-98394155D01*
X141959270Y-98490175D01*
X141960393Y-98561525D01*
X141960600Y-98679000D01*
X141274800Y-98679000D01*
X141274800Y-98831142D01*
X141277585Y-98927152D01*
X141286949Y-99000806D01*
X141304402Y-99054636D01*
X141331455Y-99091175D01*
X141369617Y-99112956D01*
X141420399Y-99122511D01*
X141449143Y-99123500D01*
X141507647Y-99116261D01*
X141551599Y-99093075D01*
X141582844Y-99051739D01*
X141603228Y-98990047D01*
X141612582Y-98928289D01*
X141621207Y-98844100D01*
X141951423Y-98844100D01*
X141944393Y-98955225D01*
X141935124Y-99045250D01*
X141918388Y-99116950D01*
X141891548Y-99176935D01*
X141851972Y-99231814D01*
X141820811Y-99265245D01*
X141772054Y-99309791D01*
X141728459Y-99338682D01*
X141681407Y-99357603D01*
X141680170Y-99357980D01*
X141618294Y-99371483D01*
X141541729Y-99380644D01*
X141460731Y-99384868D01*
X141385558Y-99383564D01*
X141335295Y-99377924D01*
X141226127Y-99349575D01*
X141137126Y-99307434D01*
X141066379Y-99250273D01*
X141011977Y-99176862D01*
X141006034Y-99166113D01*
X140988128Y-99130706D01*
X140973655Y-99096253D01*
X140962257Y-99059598D01*
X140953573Y-99017580D01*
X140947244Y-98967044D01*
X140942910Y-98904831D01*
X140940211Y-98827784D01*
X140938788Y-98732743D01*
X140938281Y-98616552D01*
X140938254Y-98571050D01*
X140938317Y-98460359D01*
X140938636Y-98371924D01*
X140939297Y-98312595D01*
X141274800Y-98312595D01*
X141274800Y-98412300D01*
X141620729Y-98412300D01*
X141615381Y-98290020D01*
X141612513Y-98233104D01*
X141608702Y-98195368D01*
X141602145Y-98170606D01*
X141591037Y-98152614D01*
X141573574Y-98135184D01*
X141569216Y-98131270D01*
X141541877Y-98110090D01*
X141514262Y-98099088D01*
X141476258Y-98095124D01*
X141451768Y-98094800D01*
X141386311Y-98099203D01*
X141338445Y-98114374D01*
X141305779Y-98143256D01*
X141285923Y-98188790D01*
X141276486Y-98253918D01*
X141274800Y-98312595D01*
X140939297Y-98312595D01*
X140939409Y-98302598D01*
X140940836Y-98249235D01*
X140943117Y-98208692D01*
X140946449Y-98177821D01*
X140951032Y-98153478D01*
X140957065Y-98132517D01*
X140964747Y-98111794D01*
X140967796Y-98104178D01*
X141007441Y-98032045D01*
X141063598Y-97964369D01*
X141129025Y-97908911D01*
X141174898Y-97882241D01*
X141259334Y-97852920D01*
X141357946Y-97835298D01*
X141461709Y-97830728D01*
X141503614Y-97832939D01*
G36*
X143639602Y-97851778D02*
G01*
X143740032Y-97880812D01*
X143822501Y-97925255D01*
X143885884Y-97984698D01*
X143918020Y-98034477D01*
X143926366Y-98051810D01*
X143933375Y-98069841D01*
X143939184Y-98090892D01*
X143943927Y-98117280D01*
X143947741Y-98151325D01*
X143950760Y-98195347D01*
X143953122Y-98251666D01*
X143954960Y-98322600D01*
X143956411Y-98410470D01*
X143957610Y-98517595D01*
X143958693Y-98646294D01*
X143959398Y-98742500D01*
X143960441Y-98858131D01*
X143961844Y-98966616D01*
X143963539Y-99065159D01*
X143965459Y-99150965D01*
X143967537Y-99221239D01*
X143969707Y-99273186D01*
X143971900Y-99304009D01*
X143973049Y-99310825D01*
X143982862Y-99339400D01*
X143830339Y-99339400D01*
X143762373Y-99339107D01*
X143715774Y-99336790D01*
X143686511Y-99330289D01*
X143670552Y-99317445D01*
X143663864Y-99296098D01*
X143662415Y-99264089D01*
X143662400Y-99249461D01*
X143659134Y-99217072D01*
X143650785Y-99200489D01*
X143648126Y-99199700D01*
X143632709Y-99208594D01*
X143607212Y-99231679D01*
X143583017Y-99257451D01*
X143515351Y-99319850D01*
X143441560Y-99358627D01*
X143358032Y-99375436D01*
X143323097Y-99376408D01*
X143273727Y-99374425D01*
X143230448Y-99370339D01*
X143205117Y-99365633D01*
X143121150Y-99328164D01*
X143054512Y-99272181D01*
X143005282Y-99197818D01*
X142973542Y-99105210D01*
X142959372Y-98994490D01*
X142958560Y-98958400D01*
X142961535Y-98911792D01*
X143287054Y-98911792D01*
X143289906Y-98976741D01*
X143302924Y-99035592D01*
X143325489Y-99081324D01*
X143341290Y-99097986D01*
X143378886Y-99115187D01*
X143429803Y-99123461D01*
X143483480Y-99122515D01*
X143529358Y-99112053D01*
X143545346Y-99103679D01*
X143569402Y-99083973D01*
X143587620Y-99060552D01*
X143600900Y-99029650D01*
X143610140Y-98987501D01*
X143616239Y-98930339D01*
X143620096Y-98854398D01*
X143622072Y-98782231D01*
X143623540Y-98701294D01*
X143623777Y-98642732D01*
X143622605Y-98603542D01*
X143619849Y-98580720D01*
X143615332Y-98571262D01*
X143609710Y-98571640D01*
X143560987Y-98601837D01*
X143506786Y-98638198D01*
X143451679Y-98677314D01*
X143400244Y-98715777D01*
X143357054Y-98750179D01*
X143326685Y-98777111D01*
X143314319Y-98791682D01*
X143294986Y-98847766D01*
X143287054Y-98911792D01*
X142961535Y-98911792D01*
X142964686Y-98862451D01*
X142984570Y-98778974D01*
X143020107Y-98705700D01*
X143073191Y-98640361D01*
X143145717Y-98580689D01*
X143239579Y-98524417D01*
X143356672Y-98469278D01*
X143372929Y-98462397D01*
X143459578Y-98424542D01*
X143524924Y-98392162D01*
X143572011Y-98363494D01*
X143603883Y-98336775D01*
X143616859Y-98321103D01*
X143629151Y-98289103D01*
X143635847Y-98242862D01*
X143636511Y-98193009D01*
X143630706Y-98150174D01*
X143624568Y-98133400D01*
X143597395Y-98107323D01*
X143553138Y-98090528D01*
X143498323Y-98082941D01*
X143439480Y-98084487D01*
X143383137Y-98095090D01*
X143335821Y-98114675D01*
X143308616Y-98137045D01*
X143297217Y-98161228D01*
X143287173Y-98199981D01*
X143283216Y-98224737D01*
X143275050Y-98291650D01*
X143117623Y-98295230D01*
X142960196Y-98298811D01*
X142968059Y-98223589D01*
X142988870Y-98116925D01*
X143027383Y-98028083D01*
X143083998Y-97956703D01*
X143159112Y-97902422D01*
X143253123Y-97864880D01*
X143366432Y-97843715D01*
X143389350Y-97841581D01*
X143522333Y-97838565D01*
X143639602Y-97851778D01*
G37*
X143639602Y-97851778D02*
X143740032Y-97880812D01*
X143822501Y-97925255D01*
X143885884Y-97984698D01*
X143918020Y-98034477D01*
X143926366Y-98051810D01*
X143933375Y-98069841D01*
X143939184Y-98090892D01*
X143943927Y-98117280D01*
X143947741Y-98151325D01*
X143950760Y-98195347D01*
X143953122Y-98251666D01*
X143954960Y-98322600D01*
X143956411Y-98410470D01*
X143957610Y-98517595D01*
X143958693Y-98646294D01*
X143959398Y-98742500D01*
X143960441Y-98858131D01*
X143961844Y-98966616D01*
X143963539Y-99065159D01*
X143965459Y-99150965D01*
X143967537Y-99221239D01*
X143969707Y-99273186D01*
X143971900Y-99304009D01*
X143973049Y-99310825D01*
X143982862Y-99339400D01*
X143830339Y-99339400D01*
X143762373Y-99339107D01*
X143715774Y-99336790D01*
X143686511Y-99330289D01*
X143670552Y-99317445D01*
X143663864Y-99296098D01*
X143662415Y-99264089D01*
X143662400Y-99249461D01*
X143659134Y-99217072D01*
X143650785Y-99200489D01*
X143648126Y-99199700D01*
X143632709Y-99208594D01*
X143607212Y-99231679D01*
X143583017Y-99257451D01*
X143515351Y-99319850D01*
X143441560Y-99358627D01*
X143358032Y-99375436D01*
X143323097Y-99376408D01*
X143273727Y-99374425D01*
X143230448Y-99370339D01*
X143205117Y-99365633D01*
X143121150Y-99328164D01*
X143054512Y-99272181D01*
X143005282Y-99197818D01*
X142973542Y-99105210D01*
X142959372Y-98994490D01*
X142958560Y-98958400D01*
X142961535Y-98911792D01*
X143287054Y-98911792D01*
X143289906Y-98976741D01*
X143302924Y-99035592D01*
X143325489Y-99081324D01*
X143341290Y-99097986D01*
X143378886Y-99115187D01*
X143429803Y-99123461D01*
X143483480Y-99122515D01*
X143529358Y-99112053D01*
X143545346Y-99103679D01*
X143569402Y-99083973D01*
X143587620Y-99060552D01*
X143600900Y-99029650D01*
X143610140Y-98987501D01*
X143616239Y-98930339D01*
X143620096Y-98854398D01*
X143622072Y-98782231D01*
X143623540Y-98701294D01*
X143623777Y-98642732D01*
X143622605Y-98603542D01*
X143619849Y-98580720D01*
X143615332Y-98571262D01*
X143609710Y-98571640D01*
X143560987Y-98601837D01*
X143506786Y-98638198D01*
X143451679Y-98677314D01*
X143400244Y-98715777D01*
X143357054Y-98750179D01*
X143326685Y-98777111D01*
X143314319Y-98791682D01*
X143294986Y-98847766D01*
X143287054Y-98911792D01*
X142961535Y-98911792D01*
X142964686Y-98862451D01*
X142984570Y-98778974D01*
X143020107Y-98705700D01*
X143073191Y-98640361D01*
X143145717Y-98580689D01*
X143239579Y-98524417D01*
X143356672Y-98469278D01*
X143372929Y-98462397D01*
X143459578Y-98424542D01*
X143524924Y-98392162D01*
X143572011Y-98363494D01*
X143603883Y-98336775D01*
X143616859Y-98321103D01*
X143629151Y-98289103D01*
X143635847Y-98242862D01*
X143636511Y-98193009D01*
X143630706Y-98150174D01*
X143624568Y-98133400D01*
X143597395Y-98107323D01*
X143553138Y-98090528D01*
X143498323Y-98082941D01*
X143439480Y-98084487D01*
X143383137Y-98095090D01*
X143335821Y-98114675D01*
X143308616Y-98137045D01*
X143297217Y-98161228D01*
X143287173Y-98199981D01*
X143283216Y-98224737D01*
X143275050Y-98291650D01*
X143117623Y-98295230D01*
X142960196Y-98298811D01*
X142968059Y-98223589D01*
X142988870Y-98116925D01*
X143027383Y-98028083D01*
X143083998Y-97956703D01*
X143159112Y-97902422D01*
X143253123Y-97864880D01*
X143366432Y-97843715D01*
X143389350Y-97841581D01*
X143522333Y-97838565D01*
X143639602Y-97851778D01*
G36*
X144562227Y-97694752D02*
G01*
X144561179Y-97803159D01*
X144561457Y-97889143D01*
X144563043Y-97951983D01*
X144565918Y-97990956D01*
X144570061Y-98005340D01*
X144570450Y-98005407D01*
X144584509Y-97995654D01*
X144607012Y-97971134D01*
X144623714Y-97949731D01*
X144674322Y-97895436D01*
X144733766Y-97860849D01*
X144806241Y-97844209D01*
X144878825Y-97842744D01*
X144965980Y-97854187D01*
X145037951Y-97880667D01*
X145096076Y-97923812D01*
X145141689Y-97985248D01*
X145176126Y-98066602D01*
X145200724Y-98169501D01*
X145212036Y-98248421D01*
X145216948Y-98308156D01*
X145220565Y-98386833D01*
X145222893Y-98478768D01*
X145223937Y-98578278D01*
X145223704Y-98679679D01*
X145222200Y-98777286D01*
X145219429Y-98865415D01*
X145215398Y-98938383D01*
X145211294Y-98981833D01*
X145188313Y-99100367D01*
X145151788Y-99198837D01*
X145102060Y-99276637D01*
X145039472Y-99333158D01*
X145002250Y-99353806D01*
X144945834Y-99369979D01*
X144877110Y-99375942D01*
X144807105Y-99371511D01*
X144750841Y-99358017D01*
X144676821Y-99318840D01*
X144615774Y-99259329D01*
X144603811Y-99243365D01*
X144575900Y-99209896D01*
X144556205Y-99200243D01*
X144544103Y-99214655D01*
X144538972Y-99253384D01*
X144538700Y-99269550D01*
X144538700Y-99339400D01*
X144233900Y-99339400D01*
X144233900Y-98598129D01*
X144564100Y-98598129D01*
X144564585Y-98716541D01*
X144566296Y-98812501D01*
X144569613Y-98888941D01*
X144574917Y-98948796D01*
X144582589Y-98995000D01*
X144593011Y-99030486D01*
X144606562Y-99058187D01*
X144623624Y-99081037D01*
X144627337Y-99085118D01*
X144653906Y-99109158D01*
X144681698Y-99120474D01*
X144722166Y-99123485D01*
X144726816Y-99123500D01*
X144768066Y-99121278D01*
X144794896Y-99111726D01*
X144818107Y-99090512D01*
X144822832Y-99085005D01*
X144848618Y-99045709D01*
X144867464Y-99002288D01*
X144868341Y-98999280D01*
X144872309Y-98971697D01*
X144875558Y-98922927D01*
X144878086Y-98857173D01*
X144879895Y-98778636D01*
X144880986Y-98691521D01*
X144881359Y-98600028D01*
X144881015Y-98508362D01*
X144879955Y-98420723D01*
X144878178Y-98341316D01*
X144875687Y-98274343D01*
X144872482Y-98224006D01*
X144868562Y-98194508D01*
X144868209Y-98193142D01*
X144846096Y-98141254D01*
X144812142Y-98109890D01*
X144762318Y-98096081D01*
X144734867Y-98094800D01*
X144674427Y-98102100D01*
X144630565Y-98125998D01*
X144599420Y-98169484D01*
X144583434Y-98212102D01*
X144577003Y-98239617D01*
X144572071Y-98275578D01*
X144568479Y-98323211D01*
X144566064Y-98385741D01*
X144564665Y-98466392D01*
X144564121Y-98568390D01*
X144564100Y-98598129D01*
X144233900Y-98598129D01*
X144233900Y-97383600D01*
X144566705Y-97383600D01*
X144562227Y-97694752D01*
G37*
X144562227Y-97694752D02*
X144561179Y-97803159D01*
X144561457Y-97889143D01*
X144563043Y-97951983D01*
X144565918Y-97990956D01*
X144570061Y-98005340D01*
X144570450Y-98005407D01*
X144584509Y-97995654D01*
X144607012Y-97971134D01*
X144623714Y-97949731D01*
X144674322Y-97895436D01*
X144733766Y-97860849D01*
X144806241Y-97844209D01*
X144878825Y-97842744D01*
X144965980Y-97854187D01*
X145037951Y-97880667D01*
X145096076Y-97923812D01*
X145141689Y-97985248D01*
X145176126Y-98066602D01*
X145200724Y-98169501D01*
X145212036Y-98248421D01*
X145216948Y-98308156D01*
X145220565Y-98386833D01*
X145222893Y-98478768D01*
X145223937Y-98578278D01*
X145223704Y-98679679D01*
X145222200Y-98777286D01*
X145219429Y-98865415D01*
X145215398Y-98938383D01*
X145211294Y-98981833D01*
X145188313Y-99100367D01*
X145151788Y-99198837D01*
X145102060Y-99276637D01*
X145039472Y-99333158D01*
X145002250Y-99353806D01*
X144945834Y-99369979D01*
X144877110Y-99375942D01*
X144807105Y-99371511D01*
X144750841Y-99358017D01*
X144676821Y-99318840D01*
X144615774Y-99259329D01*
X144603811Y-99243365D01*
X144575900Y-99209896D01*
X144556205Y-99200243D01*
X144544103Y-99214655D01*
X144538972Y-99253384D01*
X144538700Y-99269550D01*
X144538700Y-99339400D01*
X144233900Y-99339400D01*
X144233900Y-98598129D01*
X144564100Y-98598129D01*
X144564585Y-98716541D01*
X144566296Y-98812501D01*
X144569613Y-98888941D01*
X144574917Y-98948796D01*
X144582589Y-98995000D01*
X144593011Y-99030486D01*
X144606562Y-99058187D01*
X144623624Y-99081037D01*
X144627337Y-99085118D01*
X144653906Y-99109158D01*
X144681698Y-99120474D01*
X144722166Y-99123485D01*
X144726816Y-99123500D01*
X144768066Y-99121278D01*
X144794896Y-99111726D01*
X144818107Y-99090512D01*
X144822832Y-99085005D01*
X144848618Y-99045709D01*
X144867464Y-99002288D01*
X144868341Y-98999280D01*
X144872309Y-98971697D01*
X144875558Y-98922927D01*
X144878086Y-98857173D01*
X144879895Y-98778636D01*
X144880986Y-98691521D01*
X144881359Y-98600028D01*
X144881015Y-98508362D01*
X144879955Y-98420723D01*
X144878178Y-98341316D01*
X144875687Y-98274343D01*
X144872482Y-98224006D01*
X144868562Y-98194508D01*
X144868209Y-98193142D01*
X144846096Y-98141254D01*
X144812142Y-98109890D01*
X144762318Y-98096081D01*
X144734867Y-98094800D01*
X144674427Y-98102100D01*
X144630565Y-98125998D01*
X144599420Y-98169484D01*
X144583434Y-98212102D01*
X144577003Y-98239617D01*
X144572071Y-98275578D01*
X144568479Y-98323211D01*
X144566064Y-98385741D01*
X144564665Y-98466392D01*
X144564121Y-98568390D01*
X144564100Y-98598129D01*
X144233900Y-98598129D01*
X144233900Y-97383600D01*
X144566705Y-97383600D01*
X144562227Y-97694752D01*
G36*
X146612783Y-97841055D02*
G01*
X146629885Y-97842459D01*
X146723509Y-97855639D01*
X146798935Y-97877885D01*
X146862517Y-97911764D01*
X146920611Y-97959846D01*
X146920732Y-97959964D01*
X146958237Y-98000375D01*
X146987634Y-98042385D01*
X147009970Y-98089827D01*
X147026289Y-98146532D01*
X147037639Y-98216333D01*
X147045065Y-98303062D01*
X147049614Y-98410551D01*
X147050261Y-98434525D01*
X147056084Y-98666300D01*
X146364244Y-98666300D01*
X146370009Y-98840925D01*
X146373475Y-98920126D01*
X146378225Y-98978321D01*
X146384824Y-99019892D01*
X146393836Y-99049222D01*
X146397881Y-99057825D01*
X146433736Y-99100163D01*
X146486575Y-99126165D01*
X146552707Y-99134256D01*
X146573926Y-99133020D01*
X146634244Y-99117654D01*
X146678513Y-99084136D01*
X146707353Y-99031573D01*
X146721378Y-98959072D01*
X146723029Y-98917125D01*
X146723100Y-98856800D01*
X147056983Y-98856800D01*
X147049438Y-98942525D01*
X147029515Y-99060704D01*
X146992327Y-99161127D01*
X146938236Y-99243277D01*
X146867604Y-99306640D01*
X146780795Y-99350699D01*
X146756816Y-99358575D01*
X146700764Y-99369415D01*
X146628588Y-99375188D01*
X146549048Y-99375924D01*
X146470902Y-99371655D01*
X146402911Y-99362411D01*
X146380200Y-99357243D01*
X146284357Y-99320997D01*
X146205310Y-99267292D01*
X146142443Y-99195311D01*
X146095143Y-99104238D01*
X146062796Y-98993255D01*
X146050505Y-98918333D01*
X146045404Y-98861782D01*
X146041607Y-98787546D01*
X146039113Y-98701077D01*
X146037919Y-98607831D01*
X146038023Y-98513261D01*
X146039390Y-98425000D01*
X146364039Y-98425000D01*
X146723100Y-98425000D01*
X146723100Y-98303719D01*
X146720846Y-98227793D01*
X146713005Y-98173013D01*
X146697953Y-98135438D01*
X146674066Y-98111126D01*
X146639722Y-98096134D01*
X146637354Y-98095462D01*
X146563073Y-98082636D01*
X146496603Y-98086161D01*
X146442183Y-98105072D01*
X146404053Y-98138408D01*
X146396931Y-98150082D01*
X146384857Y-98187152D01*
X146375503Y-98243835D01*
X146370187Y-98307455D01*
X146364039Y-98425000D01*
X146039390Y-98425000D01*
X146039424Y-98422821D01*
X146042119Y-98341966D01*
X146046106Y-98276149D01*
X146050762Y-98234500D01*
X146079258Y-98124250D01*
X146126127Y-98031265D01*
X146190704Y-97955993D01*
X146272324Y-97898885D01*
X146370321Y-97860392D01*
X146484029Y-97840965D01*
X146612783Y-97841055D01*
G37*
X146612783Y-97841055D02*
X146629885Y-97842459D01*
X146723509Y-97855639D01*
X146798935Y-97877885D01*
X146862517Y-97911764D01*
X146920611Y-97959846D01*
X146920732Y-97959964D01*
X146958237Y-98000375D01*
X146987634Y-98042385D01*
X147009970Y-98089827D01*
X147026289Y-98146532D01*
X147037639Y-98216333D01*
X147045065Y-98303062D01*
X147049614Y-98410551D01*
X147050261Y-98434525D01*
X147056084Y-98666300D01*
X146364244Y-98666300D01*
X146370009Y-98840925D01*
X146373475Y-98920126D01*
X146378225Y-98978321D01*
X146384824Y-99019892D01*
X146393836Y-99049222D01*
X146397881Y-99057825D01*
X146433736Y-99100163D01*
X146486575Y-99126165D01*
X146552707Y-99134256D01*
X146573926Y-99133020D01*
X146634244Y-99117654D01*
X146678513Y-99084136D01*
X146707353Y-99031573D01*
X146721378Y-98959072D01*
X146723029Y-98917125D01*
X146723100Y-98856800D01*
X147056983Y-98856800D01*
X147049438Y-98942525D01*
X147029515Y-99060704D01*
X146992327Y-99161127D01*
X146938236Y-99243277D01*
X146867604Y-99306640D01*
X146780795Y-99350699D01*
X146756816Y-99358575D01*
X146700764Y-99369415D01*
X146628588Y-99375188D01*
X146549048Y-99375924D01*
X146470902Y-99371655D01*
X146402911Y-99362411D01*
X146380200Y-99357243D01*
X146284357Y-99320997D01*
X146205310Y-99267292D01*
X146142443Y-99195311D01*
X146095143Y-99104238D01*
X146062796Y-98993255D01*
X146050505Y-98918333D01*
X146045404Y-98861782D01*
X146041607Y-98787546D01*
X146039113Y-98701077D01*
X146037919Y-98607831D01*
X146038023Y-98513261D01*
X146039390Y-98425000D01*
X146364039Y-98425000D01*
X146723100Y-98425000D01*
X146723100Y-98303719D01*
X146720846Y-98227793D01*
X146713005Y-98173013D01*
X146697953Y-98135438D01*
X146674066Y-98111126D01*
X146639722Y-98096134D01*
X146637354Y-98095462D01*
X146563073Y-98082636D01*
X146496603Y-98086161D01*
X146442183Y-98105072D01*
X146404053Y-98138408D01*
X146396931Y-98150082D01*
X146384857Y-98187152D01*
X146375503Y-98243835D01*
X146370187Y-98307455D01*
X146364039Y-98425000D01*
X146039390Y-98425000D01*
X146039424Y-98422821D01*
X146042119Y-98341966D01*
X146046106Y-98276149D01*
X146050762Y-98234500D01*
X146079258Y-98124250D01*
X146126127Y-98031265D01*
X146190704Y-97955993D01*
X146272324Y-97898885D01*
X146370321Y-97860392D01*
X146484029Y-97840965D01*
X146612783Y-97841055D01*
G36*
X147951916Y-97852505D02*
G01*
X148046796Y-97883926D01*
X148126610Y-97933611D01*
X148146951Y-97951336D01*
X148208606Y-98026001D01*
X148249361Y-98115065D01*
X148269172Y-98218433D01*
X148269685Y-98224975D01*
X148275912Y-98310700D01*
X148117092Y-98310700D01*
X147958272Y-98310699D01*
X147949585Y-98245213D01*
X147940907Y-98199552D01*
X147928862Y-98158808D01*
X147922935Y-98144990D01*
X147892522Y-98111653D01*
X147846603Y-98090582D01*
X147792178Y-98082269D01*
X147736247Y-98087207D01*
X147685810Y-98105888D01*
X147658520Y-98126393D01*
X147644538Y-98154558D01*
X147637918Y-98197246D01*
X147638754Y-98244644D01*
X147647141Y-98286937D01*
X147656775Y-98307167D01*
X147673124Y-98322810D01*
X147706963Y-98349709D01*
X147754591Y-98385114D01*
X147812309Y-98426275D01*
X147875850Y-98470057D01*
X147984611Y-98545676D01*
X148072784Y-98611901D01*
X148142303Y-98671080D01*
X148195102Y-98725562D01*
X148233115Y-98777697D01*
X148258277Y-98829833D01*
X148272521Y-98884320D01*
X148277781Y-98943506D01*
X148277922Y-98958400D01*
X148267438Y-99066428D01*
X148236946Y-99159438D01*
X148186835Y-99236819D01*
X148117489Y-99297960D01*
X148036799Y-99339434D01*
X147968058Y-99358517D01*
X147884311Y-99370604D01*
X147794167Y-99375426D01*
X147706237Y-99372712D01*
X147629128Y-99362191D01*
X147595335Y-99353274D01*
X147496798Y-99309629D01*
X147418038Y-99250115D01*
X147358908Y-99174539D01*
X147319262Y-99082710D01*
X147298955Y-98974438D01*
X147298058Y-98963699D01*
X147290933Y-98869500D01*
X147624800Y-98869500D01*
X147624800Y-98946107D01*
X147630933Y-99019748D01*
X147648625Y-99076358D01*
X147676811Y-99113242D01*
X147694862Y-99123580D01*
X147747232Y-99134944D01*
X147804362Y-99133959D01*
X147858781Y-99122190D01*
X147903022Y-99101202D01*
X147928577Y-99074610D01*
X147939455Y-99035953D01*
X147941592Y-98985355D01*
X147935440Y-98934552D01*
X147921681Y-98895663D01*
X147903208Y-98874963D01*
X147868381Y-98844754D01*
X147822273Y-98809170D01*
X147772456Y-98774028D01*
X147665213Y-98700379D01*
X147577661Y-98636860D01*
X147507379Y-98581099D01*
X147451950Y-98530722D01*
X147408953Y-98483354D01*
X147375971Y-98436623D01*
X147350585Y-98388154D01*
X147332720Y-98342510D01*
X147308965Y-98242065D01*
X147308670Y-98149801D01*
X147330845Y-98067019D01*
X147374501Y-97995021D01*
X147438647Y-97935110D01*
X147522293Y-97888586D01*
X147624449Y-97856753D01*
X147712391Y-97843322D01*
X147840828Y-97839065D01*
X147951916Y-97852505D01*
G37*
X147951916Y-97852505D02*
X148046796Y-97883926D01*
X148126610Y-97933611D01*
X148146951Y-97951336D01*
X148208606Y-98026001D01*
X148249361Y-98115065D01*
X148269172Y-98218433D01*
X148269685Y-98224975D01*
X148275912Y-98310700D01*
X148117092Y-98310700D01*
X147958272Y-98310699D01*
X147949585Y-98245213D01*
X147940907Y-98199552D01*
X147928862Y-98158808D01*
X147922935Y-98144990D01*
X147892522Y-98111653D01*
X147846603Y-98090582D01*
X147792178Y-98082269D01*
X147736247Y-98087207D01*
X147685810Y-98105888D01*
X147658520Y-98126393D01*
X147644538Y-98154558D01*
X147637918Y-98197246D01*
X147638754Y-98244644D01*
X147647141Y-98286937D01*
X147656775Y-98307167D01*
X147673124Y-98322810D01*
X147706963Y-98349709D01*
X147754591Y-98385114D01*
X147812309Y-98426275D01*
X147875850Y-98470057D01*
X147984611Y-98545676D01*
X148072784Y-98611901D01*
X148142303Y-98671080D01*
X148195102Y-98725562D01*
X148233115Y-98777697D01*
X148258277Y-98829833D01*
X148272521Y-98884320D01*
X148277781Y-98943506D01*
X148277922Y-98958400D01*
X148267438Y-99066428D01*
X148236946Y-99159438D01*
X148186835Y-99236819D01*
X148117489Y-99297960D01*
X148036799Y-99339434D01*
X147968058Y-99358517D01*
X147884311Y-99370604D01*
X147794167Y-99375426D01*
X147706237Y-99372712D01*
X147629128Y-99362191D01*
X147595335Y-99353274D01*
X147496798Y-99309629D01*
X147418038Y-99250115D01*
X147358908Y-99174539D01*
X147319262Y-99082710D01*
X147298955Y-98974438D01*
X147298058Y-98963699D01*
X147290933Y-98869500D01*
X147624800Y-98869500D01*
X147624800Y-98946107D01*
X147630933Y-99019748D01*
X147648625Y-99076358D01*
X147676811Y-99113242D01*
X147694862Y-99123580D01*
X147747232Y-99134944D01*
X147804362Y-99133959D01*
X147858781Y-99122190D01*
X147903022Y-99101202D01*
X147928577Y-99074610D01*
X147939455Y-99035953D01*
X147941592Y-98985355D01*
X147935440Y-98934552D01*
X147921681Y-98895663D01*
X147903208Y-98874963D01*
X147868381Y-98844754D01*
X147822273Y-98809170D01*
X147772456Y-98774028D01*
X147665213Y-98700379D01*
X147577661Y-98636860D01*
X147507379Y-98581099D01*
X147451950Y-98530722D01*
X147408953Y-98483354D01*
X147375971Y-98436623D01*
X147350585Y-98388154D01*
X147332720Y-98342510D01*
X147308965Y-98242065D01*
X147308670Y-98149801D01*
X147330845Y-98067019D01*
X147374501Y-97995021D01*
X147438647Y-97935110D01*
X147522293Y-97888586D01*
X147624449Y-97856753D01*
X147712391Y-97843322D01*
X147840828Y-97839065D01*
X147951916Y-97852505D01*
G36*
X149120316Y-97852505D02*
G01*
X149215196Y-97883926D01*
X149295010Y-97933611D01*
X149315351Y-97951336D01*
X149377006Y-98026001D01*
X149417761Y-98115065D01*
X149437572Y-98218433D01*
X149438085Y-98224975D01*
X149444312Y-98310700D01*
X149285492Y-98310700D01*
X149126672Y-98310699D01*
X149117985Y-98245213D01*
X149109307Y-98199552D01*
X149097262Y-98158808D01*
X149091335Y-98144990D01*
X149060922Y-98111653D01*
X149015003Y-98090582D01*
X148960578Y-98082269D01*
X148904647Y-98087207D01*
X148854210Y-98105888D01*
X148826920Y-98126393D01*
X148812938Y-98154558D01*
X148806318Y-98197246D01*
X148807154Y-98244644D01*
X148815541Y-98286937D01*
X148825175Y-98307167D01*
X148841524Y-98322810D01*
X148875363Y-98349709D01*
X148922991Y-98385114D01*
X148980709Y-98426275D01*
X149044250Y-98470057D01*
X149153011Y-98545676D01*
X149241184Y-98611901D01*
X149310703Y-98671080D01*
X149363502Y-98725562D01*
X149401515Y-98777697D01*
X149426677Y-98829833D01*
X149440921Y-98884320D01*
X149446181Y-98943506D01*
X149446322Y-98958400D01*
X149435838Y-99066428D01*
X149405346Y-99159438D01*
X149355235Y-99236819D01*
X149285889Y-99297960D01*
X149205199Y-99339434D01*
X149136458Y-99358517D01*
X149052711Y-99370604D01*
X148962567Y-99375426D01*
X148874637Y-99372712D01*
X148797528Y-99362191D01*
X148763735Y-99353274D01*
X148665198Y-99309629D01*
X148586438Y-99250115D01*
X148527308Y-99174539D01*
X148487662Y-99082710D01*
X148467355Y-98974438D01*
X148466458Y-98963699D01*
X148459333Y-98869500D01*
X148793200Y-98869500D01*
X148793200Y-98946107D01*
X148799333Y-99019748D01*
X148817025Y-99076358D01*
X148845211Y-99113242D01*
X148863262Y-99123580D01*
X148915632Y-99134944D01*
X148972762Y-99133959D01*
X149027181Y-99122190D01*
X149071422Y-99101202D01*
X149096977Y-99074610D01*
X149107855Y-99035953D01*
X149109992Y-98985355D01*
X149103840Y-98934552D01*
X149090081Y-98895663D01*
X149071608Y-98874963D01*
X149036781Y-98844754D01*
X148990673Y-98809170D01*
X148940856Y-98774028D01*
X148833613Y-98700379D01*
X148746061Y-98636860D01*
X148675779Y-98581099D01*
X148620350Y-98530722D01*
X148577353Y-98483354D01*
X148544371Y-98436623D01*
X148518985Y-98388154D01*
X148501120Y-98342510D01*
X148477365Y-98242065D01*
X148477070Y-98149801D01*
X148499245Y-98067019D01*
X148542901Y-97995021D01*
X148607047Y-97935110D01*
X148690693Y-97888586D01*
X148792849Y-97856753D01*
X148880791Y-97843322D01*
X149009228Y-97839065D01*
X149120316Y-97852505D01*
G37*
X149120316Y-97852505D02*
X149215196Y-97883926D01*
X149295010Y-97933611D01*
X149315351Y-97951336D01*
X149377006Y-98026001D01*
X149417761Y-98115065D01*
X149437572Y-98218433D01*
X149438085Y-98224975D01*
X149444312Y-98310700D01*
X149285492Y-98310700D01*
X149126672Y-98310699D01*
X149117985Y-98245213D01*
X149109307Y-98199552D01*
X149097262Y-98158808D01*
X149091335Y-98144990D01*
X149060922Y-98111653D01*
X149015003Y-98090582D01*
X148960578Y-98082269D01*
X148904647Y-98087207D01*
X148854210Y-98105888D01*
X148826920Y-98126393D01*
X148812938Y-98154558D01*
X148806318Y-98197246D01*
X148807154Y-98244644D01*
X148815541Y-98286937D01*
X148825175Y-98307167D01*
X148841524Y-98322810D01*
X148875363Y-98349709D01*
X148922991Y-98385114D01*
X148980709Y-98426275D01*
X149044250Y-98470057D01*
X149153011Y-98545676D01*
X149241184Y-98611901D01*
X149310703Y-98671080D01*
X149363502Y-98725562D01*
X149401515Y-98777697D01*
X149426677Y-98829833D01*
X149440921Y-98884320D01*
X149446181Y-98943506D01*
X149446322Y-98958400D01*
X149435838Y-99066428D01*
X149405346Y-99159438D01*
X149355235Y-99236819D01*
X149285889Y-99297960D01*
X149205199Y-99339434D01*
X149136458Y-99358517D01*
X149052711Y-99370604D01*
X148962567Y-99375426D01*
X148874637Y-99372712D01*
X148797528Y-99362191D01*
X148763735Y-99353274D01*
X148665198Y-99309629D01*
X148586438Y-99250115D01*
X148527308Y-99174539D01*
X148487662Y-99082710D01*
X148467355Y-98974438D01*
X148466458Y-98963699D01*
X148459333Y-98869500D01*
X148793200Y-98869500D01*
X148793200Y-98946107D01*
X148799333Y-99019748D01*
X148817025Y-99076358D01*
X148845211Y-99113242D01*
X148863262Y-99123580D01*
X148915632Y-99134944D01*
X148972762Y-99133959D01*
X149027181Y-99122190D01*
X149071422Y-99101202D01*
X149096977Y-99074610D01*
X149107855Y-99035953D01*
X149109992Y-98985355D01*
X149103840Y-98934552D01*
X149090081Y-98895663D01*
X149071608Y-98874963D01*
X149036781Y-98844754D01*
X148990673Y-98809170D01*
X148940856Y-98774028D01*
X148833613Y-98700379D01*
X148746061Y-98636860D01*
X148675779Y-98581099D01*
X148620350Y-98530722D01*
X148577353Y-98483354D01*
X148544371Y-98436623D01*
X148518985Y-98388154D01*
X148501120Y-98342510D01*
X148477365Y-98242065D01*
X148477070Y-98149801D01*
X148499245Y-98067019D01*
X148542901Y-97995021D01*
X148607047Y-97935110D01*
X148690693Y-97888586D01*
X148792849Y-97856753D01*
X148880791Y-97843322D01*
X149009228Y-97839065D01*
X149120316Y-97852505D01*
G36*
X142786100Y-97631433D02*
G01*
X142728646Y-97626863D01*
X142687908Y-97625847D01*
X142660748Y-97633137D01*
X142644474Y-97652683D01*
X142636391Y-97688437D01*
X142633806Y-97744351D01*
X142633700Y-97766155D01*
X142633700Y-97878900D01*
X142786100Y-97878900D01*
X142786100Y-98107500D01*
X142633700Y-98107500D01*
X142633700Y-99339400D01*
X142303500Y-99339400D01*
X142303500Y-98107500D01*
X142176500Y-98107500D01*
X142176500Y-97878900D01*
X142299957Y-97878900D01*
X142306282Y-97735567D01*
X142315701Y-97629977D01*
X142335082Y-97546422D01*
X142366646Y-97482747D01*
X142412613Y-97436794D01*
X142475204Y-97406407D01*
X142556638Y-97389430D01*
X142659135Y-97383707D01*
X142668625Y-97383670D01*
X142786100Y-97383600D01*
X142786100Y-97631433D01*
G37*
X142786100Y-97631433D02*
X142728646Y-97626863D01*
X142687908Y-97625847D01*
X142660748Y-97633137D01*
X142644474Y-97652683D01*
X142636391Y-97688437D01*
X142633806Y-97744351D01*
X142633700Y-97766155D01*
X142633700Y-97878900D01*
X142786100Y-97878900D01*
X142786100Y-98107500D01*
X142633700Y-98107500D01*
X142633700Y-99339400D01*
X142303500Y-99339400D01*
X142303500Y-98107500D01*
X142176500Y-98107500D01*
X142176500Y-97878900D01*
X142299957Y-97878900D01*
X142306282Y-97735567D01*
X142315701Y-97629977D01*
X142335082Y-97546422D01*
X142366646Y-97482747D01*
X142412613Y-97436794D01*
X142475204Y-97406407D01*
X142556638Y-97389430D01*
X142659135Y-97383707D01*
X142668625Y-97383670D01*
X142786100Y-97383600D01*
X142786100Y-97631433D01*
G36*
X145796000Y-99339400D02*
G01*
X145465800Y-99339400D01*
X145465800Y-97383600D01*
X145796000Y-97383600D01*
X145796000Y-99339400D01*
G37*
X145796000Y-99339400D02*
X145465800Y-99339400D01*
X145465800Y-97383600D01*
X145796000Y-97383600D01*
X145796000Y-99339400D01*
G36*
X149838873Y-98779424D02*
G01*
X149847009Y-98803497D01*
X149847300Y-98812255D01*
X149841210Y-98835701D01*
X149818375Y-98845614D01*
X149812375Y-98846431D01*
X149787251Y-98853548D01*
X149778207Y-98872539D01*
X149777450Y-98888550D01*
X149777450Y-98926650D01*
X149905718Y-98930248D01*
X149966678Y-98931252D01*
X150007284Y-98929793D01*
X150032512Y-98925291D01*
X150047338Y-98917165D01*
X150051032Y-98913308D01*
X150060535Y-98887291D01*
X150048171Y-98864390D01*
X150017426Y-98849249D01*
X150000833Y-98846413D01*
X149972901Y-98840916D01*
X149963367Y-98827419D01*
X149964014Y-98808313D01*
X149969551Y-98785615D01*
X149984361Y-98777380D01*
X150012400Y-98778058D01*
X150059181Y-98793203D01*
X150093346Y-98825442D01*
X150111921Y-98868368D01*
X150111933Y-98915576D01*
X150094575Y-98955080D01*
X150063746Y-98979679D01*
X150014208Y-98997248D01*
X149951878Y-99006969D01*
X149882676Y-99008025D01*
X149812520Y-98999598D01*
X149796805Y-98996217D01*
X149748722Y-98974133D01*
X149717712Y-98936915D01*
X149707600Y-98892658D01*
X149716782Y-98840933D01*
X149745828Y-98804116D01*
X149779031Y-98785470D01*
X149817249Y-98773822D01*
X149838873Y-98779424D01*
G37*
X149838873Y-98779424D02*
X149847009Y-98803497D01*
X149847300Y-98812255D01*
X149841210Y-98835701D01*
X149818375Y-98845614D01*
X149812375Y-98846431D01*
X149787251Y-98853548D01*
X149778207Y-98872539D01*
X149777450Y-98888550D01*
X149777450Y-98926650D01*
X149905718Y-98930248D01*
X149966678Y-98931252D01*
X150007284Y-98929793D01*
X150032512Y-98925291D01*
X150047338Y-98917165D01*
X150051032Y-98913308D01*
X150060535Y-98887291D01*
X150048171Y-98864390D01*
X150017426Y-98849249D01*
X150000833Y-98846413D01*
X149972901Y-98840916D01*
X149963367Y-98827419D01*
X149964014Y-98808313D01*
X149969551Y-98785615D01*
X149984361Y-98777380D01*
X150012400Y-98778058D01*
X150059181Y-98793203D01*
X150093346Y-98825442D01*
X150111921Y-98868368D01*
X150111933Y-98915576D01*
X150094575Y-98955080D01*
X150063746Y-98979679D01*
X150014208Y-98997248D01*
X149951878Y-99006969D01*
X149882676Y-99008025D01*
X149812520Y-98999598D01*
X149796805Y-98996217D01*
X149748722Y-98974133D01*
X149717712Y-98936915D01*
X149707600Y-98892658D01*
X149716782Y-98840933D01*
X149745828Y-98804116D01*
X149779031Y-98785470D01*
X149817249Y-98773822D01*
X149838873Y-98779424D01*
G36*
X150022394Y-98432017D02*
G01*
X150067448Y-98447080D01*
X150095921Y-98472336D01*
X150110507Y-98509160D01*
X150114000Y-98550593D01*
X150107375Y-98607819D01*
X150085423Y-98646479D01*
X150045026Y-98670279D01*
X150005226Y-98679899D01*
X149947272Y-98687502D01*
X149897585Y-98688339D01*
X149841826Y-98682376D01*
X149823004Y-98679456D01*
X149769201Y-98660191D01*
X149730577Y-98625544D01*
X149709239Y-98580788D01*
X149707830Y-98544810D01*
X149785767Y-98544810D01*
X149791254Y-98571330D01*
X149803896Y-98586085D01*
X149829170Y-98594921D01*
X149871011Y-98600570D01*
X149920743Y-98602674D01*
X149969691Y-98600874D01*
X150009180Y-98594809D01*
X150009908Y-98594616D01*
X150031664Y-98582250D01*
X150035650Y-98556820D01*
X150035308Y-98553515D01*
X150031450Y-98520250D01*
X149910973Y-98520250D01*
X149854579Y-98520715D01*
X149818693Y-98522750D01*
X149798431Y-98527313D01*
X149788908Y-98535362D01*
X149785767Y-98544810D01*
X149707830Y-98544810D01*
X149707296Y-98531197D01*
X149726857Y-98482045D01*
X149738121Y-98467133D01*
X149755658Y-98449235D01*
X149775014Y-98438161D01*
X149803068Y-98431841D01*
X149846703Y-98428208D01*
X149871766Y-98426966D01*
X149958065Y-98425770D01*
X150022394Y-98432017D01*
G37*
X150022394Y-98432017D02*
X150067448Y-98447080D01*
X150095921Y-98472336D01*
X150110507Y-98509160D01*
X150114000Y-98550593D01*
X150107375Y-98607819D01*
X150085423Y-98646479D01*
X150045026Y-98670279D01*
X150005226Y-98679899D01*
X149947272Y-98687502D01*
X149897585Y-98688339D01*
X149841826Y-98682376D01*
X149823004Y-98679456D01*
X149769201Y-98660191D01*
X149730577Y-98625544D01*
X149709239Y-98580788D01*
X149707830Y-98544810D01*
X149785767Y-98544810D01*
X149791254Y-98571330D01*
X149803896Y-98586085D01*
X149829170Y-98594921D01*
X149871011Y-98600570D01*
X149920743Y-98602674D01*
X149969691Y-98600874D01*
X150009180Y-98594809D01*
X150009908Y-98594616D01*
X150031664Y-98582250D01*
X150035650Y-98556820D01*
X150035308Y-98553515D01*
X150031450Y-98520250D01*
X149910973Y-98520250D01*
X149854579Y-98520715D01*
X149818693Y-98522750D01*
X149798431Y-98527313D01*
X149788908Y-98535362D01*
X149785767Y-98544810D01*
X149707830Y-98544810D01*
X149707296Y-98531197D01*
X149726857Y-98482045D01*
X149738121Y-98467133D01*
X149755658Y-98449235D01*
X149775014Y-98438161D01*
X149803068Y-98431841D01*
X149846703Y-98428208D01*
X149871766Y-98426966D01*
X149958065Y-98425770D01*
X150022394Y-98432017D01*
G36*
X150111668Y-97901125D02*
G01*
X150107650Y-97936050D01*
X149938630Y-97939598D01*
X149769611Y-97943147D01*
X149773530Y-97990398D01*
X149777450Y-98037650D01*
X150107650Y-98050350D01*
X150111632Y-98084900D01*
X150115614Y-98119451D01*
X149946532Y-98123000D01*
X149777450Y-98126550D01*
X149773332Y-98169668D01*
X149775190Y-98204817D01*
X149786032Y-98223448D01*
X149804691Y-98227576D01*
X149843185Y-98230993D01*
X149895949Y-98233351D01*
X149957422Y-98234302D01*
X149959268Y-98234305D01*
X150115687Y-98234500D01*
X150111668Y-98269425D01*
X150107650Y-98304350D01*
X149913975Y-98307855D01*
X149720300Y-98311361D01*
X149720300Y-98272930D01*
X149723949Y-98246036D01*
X149732753Y-98234507D01*
X149733000Y-98234500D01*
X149744576Y-98225775D01*
X149742661Y-98206115D01*
X149728477Y-98185289D01*
X149726650Y-98183700D01*
X149712310Y-98159782D01*
X149707600Y-98132900D01*
X149714142Y-98101132D01*
X149726650Y-98082100D01*
X149742912Y-98057884D01*
X149745700Y-98044000D01*
X149736539Y-98017368D01*
X149726650Y-98005900D01*
X149710683Y-97978003D01*
X149709647Y-97940602D01*
X149722952Y-97904297D01*
X149733000Y-97891600D01*
X149745316Y-97881449D01*
X149761472Y-97874411D01*
X149785960Y-97869927D01*
X149823270Y-97867438D01*
X149877893Y-97866384D01*
X149937043Y-97866200D01*
X150115687Y-97866200D01*
X150111668Y-97901125D01*
G37*
X150111668Y-97901125D02*
X150107650Y-97936050D01*
X149938630Y-97939598D01*
X149769611Y-97943147D01*
X149773530Y-97990398D01*
X149777450Y-98037650D01*
X150107650Y-98050350D01*
X150111632Y-98084900D01*
X150115614Y-98119451D01*
X149946532Y-98123000D01*
X149777450Y-98126550D01*
X149773332Y-98169668D01*
X149775190Y-98204817D01*
X149786032Y-98223448D01*
X149804691Y-98227576D01*
X149843185Y-98230993D01*
X149895949Y-98233351D01*
X149957422Y-98234302D01*
X149959268Y-98234305D01*
X150115687Y-98234500D01*
X150111668Y-98269425D01*
X150107650Y-98304350D01*
X149913975Y-98307855D01*
X149720300Y-98311361D01*
X149720300Y-98272930D01*
X149723949Y-98246036D01*
X149732753Y-98234507D01*
X149733000Y-98234500D01*
X149744576Y-98225775D01*
X149742661Y-98206115D01*
X149728477Y-98185289D01*
X149726650Y-98183700D01*
X149712310Y-98159782D01*
X149707600Y-98132900D01*
X149714142Y-98101132D01*
X149726650Y-98082100D01*
X149742912Y-98057884D01*
X149745700Y-98044000D01*
X149736539Y-98017368D01*
X149726650Y-98005900D01*
X149710683Y-97978003D01*
X149709647Y-97940602D01*
X149722952Y-97904297D01*
X149733000Y-97891600D01*
X149745316Y-97881449D01*
X149761472Y-97874411D01*
X149785960Y-97869927D01*
X149823270Y-97867438D01*
X149877893Y-97866384D01*
X149937043Y-97866200D01*
X150115687Y-97866200D01*
X150111668Y-97901125D01*
D15*
X144172000Y-101712779D02*
X144172000Y-101387221D01*
X145192000Y-101712779D02*
X145192000Y-101387221D01*
X145910000Y-130632779D02*
X145910000Y-130307221D01*
X144890000Y-130632779D02*
X144890000Y-130307221D01*
D14*
X151110000Y-109510000D02*
G75*
G03X151110000Y-109510000I-100000J0D01*
G01*
X151010000Y-109510000D02*
G75*
G03X151010000Y-109510000I-100000J0D01*
G01*
X151233606Y-109510000D02*
G75*
G03X151233606Y-109510000I-223606J0D01*
G01*
X149310000Y-108710000D02*
G75*
G03X149310000Y-108710000I-100000J0D01*
G01*
X149310000Y-108810000D02*
G75*
G03X149310000Y-108810000I-100000J0D01*
G01*
X149351419Y-108810000D02*
G75*
G03X149351419Y-108810000I-141419J0D01*
G01*
X149433606Y-108810000D02*
G75*
G03X149433606Y-108810000I-223606J0D01*
G01*
X149526225Y-108810000D02*
G75*
G03X149526225Y-108810000I-316225J0D01*
G01*
D17*
X149885000Y-104260000D02*
X149885000Y-109560000D01*
X144935000Y-104260000D02*
X149885000Y-104260000D01*
X144935000Y-109560000D02*
X144935000Y-104260000D01*
X149885000Y-109560000D02*
X144935000Y-109560000D01*
D15*
X155310000Y-127362779D02*
X155310000Y-127037221D01*
X154290000Y-127362779D02*
X154290000Y-127037221D01*
X146746279Y-110996000D02*
X146420721Y-110996000D01*
X146746279Y-112016000D02*
X146420721Y-112016000D01*
X153270000Y-129720000D02*
X154600000Y-129720000D01*
X153270000Y-131050000D02*
X153270000Y-129720000D01*
X153270000Y-132320000D02*
X155930000Y-132320000D01*
X155930000Y-132320000D02*
X155930000Y-134920000D01*
X153270000Y-132320000D02*
X153270000Y-134920000D01*
X153270000Y-134920000D02*
X155930000Y-134920000D01*
X140590000Y-135920000D02*
X140590000Y-141120000D01*
X153350000Y-135920000D02*
X140590000Y-135920000D01*
X155950000Y-141120000D02*
X140590000Y-141120000D01*
X153350000Y-135920000D02*
X153350000Y-138520000D01*
X153350000Y-138520000D02*
X155950000Y-138520000D01*
X155950000Y-138520000D02*
X155950000Y-141120000D01*
X154620000Y-135920000D02*
X155950000Y-135920000D01*
X155950000Y-135920000D02*
X155950000Y-137250000D01*
X141330000Y-105199721D02*
X141330000Y-105525279D01*
X142350000Y-105199721D02*
X142350000Y-105525279D01*
X142562000Y-101397221D02*
X142562000Y-101722779D01*
X143582000Y-101397221D02*
X143582000Y-101722779D01*
X153832779Y-108280000D02*
X153507221Y-108280000D01*
X153832779Y-109300000D02*
X153507221Y-109300000D01*
X143390000Y-134970000D02*
X142060000Y-134970000D01*
X143390000Y-133640000D02*
X143390000Y-134970000D01*
X143390000Y-132370000D02*
X140730000Y-132370000D01*
X140730000Y-132370000D02*
X140730000Y-129770000D01*
X143390000Y-132370000D02*
X143390000Y-129770000D01*
X143390000Y-129770000D02*
X140730000Y-129770000D01*
X144890000Y-127187221D02*
X144890000Y-127512779D01*
X145910000Y-127187221D02*
X145910000Y-127512779D01*
X147355000Y-135395000D02*
X147355000Y-133110000D01*
X145885000Y-135395000D02*
X147355000Y-135395000D01*
X145885000Y-133110000D02*
X145885000Y-135395000D01*
X147081300Y-103043600D02*
X147081300Y-100758600D01*
X145611300Y-103043600D02*
X147081300Y-103043600D01*
X145611300Y-100758600D02*
X145611300Y-103043600D01*
X148833900Y-103043600D02*
X148833900Y-100758600D01*
X147363900Y-103043600D02*
X148833900Y-103043600D01*
X147363900Y-100758600D02*
X147363900Y-103043600D01*
D17*
X152270000Y-113876000D02*
G75*
G02X152270000Y-114076000I0J-100000D01*
G01*
X152270000Y-114076000D02*
G75*
G02X152270000Y-113876000I0J100000D01*
G01*
X152270000Y-114076000D02*
X152270000Y-114076000D01*
X152270000Y-113876000D02*
X152270000Y-113876000D01*
D10*
X154320000Y-114376000D02*
X153020000Y-114376000D01*
X154320000Y-111176000D02*
X153020000Y-111176000D01*
D15*
X149057221Y-129020000D02*
X149382779Y-129020000D01*
X149057221Y-128000000D02*
X149382779Y-128000000D01*
X154848779Y-102106000D02*
X154523221Y-102106000D01*
X154848779Y-103126000D02*
X154523221Y-103126000D01*
X143240000Y-111732779D02*
X143240000Y-111407221D01*
X144260000Y-111732779D02*
X144260000Y-111407221D01*
X151894000Y-101437221D02*
X151894000Y-101762779D01*
X150874000Y-101437221D02*
X150874000Y-101762779D01*
X147430000Y-128369721D02*
X147430000Y-128695279D01*
X146410000Y-128369721D02*
X146410000Y-128695279D01*
X150620000Y-94071221D02*
X150620000Y-94396779D01*
X151640000Y-94071221D02*
X151640000Y-94396779D01*
X151300000Y-113700779D02*
X151300000Y-113375221D01*
X150280000Y-113700779D02*
X150280000Y-113375221D01*
X148770000Y-113202779D02*
X148770000Y-112877221D01*
X149790000Y-113202779D02*
X149790000Y-112877221D01*
X155332000Y-98212000D02*
X153532000Y-98212000D01*
X153532000Y-101432000D02*
X155982000Y-101432000D01*
X156924600Y-84047100D02*
X158254600Y-84047100D01*
X156924600Y-85377100D02*
X156924600Y-84047100D01*
X156924600Y-86647100D02*
X159584600Y-86647100D01*
X159584600Y-86647100D02*
X159584600Y-134967100D01*
X156924600Y-86647100D02*
X156924600Y-134967100D01*
X156924600Y-134967100D02*
X159584600Y-134967100D01*
X153807279Y-106040000D02*
X153481721Y-106040000D01*
X153807279Y-105020000D02*
X153481721Y-105020000D01*
X154267440Y-123816701D02*
X154267440Y-124142259D01*
X155287440Y-123816701D02*
X155287440Y-124142259D01*
X155196000Y-91094779D02*
X155196000Y-90769221D01*
X154176000Y-91094779D02*
X154176000Y-90769221D01*
X150262000Y-101732779D02*
X150262000Y-101407221D01*
X149242000Y-101732779D02*
X149242000Y-101407221D01*
X150569200Y-97881221D02*
X150569200Y-98206779D01*
X151589200Y-97881221D02*
X151589200Y-98206779D01*
X153832779Y-107650000D02*
X153507221Y-107650000D01*
X153832779Y-106630000D02*
X153507221Y-106630000D01*
X141320000Y-108592779D02*
X141320000Y-108267221D01*
X142340000Y-108592779D02*
X142340000Y-108267221D01*
X141476000Y-90332779D02*
X141476000Y-90007221D01*
X142496000Y-90332779D02*
X142496000Y-90007221D01*
X152260000Y-130737221D02*
X152260000Y-131062779D01*
X151240000Y-130737221D02*
X151240000Y-131062779D01*
X150710000Y-131062779D02*
X150710000Y-130737221D01*
X149690000Y-131062779D02*
X149690000Y-130737221D01*
X148090000Y-131050279D02*
X148090000Y-130724721D01*
X149110000Y-131050279D02*
X149110000Y-130724721D01*
X144590000Y-133737221D02*
X144590000Y-134062779D01*
X145610000Y-133737221D02*
X145610000Y-134062779D01*
D10*
X147812000Y-96142000D02*
X145812000Y-96142000D01*
X148662000Y-93617000D02*
X148662000Y-93342000D01*
X148662000Y-93342000D02*
X148312000Y-93342000D01*
X144962000Y-93617000D02*
X144962000Y-93342000D01*
X144962000Y-93342000D02*
X145312000Y-93342000D01*
D15*
X153024000Y-96098000D02*
X155474000Y-96098000D01*
X154824000Y-92878000D02*
X153024000Y-92878000D01*
X147565000Y-133102500D02*
X147565000Y-135387500D01*
X147565000Y-135387500D02*
X149035000Y-135387500D01*
X149035000Y-135387500D02*
X149035000Y-133102500D01*
X150675000Y-135425000D02*
X150675000Y-133140000D01*
X149205000Y-135425000D02*
X150675000Y-135425000D01*
X149205000Y-133140000D02*
X149205000Y-135425000D01*
X150935000Y-133130000D02*
X150935000Y-135415000D01*
X150935000Y-135415000D02*
X152405000Y-135415000D01*
X152405000Y-135415000D02*
X152405000Y-133130000D01*
X142721000Y-88099000D02*
X142721000Y-85814000D01*
X141251000Y-88099000D02*
X142721000Y-88099000D01*
X141251000Y-85814000D02*
X141251000Y-88099000D01*
D14*
X148260666Y-91001809D02*
X148260666Y-91364666D01*
X148236476Y-91437238D01*
X148188095Y-91485619D01*
X148115523Y-91509809D01*
X148067142Y-91509809D01*
X148768666Y-91509809D02*
X148478380Y-91509809D01*
X148623523Y-91509809D02*
X148623523Y-91001809D01*
X148575142Y-91074380D01*
X148526761Y-91122761D01*
X148478380Y-91146952D01*
D18*
X150072857Y-88139523D02*
X149707142Y-88139523D01*
X149890000Y-88139523D02*
X149890000Y-87499523D01*
X149829047Y-87590952D01*
X149768095Y-87651904D01*
X149707142Y-87682380D01*
D19*
X138791780Y-83760804D02*
X138791780Y-83942233D01*
X138779685Y-83978519D01*
X138755495Y-84002709D01*
X138719209Y-84014804D01*
X138695019Y-84014804D01*
X139045780Y-84014804D02*
X138900638Y-84014804D01*
X138973209Y-84014804D02*
X138973209Y-83760804D01*
X138949019Y-83797090D01*
X138924828Y-83821280D01*
X138900638Y-83833376D01*
X139142542Y-83784995D02*
X139154638Y-83772900D01*
X139178828Y-83760804D01*
X139239304Y-83760804D01*
X139263495Y-83772900D01*
X139275590Y-83784995D01*
X139287685Y-83809185D01*
X139287685Y-83833376D01*
X139275590Y-83869661D01*
X139130447Y-84014804D01*
X139287685Y-84014804D01*
D20*
X145809355Y-116626433D02*
X145450145Y-116267223D01*
X146151460Y-116215907D02*
X146151460Y-116250118D01*
X146117250Y-116318539D01*
X146083039Y-116352749D01*
X146014618Y-116386960D01*
X145946197Y-116386960D01*
X145894882Y-116369854D01*
X145809355Y-116318539D01*
X145758040Y-116267223D01*
X145706724Y-116181697D01*
X145689619Y-116130381D01*
X145689619Y-116061960D01*
X145723829Y-115993539D01*
X145758040Y-115959328D01*
X145826461Y-115925118D01*
X145860671Y-115925118D01*
X146527776Y-115908013D02*
X146322513Y-116113276D01*
X146425144Y-116010644D02*
X146065934Y-115651434D01*
X146083039Y-115736960D01*
X146083039Y-115805381D01*
X146065934Y-115856697D01*
D19*
X144476714Y-100064904D02*
X144392047Y-99943952D01*
X144331571Y-100064904D02*
X144331571Y-99810904D01*
X144428333Y-99810904D01*
X144452523Y-99823000D01*
X144464619Y-99835095D01*
X144476714Y-99859285D01*
X144476714Y-99895571D01*
X144464619Y-99919761D01*
X144452523Y-99931857D01*
X144428333Y-99943952D01*
X144331571Y-99943952D01*
X144718619Y-100064904D02*
X144573476Y-100064904D01*
X144646047Y-100064904D02*
X144646047Y-99810904D01*
X144621857Y-99847190D01*
X144597666Y-99871380D01*
X144573476Y-99883476D01*
X144803285Y-99810904D02*
X144960523Y-99810904D01*
X144875857Y-99907666D01*
X144912142Y-99907666D01*
X144936333Y-99919761D01*
X144948428Y-99931857D01*
X144960523Y-99956047D01*
X144960523Y-100016523D01*
X144948428Y-100040714D01*
X144936333Y-100052809D01*
X144912142Y-100064904D01*
X144839571Y-100064904D01*
X144815380Y-100052809D01*
X144803285Y-100040714D01*
X144220714Y-130560714D02*
X144208619Y-130572809D01*
X144172333Y-130584904D01*
X144148142Y-130584904D01*
X144111857Y-130572809D01*
X144087666Y-130548619D01*
X144075571Y-130524428D01*
X144063476Y-130476047D01*
X144063476Y-130439761D01*
X144075571Y-130391380D01*
X144087666Y-130367190D01*
X144111857Y-130343000D01*
X144148142Y-130330904D01*
X144172333Y-130330904D01*
X144208619Y-130343000D01*
X144220714Y-130355095D01*
X144462619Y-130584904D02*
X144317476Y-130584904D01*
X144390047Y-130584904D02*
X144390047Y-130330904D01*
X144365857Y-130367190D01*
X144341666Y-130391380D01*
X144317476Y-130403476D01*
X144619857Y-130330904D02*
X144644047Y-130330904D01*
X144668238Y-130343000D01*
X144680333Y-130355095D01*
X144692428Y-130379285D01*
X144704523Y-130427666D01*
X144704523Y-130488142D01*
X144692428Y-130536523D01*
X144680333Y-130560714D01*
X144668238Y-130572809D01*
X144644047Y-130584904D01*
X144619857Y-130584904D01*
X144595666Y-130572809D01*
X144583571Y-130560714D01*
X144571476Y-130536523D01*
X144559380Y-130488142D01*
X144559380Y-130427666D01*
X144571476Y-130379285D01*
X144583571Y-130355095D01*
X144595666Y-130343000D01*
X144619857Y-130330904D01*
D14*
X147172952Y-109961809D02*
X147172952Y-110373047D01*
X147197142Y-110421428D01*
X147221333Y-110445619D01*
X147269714Y-110469809D01*
X147366476Y-110469809D01*
X147414857Y-110445619D01*
X147439047Y-110421428D01*
X147463238Y-110373047D01*
X147463238Y-109961809D01*
X147680952Y-110010190D02*
X147705142Y-109986000D01*
X147753523Y-109961809D01*
X147874476Y-109961809D01*
X147922857Y-109986000D01*
X147947047Y-110010190D01*
X147971238Y-110058571D01*
X147971238Y-110106952D01*
X147947047Y-110179523D01*
X147656761Y-110469809D01*
X147971238Y-110469809D01*
D19*
X153550714Y-127314904D02*
X153466047Y-127193952D01*
X153405571Y-127314904D02*
X153405571Y-127060904D01*
X153502333Y-127060904D01*
X153526523Y-127073000D01*
X153538619Y-127085095D01*
X153550714Y-127109285D01*
X153550714Y-127145571D01*
X153538619Y-127169761D01*
X153526523Y-127181857D01*
X153502333Y-127193952D01*
X153405571Y-127193952D01*
X153647476Y-127085095D02*
X153659571Y-127073000D01*
X153683761Y-127060904D01*
X153744238Y-127060904D01*
X153768428Y-127073000D01*
X153780523Y-127085095D01*
X153792619Y-127109285D01*
X153792619Y-127133476D01*
X153780523Y-127169761D01*
X153635380Y-127314904D01*
X153792619Y-127314904D01*
X154022428Y-127060904D02*
X153901476Y-127060904D01*
X153889380Y-127181857D01*
X153901476Y-127169761D01*
X153925666Y-127157666D01*
X153986142Y-127157666D01*
X154010333Y-127169761D01*
X154022428Y-127181857D01*
X154034523Y-127206047D01*
X154034523Y-127266523D01*
X154022428Y-127290714D01*
X154010333Y-127302809D01*
X153986142Y-127314904D01*
X153925666Y-127314904D01*
X153901476Y-127302809D01*
X153889380Y-127290714D01*
X146718404Y-110539285D02*
X146597452Y-110623952D01*
X146718404Y-110684428D02*
X146464404Y-110684428D01*
X146464404Y-110587666D01*
X146476500Y-110563476D01*
X146488595Y-110551380D01*
X146512785Y-110539285D01*
X146549071Y-110539285D01*
X146573261Y-110551380D01*
X146585357Y-110563476D01*
X146597452Y-110587666D01*
X146597452Y-110684428D01*
X146488595Y-110442523D02*
X146476500Y-110430428D01*
X146464404Y-110406238D01*
X146464404Y-110345761D01*
X146476500Y-110321571D01*
X146488595Y-110309476D01*
X146512785Y-110297380D01*
X146536976Y-110297380D01*
X146573261Y-110309476D01*
X146718404Y-110454619D01*
X146718404Y-110297380D01*
X146464404Y-110212714D02*
X146464404Y-110055476D01*
X146561166Y-110140142D01*
X146561166Y-110103857D01*
X146573261Y-110079666D01*
X146585357Y-110067571D01*
X146609547Y-110055476D01*
X146670023Y-110055476D01*
X146694214Y-110067571D01*
X146706309Y-110079666D01*
X146718404Y-110103857D01*
X146718404Y-110176428D01*
X146706309Y-110200619D01*
X146694214Y-110212714D01*
X155375333Y-129620904D02*
X155375333Y-129802333D01*
X155363238Y-129838619D01*
X155339047Y-129862809D01*
X155302761Y-129874904D01*
X155278571Y-129874904D01*
X155472095Y-129620904D02*
X155629333Y-129620904D01*
X155544666Y-129717666D01*
X155580952Y-129717666D01*
X155605142Y-129729761D01*
X155617238Y-129741857D01*
X155629333Y-129766047D01*
X155629333Y-129826523D01*
X155617238Y-129850714D01*
X155605142Y-129862809D01*
X155580952Y-129874904D01*
X155508380Y-129874904D01*
X155484190Y-129862809D01*
X155472095Y-129850714D01*
X155105333Y-135500904D02*
X155105333Y-135682333D01*
X155093238Y-135718619D01*
X155069047Y-135742809D01*
X155032761Y-135754904D01*
X155008571Y-135754904D01*
X155238380Y-135754904D02*
X155286761Y-135754904D01*
X155310952Y-135742809D01*
X155323047Y-135730714D01*
X155347238Y-135694428D01*
X155359333Y-135646047D01*
X155359333Y-135549285D01*
X155347238Y-135525095D01*
X155335142Y-135513000D01*
X155310952Y-135500904D01*
X155262571Y-135500904D01*
X155238380Y-135513000D01*
X155226285Y-135525095D01*
X155214190Y-135549285D01*
X155214190Y-135609761D01*
X155226285Y-135633952D01*
X155238380Y-135646047D01*
X155262571Y-135658142D01*
X155310952Y-135658142D01*
X155335142Y-135646047D01*
X155347238Y-135633952D01*
X155359333Y-135609761D01*
X142706714Y-105737404D02*
X142622047Y-105616452D01*
X142561571Y-105737404D02*
X142561571Y-105483404D01*
X142658333Y-105483404D01*
X142682523Y-105495500D01*
X142694619Y-105507595D01*
X142706714Y-105531785D01*
X142706714Y-105568071D01*
X142694619Y-105592261D01*
X142682523Y-105604357D01*
X142658333Y-105616452D01*
X142561571Y-105616452D01*
X142948619Y-105737404D02*
X142803476Y-105737404D01*
X142876047Y-105737404D02*
X142876047Y-105483404D01*
X142851857Y-105519690D01*
X142827666Y-105543880D01*
X142803476Y-105555976D01*
X143166333Y-105483404D02*
X143117952Y-105483404D01*
X143093761Y-105495500D01*
X143081666Y-105507595D01*
X143057476Y-105543880D01*
X143045380Y-105592261D01*
X143045380Y-105689023D01*
X143057476Y-105713214D01*
X143069571Y-105725309D01*
X143093761Y-105737404D01*
X143142142Y-105737404D01*
X143166333Y-105725309D01*
X143178428Y-105713214D01*
X143190523Y-105689023D01*
X143190523Y-105628547D01*
X143178428Y-105604357D01*
X143166333Y-105592261D01*
X143142142Y-105580166D01*
X143093761Y-105580166D01*
X143069571Y-105592261D01*
X143057476Y-105604357D01*
X143045380Y-105628547D01*
X142876714Y-100024904D02*
X142792047Y-99903952D01*
X142731571Y-100024904D02*
X142731571Y-99770904D01*
X142828333Y-99770904D01*
X142852523Y-99783000D01*
X142864619Y-99795095D01*
X142876714Y-99819285D01*
X142876714Y-99855571D01*
X142864619Y-99879761D01*
X142852523Y-99891857D01*
X142828333Y-99903952D01*
X142731571Y-99903952D01*
X143118619Y-100024904D02*
X142973476Y-100024904D01*
X143046047Y-100024904D02*
X143046047Y-99770904D01*
X143021857Y-99807190D01*
X142997666Y-99831380D01*
X142973476Y-99843476D01*
X143348428Y-99770904D02*
X143227476Y-99770904D01*
X143215380Y-99891857D01*
X143227476Y-99879761D01*
X143251666Y-99867666D01*
X143312142Y-99867666D01*
X143336333Y-99879761D01*
X143348428Y-99891857D01*
X143360523Y-99916047D01*
X143360523Y-99976523D01*
X143348428Y-100000714D01*
X143336333Y-100012809D01*
X143312142Y-100024904D01*
X143251666Y-100024904D01*
X143227476Y-100012809D01*
X143215380Y-100000714D01*
X151897666Y-108924904D02*
X151813000Y-108803952D01*
X151752523Y-108924904D02*
X151752523Y-108670904D01*
X151849285Y-108670904D01*
X151873476Y-108683000D01*
X151885571Y-108695095D01*
X151897666Y-108719285D01*
X151897666Y-108755571D01*
X151885571Y-108779761D01*
X151873476Y-108791857D01*
X151849285Y-108803952D01*
X151752523Y-108803952D01*
X152042809Y-108779761D02*
X152018619Y-108767666D01*
X152006523Y-108755571D01*
X151994428Y-108731380D01*
X151994428Y-108719285D01*
X152006523Y-108695095D01*
X152018619Y-108683000D01*
X152042809Y-108670904D01*
X152091190Y-108670904D01*
X152115380Y-108683000D01*
X152127476Y-108695095D01*
X152139571Y-108719285D01*
X152139571Y-108731380D01*
X152127476Y-108755571D01*
X152115380Y-108767666D01*
X152091190Y-108779761D01*
X152042809Y-108779761D01*
X152018619Y-108791857D01*
X152006523Y-108803952D01*
X151994428Y-108828142D01*
X151994428Y-108876523D01*
X152006523Y-108900714D01*
X152018619Y-108912809D01*
X152042809Y-108924904D01*
X152091190Y-108924904D01*
X152115380Y-108912809D01*
X152127476Y-108900714D01*
X152139571Y-108876523D01*
X152139571Y-108828142D01*
X152127476Y-108803952D01*
X152115380Y-108791857D01*
X152091190Y-108779761D01*
X141505333Y-134770904D02*
X141505333Y-134952333D01*
X141493238Y-134988619D01*
X141469047Y-135012809D01*
X141432761Y-135024904D01*
X141408571Y-135024904D01*
X141614190Y-134795095D02*
X141626285Y-134783000D01*
X141650476Y-134770904D01*
X141710952Y-134770904D01*
X141735142Y-134783000D01*
X141747238Y-134795095D01*
X141759333Y-134819285D01*
X141759333Y-134843476D01*
X141747238Y-134879761D01*
X141602095Y-135024904D01*
X141759333Y-135024904D01*
X146297666Y-126810714D02*
X146285571Y-126822809D01*
X146249285Y-126834904D01*
X146225095Y-126834904D01*
X146188809Y-126822809D01*
X146164619Y-126798619D01*
X146152523Y-126774428D01*
X146140428Y-126726047D01*
X146140428Y-126689761D01*
X146152523Y-126641380D01*
X146164619Y-126617190D01*
X146188809Y-126593000D01*
X146225095Y-126580904D01*
X146249285Y-126580904D01*
X146285571Y-126593000D01*
X146297666Y-126605095D01*
X146382333Y-126580904D02*
X146539571Y-126580904D01*
X146454904Y-126677666D01*
X146491190Y-126677666D01*
X146515380Y-126689761D01*
X146527476Y-126701857D01*
X146539571Y-126726047D01*
X146539571Y-126786523D01*
X146527476Y-126810714D01*
X146515380Y-126822809D01*
X146491190Y-126834904D01*
X146418619Y-126834904D01*
X146394428Y-126822809D01*
X146382333Y-126810714D01*
X146432523Y-135784904D02*
X146432523Y-135530904D01*
X146493000Y-135530904D01*
X146529285Y-135543000D01*
X146553476Y-135567190D01*
X146565571Y-135591380D01*
X146577666Y-135639761D01*
X146577666Y-135676047D01*
X146565571Y-135724428D01*
X146553476Y-135748619D01*
X146529285Y-135772809D01*
X146493000Y-135784904D01*
X146432523Y-135784904D01*
X146662333Y-135530904D02*
X146831666Y-135530904D01*
X146722809Y-135784904D01*
X146122523Y-103444904D02*
X146122523Y-103190904D01*
X146183000Y-103190904D01*
X146219285Y-103203000D01*
X146243476Y-103227190D01*
X146255571Y-103251380D01*
X146267666Y-103299761D01*
X146267666Y-103336047D01*
X146255571Y-103384428D01*
X146243476Y-103408619D01*
X146219285Y-103432809D01*
X146183000Y-103444904D01*
X146122523Y-103444904D01*
X146485380Y-103190904D02*
X146437000Y-103190904D01*
X146412809Y-103203000D01*
X146400714Y-103215095D01*
X146376523Y-103251380D01*
X146364428Y-103299761D01*
X146364428Y-103396523D01*
X146376523Y-103420714D01*
X146388619Y-103432809D01*
X146412809Y-103444904D01*
X146461190Y-103444904D01*
X146485380Y-103432809D01*
X146497476Y-103420714D01*
X146509571Y-103396523D01*
X146509571Y-103336047D01*
X146497476Y-103311857D01*
X146485380Y-103299761D01*
X146461190Y-103287666D01*
X146412809Y-103287666D01*
X146388619Y-103299761D01*
X146376523Y-103311857D01*
X146364428Y-103336047D01*
X147912523Y-103454904D02*
X147912523Y-103200904D01*
X147973000Y-103200904D01*
X148009285Y-103213000D01*
X148033476Y-103237190D01*
X148045571Y-103261380D01*
X148057666Y-103309761D01*
X148057666Y-103346047D01*
X148045571Y-103394428D01*
X148033476Y-103418619D01*
X148009285Y-103442809D01*
X147973000Y-103454904D01*
X147912523Y-103454904D01*
X148287476Y-103200904D02*
X148166523Y-103200904D01*
X148154428Y-103321857D01*
X148166523Y-103309761D01*
X148190714Y-103297666D01*
X148251190Y-103297666D01*
X148275380Y-103309761D01*
X148287476Y-103321857D01*
X148299571Y-103346047D01*
X148299571Y-103406523D01*
X148287476Y-103430714D01*
X148275380Y-103442809D01*
X148251190Y-103454904D01*
X148190714Y-103454904D01*
X148166523Y-103442809D01*
X148154428Y-103430714D01*
D14*
X153240521Y-114593849D02*
X153579188Y-115101849D01*
X153579188Y-114593849D02*
X153240521Y-115101849D01*
X153748521Y-114642230D02*
X153772712Y-114618040D01*
X153821093Y-114593849D01*
X153942045Y-114593849D01*
X153990426Y-114618040D01*
X154014617Y-114642230D01*
X154038807Y-114690611D01*
X154038807Y-114738992D01*
X154014617Y-114811563D01*
X153724331Y-115101849D01*
X154038807Y-115101849D01*
D19*
X149217666Y-127840714D02*
X149205571Y-127852809D01*
X149169285Y-127864904D01*
X149145095Y-127864904D01*
X149108809Y-127852809D01*
X149084619Y-127828619D01*
X149072523Y-127804428D01*
X149060428Y-127756047D01*
X149060428Y-127719761D01*
X149072523Y-127671380D01*
X149084619Y-127647190D01*
X149108809Y-127623000D01*
X149145095Y-127610904D01*
X149169285Y-127610904D01*
X149205571Y-127623000D01*
X149217666Y-127635095D01*
X149314428Y-127635095D02*
X149326523Y-127623000D01*
X149350714Y-127610904D01*
X149411190Y-127610904D01*
X149435380Y-127623000D01*
X149447476Y-127635095D01*
X149459571Y-127659285D01*
X149459571Y-127683476D01*
X149447476Y-127719761D01*
X149302333Y-127864904D01*
X149459571Y-127864904D01*
X154607666Y-103600714D02*
X154595571Y-103612809D01*
X154559285Y-103624904D01*
X154535095Y-103624904D01*
X154498809Y-103612809D01*
X154474619Y-103588619D01*
X154462523Y-103564428D01*
X154450428Y-103516047D01*
X154450428Y-103479761D01*
X154462523Y-103431380D01*
X154474619Y-103407190D01*
X154498809Y-103383000D01*
X154535095Y-103370904D01*
X154559285Y-103370904D01*
X154595571Y-103383000D01*
X154607666Y-103395095D01*
X154825380Y-103455571D02*
X154825380Y-103624904D01*
X154764904Y-103358809D02*
X154704428Y-103540238D01*
X154861666Y-103540238D01*
X144720866Y-111670714D02*
X144708771Y-111682809D01*
X144672485Y-111694904D01*
X144648295Y-111694904D01*
X144612009Y-111682809D01*
X144587819Y-111658619D01*
X144575723Y-111634428D01*
X144563628Y-111586047D01*
X144563628Y-111549761D01*
X144575723Y-111501380D01*
X144587819Y-111477190D01*
X144612009Y-111453000D01*
X144648295Y-111440904D01*
X144672485Y-111440904D01*
X144708771Y-111453000D01*
X144720866Y-111465095D01*
X144950676Y-111440904D02*
X144829723Y-111440904D01*
X144817628Y-111561857D01*
X144829723Y-111549761D01*
X144853914Y-111537666D01*
X144914390Y-111537666D01*
X144938580Y-111549761D01*
X144950676Y-111561857D01*
X144962771Y-111586047D01*
X144962771Y-111646523D01*
X144950676Y-111670714D01*
X144938580Y-111682809D01*
X144914390Y-111694904D01*
X144853914Y-111694904D01*
X144829723Y-111682809D01*
X144817628Y-111670714D01*
X152281666Y-101680714D02*
X152269571Y-101692809D01*
X152233285Y-101704904D01*
X152209095Y-101704904D01*
X152172809Y-101692809D01*
X152148619Y-101668619D01*
X152136523Y-101644428D01*
X152124428Y-101596047D01*
X152124428Y-101559761D01*
X152136523Y-101511380D01*
X152148619Y-101487190D01*
X152172809Y-101463000D01*
X152209095Y-101450904D01*
X152233285Y-101450904D01*
X152269571Y-101463000D01*
X152281666Y-101475095D01*
X152402619Y-101704904D02*
X152451000Y-101704904D01*
X152475190Y-101692809D01*
X152487285Y-101680714D01*
X152511476Y-101644428D01*
X152523571Y-101596047D01*
X152523571Y-101499285D01*
X152511476Y-101475095D01*
X152499380Y-101463000D01*
X152475190Y-101450904D01*
X152426809Y-101450904D01*
X152402619Y-101463000D01*
X152390523Y-101475095D01*
X152378428Y-101499285D01*
X152378428Y-101559761D01*
X152390523Y-101583952D01*
X152402619Y-101596047D01*
X152426809Y-101608142D01*
X152475190Y-101608142D01*
X152499380Y-101596047D01*
X152511476Y-101583952D01*
X152523571Y-101559761D01*
X147756714Y-127590714D02*
X147744619Y-127602809D01*
X147708333Y-127614904D01*
X147684142Y-127614904D01*
X147647857Y-127602809D01*
X147623666Y-127578619D01*
X147611571Y-127554428D01*
X147599476Y-127506047D01*
X147599476Y-127469761D01*
X147611571Y-127421380D01*
X147623666Y-127397190D01*
X147647857Y-127373000D01*
X147684142Y-127360904D01*
X147708333Y-127360904D01*
X147744619Y-127373000D01*
X147756714Y-127385095D01*
X147998619Y-127614904D02*
X147853476Y-127614904D01*
X147926047Y-127614904D02*
X147926047Y-127360904D01*
X147901857Y-127397190D01*
X147877666Y-127421380D01*
X147853476Y-127433476D01*
X148240523Y-127614904D02*
X148095380Y-127614904D01*
X148167952Y-127614904D02*
X148167952Y-127360904D01*
X148143761Y-127397190D01*
X148119571Y-127421380D01*
X148095380Y-127433476D01*
X152028714Y-94298714D02*
X152016619Y-94310809D01*
X151980333Y-94322904D01*
X151956142Y-94322904D01*
X151919857Y-94310809D01*
X151895666Y-94286619D01*
X151883571Y-94262428D01*
X151871476Y-94214047D01*
X151871476Y-94177761D01*
X151883571Y-94129380D01*
X151895666Y-94105190D01*
X151919857Y-94081000D01*
X151956142Y-94068904D01*
X151980333Y-94068904D01*
X152016619Y-94081000D01*
X152028714Y-94093095D01*
X152270619Y-94322904D02*
X152125476Y-94322904D01*
X152198047Y-94322904D02*
X152198047Y-94068904D01*
X152173857Y-94105190D01*
X152149666Y-94129380D01*
X152125476Y-94141476D01*
X152415761Y-94177761D02*
X152391571Y-94165666D01*
X152379476Y-94153571D01*
X152367380Y-94129380D01*
X152367380Y-94117285D01*
X152379476Y-94093095D01*
X152391571Y-94081000D01*
X152415761Y-94068904D01*
X152464142Y-94068904D01*
X152488333Y-94081000D01*
X152500428Y-94093095D01*
X152512523Y-94117285D01*
X152512523Y-94129380D01*
X152500428Y-94153571D01*
X152488333Y-94165666D01*
X152464142Y-94177761D01*
X152415761Y-94177761D01*
X152391571Y-94189857D01*
X152379476Y-94201952D01*
X152367380Y-94226142D01*
X152367380Y-94274523D01*
X152379476Y-94298714D01*
X152391571Y-94310809D01*
X152415761Y-94322904D01*
X152464142Y-94322904D01*
X152488333Y-94310809D01*
X152500428Y-94298714D01*
X152512523Y-94274523D01*
X152512523Y-94226142D01*
X152500428Y-94201952D01*
X152488333Y-94189857D01*
X152464142Y-94177761D01*
X151800714Y-113701285D02*
X151812809Y-113713380D01*
X151824904Y-113749666D01*
X151824904Y-113773857D01*
X151812809Y-113810142D01*
X151788619Y-113834333D01*
X151764428Y-113846428D01*
X151716047Y-113858523D01*
X151679761Y-113858523D01*
X151631380Y-113846428D01*
X151607190Y-113834333D01*
X151583000Y-113810142D01*
X151570904Y-113773857D01*
X151570904Y-113749666D01*
X151583000Y-113713380D01*
X151595095Y-113701285D01*
X151595095Y-113604523D02*
X151583000Y-113592428D01*
X151570904Y-113568238D01*
X151570904Y-113507761D01*
X151583000Y-113483571D01*
X151595095Y-113471476D01*
X151619285Y-113459380D01*
X151643476Y-113459380D01*
X151679761Y-113471476D01*
X151824904Y-113616619D01*
X151824904Y-113459380D01*
X151570904Y-113229571D02*
X151570904Y-113350523D01*
X151691857Y-113362619D01*
X151679761Y-113350523D01*
X151667666Y-113326333D01*
X151667666Y-113265857D01*
X151679761Y-113241666D01*
X151691857Y-113229571D01*
X151716047Y-113217476D01*
X151776523Y-113217476D01*
X151800714Y-113229571D01*
X151812809Y-113241666D01*
X151824904Y-113265857D01*
X151824904Y-113326333D01*
X151812809Y-113350523D01*
X151800714Y-113362619D01*
X148380714Y-113193285D02*
X148392809Y-113205380D01*
X148404904Y-113241666D01*
X148404904Y-113265857D01*
X148392809Y-113302142D01*
X148368619Y-113326333D01*
X148344428Y-113338428D01*
X148296047Y-113350523D01*
X148259761Y-113350523D01*
X148211380Y-113338428D01*
X148187190Y-113326333D01*
X148163000Y-113302142D01*
X148150904Y-113265857D01*
X148150904Y-113241666D01*
X148163000Y-113205380D01*
X148175095Y-113193285D01*
X148175095Y-113096523D02*
X148163000Y-113084428D01*
X148150904Y-113060238D01*
X148150904Y-112999761D01*
X148163000Y-112975571D01*
X148175095Y-112963476D01*
X148199285Y-112951380D01*
X148223476Y-112951380D01*
X148259761Y-112963476D01*
X148404904Y-113108619D01*
X148404904Y-112951380D01*
X148150904Y-112733666D02*
X148150904Y-112782047D01*
X148163000Y-112806238D01*
X148175095Y-112818333D01*
X148211380Y-112842523D01*
X148259761Y-112854619D01*
X148356523Y-112854619D01*
X148380714Y-112842523D01*
X148392809Y-112830428D01*
X148404904Y-112806238D01*
X148404904Y-112757857D01*
X148392809Y-112733666D01*
X148380714Y-112721571D01*
X148356523Y-112709476D01*
X148296047Y-112709476D01*
X148271857Y-112721571D01*
X148259761Y-112733666D01*
X148247666Y-112757857D01*
X148247666Y-112806238D01*
X148259761Y-112830428D01*
X148271857Y-112842523D01*
X148296047Y-112854619D01*
D14*
X153584095Y-102109809D02*
X153584095Y-101601809D01*
X154116285Y-102061428D02*
X154092095Y-102085619D01*
X154019523Y-102109809D01*
X153971142Y-102109809D01*
X153898571Y-102085619D01*
X153850190Y-102037238D01*
X153826000Y-101988857D01*
X153801809Y-101892095D01*
X153801809Y-101819523D01*
X153826000Y-101722761D01*
X153850190Y-101674380D01*
X153898571Y-101626000D01*
X153971142Y-101601809D01*
X154019523Y-101601809D01*
X154092095Y-101626000D01*
X154116285Y-101650190D01*
X154285619Y-101601809D02*
X154600095Y-101601809D01*
X154430761Y-101795333D01*
X154503333Y-101795333D01*
X154551714Y-101819523D01*
X154575904Y-101843714D01*
X154600095Y-101892095D01*
X154600095Y-102013047D01*
X154575904Y-102061428D01*
X154551714Y-102085619D01*
X154503333Y-102109809D01*
X154358190Y-102109809D01*
X154309809Y-102085619D01*
X154285619Y-102061428D01*
D19*
X158844380Y-83850904D02*
X158844380Y-84032333D01*
X158832285Y-84068619D01*
X158808095Y-84092809D01*
X158771809Y-84104904D01*
X158747619Y-84104904D01*
X159098380Y-84104904D02*
X158953238Y-84104904D01*
X159025809Y-84104904D02*
X159025809Y-83850904D01*
X159001619Y-83887190D01*
X158977428Y-83911380D01*
X158953238Y-83923476D01*
X159340285Y-84104904D02*
X159195142Y-84104904D01*
X159267714Y-84104904D02*
X159267714Y-83850904D01*
X159243523Y-83887190D01*
X159219333Y-83911380D01*
X159195142Y-83923476D01*
X151972166Y-105674904D02*
X151887500Y-105553952D01*
X151827023Y-105674904D02*
X151827023Y-105420904D01*
X151923785Y-105420904D01*
X151947976Y-105433000D01*
X151960071Y-105445095D01*
X151972166Y-105469285D01*
X151972166Y-105505571D01*
X151960071Y-105529761D01*
X151947976Y-105541857D01*
X151923785Y-105553952D01*
X151827023Y-105553952D01*
X152214071Y-105674904D02*
X152068928Y-105674904D01*
X152141500Y-105674904D02*
X152141500Y-105420904D01*
X152117309Y-105457190D01*
X152093119Y-105481380D01*
X152068928Y-105493476D01*
X153817666Y-124714904D02*
X153733000Y-124593952D01*
X153672523Y-124714904D02*
X153672523Y-124460904D01*
X153769285Y-124460904D01*
X153793476Y-124473000D01*
X153805571Y-124485095D01*
X153817666Y-124509285D01*
X153817666Y-124545571D01*
X153805571Y-124569761D01*
X153793476Y-124581857D01*
X153769285Y-124593952D01*
X153672523Y-124593952D01*
X153902333Y-124460904D02*
X154059571Y-124460904D01*
X153974904Y-124557666D01*
X154011190Y-124557666D01*
X154035380Y-124569761D01*
X154047476Y-124581857D01*
X154059571Y-124606047D01*
X154059571Y-124666523D01*
X154047476Y-124690714D01*
X154035380Y-124702809D01*
X154011190Y-124714904D01*
X153938619Y-124714904D01*
X153914428Y-124702809D01*
X153902333Y-124690714D01*
X155630904Y-91014333D02*
X155509952Y-91099000D01*
X155630904Y-91159476D02*
X155376904Y-91159476D01*
X155376904Y-91062714D01*
X155389000Y-91038523D01*
X155401095Y-91026428D01*
X155425285Y-91014333D01*
X155461571Y-91014333D01*
X155485761Y-91026428D01*
X155497857Y-91038523D01*
X155509952Y-91062714D01*
X155509952Y-91159476D01*
X155461571Y-90796619D02*
X155630904Y-90796619D01*
X155364809Y-90857095D02*
X155546238Y-90917571D01*
X155546238Y-90760333D01*
X149667666Y-103284904D02*
X149583000Y-103163952D01*
X149522523Y-103284904D02*
X149522523Y-103030904D01*
X149619285Y-103030904D01*
X149643476Y-103043000D01*
X149655571Y-103055095D01*
X149667666Y-103079285D01*
X149667666Y-103115571D01*
X149655571Y-103139761D01*
X149643476Y-103151857D01*
X149619285Y-103163952D01*
X149522523Y-103163952D01*
X149885380Y-103030904D02*
X149837000Y-103030904D01*
X149812809Y-103043000D01*
X149800714Y-103055095D01*
X149776523Y-103091380D01*
X149764428Y-103139761D01*
X149764428Y-103236523D01*
X149776523Y-103260714D01*
X149788619Y-103272809D01*
X149812809Y-103284904D01*
X149861190Y-103284904D01*
X149885380Y-103272809D01*
X149897476Y-103260714D01*
X149909571Y-103236523D01*
X149909571Y-103176047D01*
X149897476Y-103151857D01*
X149885380Y-103139761D01*
X149861190Y-103127666D01*
X149812809Y-103127666D01*
X149788619Y-103139761D01*
X149776523Y-103151857D01*
X149764428Y-103176047D01*
X151020104Y-99813833D02*
X150899152Y-99898500D01*
X151020104Y-99958976D02*
X150766104Y-99958976D01*
X150766104Y-99862214D01*
X150778200Y-99838023D01*
X150790295Y-99825928D01*
X150814485Y-99813833D01*
X150850771Y-99813833D01*
X150874961Y-99825928D01*
X150887057Y-99838023D01*
X150899152Y-99862214D01*
X150899152Y-99958976D01*
X151020104Y-99692880D02*
X151020104Y-99644500D01*
X151008009Y-99620309D01*
X150995914Y-99608214D01*
X150959628Y-99584023D01*
X150911247Y-99571928D01*
X150814485Y-99571928D01*
X150790295Y-99584023D01*
X150778200Y-99596119D01*
X150766104Y-99620309D01*
X150766104Y-99668690D01*
X150778200Y-99692880D01*
X150790295Y-99704976D01*
X150814485Y-99717071D01*
X150874961Y-99717071D01*
X150899152Y-99704976D01*
X150911247Y-99692880D01*
X150923342Y-99668690D01*
X150923342Y-99620309D01*
X150911247Y-99596119D01*
X150899152Y-99584023D01*
X150874961Y-99571928D01*
X151759214Y-107264904D02*
X151674547Y-107143952D01*
X151614071Y-107264904D02*
X151614071Y-107010904D01*
X151710833Y-107010904D01*
X151735023Y-107023000D01*
X151747119Y-107035095D01*
X151759214Y-107059285D01*
X151759214Y-107095571D01*
X151747119Y-107119761D01*
X151735023Y-107131857D01*
X151710833Y-107143952D01*
X151614071Y-107143952D01*
X152001119Y-107264904D02*
X151855976Y-107264904D01*
X151928547Y-107264904D02*
X151928547Y-107010904D01*
X151904357Y-107047190D01*
X151880166Y-107071380D01*
X151855976Y-107083476D01*
X152158357Y-107010904D02*
X152182547Y-107010904D01*
X152206738Y-107023000D01*
X152218833Y-107035095D01*
X152230928Y-107059285D01*
X152243023Y-107107666D01*
X152243023Y-107168142D01*
X152230928Y-107216523D01*
X152218833Y-107240714D01*
X152206738Y-107252809D01*
X152182547Y-107264904D01*
X152158357Y-107264904D01*
X152134166Y-107252809D01*
X152122071Y-107240714D01*
X152109976Y-107216523D01*
X152097880Y-107168142D01*
X152097880Y-107107666D01*
X152109976Y-107059285D01*
X152122071Y-107035095D01*
X152134166Y-107023000D01*
X152158357Y-107010904D01*
X142584714Y-108318904D02*
X142500047Y-108197952D01*
X142439571Y-108318904D02*
X142439571Y-108064904D01*
X142536333Y-108064904D01*
X142560523Y-108077000D01*
X142572619Y-108089095D01*
X142584714Y-108113285D01*
X142584714Y-108149571D01*
X142572619Y-108173761D01*
X142560523Y-108185857D01*
X142536333Y-108197952D01*
X142439571Y-108197952D01*
X142826619Y-108318904D02*
X142681476Y-108318904D01*
X142754047Y-108318904D02*
X142754047Y-108064904D01*
X142729857Y-108101190D01*
X142705666Y-108125380D01*
X142681476Y-108137476D01*
X142923380Y-108089095D02*
X142935476Y-108077000D01*
X142959666Y-108064904D01*
X143020142Y-108064904D01*
X143044333Y-108077000D01*
X143056428Y-108089095D01*
X143068523Y-108113285D01*
X143068523Y-108137476D01*
X143056428Y-108173761D01*
X142911285Y-108318904D01*
X143068523Y-108318904D01*
X142852714Y-90344904D02*
X142768047Y-90223952D01*
X142707571Y-90344904D02*
X142707571Y-90090904D01*
X142804333Y-90090904D01*
X142828523Y-90103000D01*
X142840619Y-90115095D01*
X142852714Y-90139285D01*
X142852714Y-90175571D01*
X142840619Y-90199761D01*
X142828523Y-90211857D01*
X142804333Y-90223952D01*
X142707571Y-90223952D01*
X143094619Y-90344904D02*
X142949476Y-90344904D01*
X143022047Y-90344904D02*
X143022047Y-90090904D01*
X142997857Y-90127190D01*
X142973666Y-90151380D01*
X142949476Y-90163476D01*
X143179285Y-90090904D02*
X143348619Y-90090904D01*
X143239761Y-90344904D01*
X151696714Y-129424904D02*
X151612047Y-129303952D01*
X151551571Y-129424904D02*
X151551571Y-129170904D01*
X151648333Y-129170904D01*
X151672523Y-129183000D01*
X151684619Y-129195095D01*
X151696714Y-129219285D01*
X151696714Y-129255571D01*
X151684619Y-129279761D01*
X151672523Y-129291857D01*
X151648333Y-129303952D01*
X151551571Y-129303952D01*
X151938619Y-129424904D02*
X151793476Y-129424904D01*
X151866047Y-129424904D02*
X151866047Y-129170904D01*
X151841857Y-129207190D01*
X151817666Y-129231380D01*
X151793476Y-129243476D01*
X152083761Y-129279761D02*
X152059571Y-129267666D01*
X152047476Y-129255571D01*
X152035380Y-129231380D01*
X152035380Y-129219285D01*
X152047476Y-129195095D01*
X152059571Y-129183000D01*
X152083761Y-129170904D01*
X152132142Y-129170904D01*
X152156333Y-129183000D01*
X152168428Y-129195095D01*
X152180523Y-129219285D01*
X152180523Y-129231380D01*
X152168428Y-129255571D01*
X152156333Y-129267666D01*
X152132142Y-129279761D01*
X152083761Y-129279761D01*
X152059571Y-129291857D01*
X152047476Y-129303952D01*
X152035380Y-129328142D01*
X152035380Y-129376523D01*
X152047476Y-129400714D01*
X152059571Y-129412809D01*
X152083761Y-129424904D01*
X152132142Y-129424904D01*
X152156333Y-129412809D01*
X152168428Y-129400714D01*
X152180523Y-129376523D01*
X152180523Y-129328142D01*
X152168428Y-129303952D01*
X152156333Y-129291857D01*
X152132142Y-129279761D01*
X150426714Y-129444904D02*
X150342047Y-129323952D01*
X150281571Y-129444904D02*
X150281571Y-129190904D01*
X150378333Y-129190904D01*
X150402523Y-129203000D01*
X150414619Y-129215095D01*
X150426714Y-129239285D01*
X150426714Y-129275571D01*
X150414619Y-129299761D01*
X150402523Y-129311857D01*
X150378333Y-129323952D01*
X150281571Y-129323952D01*
X150668619Y-129444904D02*
X150523476Y-129444904D01*
X150596047Y-129444904D02*
X150596047Y-129190904D01*
X150571857Y-129227190D01*
X150547666Y-129251380D01*
X150523476Y-129263476D01*
X150789571Y-129444904D02*
X150837952Y-129444904D01*
X150862142Y-129432809D01*
X150874238Y-129420714D01*
X150898428Y-129384428D01*
X150910523Y-129336047D01*
X150910523Y-129239285D01*
X150898428Y-129215095D01*
X150886333Y-129203000D01*
X150862142Y-129190904D01*
X150813761Y-129190904D01*
X150789571Y-129203000D01*
X150777476Y-129215095D01*
X150765380Y-129239285D01*
X150765380Y-129299761D01*
X150777476Y-129323952D01*
X150789571Y-129336047D01*
X150813761Y-129348142D01*
X150862142Y-129348142D01*
X150886333Y-129336047D01*
X150898428Y-129323952D01*
X150910523Y-129299761D01*
X147403514Y-131842404D02*
X147318847Y-131721452D01*
X147258371Y-131842404D02*
X147258371Y-131588404D01*
X147355133Y-131588404D01*
X147379323Y-131600500D01*
X147391419Y-131612595D01*
X147403514Y-131636785D01*
X147403514Y-131673071D01*
X147391419Y-131697261D01*
X147379323Y-131709357D01*
X147355133Y-131721452D01*
X147258371Y-131721452D01*
X147500276Y-131612595D02*
X147512371Y-131600500D01*
X147536561Y-131588404D01*
X147597038Y-131588404D01*
X147621228Y-131600500D01*
X147633323Y-131612595D01*
X147645419Y-131636785D01*
X147645419Y-131660976D01*
X147633323Y-131697261D01*
X147488180Y-131842404D01*
X147645419Y-131842404D01*
X147802657Y-131588404D02*
X147826847Y-131588404D01*
X147851038Y-131600500D01*
X147863133Y-131612595D01*
X147875228Y-131636785D01*
X147887323Y-131685166D01*
X147887323Y-131745642D01*
X147875228Y-131794023D01*
X147863133Y-131818214D01*
X147851038Y-131830309D01*
X147826847Y-131842404D01*
X147802657Y-131842404D01*
X147778466Y-131830309D01*
X147766371Y-131818214D01*
X147754276Y-131794023D01*
X147742180Y-131745642D01*
X147742180Y-131685166D01*
X147754276Y-131636785D01*
X147766371Y-131612595D01*
X147778466Y-131600500D01*
X147802657Y-131588404D01*
X144963114Y-135671904D02*
X144878447Y-135550952D01*
X144817971Y-135671904D02*
X144817971Y-135417904D01*
X144914733Y-135417904D01*
X144938923Y-135430000D01*
X144951019Y-135442095D01*
X144963114Y-135466285D01*
X144963114Y-135502571D01*
X144951019Y-135526761D01*
X144938923Y-135538857D01*
X144914733Y-135550952D01*
X144817971Y-135550952D01*
X145059876Y-135442095D02*
X145071971Y-135430000D01*
X145096161Y-135417904D01*
X145156638Y-135417904D01*
X145180828Y-135430000D01*
X145192923Y-135442095D01*
X145205019Y-135466285D01*
X145205019Y-135490476D01*
X145192923Y-135526761D01*
X145047780Y-135671904D01*
X145205019Y-135671904D01*
X145446923Y-135671904D02*
X145301780Y-135671904D01*
X145374352Y-135671904D02*
X145374352Y-135417904D01*
X145350161Y-135454190D01*
X145325971Y-135478380D01*
X145301780Y-135490476D01*
D14*
X145684285Y-92755809D02*
X145514952Y-92513904D01*
X145394000Y-92755809D02*
X145394000Y-92247809D01*
X145587523Y-92247809D01*
X145635904Y-92272000D01*
X145660095Y-92296190D01*
X145684285Y-92344571D01*
X145684285Y-92417142D01*
X145660095Y-92465523D01*
X145635904Y-92489714D01*
X145587523Y-92513904D01*
X145394000Y-92513904D01*
X145902000Y-92489714D02*
X146071333Y-92489714D01*
X146143904Y-92755809D02*
X145902000Y-92755809D01*
X145902000Y-92247809D01*
X146143904Y-92247809D01*
X146337428Y-92731619D02*
X146410000Y-92755809D01*
X146530952Y-92755809D01*
X146579333Y-92731619D01*
X146603523Y-92707428D01*
X146627714Y-92659047D01*
X146627714Y-92610666D01*
X146603523Y-92562285D01*
X146579333Y-92538095D01*
X146530952Y-92513904D01*
X146434190Y-92489714D01*
X146385809Y-92465523D01*
X146361619Y-92441333D01*
X146337428Y-92392952D01*
X146337428Y-92344571D01*
X146361619Y-92296190D01*
X146385809Y-92272000D01*
X146434190Y-92247809D01*
X146555142Y-92247809D01*
X146627714Y-92272000D01*
X146845428Y-92489714D02*
X147014761Y-92489714D01*
X147087333Y-92755809D02*
X146845428Y-92755809D01*
X146845428Y-92247809D01*
X147087333Y-92247809D01*
X147232476Y-92247809D02*
X147522761Y-92247809D01*
X147377619Y-92755809D02*
X147377619Y-92247809D01*
X147958190Y-92755809D02*
X147667904Y-92755809D01*
X147813047Y-92755809D02*
X147813047Y-92247809D01*
X147764666Y-92320380D01*
X147716285Y-92368761D01*
X147667904Y-92392952D01*
X153252952Y-92171809D02*
X153252952Y-92583047D01*
X153277142Y-92631428D01*
X153301333Y-92655619D01*
X153349714Y-92679809D01*
X153446476Y-92679809D01*
X153494857Y-92655619D01*
X153519047Y-92631428D01*
X153543238Y-92583047D01*
X153543238Y-92171809D01*
X154051238Y-92679809D02*
X153760952Y-92679809D01*
X153906095Y-92679809D02*
X153906095Y-92171809D01*
X153857714Y-92244380D01*
X153809333Y-92292761D01*
X153760952Y-92316952D01*
D19*
X148092523Y-135764904D02*
X148092523Y-135510904D01*
X148153000Y-135510904D01*
X148189285Y-135523000D01*
X148213476Y-135547190D01*
X148225571Y-135571380D01*
X148237666Y-135619761D01*
X148237666Y-135656047D01*
X148225571Y-135704428D01*
X148213476Y-135728619D01*
X148189285Y-135752809D01*
X148153000Y-135764904D01*
X148092523Y-135764904D01*
X148479571Y-135764904D02*
X148334428Y-135764904D01*
X148407000Y-135764904D02*
X148407000Y-135510904D01*
X148382809Y-135547190D01*
X148358619Y-135571380D01*
X148334428Y-135583476D01*
X149742523Y-135804904D02*
X149742523Y-135550904D01*
X149803000Y-135550904D01*
X149839285Y-135563000D01*
X149863476Y-135587190D01*
X149875571Y-135611380D01*
X149887666Y-135659761D01*
X149887666Y-135696047D01*
X149875571Y-135744428D01*
X149863476Y-135768619D01*
X149839285Y-135792809D01*
X149803000Y-135804904D01*
X149742523Y-135804904D01*
X149984428Y-135575095D02*
X149996523Y-135563000D01*
X150020714Y-135550904D01*
X150081190Y-135550904D01*
X150105380Y-135563000D01*
X150117476Y-135575095D01*
X150129571Y-135599285D01*
X150129571Y-135623476D01*
X150117476Y-135659761D01*
X149972333Y-135804904D01*
X150129571Y-135804904D01*
X151492523Y-135794904D02*
X151492523Y-135540904D01*
X151553000Y-135540904D01*
X151589285Y-135553000D01*
X151613476Y-135577190D01*
X151625571Y-135601380D01*
X151637666Y-135649761D01*
X151637666Y-135686047D01*
X151625571Y-135734428D01*
X151613476Y-135758619D01*
X151589285Y-135782809D01*
X151553000Y-135794904D01*
X151492523Y-135794904D01*
X151722333Y-135540904D02*
X151879571Y-135540904D01*
X151794904Y-135637666D01*
X151831190Y-135637666D01*
X151855380Y-135649761D01*
X151867476Y-135661857D01*
X151879571Y-135686047D01*
X151879571Y-135746523D01*
X151867476Y-135770714D01*
X151855380Y-135782809D01*
X151831190Y-135794904D01*
X151758619Y-135794904D01*
X151734428Y-135782809D01*
X151722333Y-135770714D01*
X141752523Y-88504904D02*
X141752523Y-88250904D01*
X141813000Y-88250904D01*
X141849285Y-88263000D01*
X141873476Y-88287190D01*
X141885571Y-88311380D01*
X141897666Y-88359761D01*
X141897666Y-88396047D01*
X141885571Y-88444428D01*
X141873476Y-88468619D01*
X141849285Y-88492809D01*
X141813000Y-88504904D01*
X141752523Y-88504904D01*
X142115380Y-88335571D02*
X142115380Y-88504904D01*
X142054904Y-88238809D02*
X141994428Y-88420238D01*
X142151666Y-88420238D01*
M02*
